G04*
G04 #@! TF.GenerationSoftware,Altium Limited,Altium Designer,20.1.7 (139)*
G04*
G04 Layer_Color=128*
%FSLAX25Y25*%
%MOIN*%
G70*
G04*
G04 #@! TF.SameCoordinates,7DBC59B2-3259-4A27-AFE3-8E853ADB3477*
G04*
G04*
G04 #@! TF.FilePolarity,Positive*
G04*
G01*
G75*
%ADD10C,0.00200*%
D10*
X390158Y4921D02*
G03*
X393701Y8465I0J3543D01*
G01*
X28126Y4921D02*
G03*
X22185Y2461I0J-8401D01*
G01*
X16245Y0D02*
G03*
X22185Y2461I0J8401D01*
G01*
X393701Y40748D02*
G03*
X390158Y44291I-3543J0D01*
G01*
X89375Y46752D02*
G03*
X95315Y44291I5940J5940D01*
G01*
X89375Y46752D02*
G03*
X83434Y49213I-5940J-5940D01*
G01*
X28126Y4921D02*
X390158Y4921D01*
X0Y0D02*
X16245D01*
X0D02*
Y49213D01*
X393701Y8465D02*
Y40748D01*
X95315Y44291D02*
X390158Y44291D01*
X0Y49213D02*
X83434D01*
X356306Y37606D02*
X359506D01*
X357906Y36006D02*
Y39206D01*
X83500Y10106D02*
X86500D01*
X85000Y8606D02*
Y11606D01*
X344495Y37606D02*
X347694D01*
X346094Y36006D02*
Y39206D01*
X88500Y10106D02*
X91500D01*
X90000Y8606D02*
Y11606D01*
X93500Y10106D02*
X96500D01*
X95000Y8606D02*
Y11606D01*
X98500Y10106D02*
X101500D01*
X100000Y8606D02*
Y11606D01*
X78500Y10106D02*
X81500D01*
X80000Y8606D02*
Y11606D01*
X73500Y10106D02*
X76500D01*
X75000Y8606D02*
Y11606D01*
X58100Y43106D02*
X60900D01*
X59500Y41706D02*
Y44506D01*
X50100Y43106D02*
X52900D01*
X51500Y41706D02*
Y44506D01*
X371100Y34106D02*
X374300D01*
X372700Y32506D02*
Y35706D01*
X371100Y15106D02*
X374300D01*
X372700Y13506D02*
Y16706D01*
X382150Y9106D02*
X385850D01*
X384000Y7256D02*
Y10956D01*
X382150Y40106D02*
X385850D01*
X384000Y38256D02*
Y41956D01*
X365200Y19573D02*
X366400D01*
X365800Y18973D02*
Y20173D01*
X347893Y26613D02*
X349093D01*
X348493Y26013D02*
Y27213D01*
X332100Y37606D02*
X333300D01*
X332700Y37006D02*
Y38206D01*
X328400Y28606D02*
X329600D01*
X329000Y28006D02*
Y29206D01*
X312400Y41106D02*
X313600D01*
X313000Y40506D02*
Y41706D01*
X350100Y24606D02*
X351300D01*
X350700Y24006D02*
Y25206D01*
X361400Y7606D02*
X362600D01*
X362000Y7006D02*
Y8206D01*
X355400Y7606D02*
X356600D01*
X356000Y7006D02*
Y8206D01*
X332900Y17106D02*
X334100D01*
X333500Y16506D02*
Y17706D01*
X329400Y12606D02*
X330600D01*
X330000Y12006D02*
Y13206D01*
X346900Y7606D02*
X348100D01*
X347500Y7006D02*
Y8206D01*
X83900Y45606D02*
X85100D01*
X84500Y45006D02*
Y46206D01*
X93400Y41575D02*
X94600D01*
X94000Y40975D02*
Y42175D01*
X88900Y37106D02*
X90100D01*
X89500Y36506D02*
Y37706D01*
X78900Y45606D02*
X80100D01*
X79500Y45006D02*
Y46206D01*
X73900Y45606D02*
X75100D01*
X74500Y45006D02*
Y46206D01*
X41679Y40669D02*
X42880D01*
X42279Y40069D02*
Y41269D01*
X34002Y37669D02*
X35202D01*
X34602Y37069D02*
Y38269D01*
X67100Y29106D02*
X68300D01*
X67700Y28506D02*
Y29706D01*
X9400Y34606D02*
X10600D01*
X10000Y34006D02*
Y35206D01*
X46798Y32106D02*
X47998D01*
X47398Y31506D02*
Y32706D01*
X77431Y26106D02*
X78632D01*
X78031Y25506D02*
Y26706D01*
X61900Y26106D02*
X63100D01*
X62500Y25506D02*
Y26706D01*
X56900Y26106D02*
X58100D01*
X57500Y25506D02*
Y26706D01*
X51900Y26106D02*
X53100D01*
X52500Y25506D02*
Y26706D01*
X74400Y18106D02*
X75600D01*
X75000Y17506D02*
Y18706D01*
X69900Y7106D02*
X71100D01*
X70500Y6506D02*
Y7706D01*
X82400Y29106D02*
X83600D01*
X83000Y28506D02*
Y29706D01*
X81368Y32206D02*
X82569D01*
X81968Y31606D02*
Y32806D01*
X107800Y16761D02*
X109000D01*
X108400Y16161D02*
Y17361D01*
X70800Y33106D02*
X72000D01*
X71400Y32506D02*
Y33706D01*
X72400Y35106D02*
X73600D01*
X73000Y34506D02*
Y35706D01*
X85400Y23106D02*
X86600D01*
X86000Y22506D02*
Y23706D01*
X87900Y31075D02*
X89100D01*
X88500Y30475D02*
Y31675D01*
X58400Y21106D02*
X59600D01*
X59000Y20506D02*
Y21706D01*
X63400Y21106D02*
X64600D01*
X64000Y20506D02*
Y21706D01*
X79400Y15106D02*
X80600D01*
X80000Y14506D02*
Y15706D01*
X75463Y20606D02*
X76663D01*
X76063Y20006D02*
Y21206D01*
X16400Y11106D02*
X17600D01*
X17000Y10506D02*
Y11706D01*
X16400Y8106D02*
X17600D01*
X17000Y7506D02*
Y8706D01*
X48025Y46106D02*
X49225D01*
X48625Y45506D02*
Y46706D01*
X57034Y35669D02*
X58234D01*
X57634Y35069D02*
Y36269D01*
X59593Y32106D02*
X60793D01*
X60193Y31506D02*
Y32706D01*
X50400Y46106D02*
X51600D01*
X51000Y45506D02*
Y46706D01*
X33900Y43606D02*
X35100D01*
X34500Y43006D02*
Y44206D01*
X26325Y37606D02*
X27525D01*
X26925Y37006D02*
Y38206D01*
X21207Y37606D02*
X22407D01*
X21807Y37006D02*
Y38206D01*
X44239Y37606D02*
X45439D01*
X44839Y37006D02*
Y38206D01*
X20400Y43606D02*
X21600D01*
X21000Y43006D02*
Y44206D01*
X39121Y37606D02*
X40321D01*
X39720Y37006D02*
Y38206D01*
X24900Y43606D02*
X26100D01*
X25500Y43006D02*
Y44206D01*
X87900Y27138D02*
X89100D01*
X88500Y26538D02*
Y27738D01*
X342900Y28106D02*
X344100D01*
X343500Y27506D02*
Y28706D01*
X342900Y30606D02*
X344100D01*
X343500Y30006D02*
Y31206D01*
X342900Y33106D02*
X344100D01*
X343500Y32506D02*
Y33706D01*
X89400Y39606D02*
X90600D01*
X90000Y39006D02*
Y40206D01*
X97900Y31075D02*
X99100D01*
X98500Y30475D02*
Y31675D01*
X91850Y15156D02*
X93050D01*
X92450Y14556D02*
Y15756D01*
X73900Y39606D02*
X75100D01*
X74500Y39006D02*
Y40206D01*
X338900Y9106D02*
X340100D01*
X339500Y8506D02*
Y9706D01*
X322400Y14706D02*
X323600D01*
X323000Y14106D02*
Y15306D01*
X358700Y11206D02*
X359900D01*
X359300Y10606D02*
Y11806D01*
X359100Y14506D02*
X360300D01*
X359700Y13906D02*
Y15106D01*
X335900Y10206D02*
X337100D01*
X336500Y9606D02*
Y10806D01*
X375400Y19606D02*
X376600D01*
X376000Y19006D02*
Y20206D01*
X372900Y19606D02*
X374100D01*
X373500Y19006D02*
Y20206D01*
X370400Y19606D02*
X371600D01*
X371000Y19006D02*
Y20206D01*
X360400Y32606D02*
X361600D01*
X361000Y32006D02*
Y33206D01*
X361600Y17606D02*
X362800D01*
X362200Y17006D02*
Y18206D01*
X354700Y13606D02*
X355900D01*
X355300Y13006D02*
Y14206D01*
X354700Y16106D02*
X355900D01*
X355300Y15506D02*
Y16706D01*
X360400Y30106D02*
X361600D01*
X361000Y29506D02*
Y30706D01*
X360400Y27606D02*
X361600D01*
X361000Y27006D02*
Y28206D01*
M02*
