G04*
G04 #@! TF.GenerationSoftware,Altium Limited,Altium Designer,20.1.7 (139)*
G04*
G04 Layer_Physical_Order=1*
G04 Layer_Color=255*
%FSLAX25Y25*%
%MOIN*%
G70*
G04*
G04 #@! TF.SameCoordinates,AE6903BA-CC81-4101-B740-E620CA86DFFE*
G04*
G04*
G04 #@! TF.FilePolarity,Positive*
G04*
G01*
G75*
%ADD10C,0.00600*%
%ADD11C,0.01000*%
%ADD12C,0.02000*%
%ADD13C,0.00800*%
G04:AMPARAMS|DCode=14|XSize=20mil|YSize=25mil|CornerRadius=5mil|HoleSize=0mil|Usage=FLASHONLY|Rotation=90.000|XOffset=0mil|YOffset=0mil|HoleType=Round|Shape=RoundedRectangle|*
%AMROUNDEDRECTD14*
21,1,0.02000,0.01500,0,0,90.0*
21,1,0.01000,0.02500,0,0,90.0*
1,1,0.01000,0.00750,0.00500*
1,1,0.01000,0.00750,-0.00500*
1,1,0.01000,-0.00750,-0.00500*
1,1,0.01000,-0.00750,0.00500*
%
%ADD14ROUNDEDRECTD14*%
G04:AMPARAMS|DCode=15|XSize=50mil|YSize=30mil|CornerRadius=7.5mil|HoleSize=0mil|Usage=FLASHONLY|Rotation=180.000|XOffset=0mil|YOffset=0mil|HoleType=Round|Shape=RoundedRectangle|*
%AMROUNDEDRECTD15*
21,1,0.05000,0.01500,0,0,180.0*
21,1,0.03500,0.03000,0,0,180.0*
1,1,0.01500,-0.01750,0.00750*
1,1,0.01500,0.01750,0.00750*
1,1,0.01500,0.01750,-0.00750*
1,1,0.01500,-0.01750,-0.00750*
%
%ADD15ROUNDEDRECTD15*%
G04:AMPARAMS|DCode=16|XSize=30mil|YSize=22mil|CornerRadius=5.5mil|HoleSize=0mil|Usage=FLASHONLY|Rotation=270.000|XOffset=0mil|YOffset=0mil|HoleType=Round|Shape=RoundedRectangle|*
%AMROUNDEDRECTD16*
21,1,0.03000,0.01100,0,0,270.0*
21,1,0.01900,0.02200,0,0,270.0*
1,1,0.01100,-0.00550,-0.00950*
1,1,0.01100,-0.00550,0.00950*
1,1,0.01100,0.00550,0.00950*
1,1,0.01100,0.00550,-0.00950*
%
%ADD16ROUNDEDRECTD16*%
G04:AMPARAMS|DCode=17|XSize=60mil|YSize=16mil|CornerRadius=4mil|HoleSize=0mil|Usage=FLASHONLY|Rotation=270.000|XOffset=0mil|YOffset=0mil|HoleType=Round|Shape=RoundedRectangle|*
%AMROUNDEDRECTD17*
21,1,0.06000,0.00800,0,0,270.0*
21,1,0.05200,0.01600,0,0,270.0*
1,1,0.00800,-0.00400,-0.02600*
1,1,0.00800,-0.00400,0.02600*
1,1,0.00800,0.00400,0.02600*
1,1,0.00800,0.00400,-0.02600*
%
%ADD17ROUNDEDRECTD17*%
G04:AMPARAMS|DCode=18|XSize=24mil|YSize=30mil|CornerRadius=6mil|HoleSize=0mil|Usage=FLASHONLY|Rotation=90.000|XOffset=0mil|YOffset=0mil|HoleType=Round|Shape=RoundedRectangle|*
%AMROUNDEDRECTD18*
21,1,0.02400,0.01800,0,0,90.0*
21,1,0.01200,0.03000,0,0,90.0*
1,1,0.01200,0.00900,0.00600*
1,1,0.01200,0.00900,-0.00600*
1,1,0.01200,-0.00900,-0.00600*
1,1,0.01200,-0.00900,0.00600*
%
%ADD18ROUNDEDRECTD18*%
G04:AMPARAMS|DCode=19|XSize=8mil|YSize=24mil|CornerRadius=2mil|HoleSize=0mil|Usage=FLASHONLY|Rotation=90.000|XOffset=0mil|YOffset=0mil|HoleType=Round|Shape=RoundedRectangle|*
%AMROUNDEDRECTD19*
21,1,0.00800,0.02000,0,0,90.0*
21,1,0.00400,0.02400,0,0,90.0*
1,1,0.00400,0.01000,0.00200*
1,1,0.00400,0.01000,-0.00200*
1,1,0.00400,-0.01000,-0.00200*
1,1,0.00400,-0.01000,0.00200*
%
%ADD19ROUNDEDRECTD19*%
G04:AMPARAMS|DCode=20|XSize=12mil|YSize=64mil|CornerRadius=3mil|HoleSize=0mil|Usage=FLASHONLY|Rotation=270.000|XOffset=0mil|YOffset=0mil|HoleType=Round|Shape=RoundedRectangle|*
%AMROUNDEDRECTD20*
21,1,0.01200,0.05800,0,0,270.0*
21,1,0.00600,0.06400,0,0,270.0*
1,1,0.00600,-0.02900,-0.00300*
1,1,0.00600,-0.02900,0.00300*
1,1,0.00600,0.02900,0.00300*
1,1,0.00600,0.02900,-0.00300*
%
%ADD20ROUNDEDRECTD20*%
G04:AMPARAMS|DCode=21|XSize=20mil|YSize=20mil|CornerRadius=5mil|HoleSize=0mil|Usage=FLASHONLY|Rotation=90.000|XOffset=0mil|YOffset=0mil|HoleType=Round|Shape=RoundedRectangle|*
%AMROUNDEDRECTD21*
21,1,0.02000,0.01000,0,0,90.0*
21,1,0.01000,0.02000,0,0,90.0*
1,1,0.01000,0.00500,0.00500*
1,1,0.01000,0.00500,-0.00500*
1,1,0.01000,-0.00500,-0.00500*
1,1,0.01000,-0.00500,0.00500*
%
%ADD21ROUNDEDRECTD21*%
G04:AMPARAMS|DCode=22|XSize=30mil|YSize=22mil|CornerRadius=5.5mil|HoleSize=0mil|Usage=FLASHONLY|Rotation=180.000|XOffset=0mil|YOffset=0mil|HoleType=Round|Shape=RoundedRectangle|*
%AMROUNDEDRECTD22*
21,1,0.03000,0.01100,0,0,180.0*
21,1,0.01900,0.02200,0,0,180.0*
1,1,0.01100,-0.00950,0.00550*
1,1,0.01100,0.00950,0.00550*
1,1,0.01100,0.00950,-0.00550*
1,1,0.01100,-0.00950,-0.00550*
%
%ADD22ROUNDEDRECTD22*%
G04:AMPARAMS|DCode=23|XSize=24mil|YSize=30mil|CornerRadius=6mil|HoleSize=0mil|Usage=FLASHONLY|Rotation=0.000|XOffset=0mil|YOffset=0mil|HoleType=Round|Shape=RoundedRectangle|*
%AMROUNDEDRECTD23*
21,1,0.02400,0.01800,0,0,0.0*
21,1,0.01200,0.03000,0,0,0.0*
1,1,0.01200,0.00600,-0.00900*
1,1,0.01200,-0.00600,-0.00900*
1,1,0.01200,-0.00600,0.00900*
1,1,0.01200,0.00600,0.00900*
%
%ADD23ROUNDEDRECTD23*%
G04:AMPARAMS|DCode=24|XSize=50mil|YSize=120mil|CornerRadius=12.5mil|HoleSize=0mil|Usage=FLASHONLY|Rotation=270.000|XOffset=0mil|YOffset=0mil|HoleType=Round|Shape=RoundedRectangle|*
%AMROUNDEDRECTD24*
21,1,0.05000,0.09500,0,0,270.0*
21,1,0.02500,0.12000,0,0,270.0*
1,1,0.02500,-0.04750,-0.01250*
1,1,0.02500,-0.04750,0.01250*
1,1,0.02500,0.04750,0.01250*
1,1,0.02500,0.04750,-0.01250*
%
%ADD24ROUNDEDRECTD24*%
G04:AMPARAMS|DCode=25|XSize=10mil|YSize=30mil|CornerRadius=2.5mil|HoleSize=0mil|Usage=FLASHONLY|Rotation=0.000|XOffset=0mil|YOffset=0mil|HoleType=Round|Shape=RoundedRectangle|*
%AMROUNDEDRECTD25*
21,1,0.01000,0.02500,0,0,0.0*
21,1,0.00500,0.03000,0,0,0.0*
1,1,0.00500,0.00250,-0.01250*
1,1,0.00500,-0.00250,-0.01250*
1,1,0.00500,-0.00250,0.01250*
1,1,0.00500,0.00250,0.01250*
%
%ADD25ROUNDEDRECTD25*%
G04:AMPARAMS|DCode=26|XSize=10mil|YSize=20mil|CornerRadius=2.5mil|HoleSize=0mil|Usage=FLASHONLY|Rotation=0.000|XOffset=0mil|YOffset=0mil|HoleType=Round|Shape=RoundedRectangle|*
%AMROUNDEDRECTD26*
21,1,0.01000,0.01500,0,0,0.0*
21,1,0.00500,0.02000,0,0,0.0*
1,1,0.00500,0.00250,-0.00750*
1,1,0.00500,-0.00250,-0.00750*
1,1,0.00500,-0.00250,0.00750*
1,1,0.00500,0.00250,0.00750*
%
%ADD26ROUNDEDRECTD26*%
G04:AMPARAMS|DCode=27|XSize=10mil|YSize=30mil|CornerRadius=2.5mil|HoleSize=0mil|Usage=FLASHONLY|Rotation=270.000|XOffset=0mil|YOffset=0mil|HoleType=Round|Shape=RoundedRectangle|*
%AMROUNDEDRECTD27*
21,1,0.01000,0.02500,0,0,270.0*
21,1,0.00500,0.03000,0,0,270.0*
1,1,0.00500,-0.01250,-0.00250*
1,1,0.00500,-0.01250,0.00250*
1,1,0.00500,0.01250,0.00250*
1,1,0.00500,0.01250,-0.00250*
%
%ADD27ROUNDEDRECTD27*%
G04:AMPARAMS|DCode=28|XSize=10mil|YSize=20mil|CornerRadius=2.5mil|HoleSize=0mil|Usage=FLASHONLY|Rotation=270.000|XOffset=0mil|YOffset=0mil|HoleType=Round|Shape=RoundedRectangle|*
%AMROUNDEDRECTD28*
21,1,0.01000,0.01500,0,0,270.0*
21,1,0.00500,0.02000,0,0,270.0*
1,1,0.00500,-0.00750,-0.00250*
1,1,0.00500,-0.00750,0.00250*
1,1,0.00500,0.00750,0.00250*
1,1,0.00500,0.00750,-0.00250*
%
%ADD28ROUNDEDRECTD28*%
G04:AMPARAMS|DCode=29|XSize=42mil|YSize=30mil|CornerRadius=7.5mil|HoleSize=0mil|Usage=FLASHONLY|Rotation=180.000|XOffset=0mil|YOffset=0mil|HoleType=Round|Shape=RoundedRectangle|*
%AMROUNDEDRECTD29*
21,1,0.04200,0.01500,0,0,180.0*
21,1,0.02700,0.03000,0,0,180.0*
1,1,0.01500,-0.01350,0.00750*
1,1,0.01500,0.01350,0.00750*
1,1,0.01500,0.01350,-0.00750*
1,1,0.01500,-0.01350,-0.00750*
%
%ADD29ROUNDEDRECTD29*%
G04:AMPARAMS|DCode=30|XSize=35mil|YSize=30mil|CornerRadius=7.5mil|HoleSize=0mil|Usage=FLASHONLY|Rotation=180.000|XOffset=0mil|YOffset=0mil|HoleType=Round|Shape=RoundedRectangle|*
%AMROUNDEDRECTD30*
21,1,0.03500,0.01500,0,0,180.0*
21,1,0.02000,0.03000,0,0,180.0*
1,1,0.01500,-0.01000,0.00750*
1,1,0.01500,0.01000,0.00750*
1,1,0.01500,0.01000,-0.00750*
1,1,0.01500,-0.01000,-0.00750*
%
%ADD30ROUNDEDRECTD30*%
%ADD31C,0.02800*%
%ADD32C,0.05000*%
%ADD33C,0.04000*%
%ADD34C,0.02000*%
%ADD35O,0.05000X0.05400*%
G04:AMPARAMS|DCode=36|XSize=90mil|YSize=68mil|CornerRadius=27.2mil|HoleSize=0mil|Usage=FLASHONLY|Rotation=0.000|XOffset=0mil|YOffset=0mil|HoleType=Round|Shape=RoundedRectangle|*
%AMROUNDEDRECTD36*
21,1,0.09000,0.01360,0,0,0.0*
21,1,0.03560,0.06800,0,0,0.0*
1,1,0.05440,0.01780,-0.00680*
1,1,0.05440,-0.01780,-0.00680*
1,1,0.05440,-0.01780,0.00680*
1,1,0.05440,0.01780,0.00680*
%
%ADD36ROUNDEDRECTD36*%
G36*
X83786Y44906D02*
X83707Y44982D01*
X83627Y45050D01*
X83546Y45110D01*
X83463Y45162D01*
X83380Y45206D01*
X83295Y45242D01*
X83210Y45270D01*
X83123Y45290D01*
X83035Y45302D01*
X83023Y45303D01*
Y45009D01*
X83017Y45065D01*
X82998Y45116D01*
X82967Y45160D01*
X82924Y45199D01*
X82868Y45232D01*
X82799Y45259D01*
X82718Y45279D01*
X82625Y45294D01*
X82520Y45303D01*
X82402Y45306D01*
Y45906D01*
X82520Y45909D01*
X82625Y45918D01*
X82718Y45933D01*
X82799Y45954D01*
X82868Y45981D01*
X82924Y46014D01*
X82967Y46052D01*
X82998Y46097D01*
X83017Y46147D01*
X83023Y46204D01*
Y45910D01*
X83035Y45910D01*
X83123Y45922D01*
X83210Y45942D01*
X83295Y45970D01*
X83380Y46006D01*
X83463Y46050D01*
X83546Y46102D01*
X83627Y46162D01*
X83707Y46230D01*
X83786Y46306D01*
Y44906D01*
D02*
G37*
G36*
X78786D02*
X78707Y44982D01*
X78627Y45050D01*
X78546Y45110D01*
X78463Y45162D01*
X78380Y45206D01*
X78295Y45242D01*
X78210Y45270D01*
X78123Y45290D01*
X78035Y45302D01*
X78023Y45303D01*
Y45009D01*
X78017Y45065D01*
X77998Y45116D01*
X77967Y45160D01*
X77924Y45199D01*
X77868Y45232D01*
X77799Y45259D01*
X77719Y45279D01*
X77625Y45294D01*
X77520Y45303D01*
X77402Y45306D01*
Y45906D01*
X77520Y45909D01*
X77625Y45918D01*
X77719Y45933D01*
X77799Y45954D01*
X77868Y45981D01*
X77924Y46014D01*
X77967Y46052D01*
X77998Y46097D01*
X78017Y46147D01*
X78023Y46204D01*
Y45910D01*
X78035Y45910D01*
X78123Y45922D01*
X78210Y45942D01*
X78295Y45970D01*
X78380Y46006D01*
X78463Y46050D01*
X78546Y46102D01*
X78627Y46162D01*
X78707Y46230D01*
X78786Y46306D01*
Y44906D01*
D02*
G37*
G36*
X3923Y48397D02*
X4104Y47797D01*
X3628Y47479D01*
X3131Y46734D01*
X2956Y45856D01*
Y43356D01*
X3131Y42478D01*
X3628Y41734D01*
X4372Y41237D01*
X5250Y41062D01*
X14750D01*
X15628Y41237D01*
X16372Y41734D01*
X16870Y42478D01*
X17044Y43356D01*
Y44116D01*
X17287Y44153D01*
X17475Y44167D01*
X18461D01*
X18470Y44156D01*
Y43056D01*
X18590Y42452D01*
X18933Y41939D01*
X19445Y41596D01*
X20050Y41476D01*
X21950D01*
X22555Y41596D01*
X23067Y41939D01*
X23433D01*
X23945Y41596D01*
X24550Y41476D01*
X26450D01*
X27055Y41596D01*
X27567Y41939D01*
X27933D01*
X28445Y41596D01*
X29050Y41476D01*
X30950D01*
X31229Y41531D01*
X32539Y41567D01*
X32739D01*
X33067Y41560D01*
X33125Y41555D01*
X33173Y41549D01*
X33180Y41550D01*
X33550Y41476D01*
X35450D01*
X35729Y41531D01*
X37039Y41567D01*
X37239D01*
X37567Y41560D01*
X37625Y41555D01*
X37673Y41549D01*
X37679Y41550D01*
X38050Y41476D01*
X39950D01*
X40229Y41531D01*
X41539Y41567D01*
X41739D01*
X42067Y41560D01*
X42125Y41555D01*
X42173Y41549D01*
X42180Y41550D01*
X42550Y41476D01*
X44450D01*
X44958Y41577D01*
X45286Y41365D01*
X45487Y41163D01*
X45466Y41056D01*
Y40132D01*
X45314Y39919D01*
X44866Y39654D01*
X44450Y39737D01*
X42550D01*
X41945Y39616D01*
X41432Y39274D01*
X41067D01*
X40555Y39616D01*
X39950Y39737D01*
X38050D01*
X37445Y39616D01*
X36933Y39274D01*
X36568D01*
X36055Y39616D01*
X35450Y39737D01*
X35000D01*
Y38714D01*
X35043Y38699D01*
X35100Y38693D01*
X35000D01*
Y38677D01*
X35008Y38666D01*
X35072Y38592D01*
X35145Y38520D01*
X35226Y38451D01*
X35000Y38428D01*
Y37606D01*
Y36955D01*
X35302D01*
X35226Y36876D01*
X35158Y36796D01*
X35098Y36715D01*
X35046Y36633D01*
X35002Y36549D01*
X35000Y36544D01*
Y36520D01*
X35202D01*
X35145Y36514D01*
X35094Y36495D01*
X35049Y36465D01*
X35010Y36422D01*
X35000Y36405D01*
Y35476D01*
X35450D01*
X36055Y35596D01*
X36568Y35939D01*
X36933D01*
X37445Y35596D01*
X38050Y35476D01*
X39950D01*
X40555Y35596D01*
X41067Y35939D01*
X41432D01*
X41945Y35596D01*
X42550Y35476D01*
X44450D01*
X45055Y35596D01*
X45084Y35616D01*
X45619Y35722D01*
X46281Y36164D01*
X46723Y36826D01*
X46807Y37249D01*
X47184Y37694D01*
X47457Y37772D01*
X49250D01*
X49933Y37908D01*
X50512Y38295D01*
X50898Y38873D01*
X51034Y39556D01*
Y40279D01*
X51498Y40660D01*
X51500Y40659D01*
X52436Y40846D01*
X53230Y41376D01*
X53761Y42170D01*
X53947Y43106D01*
X53761Y44043D01*
X53230Y44837D01*
X52765Y45148D01*
X52884Y45326D01*
X53039Y46106D01*
X52884Y46887D01*
X52442Y47548D01*
X52070Y47797D01*
X52252Y48397D01*
X60142Y48397D01*
X60264Y48229D01*
X60407Y47797D01*
X60101Y47339D01*
X59966Y46656D01*
Y45934D01*
X59502Y45553D01*
X59500Y45553D01*
X58564Y45367D01*
X57770Y44837D01*
X57239Y44043D01*
X57053Y43106D01*
X57239Y42170D01*
X57770Y41376D01*
X58564Y40846D01*
X59500Y40659D01*
X59502Y40660D01*
X59966Y40279D01*
Y39556D01*
X60101Y38873D01*
X60488Y38295D01*
X61067Y37908D01*
X61750Y37772D01*
X63750D01*
X64433Y37908D01*
X64816Y38164D01*
X65023Y38289D01*
X65564Y38041D01*
X65632Y37939D01*
X66005Y37690D01*
X66047Y37520D01*
Y37193D01*
X66005Y37023D01*
X65632Y36774D01*
X65290Y36261D01*
X65170Y35656D01*
Y34556D01*
X65290Y33952D01*
X65632Y33439D01*
X66145Y33096D01*
X66750Y32976D01*
X68650D01*
X68775Y33001D01*
X69467Y32572D01*
X69516Y32326D01*
X69763Y31957D01*
X69569Y31258D01*
X69255Y31116D01*
X68650Y31237D01*
X68200D01*
Y29106D01*
Y26976D01*
X68650D01*
X68674Y26956D01*
Y26228D01*
X68675Y26228D01*
X68576Y25732D01*
X68295Y25311D01*
X67874Y25030D01*
X67379Y24932D01*
X67378Y24932D01*
X65518D01*
X65026Y25532D01*
X65030Y25556D01*
Y25606D01*
X62500D01*
Y26106D01*
X62000D01*
Y26820D01*
X61800D01*
X61876Y26899D01*
X61944Y26980D01*
X62000Y27055D01*
Y27193D01*
X61900D01*
X61957Y27199D01*
X62000Y27214D01*
Y28237D01*
X61550D01*
X60945Y28116D01*
X60432Y27774D01*
X60361Y27667D01*
X59639D01*
X59567Y27774D01*
X59055Y28116D01*
X58450Y28237D01*
X58000D01*
Y26106D01*
X57000D01*
Y28237D01*
X56550D01*
X55945Y28116D01*
X55432Y27774D01*
X55361Y27667D01*
X54639D01*
X54567Y27774D01*
X54055Y28116D01*
X53450Y28237D01*
X53000D01*
Y27214D01*
X53043Y27199D01*
X53100Y27193D01*
X53000D01*
Y27055D01*
X53056Y26980D01*
X53124Y26899D01*
X53200Y26820D01*
X53000D01*
Y26106D01*
X52000D01*
Y26820D01*
X51800D01*
X51876Y26899D01*
X51944Y26980D01*
X52000Y27055D01*
Y27193D01*
X51900D01*
X51957Y27199D01*
X52000Y27214D01*
Y28237D01*
X51550D01*
X50945Y28116D01*
X50432Y27774D01*
X50361Y27667D01*
X49639D01*
X49567Y27774D01*
X49055Y28116D01*
X48450Y28237D01*
X46550D01*
X45945Y28116D01*
X45674Y27935D01*
X45655Y27929D01*
X45625Y27902D01*
X45432Y27774D01*
X45370Y27681D01*
X45355Y27668D01*
X45332Y27660D01*
X45280Y27648D01*
X45207Y27637D01*
X45191Y27636D01*
X42515D01*
X42510Y27661D01*
X42167Y28174D01*
X41655Y28516D01*
X41050Y28637D01*
X39950D01*
X39345Y28516D01*
X38833Y28174D01*
X38490Y27661D01*
X38370Y27056D01*
Y25156D01*
X38490Y24552D01*
X38833Y24039D01*
X38940Y23967D01*
Y23246D01*
X38833Y23174D01*
X38490Y22661D01*
X38370Y22056D01*
Y20156D01*
X38490Y19552D01*
X38833Y19039D01*
X38942Y18244D01*
X38860Y18138D01*
X38800D01*
X38176Y18013D01*
X37646Y17660D01*
X37293Y17131D01*
X37169Y16506D01*
Y15306D01*
X37293Y14682D01*
X37646Y14153D01*
X38176Y13799D01*
X38800Y13675D01*
X40600D01*
X41224Y13799D01*
X41754Y14153D01*
X42189Y13782D01*
X42191Y13777D01*
X41893Y13331D01*
X41769Y12706D01*
Y12022D01*
X41611Y11869D01*
X40287Y10775D01*
X40113Y10641D01*
X39975Y10550D01*
X39954Y10538D01*
X39671D01*
X39665Y10542D01*
X39427Y10742D01*
X36658Y13511D01*
X36656Y13513D01*
X36654Y13515D01*
X36652Y13517D01*
X36319Y13979D01*
X36172Y14199D01*
X36019Y14968D01*
X36029Y15018D01*
X36029Y15024D01*
X36029Y15026D01*
X36029Y15027D01*
Y18797D01*
X36031Y18813D01*
X36042Y18886D01*
X36054Y18938D01*
X36061Y18962D01*
X36074Y18977D01*
X36167Y19039D01*
X36296Y19231D01*
X36323Y19262D01*
X36329Y19280D01*
X36510Y19552D01*
X36630Y20156D01*
Y22056D01*
X36510Y22661D01*
X36167Y23174D01*
X36060Y23246D01*
Y23967D01*
X36167Y24039D01*
X36510Y24552D01*
X36630Y25156D01*
Y27056D01*
X36510Y27661D01*
X36167Y28174D01*
X35655Y28516D01*
X35050Y28637D01*
X33950D01*
X33345Y28516D01*
X32872Y28200D01*
X32696Y28125D01*
X32304D01*
X32128Y28200D01*
X31655Y28516D01*
X31050Y28637D01*
X29950D01*
X29345Y28516D01*
X28833Y28174D01*
X28490Y27661D01*
X28370Y27056D01*
Y25156D01*
X28490Y24552D01*
X28671Y24280D01*
X28677Y24261D01*
X28704Y24231D01*
X28833Y24039D01*
X28926Y23977D01*
X28939Y23962D01*
X28946Y23938D01*
X28958Y23886D01*
X28969Y23813D01*
X28971Y23797D01*
Y23415D01*
X28969Y23400D01*
X28958Y23326D01*
X28946Y23274D01*
X28939Y23251D01*
X28926Y23236D01*
X28833Y23174D01*
X28704Y22982D01*
X28677Y22951D01*
X28671Y22932D01*
X28490Y22661D01*
X28370Y22056D01*
Y20156D01*
X28490Y19552D01*
X28833Y19039D01*
X29345Y18696D01*
X29950Y18576D01*
X31050D01*
X31655Y18696D01*
X32148Y19026D01*
X32202Y19050D01*
X32809Y19039D01*
X32872Y19013D01*
X32926Y18977D01*
X32939Y18962D01*
X32946Y18938D01*
X32958Y18886D01*
X32969Y18813D01*
X32971Y18797D01*
Y15614D01*
X32956Y15021D01*
X32956Y15021D01*
X33030Y14451D01*
X33116Y13798D01*
X32662Y13546D01*
X32578Y13523D01*
X32353Y13860D01*
X31824Y14213D01*
X31200Y14338D01*
X29400D01*
X28776Y14213D01*
X28247Y13860D01*
X27893Y13331D01*
X27769Y12706D01*
Y12100D01*
X27618Y11961D01*
X24923Y9870D01*
X24739Y9738D01*
X24593Y9647D01*
X24573Y9636D01*
X23750D01*
X23165Y9519D01*
X22669Y9188D01*
X22337Y8692D01*
X22221Y8106D01*
Y7106D01*
X22337Y6521D01*
X22669Y6025D01*
X23165Y5693D01*
X23750Y5577D01*
X24444D01*
X24563Y4977D01*
X23853Y4683D01*
X23786Y4638D01*
X23712Y4607D01*
X22343Y3692D01*
X22300Y3650D01*
X22248Y3619D01*
X21637Y3065D01*
X21625Y3049D01*
X21608Y3037D01*
X21080Y2509D01*
X19838Y1679D01*
X18457Y1107D01*
X16992Y816D01*
X16078D01*
X15895Y1416D01*
X16372Y1734D01*
X16870Y2478D01*
X17044Y3356D01*
Y5856D01*
X17540Y6174D01*
X17780Y6222D01*
X18442Y6664D01*
X18884Y7326D01*
X19039Y8106D01*
X18884Y8887D01*
X18722Y9130D01*
X18472Y9606D01*
X18722Y10083D01*
X18884Y10326D01*
X19039Y11106D01*
X18884Y11887D01*
X18442Y12548D01*
X17780Y12990D01*
X17542Y13038D01*
X17044Y13356D01*
Y15856D01*
X16870Y16734D01*
X16372Y17479D01*
X15628Y17976D01*
X14750Y18150D01*
X5250D01*
X4372Y17976D01*
X3628Y17479D01*
X3131Y16734D01*
X2956Y15856D01*
Y13356D01*
X3131Y12478D01*
X3628Y11734D01*
X4372Y11237D01*
X5250Y11062D01*
X14750D01*
X15068Y10566D01*
X15116Y10326D01*
X15278Y10083D01*
X15528Y9606D01*
X15278Y9130D01*
X15116Y8887D01*
X15069Y8649D01*
X14750Y8150D01*
X5250D01*
X4372Y7976D01*
X3628Y7479D01*
X3131Y6734D01*
X2956Y5856D01*
Y3356D01*
X3131Y2478D01*
X3628Y1734D01*
X4104Y1416D01*
X3923Y816D01*
X816D01*
Y48397D01*
X3923D01*
D02*
G37*
G36*
X80293Y46230D02*
X80373Y46162D01*
X80454Y46102D01*
X80537Y46050D01*
X80620Y46006D01*
X80705Y45970D01*
X80790Y45942D01*
X80877Y45922D01*
X80965Y45910D01*
X80977Y45910D01*
Y46204D01*
X80983Y46147D01*
X81002Y46097D01*
X81033Y46052D01*
X81076Y46014D01*
X81132Y45981D01*
X81201Y45954D01*
X81282Y45933D01*
X81375Y45918D01*
X81480Y45909D01*
X81599Y45906D01*
Y45306D01*
X81480Y45303D01*
X81375Y45294D01*
X81282Y45279D01*
X81201Y45259D01*
X81132Y45232D01*
X81076Y45199D01*
X81033Y45160D01*
X81002Y45116D01*
X80983Y45065D01*
X80977Y45009D01*
Y45303D01*
X80965Y45302D01*
X80877Y45290D01*
X80790Y45270D01*
X80705Y45242D01*
X80620Y45206D01*
X80537Y45162D01*
X80454Y45110D01*
X80373Y45050D01*
X80293Y44982D01*
X80214Y44906D01*
Y46306D01*
X80293Y46230D01*
D02*
G37*
G36*
X75293D02*
X75373Y46162D01*
X75454Y46102D01*
X75537Y46050D01*
X75620Y46006D01*
X75705Y45970D01*
X75790Y45942D01*
X75877Y45922D01*
X75965Y45910D01*
X75977Y45910D01*
Y46204D01*
X75983Y46147D01*
X76002Y46097D01*
X76033Y46052D01*
X76076Y46014D01*
X76132Y45981D01*
X76201Y45954D01*
X76281Y45933D01*
X76375Y45918D01*
X76480Y45909D01*
X76599Y45906D01*
Y45306D01*
X76480Y45303D01*
X76375Y45294D01*
X76281Y45279D01*
X76201Y45259D01*
X76132Y45232D01*
X76076Y45199D01*
X76033Y45160D01*
X76002Y45116D01*
X75983Y45065D01*
X75977Y45009D01*
Y45303D01*
X75965Y45302D01*
X75877Y45290D01*
X75790Y45270D01*
X75705Y45242D01*
X75620Y45206D01*
X75537Y45162D01*
X75454Y45110D01*
X75373Y45050D01*
X75293Y44982D01*
X75214Y44906D01*
Y46306D01*
X75293Y46230D01*
D02*
G37*
G36*
X42340Y42549D02*
X42304Y42560D01*
X42230Y42570D01*
X42117Y42579D01*
X41627Y42590D01*
X40160Y42549D01*
Y44663D01*
X40196Y44652D01*
X40271Y44643D01*
X40383Y44634D01*
X40873Y44623D01*
X42340Y44663D01*
Y42549D01*
D02*
G37*
G36*
X37840D02*
X37804Y42560D01*
X37729Y42570D01*
X37617Y42579D01*
X37127Y42590D01*
X35660Y42549D01*
Y44663D01*
X35696Y44652D01*
X35770Y44643D01*
X35883Y44634D01*
X36373Y44623D01*
X37840Y44663D01*
Y42549D01*
D02*
G37*
G36*
X33340D02*
X33304Y42560D01*
X33230Y42570D01*
X33117Y42579D01*
X32627Y42590D01*
X31160Y42549D01*
Y44663D01*
X31196Y44652D01*
X31271Y44643D01*
X31383Y44634D01*
X31873Y44623D01*
X33340Y44663D01*
Y42549D01*
D02*
G37*
G36*
X17999Y45206D02*
X17559Y45196D01*
X17172Y45166D01*
X16838Y45116D01*
X16557Y45046D01*
X16330Y44956D01*
X16155Y44846D01*
X16033Y44716D01*
X15965Y44566D01*
X15949Y44396D01*
X15987Y44206D01*
X15073Y47062D01*
X15039Y47090D01*
X15077Y47114D01*
X15186Y47136D01*
X15366Y47155D01*
X15940Y47183D01*
X17945Y47206D01*
X17999Y45206D01*
D02*
G37*
G36*
X68142Y44515D02*
X68112Y44500D01*
X68086Y44476D01*
X68063Y44442D01*
X68044Y44398D01*
X68028Y44344D01*
X68016Y44281D01*
X68007Y44208D01*
X68002Y44125D01*
X68000Y44032D01*
X67400D01*
X67398Y44125D01*
X67384Y44281D01*
X67372Y44344D01*
X67356Y44398D01*
X67337Y44442D01*
X67314Y44476D01*
X67287Y44500D01*
X67258Y44515D01*
X67224Y44520D01*
X68176D01*
X68142Y44515D01*
D02*
G37*
G36*
X49250Y44404D02*
X49181Y44393D01*
X49066Y44359D01*
X48698Y44226D01*
X46498Y43290D01*
X46473Y43311D01*
X44838Y42668D01*
X44450Y44705D01*
X44486Y44709D01*
X44554Y44730D01*
X44656Y44766D01*
X45305Y45042D01*
X45993Y45423D01*
X46279Y45626D01*
X46494Y45820D01*
X46639Y46004D01*
X46712Y46179D01*
X46716Y46345D01*
X46648Y46501D01*
X46510Y46648D01*
X49250Y44404D01*
D02*
G37*
G36*
X321970Y40413D02*
X321958Y40507D01*
X321923Y40591D01*
X321865Y40665D01*
X321783Y40729D01*
X321678Y40783D01*
X321549Y40827D01*
X321397Y40862D01*
X321221Y40887D01*
X321023Y40901D01*
X320959Y40903D01*
X320900Y40901D01*
X320724Y40886D01*
X320568Y40861D01*
X320435Y40826D01*
X320323Y40781D01*
X320232Y40726D01*
X320164Y40661D01*
X320116Y40586D01*
X320091Y40501D01*
X320087Y40406D01*
X319953Y42400D01*
X319971Y42306D01*
X320010Y42222D01*
X320070Y42148D01*
X320152Y42084D01*
X320256Y42030D01*
X320381Y41985D01*
X320528Y41951D01*
X320697Y41926D01*
X320887Y41911D01*
X320953Y41910D01*
X321023Y41911D01*
X321397Y41951D01*
X321549Y41985D01*
X321678Y42030D01*
X321783Y42084D01*
X321865Y42148D01*
X321923Y42222D01*
X321958Y42306D01*
X321970Y42400D01*
Y40413D01*
D02*
G37*
G36*
X84802Y41107D02*
X84818Y40943D01*
X84832Y40877D01*
X84850Y40821D01*
X84872Y40775D01*
X84898Y40739D01*
X84928Y40713D01*
X84961Y40698D01*
X84999Y40693D01*
X84001D01*
X84039Y40698D01*
X84072Y40713D01*
X84102Y40739D01*
X84128Y40775D01*
X84150Y40821D01*
X84168Y40877D01*
X84182Y40943D01*
X84192Y41020D01*
X84198Y41107D01*
X84200Y41204D01*
X84800D01*
X84802Y41107D01*
D02*
G37*
G36*
X331380Y40399D02*
X331371Y40444D01*
X331347Y40475D01*
X331306Y40493D01*
X331248Y40497D01*
X331175Y40487D01*
X331084Y40463D01*
X330978Y40426D01*
X330855Y40374D01*
X330561Y40230D01*
X330272Y41571D01*
X330430Y41656D01*
X330840Y41913D01*
X330956Y41999D01*
X331155Y42171D01*
X331240Y42257D01*
X331313Y42344D01*
X331376Y42430D01*
X331380Y40399D01*
D02*
G37*
G36*
X347516Y39726D02*
X348219Y39022D01*
X348600Y38103D01*
X348600Y37606D01*
X348600Y37606D01*
X348604Y37269D01*
X348429Y36616D01*
X348084Y36036D01*
X347595Y35570D01*
X347297Y35412D01*
Y35412D01*
X347063Y35275D01*
X346663Y34914D01*
X346376Y34457D01*
X346222Y33940D01*
X346200Y33670D01*
Y28106D01*
X346200Y27907D01*
X346048Y27540D01*
X345766Y27259D01*
X345399Y27106D01*
X345200Y27106D01*
X345200D01*
X342600Y27106D01*
X342520Y27106D01*
X342373Y27167D01*
X342261Y27280D01*
X342200Y27427D01*
X342200Y27506D01*
Y27506D01*
X342200Y36206D01*
X342200Y36590D01*
X342350Y37344D01*
X342644Y38054D01*
X343071Y38692D01*
X343614Y39235D01*
X344252Y39662D01*
X344962Y39956D01*
X345716Y40106D01*
X346100Y40106D01*
X346100D01*
X346597Y40106D01*
X347516Y39726D01*
D02*
G37*
G36*
X75931Y39845D02*
X75904Y39754D01*
X75905Y39649D01*
X75935Y39529D01*
X75993Y39395D01*
X76079Y39246D01*
X76193Y39083D01*
X76336Y38906D01*
X76706Y38508D01*
X75999Y37801D01*
X75792Y38000D01*
X75423Y38313D01*
X75260Y38428D01*
X75112Y38514D01*
X74977Y38572D01*
X74858Y38601D01*
X74752Y38602D01*
X74661Y38575D01*
X74584Y38520D01*
X74885Y38821D01*
X75462Y39880D01*
X75476Y39841D01*
X75496Y39799D01*
X75524Y39752D01*
X75559Y39700D01*
X75649Y39585D01*
X75986Y39922D01*
X75931Y39845D01*
D02*
G37*
G36*
X309719Y39678D02*
X309652Y39651D01*
X309593Y39607D01*
X309542Y39546D01*
X309498Y39467D01*
X309463Y39370D01*
X309435Y39256D01*
X309416Y39124D01*
X309404Y38975D01*
X309400Y38808D01*
X308600D01*
X308596Y38975D01*
X308584Y39124D01*
X308565Y39256D01*
X308537Y39370D01*
X308502Y39467D01*
X308458Y39546D01*
X308407Y39607D01*
X308348Y39651D01*
X308281Y39678D01*
X308207Y39686D01*
X309793D01*
X309719Y39678D01*
D02*
G37*
G36*
X316813Y43476D02*
X317133Y42876D01*
X316990Y42661D01*
X316870Y42056D01*
Y40156D01*
X316990Y39551D01*
X317223Y39202D01*
X317087Y38680D01*
X316996Y38545D01*
X316865Y38519D01*
X316369Y38188D01*
X316037Y37692D01*
X315921Y37106D01*
Y36106D01*
X316037Y35521D01*
X316369Y35025D01*
X316865Y34693D01*
X317450Y34577D01*
X318950D01*
X319535Y34693D01*
X319779Y34856D01*
X319791Y34860D01*
X320184Y34946D01*
X320556Y34753D01*
X320783Y34477D01*
X320769Y34406D01*
Y33206D01*
X320893Y32582D01*
X320894Y32581D01*
X320961Y31426D01*
Y30367D01*
X320953Y30040D01*
X320949Y29981D01*
X320943Y29933D01*
X320943Y29927D01*
X320870Y29556D01*
Y28986D01*
X320270Y28831D01*
X320031Y29188D01*
X319729Y29390D01*
Y30406D01*
X319724Y30433D01*
X319618Y31242D01*
X319295Y32020D01*
X318782Y32689D01*
X318114Y33202D01*
X317335Y33524D01*
X316527Y33630D01*
X316500Y33636D01*
X314950D01*
X314901Y33639D01*
X314754Y33860D01*
X314224Y34214D01*
X313600Y34338D01*
X311800D01*
X311176Y34214D01*
X310647Y33860D01*
X310293Y33331D01*
X310169Y32706D01*
Y31506D01*
X310293Y30882D01*
X310647Y30353D01*
X311176Y29999D01*
X311800Y29875D01*
X313600D01*
X314224Y29999D01*
X314754Y30353D01*
X314897Y30568D01*
X314985Y30577D01*
X316500D01*
Y30569D01*
X316615Y30521D01*
X316662Y30406D01*
X316671D01*
Y29390D01*
X316369Y29188D01*
X316037Y28692D01*
X315921Y28106D01*
Y27106D01*
X316037Y26521D01*
X316369Y26025D01*
X316671Y25823D01*
Y24806D01*
X316672Y24802D01*
X316583Y24358D01*
X316329Y23977D01*
X315949Y23723D01*
X315505Y23635D01*
X315500Y23636D01*
X312334D01*
X312012Y24118D01*
X311433Y24505D01*
X310750Y24641D01*
X307250D01*
X306567Y24505D01*
X305988Y24118D01*
X305602Y23539D01*
X305466Y22856D01*
Y21356D01*
X305602Y20674D01*
X305988Y20095D01*
X306567Y19708D01*
X307250Y19572D01*
X310750D01*
X311433Y19708D01*
X312012Y20095D01*
X312334Y20577D01*
X315500D01*
Y20570D01*
X316596Y20714D01*
X317618Y21138D01*
X318495Y21811D01*
X319169Y22688D01*
X319592Y23710D01*
X319736Y24806D01*
X319729D01*
Y25823D01*
X320031Y26025D01*
X320349Y26500D01*
X320398Y26509D01*
X320952Y26389D01*
X320961Y26067D01*
Y14706D01*
X320980Y14608D01*
X320802Y13711D01*
X320238Y12868D01*
X319395Y12304D01*
X318498Y12126D01*
X318400Y12145D01*
X300919D01*
X300688Y12684D01*
X300693Y12745D01*
X301354Y13253D01*
X301883Y13942D01*
X302215Y14745D01*
X302328Y15606D01*
X302326D01*
Y26014D01*
X302400Y26075D01*
X302800D01*
Y27097D01*
X302757Y27113D01*
X302700Y27119D01*
X302800D01*
Y28306D01*
Y30538D01*
X302400D01*
X302326Y30599D01*
Y33614D01*
X302400Y33675D01*
X304200D01*
X304824Y33799D01*
X305353Y34153D01*
X305571Y34479D01*
X306875D01*
Y34476D01*
X307795Y34597D01*
X308653Y34952D01*
X309389Y35517D01*
X309954Y36254D01*
X310309Y37111D01*
X310430Y38032D01*
X310427D01*
Y38878D01*
X310667Y39039D01*
X310700Y39088D01*
X311196D01*
X311372Y39013D01*
X311845Y38696D01*
X312450Y38576D01*
X312500D01*
Y39608D01*
X312459Y39623D01*
X312402Y39630D01*
X312500D01*
Y40157D01*
X312444Y40233D01*
X312376Y40313D01*
X312300Y40392D01*
X312500D01*
Y41106D01*
X313000D01*
Y41606D01*
X315130D01*
Y42056D01*
X315010Y42661D01*
X314867Y42876D01*
X315187Y43476D01*
X316813D01*
D02*
G37*
G36*
X361993Y43476D02*
X362429Y42876D01*
X362366Y42556D01*
Y41056D01*
X362502Y40374D01*
X362888Y39795D01*
X363467Y39408D01*
X364150Y39272D01*
X366850D01*
X367533Y39408D01*
X368112Y39795D01*
X368498Y40374D01*
X368634Y41056D01*
Y42556D01*
X368571Y42876D01*
X369007Y43476D01*
X379410D01*
X379614Y42876D01*
X379567Y42839D01*
X378971Y42062D01*
X378596Y41157D01*
X378468Y40186D01*
Y38826D01*
X378596Y37855D01*
X378971Y36950D01*
X379567Y36173D01*
X380344Y35577D01*
X381249Y35202D01*
X382220Y35074D01*
X385780D01*
X386751Y35202D01*
X387656Y35577D01*
X388433Y36173D01*
X389029Y36950D01*
X389404Y37855D01*
X389532Y38826D01*
Y40186D01*
X389404Y41157D01*
X389029Y42062D01*
X388433Y42839D01*
X388386Y42876D01*
X388590Y43476D01*
X390426D01*
X390953Y43371D01*
X391449Y43165D01*
X391896Y42867D01*
X392276Y42487D01*
X392575Y42040D01*
X392780Y41544D01*
X392885Y41017D01*
Y40748D01*
X392885Y8465D01*
Y8196D01*
X392780Y7669D01*
X392575Y7173D01*
X392276Y6726D01*
X391896Y6346D01*
X391449Y6047D01*
X390953Y5842D01*
X390426Y5737D01*
X390157Y5737D01*
X388590D01*
X388386Y6337D01*
X388433Y6373D01*
X389029Y7150D01*
X389404Y8055D01*
X389532Y9026D01*
Y10386D01*
X389404Y11357D01*
X389029Y12262D01*
X388433Y13039D01*
X387656Y13636D01*
X386751Y14011D01*
X385780Y14138D01*
X382220D01*
X381249Y14011D01*
X380344Y13636D01*
X379795Y13215D01*
X379284Y13478D01*
X379225Y13534D01*
Y26206D01*
X379247D01*
X379061Y27143D01*
X378530Y27937D01*
X377736Y28467D01*
X377519Y28510D01*
X377179Y29190D01*
X377186Y29224D01*
X376158D01*
X376116Y29208D01*
X376061Y29182D01*
X376012Y29153D01*
X376019Y29224D01*
X373000D01*
X369892D01*
Y29217D01*
X369886Y29224D01*
X368814D01*
X368875Y28917D01*
X369163Y28487D01*
Y28403D01*
X368875Y27973D01*
X368775Y27465D01*
Y26865D01*
X368857Y26453D01*
X368807Y26232D01*
X368553Y25761D01*
X367987Y25527D01*
X367360Y25046D01*
X366880Y24419D01*
X366577Y23689D01*
X366474Y22906D01*
X366475D01*
Y21951D01*
X366011Y21571D01*
X365800Y21612D01*
X365020Y21457D01*
X364358Y21015D01*
X363916Y20354D01*
X363781Y19677D01*
X363448Y19449D01*
X363194Y19348D01*
X362980Y19490D01*
X362200Y19646D01*
X361486Y19503D01*
X361420Y19490D01*
X361096Y19991D01*
X361168Y20039D01*
X361510Y20551D01*
X361630Y21156D01*
Y21606D01*
X360608D01*
X360593Y21563D01*
X360587Y21506D01*
Y21606D01*
X360000D01*
Y20629D01*
X360098D01*
X360041Y20623D01*
X360000Y20608D01*
Y19576D01*
X360050D01*
X360589Y19683D01*
X360655Y19696D01*
X360978Y19195D01*
X360924Y19159D01*
X360758Y19048D01*
X360316Y18387D01*
X360161Y17606D01*
X360274Y17038D01*
X359914Y16585D01*
X359811Y16523D01*
X359700Y16545D01*
X359119Y16430D01*
X359043Y16434D01*
X358807Y16528D01*
X358637Y16638D01*
X358453Y16800D01*
X358442Y16854D01*
X358442Y16854D01*
X358442Y16854D01*
X358320Y17148D01*
X358320Y17149D01*
X358320Y17149D01*
X358201Y17327D01*
X358100Y17479D01*
X358100Y17480D01*
X358100Y17480D01*
X357875Y17705D01*
X357874Y17705D01*
X357874Y17705D01*
X357701Y17821D01*
X357544Y17926D01*
X357544Y17926D01*
X357544Y17926D01*
X357250Y18048D01*
X357250Y18048D01*
X357250Y18048D01*
X357038Y18090D01*
X356860Y18126D01*
X356860Y18126D01*
X356859Y18126D01*
X356700Y18126D01*
X356700Y18126D01*
X356700Y18126D01*
X355398Y18126D01*
X355300Y18146D01*
X355202Y18126D01*
X355101Y18126D01*
X355101Y18126D01*
X355101Y18126D01*
X355038Y18113D01*
X355014Y18128D01*
X354790Y18359D01*
X354654Y18649D01*
X354693Y18732D01*
X354973Y19255D01*
X355025Y19425D01*
X355157Y19704D01*
X355163Y19725D01*
X355175Y19743D01*
X355338Y20125D01*
X355344Y20154D01*
X355359Y20179D01*
X355405Y20305D01*
X355412Y20352D01*
X355433Y20395D01*
X355450Y20461D01*
X355510Y20551D01*
X355630Y21156D01*
Y23056D01*
X355620Y23110D01*
X355620Y25552D01*
X355630Y25577D01*
X355654Y25587D01*
X360901Y25587D01*
X361000Y25567D01*
X361099Y25587D01*
X361199D01*
X361589Y25664D01*
X361682Y25703D01*
X361780Y25722D01*
X361864Y25778D01*
X361957Y25817D01*
X362287Y26038D01*
X362358Y26109D01*
X362442Y26164D01*
X362498Y26248D01*
X362569Y26319D01*
X362790Y26650D01*
X362828Y26742D01*
X362884Y26826D01*
X362903Y26924D01*
X362942Y27017D01*
X363020Y27407D01*
Y27508D01*
X363039Y27606D01*
X363020Y27705D01*
Y30008D01*
X363039Y30106D01*
X363261Y30315D01*
X363620Y30477D01*
X364150Y30372D01*
X366850D01*
X367533Y30508D01*
X368112Y30895D01*
X368498Y31473D01*
X368634Y32156D01*
Y33377D01*
X369234Y33417D01*
X369290Y32993D01*
X369643Y32141D01*
X369823Y31907D01*
X369594Y31251D01*
X369578Y31239D01*
X369163Y30962D01*
X368875Y30532D01*
X368814Y30224D01*
X369886D01*
X369892Y30232D01*
Y30224D01*
X373000D01*
X377186D01*
X377125Y30532D01*
X376837Y30962D01*
X376407Y31249D01*
X375900Y31350D01*
X375610Y31950D01*
X375757Y32141D01*
X376110Y32993D01*
X376230Y33906D01*
Y34306D01*
X376110Y35220D01*
X375757Y36071D01*
X375196Y36803D01*
X374465Y37363D01*
X373614Y37716D01*
X372700Y37837D01*
X371786Y37716D01*
X370935Y37363D01*
X370204Y36803D01*
X369643Y36071D01*
X369290Y35220D01*
X369170Y34306D01*
Y34040D01*
X368570Y33981D01*
X368498Y34339D01*
X368112Y34918D01*
X367533Y35305D01*
X366850Y35441D01*
X364150D01*
X363467Y35305D01*
X362888Y34918D01*
X362683Y34611D01*
X362664Y34590D01*
X362564Y34526D01*
X361999Y34405D01*
X361905Y34417D01*
X361864Y34435D01*
X361780Y34490D01*
X361682Y34510D01*
X361589Y34548D01*
X361199Y34626D01*
X361098D01*
X361000Y34646D01*
X360902Y34626D01*
X360672D01*
X360491Y35226D01*
X360963Y35841D01*
X361315Y36693D01*
X361380Y37182D01*
X361364Y37176D01*
X361164Y37074D01*
X360951Y36944D01*
X360724Y36784D01*
X360486Y36596D01*
X359969Y36132D01*
X359691Y35856D01*
Y39356D01*
X359969Y39081D01*
X360724Y38428D01*
X360951Y38269D01*
X361164Y38138D01*
X361364Y38037D01*
X361380Y38031D01*
X361315Y38520D01*
X360963Y39371D01*
X360402Y40102D01*
X359671Y40663D01*
X358819Y41016D01*
X357906Y41137D01*
X356992Y41016D01*
X356140Y40663D01*
X355409Y40102D01*
X354848Y39371D01*
X354496Y38520D01*
X354431Y38031D01*
X354447Y38037D01*
X354647Y38138D01*
X354860Y38269D01*
X355086Y38428D01*
X355326Y38617D01*
X355842Y39081D01*
X356120Y39356D01*
Y35856D01*
X355842Y36132D01*
X355086Y36784D01*
X354860Y36944D01*
X354647Y37074D01*
X354447Y37176D01*
X354431Y37182D01*
X354496Y36693D01*
X354848Y35841D01*
X355320Y35226D01*
X355139Y34626D01*
X354400D01*
X354002Y34626D01*
X354002Y34626D01*
X354002Y34626D01*
X353815Y34589D01*
X353612Y34549D01*
X353612Y34548D01*
X353612Y34548D01*
X352877Y34244D01*
X352877Y34244D01*
X352877Y34244D01*
X352692Y34121D01*
X352546Y34023D01*
X352546Y34023D01*
X352546Y34023D01*
X351983Y33460D01*
X351983Y33460D01*
X351983Y33460D01*
X351866Y33285D01*
X351762Y33130D01*
X351762Y33129D01*
X351762Y33129D01*
X351542Y32599D01*
X350904Y32578D01*
X350820Y32786D01*
X350781Y32980D01*
X350742Y33176D01*
X350742Y33176D01*
X350742Y33176D01*
X350727Y33213D01*
X350719Y33253D01*
X350696Y33286D01*
X350681Y33323D01*
X350681Y33323D01*
X350681Y33323D01*
X350567Y33495D01*
X350460Y33654D01*
X350460Y33654D01*
X350460Y33654D01*
X350432Y33682D01*
X350409Y33716D01*
X350376Y33738D01*
X350347Y33766D01*
X350347Y33766D01*
X350347Y33766D01*
X350194Y33869D01*
X350017Y33987D01*
X350017Y33987D01*
X350017Y33987D01*
X349980Y34003D01*
X349946Y34025D01*
X349906Y34033D01*
X349869Y34048D01*
X349869Y34048D01*
X349869Y34048D01*
X349664Y34089D01*
X349618Y34098D01*
X349598Y34106D01*
X349577Y34106D01*
X349479Y34126D01*
X349479Y34126D01*
X349479Y34126D01*
X349440Y34126D01*
X349400Y34134D01*
X348600D01*
X348474Y34245D01*
X348433Y34381D01*
X348476Y35001D01*
X348590Y35110D01*
X348591Y35110D01*
X348591Y35110D01*
X348787Y35298D01*
X348868Y35412D01*
X348961Y35515D01*
X349306Y36096D01*
X349352Y36227D01*
X349414Y36352D01*
X349589Y37005D01*
X349598Y37144D01*
X349623Y37281D01*
X349620Y37571D01*
X349625Y37606D01*
X349619Y37647D01*
X349619Y38103D01*
X349619Y38103D01*
X349619Y38103D01*
X349578Y38310D01*
X349542Y38493D01*
X349542Y38493D01*
X349542Y38493D01*
X349161Y39412D01*
X349161Y39413D01*
X349161Y39413D01*
X349050Y39579D01*
X348940Y39743D01*
X348940Y39743D01*
X348940Y39743D01*
X348623Y40061D01*
X348591Y40102D01*
X348549Y40135D01*
X348237Y40446D01*
X348237Y40447D01*
X348237Y40447D01*
X348031Y40584D01*
X347906Y40668D01*
X347906D01*
X347906Y40668D01*
X346987Y41048D01*
X346773Y41091D01*
X346597Y41126D01*
X346177Y41126D01*
X346094Y41137D01*
X346012Y41126D01*
X345716Y41126D01*
X345617Y41106D01*
X345517D01*
X344763Y40956D01*
X344671Y40918D01*
X344572Y40898D01*
X343862Y40604D01*
X343779Y40549D01*
X343686Y40510D01*
X343047Y40083D01*
X342976Y40012D01*
X342893Y39957D01*
X342350Y39413D01*
X342294Y39330D01*
X342223Y39259D01*
X341796Y38620D01*
X341758Y38527D01*
X341702Y38444D01*
X341408Y37734D01*
X341388Y37635D01*
X341350Y37543D01*
X341200Y36789D01*
Y36689D01*
X341180Y36590D01*
X341180Y36206D01*
X341180Y35594D01*
X340580Y35273D01*
X340533Y35305D01*
X339850Y35441D01*
X337150D01*
X336467Y35305D01*
X335888Y34918D01*
X335775Y34749D01*
X335138Y34875D01*
X335107Y35031D01*
X334753Y35560D01*
Y35853D01*
X335107Y36382D01*
X335172Y36706D01*
X335100D01*
X335094Y36820D01*
X335076Y36922D01*
X335046Y37012D01*
X335004Y37090D01*
X334991Y37106D01*
X334209D01*
X334194Y37065D01*
X334188Y37009D01*
X334188Y37106D01*
X333649D01*
X333573Y37050D01*
X333493Y36982D01*
X333414Y36906D01*
Y37106D01*
X332700D01*
Y38106D01*
X333414D01*
Y38306D01*
X333493Y38230D01*
X333573Y38162D01*
X333649Y38106D01*
X334188D01*
X334188Y38206D01*
X334194Y38149D01*
X334209Y38106D01*
X335231D01*
Y38206D01*
X335107Y38831D01*
X334952Y39064D01*
X334803Y39506D01*
X334952Y39949D01*
X335008Y40033D01*
X335517Y40110D01*
X335698Y40079D01*
X335888Y39795D01*
X336467Y39408D01*
X337150Y39272D01*
X339850D01*
X340533Y39408D01*
X341112Y39795D01*
X341498Y40374D01*
X341634Y41056D01*
Y42556D01*
X341571Y42876D01*
X342007Y43476D01*
X361993D01*
D02*
G37*
G36*
X85100Y38514D02*
X85053Y38496D01*
X85014Y38467D01*
X84985Y38425D01*
X84965Y38372D01*
X84954Y38307D01*
X84951Y38230D01*
X84958Y38142D01*
X84973Y38041D01*
X84997Y37929D01*
X84366Y37923D01*
X84335Y38036D01*
X84302Y38138D01*
X84265Y38227D01*
X84225Y38305D01*
X84182Y38370D01*
X84136Y38424D01*
X84087Y38466D01*
X84035Y38496D01*
X83980Y38514D01*
X83922Y38520D01*
X85155D01*
X85100Y38514D01*
D02*
G37*
G36*
X80541Y38542D02*
X80490Y38521D01*
X80446Y38489D01*
X80407Y38443D01*
X80374Y38385D01*
X80348Y38315D01*
X80327Y38232D01*
X80312Y38136D01*
X80303Y38028D01*
X80300Y37908D01*
X79700D01*
X79697Y38025D01*
X79688Y38131D01*
X79673Y38223D01*
X79652Y38303D01*
X79625Y38370D01*
X79592Y38425D01*
X79553Y38468D01*
X79508Y38498D01*
X79457Y38515D01*
X79400Y38520D01*
X80598Y38549D01*
X80541Y38542D01*
D02*
G37*
G36*
X68603Y38519D02*
X68519Y38489D01*
X68444Y38438D01*
X68379Y38366D01*
X68324Y38274D01*
X68280Y38162D01*
X68245Y38029D01*
X68220Y37876D01*
X68205Y37702D01*
X68200Y37508D01*
X67200D01*
X67195Y37702D01*
X67180Y37876D01*
X67155Y38029D01*
X67120Y38162D01*
X67076Y38274D01*
X67021Y38366D01*
X66956Y38438D01*
X66882Y38489D01*
X66797Y38519D01*
X66702Y38530D01*
X68698D01*
X68603Y38519D01*
D02*
G37*
G36*
X68205Y37011D02*
X68220Y36837D01*
X68245Y36684D01*
X68280Y36551D01*
X68324Y36439D01*
X68379Y36347D01*
X68444Y36275D01*
X68519Y36224D01*
X68603Y36193D01*
X68698Y36183D01*
X66702D01*
X66797Y36193D01*
X66882Y36224D01*
X66956Y36275D01*
X67021Y36347D01*
X67076Y36439D01*
X67120Y36551D01*
X67155Y36684D01*
X67180Y36837D01*
X67195Y37011D01*
X67200Y37205D01*
X68200D01*
X68205Y37011D01*
D02*
G37*
G36*
X84153Y36565D02*
X84283Y36160D01*
X84306Y36113D01*
X84328Y36077D01*
X84349Y36052D01*
X84369Y36039D01*
X83505D01*
X83524Y36053D01*
X83538Y36078D01*
X83547Y36113D01*
X83551Y36160D01*
X83549Y36217D01*
X83543Y36284D01*
X83516Y36452D01*
X83468Y36662D01*
X84123Y36680D01*
X84153Y36565D01*
D02*
G37*
G36*
X80301Y36579D02*
X80321Y36300D01*
X80333Y36230D01*
X80348Y36169D01*
X80365Y36120D01*
X80385Y36082D01*
X80407Y36055D01*
X80432Y36039D01*
X79568D01*
X79593Y36055D01*
X79615Y36082D01*
X79635Y36120D01*
X79652Y36169D01*
X79667Y36230D01*
X79679Y36300D01*
X79688Y36382D01*
X79699Y36579D01*
X79700Y36693D01*
X80300D01*
X80301Y36579D01*
D02*
G37*
G36*
X78257Y36723D02*
X78507Y36139D01*
X78516Y36083D01*
X78512Y36048D01*
X78495Y36033D01*
X78464Y36039D01*
X77536Y34781D01*
X77593Y34882D01*
X77630Y35001D01*
X77645Y35137D01*
X77640Y35292D01*
X77614Y35465D01*
X77567Y35656D01*
X77499Y35865D01*
X77411Y36092D01*
X77171Y36600D01*
X78166Y36901D01*
X78257Y36723D01*
D02*
G37*
G36*
X319356Y37391D02*
X319423Y37332D01*
X319504Y37279D01*
X319598Y37233D01*
X319706Y37194D01*
X319827Y37163D01*
X319962Y37138D01*
X320110Y37120D01*
X320272Y37110D01*
X320448Y37106D01*
Y36106D01*
X320272Y36103D01*
X319962Y36075D01*
X319827Y36050D01*
X319706Y36018D01*
X319598Y35980D01*
X319504Y35934D01*
X319423Y35881D01*
X319356Y35821D01*
X319302Y35754D01*
Y37458D01*
X319356Y37391D01*
D02*
G37*
G36*
X304756Y36628D02*
X304782Y36561D01*
X304825Y36501D01*
X304884Y36450D01*
X304961Y36406D01*
X305054Y36370D01*
X305165Y36342D01*
X305293Y36322D01*
X305438Y36310D01*
X305599Y36306D01*
Y35506D01*
X305438Y35502D01*
X305293Y35490D01*
X305165Y35471D01*
X305054Y35443D01*
X304961Y35407D01*
X304884Y35363D01*
X304825Y35311D01*
X304782Y35252D01*
X304756Y35184D01*
X304748Y35109D01*
Y36704D01*
X304756Y36628D01*
D02*
G37*
G36*
X75567Y35453D02*
X75710Y35460D01*
Y34753D01*
X75690Y34763D01*
X75651Y34772D01*
X75593Y34780D01*
X75567Y34782D01*
Y34506D01*
X75561Y34563D01*
X75543Y34614D01*
X75512Y34659D01*
X75469Y34698D01*
X75414Y34731D01*
X75347Y34758D01*
X75267Y34779D01*
X75176Y34794D01*
X75133Y34798D01*
X74663Y34806D01*
Y35406D01*
X75287Y35438D01*
X75347Y35454D01*
X75414Y35481D01*
X75469Y35514D01*
X75512Y35553D01*
X75543Y35598D01*
X75561Y35649D01*
X75567Y35706D01*
Y35453D01*
D02*
G37*
G36*
X73793Y35730D02*
X73873Y35662D01*
X73954Y35602D01*
X74037Y35550D01*
X74120Y35506D01*
X74205Y35470D01*
X74290Y35442D01*
X74377Y35422D01*
X74465Y35410D01*
X74554Y35406D01*
Y34806D01*
X74465Y34802D01*
X74377Y34790D01*
X74290Y34770D01*
X74205Y34742D01*
X74120Y34706D01*
X74037Y34662D01*
X73954Y34610D01*
X73873Y34550D01*
X73793Y34482D01*
X73714Y34406D01*
Y35806D01*
X73793Y35730D01*
D02*
G37*
G36*
X86303Y34035D02*
X86312Y33931D01*
X86327Y33839D01*
X86348Y33759D01*
X86375Y33692D01*
X86408Y33637D01*
X86447Y33594D01*
X86492Y33563D01*
X86543Y33545D01*
X86600Y33539D01*
X85400D01*
X85457Y33545D01*
X85508Y33563D01*
X85553Y33594D01*
X85592Y33637D01*
X85625Y33692D01*
X85652Y33759D01*
X85673Y33839D01*
X85688Y33931D01*
X85697Y34035D01*
X85700Y34151D01*
X86300D01*
X86303Y34035D01*
D02*
G37*
G36*
X332097Y33008D02*
X332017Y33065D01*
X331935Y33116D01*
X331850Y33160D01*
X331763Y33199D01*
X331673Y33232D01*
X331581Y33259D01*
X331486Y33279D01*
X331389Y33294D01*
X331290Y33303D01*
X331188Y33306D01*
Y34306D01*
X331290Y34309D01*
X331389Y34318D01*
X331486Y34333D01*
X331581Y34354D01*
X331673Y34381D01*
X331763Y34413D01*
X331850Y34452D01*
X331935Y34497D01*
X332017Y34548D01*
X332097Y34604D01*
Y33008D01*
D02*
G37*
G36*
X72230Y33681D02*
X72304Y33610D01*
X72381Y33547D01*
X72460Y33493D01*
X72540Y33448D01*
X72623Y33410D01*
X72707Y33381D01*
X72782Y33363D01*
X72806Y33364D01*
X72877Y33376D01*
X72937Y33391D01*
X72986Y33408D01*
X73024Y33428D01*
X73051Y33450D01*
X73068Y33476D01*
Y32611D01*
X73051Y32636D01*
X73024Y32659D01*
X72986Y32679D01*
X72937Y32696D01*
X72877Y32710D01*
X72806Y32722D01*
X72755Y32728D01*
X72669Y32709D01*
X72583Y32682D01*
X72496Y32648D01*
X72410Y32606D01*
X72324Y32557D01*
X72239Y32500D01*
X72153Y32435D01*
X72069Y32363D01*
X72157Y33760D01*
X72230Y33681D01*
D02*
G37*
G36*
X82272Y33671D02*
X82284Y33583D01*
X82305Y33497D01*
X82332Y33411D01*
X82368Y33326D01*
X82412Y33243D01*
X82464Y33161D01*
X82525Y33079D01*
X82592Y32999D01*
X82669Y32920D01*
X82291D01*
X82290Y32912D01*
X82280Y32830D01*
X82270Y32634D01*
X82269Y32519D01*
X81669D01*
X81667Y32634D01*
X81647Y32912D01*
X81646Y32920D01*
X81269D01*
X81344Y32999D01*
X81413Y33079D01*
X81472Y33161D01*
X81524Y33243D01*
X81568Y33326D01*
X81604Y33411D01*
X81633Y33497D01*
X81652Y33583D01*
X81665Y33671D01*
X81669Y33760D01*
X82269D01*
X82272Y33671D01*
D02*
G37*
G36*
X79262Y32179D02*
X79750Y32082D01*
X79954D01*
X80085Y31426D01*
X80527Y30764D01*
X80883Y30527D01*
X81116Y29887D01*
X80961Y29106D01*
X81116Y28326D01*
X81558Y27664D01*
X82220Y27222D01*
X82893Y27088D01*
X83042Y26520D01*
X82878Y26282D01*
X82824Y26228D01*
X82579Y26059D01*
X82218Y26131D01*
X81718D01*
X81231Y26034D01*
X80984Y25869D01*
X80738Y26034D01*
X80250Y26131D01*
X79750D01*
X79262Y26034D01*
X79016Y25869D01*
X78769Y26034D01*
X78531Y26081D01*
Y25392D01*
X78732D01*
X78655Y25313D01*
X78588Y25233D01*
X78531Y25157D01*
Y25139D01*
X78475Y24856D01*
Y23631D01*
X78470Y23606D01*
X77588D01*
Y23856D01*
X77531Y24139D01*
Y25157D01*
X77476Y25233D01*
X77407Y25313D01*
X77332Y25392D01*
X77531D01*
Y26081D01*
X77421Y26059D01*
X77176Y26228D01*
X77122Y26282D01*
X76953Y26528D01*
X77025Y26888D01*
Y27388D01*
X76928Y27876D01*
X76763Y28122D01*
X76928Y28369D01*
X77025Y28856D01*
Y29356D01*
X76928Y29844D01*
X76763Y30091D01*
X76928Y30337D01*
X77025Y30825D01*
Y31325D01*
X76953Y31685D01*
X77122Y31930D01*
X77176Y31984D01*
X77421Y32153D01*
X77781Y32082D01*
X78281D01*
X78769Y32179D01*
X79016Y32344D01*
X79262Y32179D01*
D02*
G37*
G36*
X87786Y30375D02*
X87707Y30451D01*
X87627Y30519D01*
X87546Y30579D01*
X87463Y30631D01*
X87380Y30675D01*
X87295Y30711D01*
X87210Y30739D01*
X87166Y30749D01*
X87123Y30742D01*
X87063Y30727D01*
X87014Y30710D01*
X86976Y30690D01*
X86949Y30668D01*
X86932Y30643D01*
Y31507D01*
X86949Y31482D01*
X86976Y31459D01*
X87014Y31440D01*
X87063Y31422D01*
X87123Y31408D01*
X87166Y31401D01*
X87210Y31411D01*
X87295Y31439D01*
X87380Y31475D01*
X87463Y31519D01*
X87546Y31571D01*
X87627Y31631D01*
X87707Y31699D01*
X87786Y31775D01*
Y30375D01*
D02*
G37*
G36*
X314042Y33006D02*
X314077Y32922D01*
X314135Y32848D01*
X314217Y32784D01*
X314322Y32730D01*
X314451Y32685D01*
X314603Y32651D01*
X314778Y32626D01*
X314977Y32611D01*
X315199Y32606D01*
Y31606D01*
X314977Y31601D01*
X314603Y31562D01*
X314451Y31527D01*
X314322Y31483D01*
X314217Y31429D01*
X314135Y31365D01*
X314077Y31291D01*
X314042Y31207D01*
X314030Y31113D01*
Y33100D01*
X314042Y33006D01*
D02*
G37*
G36*
X328528Y34937D02*
X328548Y34837D01*
X328625Y34250D01*
X328890Y33610D01*
X329312Y33061D01*
X329861Y32639D01*
X330391Y32420D01*
X330429Y32355D01*
X330467Y32274D01*
X330508Y32163D01*
X330548Y32023D01*
X330585Y31855D01*
X330614Y31680D01*
X330635Y31417D01*
X330401Y31222D01*
X330080Y31037D01*
X330061Y31035D01*
X329550Y31137D01*
X329500D01*
Y28606D01*
Y26076D01*
X329550D01*
X330155Y26196D01*
X330667Y26539D01*
X330828Y26779D01*
X331434Y26605D01*
X331461Y25725D01*
Y24558D01*
X331239Y24553D01*
X329250D01*
X329227Y24554D01*
X329161Y24559D01*
X329160Y24559D01*
X328750Y24641D01*
X325250D01*
X325039Y24814D01*
Y26845D01*
X325046Y27173D01*
X325051Y27232D01*
X325057Y27279D01*
X325057Y27286D01*
X325130Y27656D01*
Y29556D01*
X325075Y29835D01*
X325040Y31117D01*
X325042Y31181D01*
X325066Y31400D01*
X325099Y31593D01*
X325136Y31747D01*
X325174Y31859D01*
X325206Y31928D01*
X325222Y31955D01*
X325269Y31993D01*
X325275Y32000D01*
X325354Y32053D01*
X325503Y32277D01*
X325522Y32300D01*
X325525Y32309D01*
X325707Y32582D01*
X325831Y33206D01*
Y34406D01*
X325817Y34477D01*
X326310Y35077D01*
X328528D01*
Y34937D01*
D02*
G37*
G36*
X334068Y32831D02*
X333991Y32666D01*
X333922Y32480D01*
X333863Y32275D01*
X333814Y32050D01*
X333773Y31805D01*
X333718Y31255D01*
X333704Y30951D01*
X333700Y30627D01*
X331700D01*
X331696Y30951D01*
X331627Y31805D01*
X331587Y32050D01*
X331537Y32275D01*
X331478Y32480D01*
X331410Y32666D01*
X331332Y32831D01*
X331246Y32977D01*
X334154D01*
X334068Y32831D01*
D02*
G37*
G36*
X99293Y31699D02*
X99373Y31631D01*
X99454Y31571D01*
X99537Y31519D01*
X99620Y31475D01*
X99705Y31439D01*
X99790Y31411D01*
X99877Y31391D01*
X99965Y31379D01*
X100054Y31375D01*
Y30775D01*
X99965Y30771D01*
X99877Y30759D01*
X99790Y30739D01*
X99705Y30711D01*
X99620Y30675D01*
X99537Y30631D01*
X99454Y30579D01*
X99373Y30519D01*
X99293Y30451D01*
X99214Y30375D01*
Y31775D01*
X99293Y31699D01*
D02*
G37*
G36*
X324624Y32782D02*
X324505Y32686D01*
X324399Y32562D01*
X324306Y32412D01*
X324225Y32234D01*
X324156Y32030D01*
X324100Y31799D01*
X324056Y31541D01*
X324025Y31257D01*
X324020Y31123D01*
X324057Y29766D01*
X321943D01*
X321954Y29802D01*
X321964Y29877D01*
X321972Y29990D01*
X321998Y31128D01*
X321998Y31156D01*
X321901Y32815D01*
X321875Y32913D01*
X321846Y32977D01*
X324624Y32782D01*
D02*
G37*
G36*
X83793Y29730D02*
X83873Y29662D01*
X83954Y29602D01*
X84037Y29550D01*
X84066Y29535D01*
X84068Y29539D01*
Y29534D01*
X84120Y29506D01*
X84205Y29470D01*
X84290Y29442D01*
X84377Y29422D01*
X84465Y29410D01*
X84554Y29406D01*
Y28806D01*
X84465Y28802D01*
X84377Y28790D01*
X84290Y28770D01*
X84205Y28742D01*
X84120Y28706D01*
X84068Y28679D01*
Y28674D01*
X84066Y28678D01*
X84037Y28662D01*
X83954Y28610D01*
X83873Y28550D01*
X83793Y28482D01*
X83714Y28406D01*
Y28795D01*
X83528Y28805D01*
X83413Y28806D01*
Y29406D01*
X83528Y29408D01*
X83714Y29421D01*
Y29806D01*
X83793Y29730D01*
D02*
G37*
G36*
X318705Y29397D02*
X318720Y29212D01*
X318744Y29049D01*
X318779Y28908D01*
X318823Y28788D01*
X318878Y28690D01*
X318942Y28614D01*
X319016Y28560D01*
X319100Y28527D01*
X319193Y28516D01*
X317207D01*
X317300Y28527D01*
X317384Y28560D01*
X317458Y28614D01*
X317522Y28690D01*
X317577Y28788D01*
X317621Y28908D01*
X317656Y29049D01*
X317680Y29212D01*
X317695Y29397D01*
X317700Y29604D01*
X318700D01*
X318705Y29397D01*
D02*
G37*
G36*
X338414Y27506D02*
X338407Y27563D01*
X338389Y27614D01*
X338358Y27659D01*
X338316Y27698D01*
X338261Y27731D01*
X338193Y27758D01*
X338114Y27779D01*
X338022Y27794D01*
X337918Y27803D01*
X337802Y27806D01*
Y28406D01*
X337918Y28409D01*
X338022Y28418D01*
X338114Y28433D01*
X338193Y28454D01*
X338261Y28481D01*
X338316Y28514D01*
X338358Y28553D01*
X338389Y28598D01*
X338407Y28649D01*
X338414Y28706D01*
Y27506D01*
D02*
G37*
G36*
X87786Y26438D02*
X87707Y26514D01*
X87627Y26582D01*
X87546Y26642D01*
X87463Y26694D01*
X87380Y26738D01*
X87295Y26774D01*
X87210Y26802D01*
X87166Y26812D01*
X87123Y26805D01*
X87063Y26790D01*
X87014Y26773D01*
X86976Y26753D01*
X86949Y26731D01*
X86932Y26706D01*
Y27570D01*
X86949Y27545D01*
X86976Y27522D01*
X87014Y27503D01*
X87063Y27485D01*
X87123Y27471D01*
X87166Y27464D01*
X87210Y27474D01*
X87295Y27502D01*
X87380Y27538D01*
X87463Y27582D01*
X87546Y27634D01*
X87627Y27694D01*
X87707Y27762D01*
X87786Y27838D01*
Y26438D01*
D02*
G37*
G36*
X376055Y27712D02*
X376104Y27690D01*
X376161Y27670D01*
X376224Y27653D01*
X376295Y27639D01*
X376457Y27618D01*
X376548Y27612D01*
X376752Y27606D01*
X376794Y27006D01*
X376661Y27003D01*
X376544Y26995D01*
X376441Y26980D01*
X376353Y26959D01*
X376279Y26933D01*
X376220Y26901D01*
X376176Y26863D01*
X376146Y26819D01*
X376131Y26769D01*
X376130Y26713D01*
X376012Y27737D01*
X376055Y27712D01*
D02*
G37*
G36*
X73250Y26630D02*
X73208Y26643D01*
X73161Y26648D01*
X73108Y26646D01*
X73049Y26638D01*
X72985Y26621D01*
X72914Y26598D01*
X72839Y26568D01*
X72670Y26486D01*
X72578Y26434D01*
X72456Y27189D01*
X73068Y27570D01*
X73250Y26630D01*
D02*
G37*
G36*
X33423Y25109D02*
X33413Y25203D01*
X33382Y25288D01*
X33331Y25363D01*
X33260Y25427D01*
X33168Y25482D01*
X33055Y25527D01*
X32923Y25561D01*
X32769Y25586D01*
X32596Y25601D01*
X32500Y25604D01*
X32404Y25601D01*
X32231Y25586D01*
X32078Y25561D01*
X31945Y25527D01*
X31832Y25482D01*
X31740Y25427D01*
X31669Y25363D01*
X31618Y25288D01*
X31587Y25203D01*
X31577Y25109D01*
Y27104D01*
X31587Y27009D01*
X31618Y26925D01*
X31669Y26850D01*
X31740Y26785D01*
X31832Y26731D01*
X31945Y26686D01*
X32078Y26651D01*
X32231Y26626D01*
X32404Y26611D01*
X32500Y26609D01*
X32596Y26611D01*
X32769Y26626D01*
X32923Y26651D01*
X33055Y26686D01*
X33168Y26731D01*
X33260Y26785D01*
X33331Y26850D01*
X33382Y26925D01*
X33413Y27009D01*
X33423Y27104D01*
Y25109D01*
D02*
G37*
G36*
X61786Y25406D02*
X61707Y25482D01*
X61627Y25550D01*
X61546Y25610D01*
X61463Y25662D01*
X61380Y25706D01*
X61295Y25742D01*
X61210Y25770D01*
X61123Y25790D01*
X61035Y25802D01*
X61023Y25803D01*
Y25509D01*
X61017Y25565D01*
X60998Y25616D01*
X60967Y25660D01*
X60924Y25699D01*
X60868Y25732D01*
X60799Y25759D01*
X60719Y25780D01*
X60625Y25794D01*
X60520Y25803D01*
X60401Y25806D01*
Y26406D01*
X60520Y26409D01*
X60625Y26418D01*
X60719Y26433D01*
X60799Y26454D01*
X60868Y26481D01*
X60924Y26513D01*
X60967Y26552D01*
X60998Y26597D01*
X61017Y26647D01*
X61023Y26704D01*
Y26410D01*
X61035Y26410D01*
X61123Y26422D01*
X61210Y26442D01*
X61295Y26470D01*
X61380Y26506D01*
X61463Y26550D01*
X61546Y26602D01*
X61627Y26662D01*
X61707Y26730D01*
X61786Y26806D01*
Y25406D01*
D02*
G37*
G36*
X56786D02*
X56707Y25482D01*
X56627Y25550D01*
X56546Y25610D01*
X56463Y25662D01*
X56380Y25706D01*
X56295Y25742D01*
X56210Y25770D01*
X56123Y25790D01*
X56035Y25802D01*
X56023Y25803D01*
Y25509D01*
X56017Y25565D01*
X55998Y25616D01*
X55967Y25660D01*
X55924Y25699D01*
X55868Y25732D01*
X55799Y25759D01*
X55718Y25780D01*
X55625Y25794D01*
X55520Y25803D01*
X55401Y25806D01*
Y26406D01*
X55520Y26409D01*
X55625Y26418D01*
X55718Y26433D01*
X55799Y26454D01*
X55868Y26481D01*
X55924Y26513D01*
X55967Y26552D01*
X55998Y26597D01*
X56017Y26647D01*
X56023Y26704D01*
Y26410D01*
X56035Y26410D01*
X56123Y26422D01*
X56210Y26442D01*
X56295Y26470D01*
X56380Y26506D01*
X56463Y26550D01*
X56546Y26602D01*
X56627Y26662D01*
X56707Y26730D01*
X56786Y26806D01*
Y25406D01*
D02*
G37*
G36*
X347700Y33106D02*
X349400Y33106D01*
X349400Y33106D01*
X349480Y33106D01*
X349627Y33045D01*
X349739Y32933D01*
X349800Y32786D01*
X349800Y32706D01*
X349800Y26806D01*
X349800Y26806D01*
X349800Y26540D01*
X349696Y26019D01*
X349493Y25527D01*
X349197Y25085D01*
X348821Y24709D01*
X348379Y24414D01*
X347888Y24210D01*
X347366Y24106D01*
X347100Y24106D01*
X341300Y24106D01*
Y26106D01*
X346200Y26106D01*
X346200Y26106D01*
X346395Y26125D01*
X346756Y26275D01*
X347031Y26551D01*
X347181Y26911D01*
X347200Y27106D01*
X347200Y32606D01*
Y32606D01*
X347200Y32706D01*
X347276Y32890D01*
X347417Y33030D01*
X347601Y33106D01*
X347700Y33106D01*
D02*
G37*
G36*
X319100Y26686D02*
X319016Y26653D01*
X318942Y26599D01*
X318878Y26522D01*
X318823Y26425D01*
X318779Y26305D01*
X318744Y26164D01*
X318720Y26000D01*
X318705Y25815D01*
X318700Y25609D01*
X317700D01*
X317695Y25815D01*
X317680Y26000D01*
X317656Y26164D01*
X317621Y26305D01*
X317577Y26425D01*
X317522Y26522D01*
X317458Y26599D01*
X317384Y26653D01*
X317300Y26686D01*
X317207Y26696D01*
X319193D01*
X319100Y26686D01*
D02*
G37*
G36*
X58293Y26730D02*
X58373Y26662D01*
X58454Y26602D01*
X58537Y26550D01*
X58620Y26506D01*
X58705Y26470D01*
X58790Y26442D01*
X58877Y26422D01*
X58965Y26410D01*
X58977Y26410D01*
Y26704D01*
X58983Y26647D01*
X59002Y26597D01*
X59033Y26552D01*
X59076Y26513D01*
X59132Y26481D01*
X59201Y26454D01*
X59281Y26433D01*
X59375Y26418D01*
X59480Y26409D01*
X59598Y26406D01*
Y25806D01*
X59480Y25803D01*
X59375Y25794D01*
X59281Y25780D01*
X59201Y25759D01*
X59132Y25732D01*
X59076Y25699D01*
X59033Y25660D01*
X59002Y25616D01*
X58983Y25565D01*
X58977Y25509D01*
Y25803D01*
X58965Y25802D01*
X58877Y25790D01*
X58790Y25770D01*
X58705Y25742D01*
X58620Y25706D01*
X58537Y25662D01*
X58454Y25610D01*
X58373Y25550D01*
X58293Y25482D01*
X58214Y25406D01*
Y26806D01*
X58293Y26730D01*
D02*
G37*
G36*
X53293D02*
X53373Y26662D01*
X53454Y26602D01*
X53537Y26550D01*
X53620Y26506D01*
X53705Y26470D01*
X53790Y26442D01*
X53877Y26422D01*
X53965Y26410D01*
X53977Y26410D01*
Y26704D01*
X53983Y26647D01*
X54002Y26597D01*
X54033Y26552D01*
X54076Y26513D01*
X54132Y26481D01*
X54201Y26454D01*
X54282Y26433D01*
X54375Y26418D01*
X54480Y26409D01*
X54598Y26406D01*
Y25806D01*
X54480Y25803D01*
X54375Y25794D01*
X54282Y25780D01*
X54201Y25759D01*
X54132Y25732D01*
X54076Y25699D01*
X54033Y25660D01*
X54002Y25616D01*
X53983Y25565D01*
X53977Y25509D01*
Y25803D01*
X53965Y25802D01*
X53877Y25790D01*
X53790Y25770D01*
X53705Y25742D01*
X53620Y25706D01*
X53537Y25662D01*
X53454Y25610D01*
X53373Y25550D01*
X53293Y25482D01*
X53214Y25406D01*
Y26806D01*
X53293Y26730D01*
D02*
G37*
G36*
X324046Y27410D02*
X324036Y27336D01*
X324028Y27223D01*
X324002Y26085D01*
X324000Y25361D01*
X322000D01*
X321943Y27446D01*
X324057D01*
X324046Y27410D01*
D02*
G37*
G36*
X351004Y26071D02*
X351016Y25983D01*
X351036Y25897D01*
X351064Y25811D01*
X351100Y25726D01*
X351144Y25643D01*
X351196Y25561D01*
X351256Y25480D01*
X351324Y25399D01*
X351400Y25320D01*
X350000Y25320D01*
X350076Y25399D01*
X350144Y25480D01*
X350204Y25561D01*
X350256Y25643D01*
X350300Y25726D01*
X350336Y25811D01*
X350364Y25897D01*
X350384Y25983D01*
X350396Y26071D01*
X350400Y26160D01*
X351000D01*
X351004Y26071D01*
D02*
G37*
G36*
X46162Y25168D02*
X46098Y25252D01*
X46022Y25326D01*
X45935Y25392D01*
X45836Y25449D01*
X45726Y25497D01*
X45604Y25536D01*
X45470Y25567D01*
X45326Y25589D01*
X45169Y25602D01*
X45002Y25606D01*
Y26606D01*
X45169Y26611D01*
X45326Y26624D01*
X45470Y26646D01*
X45604Y26676D01*
X45726Y26716D01*
X45836Y26764D01*
X45935Y26821D01*
X46022Y26886D01*
X46098Y26961D01*
X46162Y27044D01*
Y25168D01*
D02*
G37*
G36*
X41587Y27009D02*
X41618Y26925D01*
X41669Y26850D01*
X41740Y26785D01*
X41832Y26731D01*
X41945Y26686D01*
X42077Y26651D01*
X42231Y26626D01*
X42404Y26611D01*
X42599Y26606D01*
Y25606D01*
X42404Y25601D01*
X42231Y25586D01*
X42077Y25561D01*
X41945Y25527D01*
X41832Y25482D01*
X41740Y25427D01*
X41669Y25363D01*
X41618Y25288D01*
X41587Y25203D01*
X41577Y25109D01*
Y27104D01*
X41587Y27009D01*
D02*
G37*
G36*
X86927Y25570D02*
X86943Y25549D01*
X86969Y25530D01*
X87005Y25514D01*
X87051Y25501D01*
X87107Y25489D01*
X87174Y25480D01*
X87339Y25471D01*
X87437Y25469D01*
Y24869D01*
X87339Y24868D01*
X87107Y24849D01*
X87051Y24838D01*
X87005Y24824D01*
X86969Y24808D01*
X86943Y24789D01*
X86927Y24768D01*
X86922Y24745D01*
Y25594D01*
X86927Y25570D01*
D02*
G37*
G36*
X48958Y25906D02*
X48946Y25849D01*
X48949Y25783D01*
X48969Y25710D01*
X49004Y25630D01*
X49055Y25541D01*
X49122Y25446D01*
X49205Y25342D01*
X49419Y25112D01*
X49061Y24621D01*
X48940Y24738D01*
X48724Y24921D01*
X48629Y24987D01*
X48544Y25035D01*
X48467Y25067D01*
X48399Y25081D01*
X48340Y25078D01*
X48291Y25057D01*
X48250Y25020D01*
X48987Y25956D01*
X48958Y25906D01*
D02*
G37*
G36*
X369819Y24302D02*
X369816Y24303D01*
X369807Y24304D01*
X369663Y24306D01*
X369500Y24306D01*
Y24906D01*
X369819Y24910D01*
Y24302D01*
D02*
G37*
G36*
X74528Y24668D02*
X74475Y24649D01*
X74427Y24619D01*
X74383Y24576D01*
X74344Y24522D01*
X74309Y24455D01*
X74279Y24376D01*
X74254Y24284D01*
X74233Y24181D01*
X74217Y24066D01*
X73609Y24066D01*
X73620Y24182D01*
X73623Y24285D01*
X73618Y24376D01*
X73606Y24455D01*
X73586Y24522D01*
X73560Y24577D01*
X73525Y24619D01*
X73484Y24649D01*
X73435Y24668D01*
X73378Y24674D01*
X74585D01*
X74528Y24668D01*
D02*
G37*
G36*
X31355Y24704D02*
X31280Y24628D01*
X31215Y24541D01*
X31158Y24442D01*
X31109Y24332D01*
X31070Y24210D01*
X31039Y24077D01*
X31018Y23932D01*
X31004Y23776D01*
X31000Y23608D01*
X30000D01*
X29996Y23776D01*
X29983Y23932D01*
X29961Y24077D01*
X29930Y24210D01*
X29890Y24332D01*
X29842Y24442D01*
X29785Y24541D01*
X29720Y24628D01*
X29645Y24704D01*
X29562Y24768D01*
X31438D01*
X31355Y24704D01*
D02*
G37*
G36*
X350119Y24093D02*
X350146Y24146D01*
X350719Y23953D01*
X350680Y23865D01*
X350667Y23830D01*
X351022Y23660D01*
X350919Y23621D01*
X350823Y23578D01*
X350734Y23531D01*
X350652Y23480D01*
X350576Y23423D01*
X350575Y23422D01*
X350574Y23419D01*
X350571Y23329D01*
X350574Y23238D01*
X350583Y23147D01*
X350599Y23056D01*
X350357Y23180D01*
X350340Y23154D01*
X350298Y23076D01*
X349757Y23335D01*
X349792Y23417D01*
X349807Y23463D01*
X349554Y23593D01*
X349607Y23574D01*
X349661Y23572D01*
X349717Y23586D01*
X349775Y23617D01*
X349833Y23664D01*
X349851Y23683D01*
X349855Y23770D01*
X349851Y23864D01*
X349840Y23960D01*
X349821Y24060D01*
X349794Y24161D01*
X349760Y24265D01*
X350119Y24093D01*
D02*
G37*
G36*
X334520Y27726D02*
X334580Y27386D01*
X334680Y27086D01*
X334820Y26826D01*
X335000Y26606D01*
X335220Y26426D01*
X335480Y26286D01*
X335780Y26186D01*
X336120Y26126D01*
X336500Y26106D01*
Y24106D01*
X336120Y24086D01*
X335780Y24026D01*
X335480Y23926D01*
X335220Y23786D01*
X335000Y23606D01*
X334820Y23386D01*
X334680Y23126D01*
X334580Y22826D01*
X334520Y22486D01*
X334500Y22106D01*
X333727Y23266D01*
X332740D01*
Y20650D01*
X332696Y20660D01*
X332597Y20670D01*
X332238Y20686D01*
X331183Y20695D01*
X329038Y20661D01*
Y23551D01*
X329079Y23543D01*
X329174Y23535D01*
X330103Y23514D01*
X330202Y23513D01*
X332475Y23558D01*
X332495Y24204D01*
X332500Y25106D01*
X332443Y26946D01*
X333727D01*
X334500Y28106D01*
X334520Y27726D01*
D02*
G37*
G36*
X342423Y21109D02*
X342413Y21203D01*
X342382Y21288D01*
X342331Y21362D01*
X342260Y21427D01*
X342168Y21482D01*
X342055Y21527D01*
X341922Y21562D01*
X341769Y21586D01*
X341596Y21601D01*
X341500Y21604D01*
X341404Y21601D01*
X341231Y21586D01*
X341077Y21562D01*
X340945Y21527D01*
X340832Y21482D01*
X340740Y21427D01*
X340669Y21362D01*
X340618Y21288D01*
X340587Y21203D01*
X340577Y21109D01*
Y23104D01*
X340587Y23009D01*
X340618Y22925D01*
X340669Y22850D01*
X340740Y22785D01*
X340832Y22731D01*
X340945Y22686D01*
X341077Y22651D01*
X341231Y22626D01*
X341404Y22611D01*
X341500Y22609D01*
X341596Y22611D01*
X341769Y22626D01*
X341922Y22651D01*
X342055Y22686D01*
X342168Y22731D01*
X342260Y22785D01*
X342331Y22850D01*
X342382Y22925D01*
X342413Y23009D01*
X342423Y23104D01*
Y21109D01*
D02*
G37*
G36*
X31004Y23437D02*
X31018Y23281D01*
X31039Y23136D01*
X31070Y23002D01*
X31109Y22881D01*
X31158Y22770D01*
X31215Y22671D01*
X31280Y22584D01*
X31355Y22508D01*
X31438Y22444D01*
X29562D01*
X29645Y22508D01*
X29720Y22584D01*
X29785Y22671D01*
X29842Y22770D01*
X29890Y22881D01*
X29930Y23002D01*
X29961Y23136D01*
X29983Y23281D01*
X29996Y23437D01*
X30000Y23605D01*
X31000D01*
X31004Y23437D01*
D02*
G37*
G36*
X60862Y22144D02*
X60774Y22054D01*
X60577Y21829D01*
X60533Y21768D01*
X60501Y21716D01*
X60481Y21671D01*
X60471Y21633D01*
X60473Y21603D01*
X60487Y21581D01*
X60393Y21674D01*
X60355Y21633D01*
X60302Y21567D01*
X60250Y21496D01*
X60202Y21418D01*
X60156Y21335D01*
X60071Y21151D01*
X60032Y21051D01*
X59962Y20833D01*
X59292Y22063D01*
X59389Y22038D01*
X59482Y22022D01*
X59573Y22016D01*
X59660Y22021D01*
X59744Y22035D01*
X59825Y22058D01*
X59903Y22091D01*
X59949Y22118D01*
X59874Y22193D01*
X59897Y22180D01*
X59927Y22178D01*
X59965Y22187D01*
X60010Y22208D01*
X60062Y22240D01*
X60122Y22283D01*
X60190Y22337D01*
X60348Y22480D01*
X60438Y22568D01*
X60862Y22144D01*
D02*
G37*
G36*
X354400Y33606D02*
X361000Y33606D01*
X361199D01*
X361566Y33454D01*
X361848Y33173D01*
X362000Y32805D01*
Y32606D01*
Y27606D01*
Y27407D01*
X361848Y27040D01*
X361566Y26759D01*
X361199Y26606D01*
X361000D01*
X355600Y26606D01*
X355600Y26606D01*
X355405Y26587D01*
X355044Y26438D01*
X354768Y26162D01*
X354619Y25801D01*
X354600Y25606D01*
X354600Y21906D01*
X352400D01*
X352400Y31606D01*
X352400Y32004D01*
X352704Y32739D01*
X353267Y33302D01*
X354002Y33606D01*
X354400Y33606D01*
D02*
G37*
G36*
X86624Y22313D02*
X86556Y22233D01*
X86496Y22152D01*
X86444Y22070D01*
X86400Y21986D01*
X86364Y21902D01*
X86336Y21816D01*
X86316Y21729D01*
X86304Y21641D01*
X86300Y21552D01*
X85700D01*
X85696Y21641D01*
X85684Y21729D01*
X85664Y21816D01*
X85636Y21902D01*
X85600Y21986D01*
X85556Y22070D01*
X85504Y22152D01*
X85444Y22233D01*
X85376Y22313D01*
X85300Y22392D01*
X86700D01*
X86624Y22313D01*
D02*
G37*
G36*
X84344Y22158D02*
X84322Y22130D01*
X84302Y22092D01*
X84285Y22043D01*
X84270Y21983D01*
X84258Y21912D01*
X84249Y21830D01*
X84238Y21634D01*
X84237Y21519D01*
X83637D01*
X83636Y21634D01*
X83616Y21912D01*
X83604Y21983D01*
X83589Y22043D01*
X83572Y22092D01*
X83552Y22130D01*
X83530Y22158D01*
X83505Y22174D01*
X84369D01*
X84344Y22158D01*
D02*
G37*
G36*
X82376D02*
X82353Y22130D01*
X82333Y22092D01*
X82316Y22043D01*
X82301Y21983D01*
X82290Y21912D01*
X82280Y21830D01*
X82270Y21634D01*
X82269Y21519D01*
X81669D01*
X81667Y21634D01*
X81647Y21912D01*
X81635Y21983D01*
X81621Y22043D01*
X81604Y22092D01*
X81584Y22130D01*
X81561Y22158D01*
X81536Y22174D01*
X82401D01*
X82376Y22158D01*
D02*
G37*
G36*
X78439D02*
X78416Y22130D01*
X78396Y22092D01*
X78379Y22043D01*
X78364Y21983D01*
X78353Y21912D01*
X78343Y21830D01*
X78333Y21634D01*
X78332Y21519D01*
X77732D01*
X77730Y21634D01*
X77710Y21912D01*
X77698Y21983D01*
X77684Y22043D01*
X77667Y22092D01*
X77647Y22130D01*
X77624Y22158D01*
X77599Y22174D01*
X78464D01*
X78439Y22158D01*
D02*
G37*
G36*
X80506Y22343D02*
X80505Y22310D01*
X80500Y21338D01*
X79500D01*
X79492Y22356D01*
X80508D01*
X80506Y22343D01*
D02*
G37*
G36*
X76569D02*
X76568Y22310D01*
X76566Y21952D01*
X76581Y21771D01*
X76595Y21685D01*
X76613Y21606D01*
X76635Y21535D01*
X76661Y21470D01*
X76691Y21413D01*
X76725Y21363D01*
X76763Y21320D01*
X75363D01*
X75401Y21363D01*
X75435Y21413D01*
X75465Y21470D01*
X75491Y21535D01*
X75513Y21606D01*
X75531Y21685D01*
X75545Y21771D01*
X75555Y21864D01*
X75558Y21953D01*
X75555Y22356D01*
X76571D01*
X76569Y22343D01*
D02*
G37*
G36*
X311452Y23009D02*
X311483Y22925D01*
X311537Y22850D01*
X311611Y22785D01*
X311706Y22731D01*
X311823Y22686D01*
X311961Y22651D01*
X312120Y22626D01*
X312301Y22611D01*
X312502Y22606D01*
Y21606D01*
X312301Y21601D01*
X312120Y21586D01*
X311961Y21562D01*
X311823Y21527D01*
X311706Y21482D01*
X311611Y21427D01*
X311537Y21362D01*
X311483Y21288D01*
X311452Y21203D01*
X311441Y21109D01*
Y23104D01*
X311452Y23009D01*
D02*
G37*
G36*
X339526Y20620D02*
X339478Y20649D01*
X339416Y20656D01*
X339339Y20640D01*
X339249Y20602D01*
X339143Y20541D01*
X339024Y20458D01*
X338890Y20353D01*
X338579Y20074D01*
X338402Y19901D01*
X337694Y20608D01*
X337867Y20785D01*
X338252Y21230D01*
X338335Y21350D01*
X338396Y21455D01*
X338434Y21546D01*
X338450Y21622D01*
X338443Y21684D01*
X338414Y21732D01*
X339526Y20620D01*
D02*
G37*
G36*
X64793Y21730D02*
X64873Y21662D01*
X64954Y21602D01*
X65037Y21550D01*
X65120Y21506D01*
X65205Y21470D01*
X65290Y21442D01*
X65377Y21422D01*
X65465Y21410D01*
X65487Y21409D01*
Y21655D01*
X65492Y21608D01*
X65509Y21565D01*
X65537Y21528D01*
X65576Y21496D01*
X65627Y21468D01*
X65688Y21446D01*
X65761Y21429D01*
X65845Y21416D01*
X65940Y21409D01*
X66047Y21406D01*
Y20806D01*
X65940Y20804D01*
X65845Y20796D01*
X65761Y20784D01*
X65688Y20767D01*
X65627Y20744D01*
X65576Y20717D01*
X65537Y20685D01*
X65509Y20647D01*
X65492Y20605D01*
X65487Y20558D01*
Y20803D01*
X65465Y20802D01*
X65377Y20790D01*
X65290Y20770D01*
X65205Y20742D01*
X65120Y20706D01*
X65037Y20662D01*
X64954Y20610D01*
X64873Y20550D01*
X64793Y20482D01*
X64714Y20406D01*
Y21806D01*
X64793Y21730D01*
D02*
G37*
G36*
X41593Y21649D02*
X41611Y21598D01*
X41642Y21553D01*
X41684Y21514D01*
X41739Y21481D01*
X41807Y21454D01*
X41886Y21433D01*
X41978Y21418D01*
X42082Y21409D01*
X42199Y21406D01*
Y20806D01*
X42082Y20803D01*
X41978Y20794D01*
X41886Y20779D01*
X41807Y20758D01*
X41739Y20731D01*
X41684Y20698D01*
X41642Y20659D01*
X41611Y20614D01*
X41593Y20563D01*
X41587Y20506D01*
Y21706D01*
X41593Y21649D01*
D02*
G37*
G36*
X80504Y20537D02*
X80518Y20381D01*
X80539Y20236D01*
X80570Y20102D01*
X80610Y19981D01*
X80658Y19870D01*
X80715Y19771D01*
X80780Y19684D01*
X80855Y19608D01*
X80938Y19544D01*
X79062D01*
X79145Y19608D01*
X79220Y19684D01*
X79285Y19771D01*
X79342Y19870D01*
X79391Y19981D01*
X79430Y20102D01*
X79461Y20236D01*
X79483Y20381D01*
X79496Y20537D01*
X79500Y20705D01*
X80500D01*
X80504Y20537D01*
D02*
G37*
G36*
X354438Y20768D02*
X354464Y20773D01*
X354467Y20733D01*
X354446Y20651D01*
X354400Y20525D01*
X354238Y20143D01*
X353625Y18860D01*
X353576Y18871D01*
X352516Y16545D01*
X352500Y16406D01*
X350471Y18760D01*
X350640Y18810D01*
X350813Y18892D01*
X350987Y19008D01*
X351165Y19155D01*
X351345Y19336D01*
X351527Y19549D01*
X351712Y19795D01*
X351887Y20054D01*
X352401Y21156D01*
X354438Y20768D01*
D02*
G37*
G36*
X35355Y19704D02*
X35280Y19628D01*
X35215Y19541D01*
X35158Y19442D01*
X35109Y19332D01*
X35070Y19210D01*
X35039Y19077D01*
X35017Y18932D01*
X35004Y18776D01*
X35000Y18608D01*
X34000D01*
X33996Y18776D01*
X33983Y18932D01*
X33961Y19077D01*
X33930Y19210D01*
X33891Y19332D01*
X33842Y19442D01*
X33785Y19541D01*
X33720Y19628D01*
X33645Y19704D01*
X33562Y19768D01*
X35438D01*
X35355Y19704D01*
D02*
G37*
G36*
X370300Y20606D02*
X375700Y20606D01*
X375700Y20606D01*
X375799Y20606D01*
X375983Y20530D01*
X376124Y20390D01*
X376200Y20206D01*
X376200Y20106D01*
X376200Y19106D01*
X376200Y19106D01*
X376200Y19007D01*
X376124Y18823D01*
X375983Y18682D01*
X375799Y18606D01*
X375700D01*
X370300Y18606D01*
X370300D01*
X370200Y18606D01*
X370017Y18683D01*
X369876Y18823D01*
X369800Y19007D01*
X369800Y19106D01*
X369800Y20106D01*
Y20106D01*
X369800Y20206D01*
X369876Y20390D01*
X370017Y20530D01*
X370200Y20606D01*
X370300Y20606D01*
D02*
G37*
G36*
X366443Y18798D02*
X366392Y18733D01*
X366347Y18663D01*
X366308Y18590D01*
X366275Y18511D01*
X366248Y18429D01*
X366227Y18342D01*
X366212Y18251D01*
X366203Y18156D01*
X366200Y18057D01*
X365400D01*
X365397Y18156D01*
X365388Y18251D01*
X365373Y18342D01*
X365352Y18429D01*
X365325Y18511D01*
X365292Y18590D01*
X365253Y18663D01*
X365208Y18733D01*
X365157Y18798D01*
X365100Y18859D01*
X366500D01*
X366443Y18798D01*
D02*
G37*
G36*
X342532Y16309D02*
X342522Y16403D01*
X342491Y16488D01*
X342439Y16563D01*
X342367Y16627D01*
X342274Y16682D01*
X342161Y16727D01*
X342027Y16761D01*
X341872Y16786D01*
X341697Y16801D01*
X341550Y16805D01*
X341403Y16801D01*
X341229Y16786D01*
X341075Y16761D01*
X340943Y16726D01*
X340831Y16681D01*
X340740Y16626D01*
X340671Y16561D01*
X340622Y16486D01*
X340594Y16401D01*
X340586Y16306D01*
X340520Y18300D01*
X340534Y18206D01*
X340568Y18122D01*
X340624Y18048D01*
X340701Y17984D01*
X340798Y17930D01*
X340916Y17885D01*
X341055Y17851D01*
X341215Y17826D01*
X341397Y17811D01*
X341548Y17808D01*
X341697Y17811D01*
X341872Y17826D01*
X342027Y17851D01*
X342161Y17886D01*
X342274Y17931D01*
X342367Y17986D01*
X342439Y18050D01*
X342491Y18125D01*
X342522Y18209D01*
X342532Y18304D01*
Y16309D01*
D02*
G37*
G36*
X75093Y18649D02*
X75111Y18598D01*
X75142Y18553D01*
X75185Y18514D01*
X75239Y18481D01*
X75307Y18454D01*
X75386Y18433D01*
X75478Y18418D01*
X75582Y18409D01*
X75699Y18406D01*
Y17806D01*
X75582Y17803D01*
X75478Y17794D01*
X75386Y17779D01*
X75307Y17758D01*
X75239Y17731D01*
X75185Y17698D01*
X75142Y17659D01*
X75111Y17614D01*
X75093Y17563D01*
X75086Y17506D01*
Y18706D01*
X75093Y18649D01*
D02*
G37*
G36*
X75793Y18730D02*
X75873Y18662D01*
X75954Y18602D01*
X76037Y18550D01*
X76120Y18506D01*
X76205Y18470D01*
X76290Y18442D01*
X76377Y18422D01*
X76465Y18410D01*
X76554Y18406D01*
Y17806D01*
X76465Y17802D01*
X76377Y17790D01*
X76290Y17770D01*
X76205Y17742D01*
X76120Y17706D01*
X76037Y17662D01*
X75954Y17610D01*
X75873Y17550D01*
X75793Y17482D01*
X75714Y17406D01*
Y18806D01*
X75793Y18730D01*
D02*
G37*
G36*
X356700Y17106D02*
X356859Y17106D01*
X357153Y16984D01*
X357378Y16759D01*
X357500Y16465D01*
X357499Y16306D01*
X357499Y16306D01*
X357500Y11632D01*
X357500Y11447D01*
X357359Y11107D01*
X357099Y10847D01*
X356758Y10706D01*
X356574Y10706D01*
X356575Y10706D01*
X353800Y10706D01*
X353605Y10687D01*
X353244Y10538D01*
X352969Y10262D01*
X352819Y9901D01*
X352800Y9706D01*
Y9706D01*
X352800Y6506D01*
X352800Y6407D01*
X352724Y6223D01*
X352583Y6082D01*
X352399Y6006D01*
X352300D01*
X350300Y6006D01*
X350201D01*
X350017Y6083D01*
X349876Y6223D01*
X349800Y6407D01*
X349800Y6506D01*
Y6506D01*
X349800Y11606D01*
X349800Y11925D01*
X350044Y12513D01*
X350494Y12963D01*
X351082Y13206D01*
X351400Y13206D01*
X351400Y13206D01*
X353300Y13206D01*
X353495Y13226D01*
X353856Y13375D01*
X354132Y13651D01*
X354281Y14011D01*
X354300Y14206D01*
X354300Y14206D01*
X354300Y16106D01*
Y16305D01*
X354452Y16673D01*
X354733Y16954D01*
X355101Y17106D01*
X355300Y17106D01*
X355300Y17106D01*
X356700Y17106D01*
D02*
G37*
G36*
X331622Y19472D02*
X331756Y19059D01*
X331490Y18661D01*
X331370Y18056D01*
Y17606D01*
X332392D01*
X332407Y17649D01*
X332414Y17706D01*
Y17606D01*
X332551D01*
X332627Y17662D01*
X332707Y17730D01*
X332786Y17806D01*
Y17606D01*
X333500D01*
Y16606D01*
X332786D01*
Y16406D01*
X332707Y16482D01*
X332627Y16550D01*
X332551Y16606D01*
X332414D01*
Y16506D01*
X332407Y16563D01*
X332392Y16606D01*
X331370D01*
Y16156D01*
X331490Y15552D01*
X331833Y15039D01*
Y14674D01*
X331490Y14161D01*
X331370Y13556D01*
Y11656D01*
X331490Y11051D01*
X331671Y10780D01*
X331678Y10762D01*
X331685Y10753D01*
X331825Y10356D01*
X331685Y9959D01*
X331678Y9951D01*
X331671Y9932D01*
X331490Y9661D01*
X331370Y9056D01*
Y7156D01*
X331490Y6551D01*
X331633Y6337D01*
X331313Y5737D01*
X330474D01*
X330173Y6337D01*
X330399Y6673D01*
X330534Y7356D01*
Y8856D01*
X330399Y9539D01*
X330012Y10118D01*
X329433Y10505D01*
X328750Y10641D01*
X325250D01*
X324567Y10505D01*
X323988Y10118D01*
X323602Y9539D01*
X323466Y8856D01*
Y7356D01*
X323602Y6673D01*
X323827Y6337D01*
X323526Y5737D01*
X66047Y5737D01*
X65865Y6337D01*
X66167Y6539D01*
X66510Y7051D01*
X66630Y7656D01*
Y9556D01*
X66575Y9836D01*
X66531Y11247D01*
Y13072D01*
X66640Y13075D01*
X72956D01*
X73159Y12475D01*
X72860Y12246D01*
X72379Y11619D01*
X72077Y10890D01*
X71974Y10106D01*
X72077Y9323D01*
X72379Y8593D01*
X72860Y7967D01*
X73487Y7486D01*
X74217Y7184D01*
X75000Y7080D01*
X75783Y7184D01*
X76513Y7486D01*
X77140Y7967D01*
X77200Y8045D01*
X77800D01*
X77860Y7967D01*
X78487Y7486D01*
X79217Y7184D01*
X80000Y7080D01*
X80783Y7184D01*
X81513Y7486D01*
X82140Y7967D01*
X82200Y8045D01*
X82800D01*
X82860Y7967D01*
X83487Y7486D01*
X84217Y7184D01*
X84500Y7146D01*
Y7797D01*
X84483Y7827D01*
X84388Y7963D01*
X84275Y8097D01*
X84145Y8228D01*
X83998Y8356D01*
X83833Y8482D01*
X84500D01*
Y10106D01*
X85500D01*
Y8482D01*
X86167D01*
X86002Y8356D01*
X85855Y8228D01*
X85725Y8097D01*
X85612Y7963D01*
X85517Y7827D01*
X85500Y7797D01*
Y7146D01*
X85783Y7184D01*
X86513Y7486D01*
X87117Y7950D01*
X87277Y8045D01*
X87723D01*
X87883Y7949D01*
X88487Y7486D01*
X89217Y7183D01*
X90000Y7080D01*
X90783Y7183D01*
X91513Y7486D01*
X92117Y7949D01*
X92277Y8045D01*
X92723D01*
X92883Y7949D01*
X93487Y7486D01*
X94217Y7183D01*
X95000Y7080D01*
X95783Y7183D01*
X96513Y7486D01*
X97140Y7967D01*
X97200Y8045D01*
X97723D01*
X97883Y7949D01*
X98487Y7486D01*
X99217Y7183D01*
X100000Y7080D01*
X100783Y7183D01*
X101513Y7486D01*
X102140Y7967D01*
X102150Y7980D01*
X102157Y7984D01*
X102198Y8000D01*
X102264Y8021D01*
X102354Y8041D01*
X102454Y8057D01*
X102570Y8067D01*
X318400D01*
X318472Y8081D01*
X319694Y8202D01*
X320938Y8579D01*
X322084Y9192D01*
X323090Y10017D01*
X323914Y11022D01*
X324527Y12168D01*
X324904Y13412D01*
X325025Y14634D01*
X325039Y14706D01*
Y19399D01*
X325250Y19572D01*
X328750D01*
X329104Y19642D01*
X330172Y19659D01*
X331490D01*
X331622Y19472D01*
D02*
G37*
G36*
X366204Y16723D02*
X366216Y16584D01*
X366236Y16463D01*
X366264Y16357D01*
X366300Y16268D01*
X366344Y16195D01*
X366396Y16138D01*
X366456Y16097D01*
X366524Y16073D01*
X366600Y16065D01*
X365000D01*
X365076Y16073D01*
X365144Y16097D01*
X365204Y16138D01*
X365256Y16195D01*
X365300Y16268D01*
X365336Y16357D01*
X365364Y16463D01*
X365384Y16584D01*
X365396Y16723D01*
X365400Y16877D01*
X366200D01*
X366204Y16723D01*
D02*
G37*
G36*
X362843Y16831D02*
X362792Y16766D01*
X362747Y16696D01*
X362708Y16623D01*
X362675Y16544D01*
X362648Y16462D01*
X362642Y16439D01*
X362664Y16357D01*
X362700Y16268D01*
X362744Y16195D01*
X362796Y16138D01*
X362856Y16097D01*
X362924Y16073D01*
X363000Y16065D01*
X361400D01*
X361476Y16073D01*
X361544Y16097D01*
X361604Y16138D01*
X361656Y16195D01*
X361700Y16268D01*
X361736Y16357D01*
X361758Y16439D01*
X361752Y16462D01*
X361725Y16544D01*
X361692Y16623D01*
X361653Y16696D01*
X361608Y16766D01*
X361557Y16831D01*
X361500Y16892D01*
X362900Y16892D01*
X362843Y16831D01*
D02*
G37*
G36*
X351215Y15819D02*
X351152Y15888D01*
X351072Y15926D01*
X350976Y15934D01*
X350862Y15911D01*
X350732Y15858D01*
X350586Y15774D01*
X350423Y15659D01*
X350243Y15514D01*
X349832Y15132D01*
X349393Y16107D01*
X349579Y16299D01*
X349875Y16651D01*
X349985Y16809D01*
X350069Y16957D01*
X350129Y17092D01*
X350163Y17217D01*
X350171Y17329D01*
X350154Y17431D01*
X350113Y17521D01*
X351215Y15819D01*
D02*
G37*
G36*
X81046Y17012D02*
X81036Y16942D01*
X81028Y16836D01*
X81002Y15777D01*
X81000Y15106D01*
X79000D01*
X78943Y17046D01*
X81057D01*
X81046Y17012D01*
D02*
G37*
G36*
X88270Y46703D02*
X88798Y46175D01*
X88815Y46164D01*
X88827Y46148D01*
X89438Y45594D01*
X89490Y45563D01*
X89532Y45520D01*
X90902Y44605D01*
X90976Y44574D01*
X91043Y44530D01*
X92564Y43900D01*
X92643Y43884D01*
X92717Y43853D01*
X94332Y43532D01*
X94393D01*
X94452Y43517D01*
X95275Y43477D01*
X95295Y43480D01*
X95315Y43476D01*
X300813Y43476D01*
X301133Y42876D01*
X300990Y42661D01*
X300870Y42056D01*
Y40417D01*
X300296Y39669D01*
X299821Y38523D01*
X299659Y37292D01*
X299675D01*
Y15606D01*
X299663D01*
X299612Y15353D01*
X299469Y15138D01*
X299254Y14994D01*
X299000Y14944D01*
Y14932D01*
X110260D01*
X109984Y15532D01*
X110284Y15980D01*
X110439Y16761D01*
X110284Y17541D01*
X109842Y18203D01*
X109180Y18645D01*
X108400Y18800D01*
X107620Y18645D01*
X106958Y18203D01*
X106516Y17541D01*
X106361Y16761D01*
X106363Y16751D01*
X105830Y16353D01*
X105601Y16474D01*
X105418Y16915D01*
X105327Y17606D01*
X105325D01*
Y27606D01*
X105341D01*
X105177Y28851D01*
X104697Y30011D01*
X103932Y31007D01*
X102936Y31772D01*
X101776Y32252D01*
X100531Y32416D01*
X100531Y32416D01*
X99961Y32488D01*
X99942Y32517D01*
X99280Y32959D01*
X98500Y33114D01*
X97720Y32959D01*
X97058Y32517D01*
X96616Y31855D01*
X96461Y31075D01*
X96616Y30294D01*
X97058Y29633D01*
X97720Y29191D01*
X98500Y29036D01*
X99280Y29191D01*
X99942Y29633D01*
X99990Y29705D01*
X100007Y29719D01*
X100030Y29737D01*
X100048Y29748D01*
X100051Y29749D01*
X100531D01*
X100574Y29758D01*
X101358Y29602D01*
X102059Y29134D01*
X102527Y28433D01*
X102683Y27649D01*
X102674Y27606D01*
Y17606D01*
X102654D01*
X102836Y16223D01*
X103370Y14933D01*
X104220Y13826D01*
X105327Y12977D01*
X105886Y12745D01*
X105766Y12145D01*
X102537D01*
X102466Y12153D01*
X102354Y12171D01*
X102264Y12192D01*
X102198Y12212D01*
X102157Y12229D01*
X102150Y12232D01*
X102140Y12246D01*
X101513Y12727D01*
X100783Y13029D01*
X100000Y13132D01*
X99217Y13029D01*
X98487Y12727D01*
X97883Y12263D01*
X97723Y12167D01*
X97200D01*
X97140Y12246D01*
X96513Y12727D01*
X95783Y13029D01*
X95000Y13132D01*
X94953Y13126D01*
X94717Y13127D01*
X94251Y13156D01*
X94179Y13166D01*
X94152Y13175D01*
X94027Y13399D01*
X93954Y13680D01*
X93960Y13803D01*
X93965Y13823D01*
X93965Y13823D01*
X93973Y13836D01*
X94334Y14376D01*
X94489Y15156D01*
Y37156D01*
X94487Y37168D01*
X94335Y38318D01*
X93887Y39401D01*
X93174Y40330D01*
X92244Y41043D01*
X91162Y41492D01*
X90012Y41643D01*
X90000Y41646D01*
X89220Y41490D01*
X88558Y41048D01*
X88116Y40387D01*
X87961Y39606D01*
X88116Y38826D01*
X88558Y38164D01*
X89220Y37722D01*
X90000Y37567D01*
X90002Y37567D01*
X90411Y37158D01*
X90411Y37156D01*
Y32870D01*
X90270Y32764D01*
X89811Y32604D01*
X89280Y32959D01*
X88500Y33114D01*
X87960Y33618D01*
X87928Y33781D01*
X87651Y34194D01*
X87326Y34412D01*
Y35399D01*
X87326D01*
X87223Y36184D01*
X86920Y36916D01*
X86647Y37271D01*
X86575Y37873D01*
X86662Y38080D01*
X86910Y38451D01*
X87030Y39056D01*
Y40156D01*
X86910Y40761D01*
X86567Y41274D01*
X86055Y41616D01*
X85767Y41674D01*
X85715Y42066D01*
X85382Y42869D01*
X85333Y42934D01*
X85644Y43514D01*
X86055Y43596D01*
X86567Y43939D01*
X86910Y44451D01*
X87030Y45056D01*
Y45106D01*
X84500D01*
Y46106D01*
X87030D01*
Y46156D01*
X86910Y46761D01*
X86754Y46994D01*
X87187Y47427D01*
X88270Y46703D01*
D02*
G37*
G36*
X41042Y16806D02*
X41077Y16722D01*
X41135Y16648D01*
X41217Y16584D01*
X41322Y16530D01*
X41451Y16485D01*
X41603Y16451D01*
X41778Y16426D01*
X41977Y16411D01*
X42200Y16406D01*
Y15406D01*
X41977Y15401D01*
X41603Y15362D01*
X41451Y15327D01*
X41322Y15283D01*
X41217Y15229D01*
X41135Y15165D01*
X41077Y15091D01*
X41042Y15007D01*
X41030Y14913D01*
Y16900D01*
X41042Y16806D01*
D02*
G37*
G36*
X65194Y16154D02*
X65266Y16146D01*
X65526Y16132D01*
X67233Y16115D01*
X67257Y14115D01*
X65476Y14059D01*
X65492Y12523D01*
X63492Y12008D01*
X63484Y12319D01*
X63459Y12608D01*
X63417Y12877D01*
X63359Y13125D01*
X63284Y13351D01*
X63193Y13557D01*
X63085Y13741D01*
X62961Y13905D01*
X62820Y14047D01*
X62800Y14062D01*
X62725Y14073D01*
X62611Y14083D01*
X61920Y14104D01*
X60160Y14050D01*
Y16163D01*
X60194Y16154D01*
X60266Y16146D01*
X60527Y16132D01*
X61213Y16125D01*
X62840Y16163D01*
Y14180D01*
X65160Y14327D01*
Y16163D01*
X65194Y16154D01*
D02*
G37*
G36*
X55073Y16882D02*
X55159Y16833D01*
X55281Y16783D01*
X55438Y16732D01*
X55861Y16625D01*
X56428Y16514D01*
X57139Y16398D01*
X57134Y16374D01*
X57781Y16238D01*
X57835Y16210D01*
X57855Y16185D01*
X57840Y16163D01*
X57662Y14168D01*
X57624Y14199D01*
X57549Y14232D01*
X57435Y14268D01*
X57285Y14308D01*
X56606Y14445D01*
X55589Y14610D01*
X55596Y14625D01*
X54829Y14752D01*
X55024Y16930D01*
X55073Y16882D01*
D02*
G37*
G36*
X360604Y14955D02*
X360665Y14880D01*
X360731Y14813D01*
X360800Y14755D01*
X360874Y14706D01*
X360950Y14666D01*
X361031Y14635D01*
X361047Y14631D01*
X361056Y14639D01*
Y14629D01*
X361116Y14613D01*
X361204Y14600D01*
X361296Y14595D01*
X361160Y13995D01*
X361075Y13992D01*
X361056Y13990D01*
Y13951D01*
X361047Y13960D01*
X361026Y13967D01*
X360993Y13974D01*
X360964Y13977D01*
X360902Y13966D01*
X360813Y13943D01*
X360723Y13914D01*
X360632Y13879D01*
X360539Y13837D01*
X360348Y13733D01*
X360250Y13671D01*
X360438Y14540D01*
Y14595D01*
X360450Y14595D01*
X360546Y15040D01*
X360604Y14955D01*
D02*
G37*
G36*
X366951Y14631D02*
X366966Y14623D01*
X366988Y14617D01*
X367017Y14611D01*
X367054Y14606D01*
X367150Y14599D01*
X367349Y14595D01*
Y13995D01*
X367275Y13995D01*
X367017Y13980D01*
X366988Y13974D01*
X366966Y13967D01*
X366951Y13960D01*
X366944Y13951D01*
Y14639D01*
X366951Y14631D01*
D02*
G37*
G36*
X366953Y13253D02*
X366974Y13245D01*
X367007Y13239D01*
X367052Y13233D01*
X367175Y13224D01*
X367562Y13217D01*
Y12617D01*
X367448Y12617D01*
X366974Y12589D01*
X366953Y12582D01*
X366944Y12573D01*
Y13261D01*
X366953Y13253D01*
D02*
G37*
G36*
X361200Y12514D02*
X361151Y12531D01*
X361098Y12546D01*
X361040Y12556D01*
X360978Y12563D01*
X360911Y12566D01*
X360841Y12565D01*
X360687Y12553D01*
X360603Y12542D01*
X360515Y12527D01*
X360304Y13089D01*
X361056Y13261D01*
X361200Y12514D01*
D02*
G37*
G36*
X82368Y12051D02*
X82269Y11938D01*
X82183Y11813D01*
X82111Y11675D01*
X82052Y11525D01*
X82006Y11362D01*
X81975Y11186D01*
X81957Y10998D01*
X81952Y10798D01*
X81961Y10584D01*
X81984Y10359D01*
X80252Y12090D01*
X80478Y12068D01*
X80691Y12059D01*
X80892Y12063D01*
X81080Y12081D01*
X81255Y12113D01*
X81418Y12158D01*
X81568Y12217D01*
X81706Y12289D01*
X81832Y12375D01*
X81944Y12475D01*
X82368Y12051D01*
D02*
G37*
G36*
X77244Y11926D02*
X77148Y11820D01*
X77067Y11709D01*
X77000Y11591D01*
X76948Y11468D01*
X76910Y11338D01*
X76887Y11203D01*
X76878Y11062D01*
X76883Y10915D01*
X76903Y10762D01*
X76937Y10603D01*
X75497Y12044D01*
X75656Y12009D01*
X75809Y11990D01*
X75955Y11984D01*
X76097Y11993D01*
X76232Y12017D01*
X76361Y12054D01*
X76485Y12107D01*
X76602Y12173D01*
X76714Y12255D01*
X76819Y12350D01*
X77244Y11926D01*
D02*
G37*
G36*
X359327Y12311D02*
X359324Y12301D01*
X359934Y12118D01*
X359938Y12115D01*
X359946Y12103D01*
X359998Y12013D01*
X360178Y11685D01*
X358839Y12094D01*
X358939Y12145D01*
X359318Y12314D01*
X359327Y12311D01*
D02*
G37*
G36*
X340587Y13509D02*
X340618Y13425D01*
X340669Y13350D01*
X340740Y13285D01*
X340832Y13231D01*
X340945Y13186D01*
X341077Y13151D01*
X341231Y13126D01*
X341404Y13111D01*
X341599Y13106D01*
Y12106D01*
X341404Y12101D01*
X341231Y12086D01*
X341077Y12061D01*
X340945Y12027D01*
X340832Y11982D01*
X340740Y11927D01*
X340669Y11862D01*
X340618Y11788D01*
X340587Y11703D01*
X340577Y11609D01*
X340577Y13604D01*
X340587Y13509D01*
D02*
G37*
G36*
X88635Y11896D02*
X88790Y11760D01*
X88809Y11748D01*
X88825Y11740D01*
X88837Y11737D01*
X88845Y11739D01*
X88367Y11261D01*
X88369Y11269D01*
X88366Y11281D01*
X88359Y11297D01*
X88346Y11317D01*
X88329Y11340D01*
X88279Y11398D01*
X88169Y11513D01*
X88593Y11937D01*
X88635Y11896D01*
D02*
G37*
G36*
X366953Y11875D02*
X366974Y11868D01*
X367007Y11861D01*
X367052Y11855D01*
X367175Y11846D01*
X367562Y11839D01*
Y11239D01*
X367448Y11239D01*
X366974Y11211D01*
X366953Y11204D01*
X366944Y11196D01*
Y11883D01*
X366953Y11875D01*
D02*
G37*
G36*
X15930Y13446D02*
X15901Y13358D01*
X15897Y13257D01*
X15920Y13144D01*
X15969Y13018D01*
X16045Y12880D01*
X16147Y12729D01*
X16275Y12566D01*
X16426Y12395D01*
X16543Y12296D01*
X16613Y12245D01*
X16682Y12202D01*
X16748Y12167D01*
X16812Y12140D01*
X16873Y12121D01*
X16933Y12110D01*
X16990Y12106D01*
X16000Y11116D01*
X15997Y11173D01*
X15985Y11233D01*
X15966Y11294D01*
X15939Y11358D01*
X15904Y11425D01*
X15861Y11493D01*
X15810Y11564D01*
X15751Y11637D01*
X15710Y11681D01*
X15377Y11959D01*
X15227Y12061D01*
X15088Y12137D01*
X14963Y12186D01*
X14849Y12209D01*
X14749Y12206D01*
X14660Y12176D01*
X14584Y12120D01*
X15987Y13522D01*
X15930Y13446D01*
D02*
G37*
G36*
X337002Y11565D02*
X337018Y11371D01*
X337032Y11285D01*
X337050Y11206D01*
X337072Y11135D01*
X337098Y11070D01*
X337128Y11013D01*
X337162Y10963D01*
X337200Y10920D01*
X335800D01*
X335838Y10963D01*
X335872Y11013D01*
X335902Y11070D01*
X335928Y11135D01*
X335950Y11206D01*
X335968Y11285D01*
X335982Y11371D01*
X335992Y11464D01*
X336000Y11672D01*
X337000D01*
X337002Y11565D01*
D02*
G37*
G36*
X44418Y10919D02*
X44331Y10968D01*
X44229Y10992D01*
X44111Y10990D01*
X43978Y10963D01*
X43830Y10911D01*
X43667Y10833D01*
X43489Y10730D01*
X43295Y10602D01*
X42862Y10270D01*
X42030Y10879D01*
X42250Y11068D01*
X42596Y11405D01*
X42722Y11553D01*
X42816Y11689D01*
X42879Y11811D01*
X42909Y11919D01*
X42909Y12014D01*
X42876Y12096D01*
X42812Y12165D01*
X44418Y10919D01*
D02*
G37*
G36*
X30385D02*
X30299Y10970D01*
X30197Y10996D01*
X30077Y10996D01*
X29942Y10972D01*
X29789Y10922D01*
X29621Y10847D01*
X29435Y10746D01*
X29233Y10621D01*
X28780Y10294D01*
X28010Y10963D01*
X28233Y11142D01*
X28584Y11463D01*
X28711Y11606D01*
X28807Y11737D01*
X28872Y11855D01*
X28904Y11962D01*
X28905Y12056D01*
X28875Y12138D01*
X28813Y12209D01*
X30385Y10919D01*
D02*
G37*
G36*
X366543Y11142D02*
X366492Y11123D01*
X366447Y11093D01*
X366408Y11050D01*
X366375Y10995D01*
X366348Y10928D01*
X366327Y10848D01*
X366312Y10756D01*
X366303Y10652D01*
X366300Y10536D01*
X365700D01*
X365697Y10652D01*
X365688Y10756D01*
X365673Y10848D01*
X365652Y10928D01*
X365625Y10995D01*
X365592Y11050D01*
X365553Y11093D01*
X365508Y11123D01*
X365457Y11142D01*
X365400Y11148D01*
X366600D01*
X366543Y11142D01*
D02*
G37*
G36*
X362543Y11142D02*
X362492Y11123D01*
X362447Y11093D01*
X362408Y11050D01*
X362375Y10995D01*
X362348Y10927D01*
X362327Y10848D01*
X362312Y10756D01*
X362303Y10652D01*
X362300Y10536D01*
X361700D01*
X361697Y10652D01*
X361688Y10756D01*
X361673Y10848D01*
X361652Y10927D01*
X361625Y10995D01*
X361592Y11050D01*
X361553Y11093D01*
X361508Y11123D01*
X361457Y11142D01*
X361400Y11148D01*
X362600D01*
X362543Y11142D01*
D02*
G37*
G36*
X93071Y12475D02*
X93198Y12395D01*
X93346Y12325D01*
X93515Y12264D01*
X93706Y12213D01*
X93918Y12172D01*
X94152Y12141D01*
X94683Y12108D01*
X94980Y12106D01*
X93000Y10126D01*
X92998Y10424D01*
X92965Y10954D01*
X92934Y11188D01*
X92893Y11400D01*
X92842Y11591D01*
X92782Y11760D01*
X92711Y11908D01*
X92631Y12035D01*
X92541Y12141D01*
X92965Y12565D01*
X93071Y12475D01*
D02*
G37*
G36*
X65557Y9766D02*
X63443D01*
X63453Y9800D01*
X63461Y9872D01*
X63474Y10133D01*
X63492Y11839D01*
X65492Y11863D01*
X65557Y9766D01*
D02*
G37*
G36*
X334355Y11204D02*
X334280Y11128D01*
X334215Y11041D01*
X334158Y10942D01*
X334109Y10832D01*
X334070Y10710D01*
X334039Y10577D01*
X334017Y10432D01*
X334011Y10356D01*
X334017Y10281D01*
X334039Y10136D01*
X334070Y10002D01*
X334109Y9881D01*
X334158Y9770D01*
X334215Y9672D01*
X334280Y9584D01*
X334355Y9509D01*
X334438Y9444D01*
X332562D01*
X332645Y9509D01*
X332720Y9584D01*
X332785Y9672D01*
X332842Y9770D01*
X332891Y9881D01*
X332930Y10002D01*
X332961Y10136D01*
X332982Y10281D01*
X332989Y10356D01*
X332982Y10432D01*
X332961Y10577D01*
X332930Y10710D01*
X332891Y10832D01*
X332842Y10942D01*
X332785Y11041D01*
X332720Y11128D01*
X332645Y11204D01*
X332562Y11268D01*
X334438D01*
X334355Y11204D01*
D02*
G37*
G36*
X347803Y9876D02*
X347811Y9775D01*
X347826Y9686D01*
X347845Y9608D01*
X347871Y9543D01*
X347902Y9489D01*
X347939Y9447D01*
X347981Y9418D01*
X348030Y9400D01*
X348083Y9394D01*
X346917D01*
X346970Y9400D01*
X347019Y9418D01*
X347061Y9447D01*
X347098Y9489D01*
X347129Y9543D01*
X347155Y9608D01*
X347175Y9686D01*
X347189Y9775D01*
X347197Y9876D01*
X347200Y9989D01*
X347800D01*
X347803Y9876D01*
D02*
G37*
G36*
X101514Y11430D02*
X101614Y11362D01*
X101728Y11302D01*
X101857Y11250D01*
X102000Y11206D01*
X102158Y11170D01*
X102330Y11142D01*
X102516Y11122D01*
X102932Y11106D01*
Y9106D01*
X102717Y9102D01*
X102330Y9070D01*
X102158Y9042D01*
X102000Y9006D01*
X101857Y8962D01*
X101728Y8910D01*
X101614Y8850D01*
X101514Y8782D01*
X101428Y8706D01*
Y11506D01*
X101514Y11430D01*
D02*
G37*
G36*
X366303Y9084D02*
X366312Y8976D01*
X366327Y8882D01*
X366348Y8800D01*
X366374Y8730D01*
X366407Y8673D01*
X366446Y8629D01*
X366491Y8597D01*
X366541Y8579D01*
X366598Y8572D01*
X365402D01*
X365459Y8579D01*
X365510Y8597D01*
X365554Y8629D01*
X365593Y8673D01*
X365626Y8730D01*
X365652Y8800D01*
X365673Y8882D01*
X365688Y8976D01*
X365697Y9084D01*
X365700Y9204D01*
X366300D01*
X366303Y9084D01*
D02*
G37*
G36*
X26538Y8554D02*
X26315Y8375D01*
X25964Y8053D01*
X25836Y7910D01*
X25740Y7779D01*
X25675Y7661D01*
X25643Y7555D01*
X25642Y7460D01*
X25673Y7378D01*
X25736Y7309D01*
X24154Y8592D01*
X24241Y8541D01*
X24344Y8515D01*
X24463Y8515D01*
X24599Y8540D01*
X24751Y8589D01*
X24920Y8664D01*
X25106Y8765D01*
X25307Y8890D01*
X25760Y9217D01*
X26538Y8554D01*
D02*
G37*
G36*
X52693Y10027D02*
X53044Y9731D01*
X53203Y9622D01*
X53350Y9537D01*
X53486Y9478D01*
X53610Y9444D01*
X53723Y9435D01*
X53825Y9452D01*
X53915Y9494D01*
X52213Y8392D01*
X52282Y8455D01*
X52320Y8534D01*
X52328Y8631D01*
X52305Y8744D01*
X52252Y8874D01*
X52168Y9020D01*
X52053Y9184D01*
X51908Y9364D01*
X51525Y9774D01*
X52500Y10213D01*
X52693Y10027D01*
D02*
G37*
G36*
X347804Y9071D02*
X347816Y8983D01*
X347836Y8897D01*
X347864Y8811D01*
X347900Y8726D01*
X347944Y8643D01*
X347996Y8561D01*
X348056Y8479D01*
X348124Y8399D01*
X348200Y8320D01*
X346800D01*
X346876Y8399D01*
X346944Y8479D01*
X347004Y8561D01*
X347056Y8643D01*
X347100Y8726D01*
X347136Y8811D01*
X347164Y8897D01*
X347184Y8983D01*
X347196Y9071D01*
X347200Y9160D01*
X347800D01*
X347804Y9071D01*
D02*
G37*
G36*
X362302Y9106D02*
X362304Y9072D01*
X362304Y9071D01*
X362316Y8983D01*
X362336Y8897D01*
X362364Y8811D01*
X362400Y8726D01*
X362444Y8643D01*
X362458Y8620D01*
X362491Y8597D01*
X362541Y8579D01*
X362598Y8572D01*
X362489D01*
X362496Y8561D01*
X362556Y8479D01*
X362624Y8399D01*
X362700Y8320D01*
X361300D01*
X361376Y8399D01*
X361444Y8479D01*
X361504Y8561D01*
X361511Y8572D01*
X361402D01*
X361459Y8579D01*
X361509Y8597D01*
X361542Y8620D01*
X361556Y8643D01*
X361600Y8726D01*
X361636Y8811D01*
X361664Y8897D01*
X361684Y8983D01*
X361696Y9071D01*
X361696Y9072D01*
X361698Y9106D01*
X361700Y9204D01*
X362300D01*
X362302Y9106D01*
D02*
G37*
G36*
X38693Y10027D02*
X39044Y9731D01*
X39203Y9622D01*
X39350Y9537D01*
X39486Y9478D01*
X39610Y9444D01*
X39650Y9441D01*
X39582Y9494D01*
X39669Y9445D01*
X39704Y9437D01*
X39723Y9435D01*
X39825Y9452D01*
X39915Y9494D01*
X39803Y9422D01*
X39889Y9423D01*
X40022Y9450D01*
X40170Y9502D01*
X40333Y9579D01*
X40511Y9682D01*
X40705Y9810D01*
X41138Y10143D01*
X41971Y9533D01*
X41750Y9345D01*
X41404Y9008D01*
X41278Y8859D01*
X41184Y8724D01*
X41121Y8602D01*
X41091Y8494D01*
X41091Y8398D01*
X41124Y8316D01*
X41188Y8248D01*
X39733Y9376D01*
X38212Y8392D01*
X38282Y8455D01*
X38320Y8534D01*
X38328Y8631D01*
X38305Y8744D01*
X38252Y8874D01*
X38168Y9020D01*
X38053Y9184D01*
X37908Y9364D01*
X37525Y9774D01*
X38500Y10213D01*
X38693Y10027D01*
D02*
G37*
G36*
X57547Y7313D02*
X57529Y7407D01*
X57490Y7491D01*
X57430Y7565D01*
X57348Y7629D01*
X57244Y7683D01*
X57119Y7727D01*
X56972Y7762D01*
X56803Y7787D01*
X56613Y7801D01*
X56401Y7806D01*
Y8806D01*
X56600Y8811D01*
X56776Y8826D01*
X56932Y8851D01*
X57065Y8886D01*
X57177Y8931D01*
X57268Y8986D01*
X57336Y9051D01*
X57384Y9126D01*
X57409Y9211D01*
X57414Y9306D01*
X57547Y7313D01*
D02*
G37*
G36*
X55042Y9206D02*
X55077Y9122D01*
X55135Y9048D01*
X55217Y8984D01*
X55322Y8930D01*
X55451Y8885D01*
X55603Y8851D01*
X55778Y8826D01*
X55977Y8811D01*
X56200Y8806D01*
Y7806D01*
X55977Y7801D01*
X55603Y7762D01*
X55451Y7727D01*
X55322Y7683D01*
X55217Y7629D01*
X55135Y7565D01*
X55077Y7491D01*
X55042Y7407D01*
X55030Y7313D01*
Y9300D01*
X55042Y9206D01*
D02*
G37*
G36*
X340587Y9009D02*
X340618Y8925D01*
X340669Y8850D01*
X340740Y8785D01*
X340832Y8731D01*
X340945Y8686D01*
X341077Y8651D01*
X341231Y8626D01*
X341404Y8611D01*
X341551Y8608D01*
X341706Y8611D01*
X341890Y8626D01*
X342054Y8651D01*
X342196Y8685D01*
X342316Y8730D01*
X342416Y8784D01*
X342495Y8848D01*
X342552Y8922D01*
X342588Y9006D01*
X342603Y9100D01*
X342512Y7106D01*
X342507Y7201D01*
X342479Y7286D01*
X342431Y7361D01*
X342361Y7426D01*
X342271Y7481D01*
X342159Y7526D01*
X342026Y7561D01*
X341872Y7586D01*
X341697Y7601D01*
X341550Y7605D01*
X341404Y7601D01*
X341231Y7586D01*
X341077Y7562D01*
X340945Y7527D01*
X340832Y7482D01*
X340740Y7427D01*
X340669Y7362D01*
X340618Y7288D01*
X340587Y7203D01*
X340577Y7109D01*
Y9104D01*
X340587Y9009D01*
D02*
G37*
G36*
X16990Y7106D02*
X16933Y7103D01*
X16873Y7092D01*
X16812Y7072D01*
X16748Y7045D01*
X16682Y7010D01*
X16613Y6967D01*
X16543Y6916D01*
X16470Y6858D01*
X16425Y6816D01*
X16147Y6484D01*
X16045Y6333D01*
X15969Y6195D01*
X15920Y6069D01*
X15897Y5956D01*
X15901Y5855D01*
X15930Y5767D01*
X15987Y5691D01*
X14584Y7093D01*
X14660Y7037D01*
X14749Y7007D01*
X14849Y7003D01*
X14963Y7026D01*
X15088Y7075D01*
X15227Y7151D01*
X15377Y7253D01*
X15541Y7382D01*
X15711Y7532D01*
X15810Y7649D01*
X15861Y7720D01*
X15904Y7788D01*
X15939Y7854D01*
X15966Y7918D01*
X15985Y7980D01*
X15997Y8039D01*
X16000Y8096D01*
X16990Y7106D01*
D02*
G37*
%LPC*%
G36*
X29500Y39737D02*
X29050D01*
X28445Y39616D01*
X27981Y39306D01*
X27705Y39490D01*
X26925Y39645D01*
X26917Y39644D01*
X26450Y39737D01*
X24550D01*
X23945Y39616D01*
X23679Y39439D01*
X23250Y39323D01*
X22821Y39439D01*
X22555Y39616D01*
X21950Y39737D01*
X20050D01*
X19445Y39616D01*
X18933Y39274D01*
X18590Y38761D01*
X18470Y38156D01*
Y37056D01*
X18590Y36452D01*
X18933Y35939D01*
X19445Y35596D01*
X20050Y35476D01*
X21950D01*
X22555Y35596D01*
X22821Y35774D01*
X23250Y35890D01*
X23679Y35774D01*
X23945Y35596D01*
X24550Y35476D01*
X26450D01*
X26917Y35569D01*
X26925Y35567D01*
X27705Y35722D01*
X27981Y35906D01*
X28445Y35596D01*
X29050Y35476D01*
X29500D01*
Y37606D01*
Y39737D01*
D02*
G37*
G36*
X34000D02*
X33550D01*
X32945Y39616D01*
X32432Y39274D01*
X32067D01*
X31555Y39616D01*
X30950Y39737D01*
X30500D01*
Y37606D01*
Y35476D01*
X30950D01*
X31555Y35596D01*
X32067Y35939D01*
X32432D01*
X32945Y35596D01*
X33550Y35476D01*
X34000D01*
Y36851D01*
X33978Y36876D01*
X33917Y36940D01*
X33849Y36998D01*
X33764Y37063D01*
X33678Y37120D01*
X33592Y37169D01*
X33506Y37211D01*
X33420Y37245D01*
X33333Y37272D01*
X33246Y37291D01*
X33158Y37303D01*
X33071Y37306D01*
X33031Y37906D01*
X33121Y37911D01*
X33209Y37923D01*
X33295Y37944D01*
X33380Y37973D01*
X33462Y38010D01*
X33542Y38056D01*
X33621Y38110D01*
X33698Y38173D01*
X33773Y38244D01*
X33840Y38316D01*
X33903Y38396D01*
X33965Y38485D01*
X34000Y38540D01*
Y38693D01*
X33900D01*
X33957Y38699D01*
X34000Y38714D01*
Y39737D01*
D02*
G37*
G36*
Y38325D02*
X33846Y38309D01*
X33932Y36955D01*
X34000D01*
Y37606D01*
Y38325D01*
D02*
G37*
G36*
X14750Y38150D02*
X10500D01*
Y37115D01*
X10543Y37099D01*
X10600Y37093D01*
X10500D01*
Y35555D01*
X10556Y35480D01*
X10624Y35399D01*
X10700Y35320D01*
X10500D01*
Y35106D01*
X17044D01*
Y35856D01*
X16870Y36734D01*
X16372Y37479D01*
X15628Y37976D01*
X14750Y38150D01*
D02*
G37*
G36*
X9500D02*
X5250D01*
X4372Y37976D01*
X3628Y37479D01*
X3131Y36734D01*
X2956Y35856D01*
Y35106D01*
X9500D01*
Y35320D01*
X9300D01*
X9376Y35399D01*
X9444Y35480D01*
X9500Y35555D01*
Y37093D01*
X9400D01*
X9457Y37099D01*
X9500Y37115D01*
Y38150D01*
D02*
G37*
G36*
X57634Y37709D02*
X56853Y37553D01*
X56192Y37111D01*
X55750Y36450D01*
X55698Y36189D01*
X55689Y36181D01*
X53220Y34468D01*
X53023Y34341D01*
X52865Y34253D01*
X52831Y34237D01*
X51550D01*
X50945Y34116D01*
X50432Y33774D01*
X50361Y33667D01*
X49639D01*
X49567Y33774D01*
X49055Y34116D01*
X48450Y34237D01*
X48000D01*
Y32106D01*
Y31450D01*
X48167Y31468D01*
X48097Y31379D01*
X48035Y31291D01*
X48000Y31235D01*
Y31020D01*
X48100D01*
X48043Y31014D01*
X48000Y30998D01*
Y29976D01*
X48450D01*
X49055Y30096D01*
X49567Y30439D01*
X49639Y30546D01*
X50361D01*
X50432Y30439D01*
X50945Y30096D01*
X51550Y29976D01*
X53450D01*
X54055Y30096D01*
X54567Y30439D01*
X54639Y30546D01*
X55361D01*
X55432Y30439D01*
X55945Y30096D01*
X56550Y29976D01*
X58450D01*
X59055Y30096D01*
X59326Y30277D01*
X59329Y30278D01*
X59413Y30222D01*
X60193Y30067D01*
X60806Y30189D01*
X60945Y30096D01*
X61550Y29976D01*
X63450D01*
X64055Y30096D01*
X64568Y30439D01*
X64910Y30951D01*
X65030Y31556D01*
Y32656D01*
X64910Y33261D01*
X64568Y33774D01*
X64055Y34116D01*
X63450Y34237D01*
X61550D01*
X60945Y34116D01*
X60806Y34023D01*
X60193Y34146D01*
X59674Y34042D01*
X59339Y34543D01*
X59341Y34625D01*
X59518Y34889D01*
X59673Y35669D01*
X59518Y36450D01*
X59076Y37111D01*
X58414Y37553D01*
X57634Y37709D01*
D02*
G37*
G36*
X47000Y34237D02*
X46550D01*
X45945Y34116D01*
X45432Y33774D01*
X45090Y33261D01*
X44970Y32656D01*
Y32606D01*
X46002D01*
X46017Y32647D01*
X46023Y32704D01*
Y32606D01*
X46449D01*
X46525Y32662D01*
X46604Y32730D01*
X46683Y32806D01*
Y32606D01*
X47000D01*
Y34237D01*
D02*
G37*
G36*
Y31606D02*
X46683D01*
Y31406D01*
X46604Y31482D01*
X46525Y31550D01*
X46449Y31606D01*
X46023D01*
Y31509D01*
X46017Y31565D01*
X46002Y31606D01*
X44970D01*
Y31556D01*
X45090Y30951D01*
X45432Y30439D01*
X45945Y30096D01*
X46550Y29976D01*
X47000D01*
Y30998D01*
X46957Y31014D01*
X46900Y31020D01*
X47000D01*
Y31098D01*
X46992Y31110D01*
X46928Y31184D01*
X46855Y31255D01*
X46774Y31324D01*
X47000Y31348D01*
Y31606D01*
D02*
G37*
G36*
X17044Y34106D02*
X10500D01*
Y31062D01*
X14750D01*
X15628Y31237D01*
X16372Y31734D01*
X16870Y32478D01*
X17044Y33356D01*
Y34106D01*
D02*
G37*
G36*
X9500D02*
X2956D01*
Y33356D01*
X3131Y32478D01*
X3628Y31734D01*
X4372Y31237D01*
X5250Y31062D01*
X9500D01*
Y34106D01*
D02*
G37*
G36*
X67200Y31237D02*
X66750D01*
X66145Y31116D01*
X65632Y30774D01*
X65290Y30261D01*
X65170Y29656D01*
Y29606D01*
X66202D01*
X66217Y29647D01*
X66223Y29704D01*
Y29606D01*
X66751D01*
X66827Y29662D01*
X66907Y29730D01*
X66986Y29806D01*
Y29606D01*
X67200D01*
Y31237D01*
D02*
G37*
G36*
Y28606D02*
X66986D01*
Y28406D01*
X66907Y28482D01*
X66827Y28550D01*
X66751Y28606D01*
X66223D01*
Y28509D01*
X66217Y28565D01*
X66202Y28606D01*
X65170D01*
Y28556D01*
X65290Y27951D01*
X65632Y27439D01*
X66145Y27096D01*
X66750Y26976D01*
X67200D01*
Y28606D01*
D02*
G37*
G36*
X63450Y28237D02*
X63000D01*
Y27214D01*
X63043Y27199D01*
X63100Y27193D01*
X63000D01*
Y27055D01*
X63056Y26980D01*
X63124Y26899D01*
X63200Y26820D01*
X63000D01*
Y26606D01*
X65030D01*
Y26656D01*
X64910Y27261D01*
X64568Y27774D01*
X64055Y28116D01*
X63450Y28237D01*
D02*
G37*
G36*
X25050Y28637D02*
X25000D01*
Y27604D01*
X25041Y27589D01*
X25098Y27583D01*
X25000D01*
Y26606D01*
X26630D01*
Y27056D01*
X26510Y27661D01*
X26168Y28174D01*
X25655Y28516D01*
X25050Y28637D01*
D02*
G37*
G36*
X24000D02*
X23950D01*
X23345Y28516D01*
X22832Y28174D01*
X22490Y27661D01*
X22370Y27056D01*
Y25896D01*
X21770Y25605D01*
X20477Y25997D01*
X19000Y26143D01*
Y26136D01*
X16988D01*
X16870Y26734D01*
X16372Y27479D01*
X15628Y27976D01*
X14750Y28150D01*
X5250D01*
X4372Y27976D01*
X3628Y27479D01*
X3131Y26734D01*
X2956Y25856D01*
Y23356D01*
X3131Y22478D01*
X3628Y21734D01*
X4372Y21237D01*
X5250Y21062D01*
X14750D01*
X15628Y21237D01*
X16372Y21734D01*
X16870Y22478D01*
X16988Y23077D01*
X19000D01*
X19055Y23088D01*
X20171Y22941D01*
X21262Y22489D01*
X22155Y21803D01*
X22186Y21757D01*
X22370Y21574D01*
Y20156D01*
X22490Y19552D01*
X22671Y19280D01*
X22678Y19262D01*
X22704Y19231D01*
X22832Y19039D01*
X22926Y18977D01*
X22939Y18962D01*
X22946Y18938D01*
X22958Y18886D01*
X22969Y18813D01*
X22971Y18797D01*
Y18390D01*
X22669Y18188D01*
X22337Y17692D01*
X22221Y17106D01*
Y16106D01*
X22337Y15521D01*
X22669Y15025D01*
X23165Y14693D01*
X23750Y14577D01*
X25250D01*
X25835Y14693D01*
X26331Y15025D01*
X26663Y15521D01*
X26779Y16106D01*
Y17106D01*
X26663Y17692D01*
X26331Y18188D01*
X26029Y18390D01*
Y18797D01*
X26031Y18813D01*
X26042Y18886D01*
X26054Y18938D01*
X26061Y18962D01*
X26074Y18977D01*
X26168Y19039D01*
X26296Y19231D01*
X26322Y19262D01*
X26329Y19280D01*
X26510Y19552D01*
X26630Y20156D01*
Y22056D01*
X26510Y22661D01*
X26168Y23174D01*
X26060Y23246D01*
Y23967D01*
X26168Y24039D01*
X26510Y24552D01*
X26630Y25156D01*
Y25606D01*
X24500D01*
Y26106D01*
X24000D01*
Y27583D01*
X23902D01*
X23959Y27589D01*
X24000Y27604D01*
Y28637D01*
D02*
G37*
%LPD*%
G36*
X33023Y37009D02*
X33017Y37065D01*
X32998Y37116D01*
X32967Y37160D01*
X32924Y37199D01*
X32868Y37232D01*
X32799Y37259D01*
X32719Y37279D01*
X32625Y37294D01*
X32520Y37303D01*
X32401Y37306D01*
Y37906D01*
X32520Y37909D01*
X32625Y37918D01*
X32719Y37933D01*
X32799Y37954D01*
X32868Y37981D01*
X32924Y38013D01*
X32967Y38052D01*
X32998Y38097D01*
X33017Y38147D01*
X33023Y38204D01*
Y37009D01*
D02*
G37*
G36*
X31483Y38147D02*
X31502Y38097D01*
X31533Y38052D01*
X31576Y38013D01*
X31632Y37981D01*
X31701Y37954D01*
X31782Y37933D01*
X31875Y37918D01*
X31980Y37909D01*
X32098Y37906D01*
Y37306D01*
X31980Y37303D01*
X31875Y37294D01*
X31782Y37279D01*
X31701Y37259D01*
X31632Y37232D01*
X31576Y37199D01*
X31533Y37160D01*
X31502Y37116D01*
X31483Y37065D01*
X31477Y37009D01*
Y38204D01*
X31483Y38147D01*
D02*
G37*
G36*
X57446Y34687D02*
X57389Y34694D01*
X57329Y34693D01*
X57265Y34685D01*
X57197Y34670D01*
X57126Y34647D01*
X57051Y34617D01*
X56972Y34580D01*
X56890Y34535D01*
X56715Y34423D01*
X56144Y35244D01*
X56232Y35307D01*
X56381Y35431D01*
X56444Y35491D01*
X56499Y35551D01*
X56545Y35610D01*
X56583Y35668D01*
X56613Y35725D01*
X56635Y35782D01*
X56648Y35837D01*
X57446Y34687D01*
D02*
G37*
G36*
X54820Y33108D02*
X54588Y32940D01*
X54222Y32639D01*
X54089Y32504D01*
X53989Y32381D01*
X53922Y32269D01*
X53888Y32167D01*
X53888Y32077D01*
X53921Y31997D01*
X53987Y31929D01*
X52329Y33193D01*
X52420Y33142D01*
X52528Y33116D01*
X52654Y33114D01*
X52797Y33136D01*
X52958Y33182D01*
X53137Y33253D01*
X53333Y33347D01*
X53547Y33465D01*
X54027Y33775D01*
X54820Y33108D01*
D02*
G37*
G36*
X61162Y32666D02*
X61193Y32656D01*
X61272Y32638D01*
X61358Y32624D01*
X61451Y32614D01*
X61659Y32606D01*
X61659Y31606D01*
X61551Y31604D01*
X61358Y31588D01*
X61272Y31574D01*
X61193Y31556D01*
X61162Y31547D01*
Y31168D01*
X61098Y31252D01*
X61022Y31326D01*
X60935Y31392D01*
X60908Y31407D01*
X60907Y31406D01*
X60904Y31410D01*
X60836Y31449D01*
X60726Y31497D01*
X60604Y31536D01*
X60470Y31567D01*
X60326Y31589D01*
X60169Y31602D01*
X60001Y31606D01*
Y31919D01*
X59999Y31916D01*
Y31606D01*
X59831Y31602D01*
X59674Y31589D01*
X59663Y31587D01*
X59479Y31406D01*
X59436Y31444D01*
X59386Y31478D01*
X59329Y31508D01*
X59320Y31512D01*
X59274Y31497D01*
X59164Y31449D01*
X59065Y31392D01*
X58978Y31326D01*
X58902Y31252D01*
X58838Y31168D01*
Y31604D01*
X58834Y31604D01*
X58727Y31606D01*
X58727Y32606D01*
X58838Y32611D01*
Y33044D01*
X58902Y32961D01*
X58978Y32886D01*
X59065Y32821D01*
X59164Y32764D01*
X59274Y32716D01*
X59320Y32701D01*
X59329Y32704D01*
X59386Y32734D01*
X59436Y32768D01*
X59479Y32806D01*
X59663Y32625D01*
X59674Y32624D01*
X59831Y32611D01*
X59999Y32606D01*
Y32297D01*
X60001Y32294D01*
Y32606D01*
X60169Y32611D01*
X60326Y32624D01*
X60470Y32646D01*
X60604Y32676D01*
X60726Y32716D01*
X60836Y32764D01*
X60904Y32803D01*
X60907Y32806D01*
X60908Y32805D01*
X60935Y32821D01*
X61022Y32886D01*
X61098Y32961D01*
X61162Y33044D01*
Y32666D01*
D02*
G37*
G36*
X15997Y25511D02*
X16027Y25426D01*
X16078Y25351D01*
X16149Y25286D01*
X16240Y25231D01*
X16351Y25186D01*
X16483Y25151D01*
X16634Y25126D01*
X16806Y25111D01*
X16999Y25106D01*
Y24106D01*
X16806Y24101D01*
X16634Y24086D01*
X16483Y24061D01*
X16351Y24026D01*
X16240Y23981D01*
X16149Y23926D01*
X16078Y23861D01*
X16027Y23786D01*
X15997Y23701D01*
X15987Y23606D01*
Y25606D01*
X15997Y25511D01*
D02*
G37*
G36*
X25355Y19704D02*
X25280Y19628D01*
X25215Y19541D01*
X25158Y19442D01*
X25109Y19332D01*
X25070Y19210D01*
X25039Y19077D01*
X25017Y18932D01*
X25004Y18776D01*
X25000Y18608D01*
X24000D01*
X23996Y18776D01*
X23982Y18932D01*
X23961Y19077D01*
X23930Y19210D01*
X23890Y19332D01*
X23842Y19442D01*
X23785Y19541D01*
X23720Y19628D01*
X23645Y19704D01*
X23562Y19768D01*
X25438D01*
X25355Y19704D01*
D02*
G37*
G36*
X25005Y18397D02*
X25020Y18212D01*
X25044Y18049D01*
X25079Y17908D01*
X25123Y17788D01*
X25178Y17690D01*
X25242Y17614D01*
X25316Y17560D01*
X25400Y17527D01*
X25493Y17516D01*
X23507D01*
X23600Y17527D01*
X23684Y17560D01*
X23758Y17614D01*
X23822Y17690D01*
X23877Y17788D01*
X23921Y17908D01*
X23956Y18049D01*
X23980Y18212D01*
X23995Y18397D01*
X24000Y18604D01*
X25000D01*
X25005Y18397D01*
D02*
G37*
%LPC*%
G36*
X315130Y40606D02*
X313500D01*
Y40392D01*
X313700D01*
X313624Y40313D01*
X313556Y40233D01*
X313500Y40157D01*
Y39630D01*
X313598D01*
X313541Y39623D01*
X313500Y39608D01*
Y38576D01*
X313550D01*
X314155Y38696D01*
X314668Y39039D01*
X315010Y39551D01*
X315130Y40156D01*
Y40606D01*
D02*
G37*
G36*
X304200Y30538D02*
X303800D01*
Y28806D01*
X304787D01*
X304787Y28906D01*
X304794Y28849D01*
X304809Y28806D01*
X305831D01*
Y28906D01*
X305707Y29531D01*
X305353Y30060D01*
X304824Y30413D01*
X304200Y30538D01*
D02*
G37*
G36*
X305831Y27806D02*
X304809D01*
X304794Y27765D01*
X304788Y27709D01*
X304788Y27806D01*
X303800D01*
Y27119D01*
X303900D01*
X303843Y27113D01*
X303800Y27097D01*
Y26075D01*
X304200D01*
X304824Y26199D01*
X305353Y26553D01*
X305707Y27082D01*
X305831Y27706D01*
Y27806D01*
D02*
G37*
G36*
X360050Y24637D02*
X360000D01*
Y22606D01*
X360587D01*
Y22706D01*
X360593Y22649D01*
X360608Y22606D01*
X361630D01*
Y23056D01*
X361510Y23661D01*
X361168Y24174D01*
X360655Y24516D01*
X360050Y24637D01*
D02*
G37*
G36*
X359000D02*
X358950D01*
X358345Y24516D01*
X357833Y24174D01*
X357490Y23661D01*
X357370Y23056D01*
Y22606D01*
X359000D01*
Y24637D01*
D02*
G37*
G36*
Y21606D02*
X357370D01*
Y21156D01*
X357490Y20551D01*
X357833Y20039D01*
X358345Y19696D01*
X358950Y19576D01*
X359000D01*
Y20608D01*
X358959Y20623D01*
X358902Y20629D01*
X359000D01*
Y21606D01*
D02*
G37*
G36*
X328500Y31137D02*
X328450D01*
X327845Y31016D01*
X327332Y30674D01*
X326990Y30161D01*
X326870Y29556D01*
Y29106D01*
X328500D01*
Y31137D01*
D02*
G37*
G36*
Y28106D02*
X326870D01*
Y27656D01*
X326990Y27051D01*
X327332Y26539D01*
X327845Y26196D01*
X328450Y26076D01*
X328500D01*
Y28106D01*
D02*
G37*
G36*
X352400Y31606D02*
Y31606D01*
D01*
Y31606D01*
D02*
G37*
%LPD*%
D10*
X335400Y30038D02*
G03*
X337331Y28106I1931J0D01*
G01*
X353871Y17223D02*
G03*
X353497Y16320I903J-903D01*
G01*
X351912Y14206D02*
G03*
X353497Y15791I0J1585D01*
G01*
X351204Y14206D02*
G03*
X349575Y13531I0J-2304D01*
G01*
X348535Y12491D02*
G03*
X347500Y9989I2507J-2502D01*
G01*
X77200Y18106D02*
G03*
X78031Y18938I0J831D01*
G01*
X348537Y12494D02*
G03*
X348535Y12491I2505J-2505D01*
G01*
X88377Y11729D02*
G03*
X88381Y11725I6234J6227D01*
G01*
X86000Y17473D02*
G03*
X88381Y11725I8129J0D01*
G01*
X88000Y24606D02*
G03*
X87437Y25169I-563J0D01*
G01*
X88000Y15765D02*
G03*
X90421Y13348I2417J-0D01*
G01*
X92707Y12399D02*
G03*
X90421Y13348I-2290J-2290D01*
G01*
X104000Y17606D02*
G03*
X108000Y13606I4000J0D01*
G01*
X104000Y27606D02*
G03*
X100531Y31075I-3469J0D01*
G01*
X301998Y39704D02*
G03*
X301000Y37292I2417J-2412D01*
G01*
X299000Y13606D02*
G03*
X299001Y13606I0J2000D01*
G01*
X52499Y19607D02*
G03*
X48879Y21106I-3621J-3622D01*
G01*
X52500Y19606D02*
G03*
X52499Y19607I-3621J-3621D01*
G01*
X52501Y19605D02*
G03*
X56121Y18106I3621J3622D01*
G01*
X52500Y19606D02*
G03*
X52501Y19605I3621J3621D01*
G01*
X53061Y21045D02*
G03*
X57500Y19206I4439J4439D01*
G01*
X66937Y18106D02*
G03*
X74000Y25169I0J7063D01*
G01*
X73232Y27138D02*
G03*
X72200Y26106I0J-1032D01*
G01*
X66263Y19206D02*
G03*
X72200Y25143I0J5937D01*
G01*
X67378Y23606D02*
G03*
X70000Y26228I0J2622D01*
G01*
X63668Y23606D02*
G03*
X60650Y22356I0J-4268D01*
G01*
X66047Y21106D02*
G03*
X71100Y26159I0J5053D01*
G01*
X72934Y31075D02*
G03*
X70000Y28141I0J-2934D01*
G01*
X72800Y29106D02*
G03*
X71100Y27406I0J-1700D01*
G01*
X84500Y39020D02*
G03*
X85500Y36606I3414J0D01*
G01*
X86000Y35399D02*
G03*
X85500Y36606I-1707J0D01*
G01*
X83937Y36051D02*
G03*
X83500Y37106I-1492J0D01*
G01*
X81800Y40715D02*
G03*
X80477Y42044I-1329J-0D01*
G01*
X81800Y39511D02*
G03*
X82298Y38308I1701J0D01*
G01*
X70384Y42099D02*
G03*
X70433Y42099I49J1933D01*
G01*
X67700Y44032D02*
G03*
X69584Y42099I1933J0D01*
G01*
X71500Y46016D02*
G03*
X70009Y47506I-1491J0D01*
G01*
X71500Y45206D02*
G03*
X73500Y43206I2000J0D01*
G01*
X84500Y41204D02*
G03*
X82498Y43206I-2002J0D01*
G01*
X65500Y47506D02*
G03*
X64351Y47258I0J-2776D01*
G01*
D02*
G03*
X63537Y46693I1149J-2527D01*
G01*
X78886Y12906D02*
G03*
X77033Y12139I0J-2623D01*
G01*
X79973Y12906D02*
G03*
X79982Y12906I0J1996D01*
G01*
X79993Y12906D02*
G03*
X80018Y12907I-20J1995D01*
G01*
D02*
G03*
X80027Y12907I-46J1995D01*
G01*
X79982Y12906D02*
G03*
X79993Y12906I-9J1996D01*
G01*
X80027Y12907D02*
G03*
X81968Y14902I-54J1995D01*
G01*
X82156Y12263D02*
G03*
X83937Y16562I-4299J4299D01*
G01*
X361011Y12917D02*
G03*
X359300Y11206I0J-1711D01*
G01*
X302000Y39706D02*
G03*
X301998Y39704I2414J-2414D01*
G01*
X299001Y13606D02*
G03*
X301000Y15606I-1J2000D01*
G01*
X369500Y24606D02*
G03*
X367800Y22906I0J-1700D01*
G01*
X369592Y22047D02*
G03*
X368900Y21355I0J-692D01*
G01*
X367349Y14295D02*
G03*
X367800Y14747I0J452D01*
G01*
X375933Y11539D02*
G03*
X377900Y13506I0J1967D01*
G01*
X373390Y27306D02*
G03*
X373000Y27165I-4J-600D01*
G01*
X377900Y26206D02*
G03*
X376800Y27306I-1100J0D01*
G01*
X367881Y12917D02*
G03*
X368900Y13936I0J1019D01*
G01*
X369851Y40106D02*
X378100D01*
X357906Y37606D02*
X369148D01*
X369500Y37958D01*
Y39755D01*
X369851Y40106D01*
X378100Y29606D02*
Y40106D01*
X350700Y37606D02*
X357906D01*
X373000Y29606D02*
X378100D01*
X337331Y28106D02*
X339500D01*
X335400Y30038D02*
Y37606D01*
X353871Y17223D02*
X355354Y18706D01*
X353497Y15791D02*
Y16320D01*
X362000Y7606D02*
Y11539D01*
X351204Y14206D02*
X351912D01*
X348537Y12494D02*
X349575Y13531D01*
X347500Y7906D02*
Y9989D01*
X47500Y29106D02*
Y32106D01*
X34500Y40606D02*
X42279D01*
X34500Y37606D02*
Y40606D01*
X34602Y32106D02*
Y37606D01*
X75000Y18106D02*
X77200D01*
X74000D02*
X75000D01*
X335400Y37606D02*
X341400D01*
Y41606D02*
X350700D01*
X341400Y37606D02*
Y41606D01*
X350700Y37606D02*
Y41606D01*
X332700Y37606D02*
X335400D01*
X373000Y29606D02*
Y29724D01*
X365300D02*
X373000D01*
X313000Y34606D02*
Y41106D01*
X308000Y34606D02*
X313000D01*
X303300Y28306D02*
X308000D01*
Y34606D01*
X359500Y22106D02*
X365300D01*
Y29724D01*
X359500Y19058D02*
Y22106D01*
X359149Y18706D02*
X359500Y19058D01*
X355354Y18706D02*
X359149D01*
X350700Y24606D02*
Y37606D01*
X350700Y24606D02*
X350700Y24606D01*
X349500Y22106D02*
X350700Y24606D01*
X303300Y12306D02*
Y28306D01*
X330500Y17106D02*
X333500D01*
X79500Y45606D02*
X84500D01*
X74500D02*
X79500D01*
X30000Y37606D02*
X34500D01*
X10000Y40606D02*
X34500D01*
X10000Y34606D02*
Y40606D01*
X62500Y29106D02*
X67700D01*
X68000D01*
X52500D02*
X62500D01*
X47500D02*
X52500D01*
X34602Y32106D02*
X47398D01*
X24500D02*
X34602D01*
X85000Y7106D02*
Y10106D01*
X57500Y26106D02*
X62500D01*
X52500D02*
Y29106D01*
X62500Y26106D02*
Y29106D01*
X78031Y23606D02*
Y26106D01*
X52500D02*
X57500D01*
X24500D02*
Y32106D01*
X78031Y18938D02*
Y23606D01*
X83000Y29106D02*
X85500D01*
X81968Y32106D02*
Y32206D01*
Y34606D01*
X86000Y17473D02*
Y23106D01*
X85500Y27138D02*
X88500D01*
X92707Y12399D02*
X95000Y10106D01*
X88000Y15770D02*
Y24606D01*
X86000Y25169D02*
X87437D01*
X88000Y15765D02*
X88000Y15770D01*
X85500Y31075D02*
X88500D01*
X98500D02*
X100531D01*
X104000Y17606D02*
Y27606D01*
X108000Y13606D02*
X299000D01*
X301000Y15606D02*
Y37292D01*
X56121Y18106D02*
X66937D01*
X48354Y25753D02*
X53061Y21045D01*
X40500Y21106D02*
X48879D01*
X57500Y19206D02*
X66263D01*
X73232Y27138D02*
X74500D01*
X72200Y25143D02*
Y26106D01*
X63668Y23606D02*
X67378D01*
X70000Y26228D02*
Y28141D01*
X59400Y21106D02*
X60650Y22356D01*
X64000Y21106D02*
X66047D01*
X71100Y26159D02*
Y27406D01*
X72934Y31075D02*
X74500D01*
X72800Y29106D02*
X74500D01*
X59000Y21106D02*
X59400D01*
X84500Y39020D02*
Y39606D01*
Y41204D01*
X86000Y33043D02*
Y35399D01*
X80471Y42044D02*
X80477Y42044D01*
X82298Y38308D02*
X83500Y37106D01*
X81800Y40715D02*
X81800Y39511D01*
X83937Y35106D02*
Y36051D01*
X69884Y42099D02*
X80471Y42044D01*
X67700Y44032D02*
Y45606D01*
X69884Y42099D02*
X70433Y42099D01*
X65500Y47506D02*
X70009D01*
X73500Y43206D02*
X77000Y43206D01*
X71500Y45206D02*
Y46016D01*
X77000Y43206D02*
X82498D01*
X62750Y45906D02*
X63537Y46693D01*
X73500Y35106D02*
X76063D01*
X71500Y33043D02*
X74000D01*
X78886Y12906D02*
X79973D01*
X75000Y10106D02*
X77032Y12138D01*
X88381Y11725D02*
X90000Y10106D01*
X80000Y10106D02*
X82156Y12263D01*
X83937Y16562D02*
Y23106D01*
X81968Y14902D02*
Y23606D01*
X361011Y12917D02*
X362200D01*
X359700Y14295D02*
X362200D01*
X79500Y39606D02*
X80000Y39106D01*
Y34606D02*
Y39106D01*
X302000Y39706D02*
X303000Y40706D01*
Y41106D01*
X367800Y14747D02*
Y22906D01*
X369500Y24606D02*
X373000D01*
X368900Y13936D02*
Y21355D01*
X369592Y22047D02*
X373000D01*
X365800Y14295D02*
X367349D01*
X365800Y11539D02*
X375933D01*
X366000Y7606D02*
Y11439D01*
X373390Y27306D02*
X376800D01*
X373000Y27165D02*
X373000D01*
X377900Y13506D02*
Y26206D01*
X365800Y12917D02*
X367881D01*
D11*
X95500Y37953D02*
G03*
X94001Y41574I-5121J0D01*
G01*
X95500Y24106D02*
G03*
X97972Y18134I8450J0D01*
G01*
X101500Y14606D02*
G03*
X107050Y12306I5553J5553D01*
G01*
D02*
G03*
X107053Y12306I3J7853D01*
G01*
X331300Y41406D02*
G03*
X330058Y40164I0J-1242D01*
G01*
Y34937D02*
G03*
X331188Y33806I1131J0D01*
G01*
X315500Y22106D02*
G03*
X318200Y24806I0J2700D01*
G01*
Y30406D02*
G03*
X316500Y32106I-1700J0D01*
G01*
X94001Y41574D02*
G03*
X94000Y41575I-3622J-3621D01*
G01*
X97972Y18134D02*
G03*
X97975Y18131I5977J5972D01*
G01*
X343700Y7906D02*
G03*
X343217Y8106I-483J-483D01*
G01*
X338000Y20206D02*
G03*
X337999Y20205I3621J-3621D01*
G01*
D02*
G03*
X336500Y16585I3622J-3621D01*
G01*
X78031Y35511D02*
G03*
X77350Y37156I-2327J0D01*
G01*
X23268Y22839D02*
G03*
X19000Y24606I-4268J-4268D01*
G01*
X47034Y14972D02*
G03*
X44776Y15906I-2258J-2263D01*
G01*
X34500Y15021D02*
G03*
X35571Y12436I3656J-0D01*
G01*
X345610Y12606D02*
G03*
X347300Y13306I-0J2389D01*
G01*
X339983Y17306D02*
G03*
X339500Y17106I0J-683D01*
G01*
X95500Y24106D02*
Y37953D01*
X97975Y18131D02*
X101500Y14606D01*
X107053Y12306D02*
X107500D01*
X331300Y41406D02*
X332700D01*
X330058Y34937D02*
Y40164D01*
X331188Y33806D02*
X332700D01*
X318200Y36606D02*
X330000D01*
X309000Y22106D02*
X315500D01*
X318200Y24806D02*
Y27606D01*
Y30406D01*
X312700Y32106D02*
X316500D01*
X320500Y7106D02*
X330500Y17106D01*
X107500Y12306D02*
X303300Y12306D01*
X85000Y10106D02*
X85000Y10106D01*
X85000Y7106D02*
X320500Y7106D01*
X339500Y8106D02*
X343217D01*
X338000Y20206D02*
X339500Y21706D01*
X337999Y20205D02*
X338000Y20206D01*
X336500Y10506D02*
Y16585D01*
X78031Y34606D02*
Y35511D01*
X74900Y39606D02*
X77350Y37156D01*
X40500Y26106D02*
X47500D01*
X80000Y18206D02*
Y23606D01*
X76063Y20606D02*
Y23106D01*
X10000Y14606D02*
X13500D01*
X17000Y11106D01*
X10000Y4606D02*
X13500D01*
X17000Y8106D01*
X10000Y24606D02*
X19000D01*
X23268Y22839D02*
X24500Y21606D01*
X57500Y32106D02*
X63000D01*
X52500Y32106D02*
X57634Y35669D01*
X39700Y8306D02*
X44300Y12106D01*
X47042Y14965D02*
X53700Y8306D01*
X39700Y15906D02*
X44769D01*
X47034Y14972D02*
X47042Y14965D01*
X44769Y15906D02*
X44776Y15906D01*
X24500Y7606D02*
X30300Y12106D01*
X34500Y15027D02*
Y21106D01*
X35577Y12430D02*
X39700Y8306D01*
X35571Y12436D02*
X35577Y12430D01*
X34500Y15021D02*
X34500Y15027D01*
X343000Y30106D02*
Y34512D01*
X346094Y37606D01*
X76063Y35106D02*
Y35606D01*
X74500Y39606D02*
X74900D01*
X67700Y35106D02*
Y39606D01*
X319300Y41406D02*
X323300D01*
X339500Y12606D02*
X345610Y12606D01*
X347300Y13306D02*
X351300Y17306D01*
X339500Y22106D02*
X343500D01*
X333500Y8106D02*
Y12606D01*
X339983Y17306D02*
X343700D01*
X53700Y8306D02*
X58500D01*
X361000Y27606D02*
Y30106D01*
X30500Y26106D02*
X34500D01*
X30500Y21106D02*
Y26106D01*
X24500Y16606D02*
Y21106D01*
D12*
X332700Y30038D02*
G03*
X333500Y28106I2731J0D01*
G01*
X92450Y37156D02*
G03*
X90000Y39606I-2450J0D01*
G01*
X318400Y10106D02*
G03*
X323000Y14706I0J4600D01*
G01*
X43500Y43606D02*
G03*
X47682Y45339I0J5915D01*
G01*
X27810Y45690D02*
G03*
X26450Y46206I-1360J-1534D01*
G01*
X353535Y22023D02*
G03*
X353541Y22306I-5929J284D01*
G01*
X351798Y18104D02*
G03*
X353535Y22023I-4192J4202D01*
G01*
X333500Y25106D02*
Y28106D01*
X332700Y30038D02*
Y33806D01*
X333500Y22106D02*
Y25106D01*
X346900D01*
X92450Y15156D02*
Y37156D01*
X323000Y28606D02*
Y33082D01*
X100000Y10106D02*
X318400D01*
X48250Y46106D02*
X48625D01*
X48250Y45906D02*
Y46106D01*
X11600Y46206D02*
X26450D01*
X39000Y43606D02*
X43500D01*
X64492Y8606D02*
Y14615D01*
X59000Y15114D02*
X79992D01*
X53700Y15906D02*
X59000Y15106D01*
X64000D02*
X64492Y14615D01*
X79992Y15114D02*
X80000Y15106D01*
Y18106D01*
X48625Y46106D02*
X51000D01*
X47682Y45339D02*
X48250Y45906D01*
X28700Y44906D02*
X30000Y43606D01*
X27810Y45690D02*
X28700Y44906D01*
X10000Y44606D02*
X11600Y46206D01*
X34500Y43606D02*
X39000D01*
X30000D02*
X34500D01*
X53700Y15906D02*
X53900Y16106D01*
X323000Y14706D02*
Y28606D01*
X353500Y22106D02*
X353541Y22006D01*
D13*
X306875Y35906D02*
G03*
X309000Y38032I0J2125D01*
G01*
X365800Y15673D02*
Y19573D01*
X362200Y15673D02*
Y18173D01*
X80000Y18106D02*
Y18206D01*
X303300Y35906D02*
X306875D01*
X309000Y38032D02*
Y41106D01*
D14*
X318200Y36606D02*
D03*
Y27606D02*
D03*
X24500Y7606D02*
D03*
Y16606D02*
D03*
D15*
X327000Y22106D02*
D03*
X309000D02*
D03*
X327000Y8106D02*
D03*
D16*
X333500Y28106D02*
D03*
Y22106D02*
D03*
X329000Y28606D02*
D03*
X339500Y28106D02*
D03*
X313000Y41106D02*
D03*
X359500Y22106D02*
D03*
X349500D02*
D03*
X333500Y17106D02*
D03*
X24500Y26106D02*
D03*
X74000Y18206D02*
D03*
X80000D02*
D03*
X339500Y17106D02*
D03*
X333500Y12606D02*
D03*
X339500D02*
D03*
X333500Y8106D02*
D03*
X339500D02*
D03*
Y22106D02*
D03*
X343500D02*
D03*
X353500D02*
D03*
X319000Y41106D02*
D03*
X323000Y28606D02*
D03*
X30500Y26106D02*
D03*
Y21106D02*
D03*
X24500D02*
D03*
X40500Y26106D02*
D03*
X34500D02*
D03*
X40500Y21106D02*
D03*
X34500D02*
D03*
X58500Y8606D02*
D03*
X64500D02*
D03*
X303000Y41106D02*
D03*
X309000D02*
D03*
D17*
X349000Y30106D02*
D03*
X343000D02*
D03*
X361000D02*
D03*
D18*
X332700Y33806D02*
D03*
Y41406D02*
D03*
X312700Y32106D02*
D03*
X332700Y37606D02*
D03*
X303300Y28306D02*
D03*
X323300Y33806D02*
D03*
Y41406D02*
D03*
X303300Y35906D02*
D03*
X44300Y12106D02*
D03*
X53700Y15906D02*
D03*
Y8306D02*
D03*
X30300Y12106D02*
D03*
X39700Y15906D02*
D03*
Y8306D02*
D03*
D19*
X365800Y15673D02*
D03*
X362200Y11539D02*
D03*
Y15673D02*
D03*
Y14295D02*
D03*
Y12917D02*
D03*
X365800Y14295D02*
D03*
X365800Y12917D02*
D03*
Y11539D02*
D03*
D20*
X373000Y29724D02*
D03*
Y19488D02*
D03*
Y22047D02*
D03*
Y24606D02*
D03*
Y27165D02*
D03*
D21*
X362000Y7606D02*
D03*
X366000Y7606D02*
D03*
D22*
X356000D02*
D03*
X79500Y45606D02*
D03*
X84500D02*
D03*
X74500D02*
D03*
X67700Y29106D02*
D03*
X34500Y37606D02*
D03*
X30000D02*
D03*
X47500Y32106D02*
D03*
X62500Y26106D02*
D03*
X57500D02*
D03*
X52500D02*
D03*
X67700Y35106D02*
D03*
X52500Y32106D02*
D03*
X57500Y32106D02*
D03*
X62500Y32106D02*
D03*
X30000Y43606D02*
D03*
X21000Y37606D02*
D03*
Y43606D02*
D03*
X25500Y37606D02*
D03*
Y43606D02*
D03*
X34500D02*
D03*
X39000D02*
D03*
Y37606D02*
D03*
X43500Y43606D02*
D03*
Y37606D02*
D03*
X74500Y39606D02*
D03*
X84500D02*
D03*
X79500D02*
D03*
X356000Y13606D02*
D03*
X67700Y39606D02*
D03*
Y45606D02*
D03*
X47500Y26106D02*
D03*
X59000Y15106D02*
D03*
Y21106D02*
D03*
X64000Y15106D02*
D03*
Y21106D02*
D03*
D23*
X347500Y7906D02*
D03*
X343700Y17306D02*
D03*
X351300D02*
D03*
Y7906D02*
D03*
X343700D02*
D03*
D24*
X10000Y34606D02*
D03*
Y4606D02*
D03*
Y14606D02*
D03*
Y24606D02*
D03*
Y44606D02*
D03*
D25*
X78031Y23606D02*
D03*
X81968Y34606D02*
D03*
X80000D02*
D03*
X78031D02*
D03*
X80000Y23606D02*
D03*
X81968D02*
D03*
D26*
X83937Y35106D02*
D03*
Y23106D02*
D03*
X76063D02*
D03*
Y35106D02*
D03*
D27*
X74500Y31075D02*
D03*
Y29106D02*
D03*
Y27138D02*
D03*
X85500D02*
D03*
Y29106D02*
D03*
Y31075D02*
D03*
D28*
X74000Y25169D02*
D03*
X86000D02*
D03*
Y33043D02*
D03*
X74000D02*
D03*
D29*
X338500Y32906D02*
D03*
X365500Y41806D02*
D03*
X338500D02*
D03*
X365500Y32906D02*
D03*
D30*
X48250Y40306D02*
D03*
X62750Y45906D02*
D03*
Y40306D02*
D03*
X48250Y45906D02*
D03*
D31*
X327000Y22106D02*
X333200D01*
D32*
X357906Y37606D02*
D03*
X346094D02*
D03*
D33*
X85000Y10106D02*
D03*
X90000Y10106D02*
D03*
X95000Y10106D02*
D03*
X100000Y10106D02*
D03*
X80000Y10106D02*
D03*
X75000Y10106D02*
D03*
D34*
X59500Y43106D02*
D03*
X51500D02*
D03*
X365800Y19573D02*
D03*
X348493Y26613D02*
D03*
X332700Y37606D02*
D03*
X329000Y28606D02*
D03*
X313000Y41106D02*
D03*
X350700Y24606D02*
D03*
X362000Y7606D02*
D03*
X356000D02*
D03*
X333500Y17106D02*
D03*
X330000Y12606D02*
D03*
X347500Y7606D02*
D03*
X84500Y45606D02*
D03*
X94000Y41575D02*
D03*
X89500Y37106D02*
D03*
X79500Y45606D02*
D03*
X74500D02*
D03*
X42279Y40669D02*
D03*
X34602Y37669D02*
D03*
X67700Y29106D02*
D03*
X10000Y34606D02*
D03*
X47398Y32106D02*
D03*
X78031Y26106D02*
D03*
X62500D02*
D03*
X57500D02*
D03*
X52500D02*
D03*
X75000Y18106D02*
D03*
X70500Y7106D02*
D03*
X83000Y29106D02*
D03*
X81968Y32206D02*
D03*
X108400Y16761D02*
D03*
X71400Y33106D02*
D03*
X73000Y35106D02*
D03*
X86000Y23106D02*
D03*
X88500Y31075D02*
D03*
X59000Y21106D02*
D03*
X64000D02*
D03*
X80000Y15106D02*
D03*
X76063Y20606D02*
D03*
X17000Y11106D02*
D03*
Y8106D02*
D03*
X48625Y46106D02*
D03*
X57634Y35669D02*
D03*
X60193Y32106D02*
D03*
X51000Y46106D02*
D03*
X34500Y43606D02*
D03*
X26925Y37606D02*
D03*
X21807D02*
D03*
X44839D02*
D03*
X21000Y43606D02*
D03*
X39720Y37606D02*
D03*
X25500Y43606D02*
D03*
X88500Y27138D02*
D03*
X343500Y28106D02*
D03*
Y30606D02*
D03*
Y33106D02*
D03*
X90000Y39606D02*
D03*
X98500Y31075D02*
D03*
X92450Y15156D02*
D03*
X74500Y39606D02*
D03*
X339500Y9106D02*
D03*
X323000Y14706D02*
D03*
X359300Y11206D02*
D03*
X359700Y14506D02*
D03*
X336500Y10206D02*
D03*
X376000Y19606D02*
D03*
X373500D02*
D03*
X371000D02*
D03*
X361000Y32606D02*
D03*
X362200Y17606D02*
D03*
X355300Y13606D02*
D03*
Y16106D02*
D03*
X361000Y30106D02*
D03*
Y27606D02*
D03*
D35*
X372700Y34106D02*
D03*
Y15106D02*
D03*
D36*
X384000Y9706D02*
D03*
Y39506D02*
D03*
M02*
