G04*
G04 #@! TF.GenerationSoftware,Altium Limited,Altium Designer,20.1.7 (139)*
G04*
G04 Layer_Color=65535*
%FSLAX25Y25*%
%MOIN*%
G70*
G04*
G04 #@! TF.SameCoordinates,AE6903BA-CC81-4101-B740-E620CA86DFFE*
G04*
G04*
G04 #@! TF.FilePolarity,Positive*
G04*
G01*
G75*
%ADD10C,0.00600*%
%ADD40C,0.01500*%
%ADD41C,0.00100*%
%ADD42C,0.00500*%
G36*
X81000Y43056D02*
X78000D01*
Y43556D01*
X81000D01*
Y43056D01*
D02*
G37*
G36*
X76000D02*
X73000D01*
Y43556D01*
X76000D01*
X76000Y43056D01*
D02*
G37*
G36*
X306950Y42156D02*
X305050D01*
X305050Y42656D01*
X306950D01*
X306950Y42156D01*
D02*
G37*
G36*
X86050Y41656D02*
X85550D01*
Y43556D01*
X86050Y43556D01*
Y41656D01*
D02*
G37*
G36*
X83450D02*
X82950Y41656D01*
Y43556D01*
X83450D01*
Y41656D01*
D02*
G37*
G36*
X81000Y41656D02*
X78000D01*
Y42156D01*
X81000D01*
Y41656D01*
D02*
G37*
G36*
X76000Y41656D02*
X73000D01*
Y42156D01*
X76000D01*
Y41656D01*
D02*
G37*
G36*
X69250Y43006D02*
X68050D01*
Y41606D01*
X67350D01*
Y43006D01*
X66150D01*
Y43606D01*
X69250D01*
Y43006D01*
D02*
G37*
G36*
X36000Y41056D02*
X33000D01*
Y41556D01*
X36000D01*
Y41056D01*
D02*
G37*
G36*
X31500D02*
X28500D01*
Y41556D01*
X31500D01*
Y41056D01*
D02*
G37*
G36*
X27000D02*
X24000D01*
Y41556D01*
X27000D01*
Y41056D01*
D02*
G37*
G36*
X22500D02*
X19500D01*
Y41556D01*
X22500D01*
Y41056D01*
D02*
G37*
G36*
X36000Y39656D02*
X33000D01*
Y40156D01*
X36000D01*
Y39656D01*
D02*
G37*
G36*
X31500D02*
X28500D01*
Y40156D01*
X31500D01*
Y39656D01*
D02*
G37*
G36*
X45050Y39656D02*
X44550Y39656D01*
Y41556D01*
X45050Y41556D01*
Y39656D01*
D02*
G37*
G36*
X42450Y41556D02*
Y39656D01*
X41950Y39656D01*
Y41556D01*
X42450Y41556D01*
D02*
G37*
G36*
X40550Y39656D02*
X40050Y39656D01*
Y41556D01*
X40550Y41556D01*
Y39656D01*
D02*
G37*
G36*
X37950Y41556D02*
Y39656D01*
X37450Y39656D01*
Y41556D01*
X37950Y41556D01*
D02*
G37*
G36*
X27000Y39656D02*
X24000D01*
Y40156D01*
X27000D01*
Y39656D01*
D02*
G37*
G36*
X22500D02*
X19500D01*
Y40156D01*
X22500D01*
Y39656D01*
D02*
G37*
G36*
X316950Y39606D02*
X316450D01*
Y42606D01*
X316950D01*
Y39606D01*
D02*
G37*
G36*
X315550D02*
X315050D01*
Y42606D01*
X315550D01*
Y39606D01*
D02*
G37*
G36*
X306950Y39556D02*
X305050D01*
X305050Y40056D01*
X306950D01*
X306950Y39556D01*
D02*
G37*
G36*
X379000Y39156D02*
X372250D01*
Y37106D01*
X371750D01*
X371750Y39656D01*
X379000D01*
Y39156D01*
D02*
G37*
G36*
X305900Y35006D02*
X305900Y37406D01*
X308300D01*
X305900Y35006D01*
D02*
G37*
G36*
X86800Y34506D02*
X85400Y35906D01*
X86800Y35906D01*
X86800Y34506D01*
D02*
G37*
G36*
X320400Y33306D02*
X316000D01*
Y34806D01*
X320400D01*
Y33306D01*
D02*
G37*
G36*
X330100Y32306D02*
X327700Y32306D01*
X330100Y34706D01*
Y32306D01*
D02*
G37*
G36*
X69250Y31156D02*
X68750Y31156D01*
Y33056D01*
X69250Y33056D01*
Y31156D01*
D02*
G37*
G36*
X66650Y33056D02*
Y31156D01*
X66150Y31156D01*
Y33056D01*
X66650Y33056D01*
D02*
G37*
G36*
X64000Y29556D02*
X61000Y29556D01*
Y30056D01*
X64000D01*
X64000Y29556D01*
D02*
G37*
G36*
X59000D02*
X56000D01*
Y30056D01*
X59000D01*
Y29556D01*
D02*
G37*
G36*
X54000D02*
X51000D01*
Y30056D01*
X54000D01*
Y29556D01*
D02*
G37*
G36*
X49000D02*
X46000D01*
Y30056D01*
X49000D01*
Y29556D01*
D02*
G37*
G36*
X59000Y28156D02*
X56000D01*
X56000Y28656D01*
X59000Y28656D01*
X59000Y28156D01*
D02*
G37*
G36*
X54000D02*
X51000D01*
Y28656D01*
X54000D01*
Y28156D01*
D02*
G37*
G36*
X64000D02*
X61000Y28156D01*
Y28656D01*
X64000D01*
Y28156D01*
D02*
G37*
G36*
X49000Y28156D02*
X46000D01*
Y28656D01*
X49000D01*
Y28156D01*
D02*
G37*
G36*
X38450Y27156D02*
X36550D01*
X36550Y27656D01*
X38450D01*
X38450Y27156D01*
D02*
G37*
G36*
X28450D02*
X26550D01*
X26550Y27656D01*
X28450D01*
X28450Y27156D01*
D02*
G37*
G36*
X326950Y27106D02*
X326450D01*
Y30106D01*
X326950D01*
Y27106D01*
D02*
G37*
G36*
X325550Y27106D02*
X325050Y27106D01*
Y30106D01*
X325550Y30106D01*
Y27106D01*
D02*
G37*
G36*
X336050Y26606D02*
X335550D01*
Y29606D01*
X336050D01*
Y26606D01*
D02*
G37*
G36*
X337450D02*
X336950Y26606D01*
X336950Y29606D01*
X337450D01*
Y26606D01*
D02*
G37*
G36*
X38450Y24556D02*
X36550D01*
X36550Y25056D01*
X38450D01*
X38450Y24556D01*
D02*
G37*
G36*
X28450D02*
X26550D01*
X26550Y25056D01*
X28450D01*
X28450Y24556D01*
D02*
G37*
G36*
X347450Y23156D02*
X345550D01*
X345550Y23656D01*
X347450D01*
X347450Y23156D01*
D02*
G37*
G36*
X337450D02*
X335550D01*
X335550Y23656D01*
X337450D01*
X337450Y23156D01*
D02*
G37*
G36*
X38450Y22156D02*
X36550D01*
X36550Y22656D01*
X38450D01*
X38450Y22156D01*
D02*
G37*
G36*
X28450D02*
X26550D01*
X26550Y22656D01*
X28450D01*
X28450Y22156D01*
D02*
G37*
G36*
X383347Y32293D02*
X383524Y32247D01*
X383680Y32169D01*
X383828Y32082D01*
X384017Y31928D01*
X384118Y31779D01*
X384220Y31629D01*
X384318Y31413D01*
X384360Y31162D01*
X384356Y31069D01*
X384363D01*
Y30905D01*
X384345Y30765D01*
X384303Y30619D01*
X384254Y30491D01*
X384191Y30369D01*
X384099Y30232D01*
X383996Y30121D01*
X383916Y30053D01*
X383803Y29973D01*
X383708Y29907D01*
X383597Y29855D01*
X383551Y29831D01*
X383540Y28881D01*
X383540Y27864D01*
X383561Y27824D01*
X383622Y27790D01*
X383838Y27702D01*
X384064Y27603D01*
X384472Y27424D01*
X384708Y27322D01*
X384942Y27217D01*
X385216Y27009D01*
X385376Y26836D01*
X385543Y26578D01*
X385649Y26342D01*
X385723Y26175D01*
X385812Y25735D01*
X385849Y25487D01*
X385889Y24844D01*
X385890Y24616D01*
X385924Y24583D01*
X385978Y24553D01*
X386067Y24532D01*
X386178Y24464D01*
X386338Y24371D01*
X386463Y24244D01*
X386572Y24120D01*
X386662Y23985D01*
X386714Y23872D01*
X386767Y23711D01*
X386810Y23520D01*
X386813Y23294D01*
X386804Y23109D01*
X386752Y22886D01*
X386668Y22752D01*
X386566Y22589D01*
X386450Y22467D01*
X386334Y22351D01*
X386237Y22286D01*
X386120Y22231D01*
X385972Y22160D01*
X385846Y22116D01*
X385744Y22101D01*
X385621Y22095D01*
X385449Y22090D01*
X385305Y22100D01*
X385183Y22125D01*
X385025Y22181D01*
X384929Y22238D01*
X384814Y22325D01*
X384708Y22405D01*
X384610Y22483D01*
X384547Y22557D01*
X384455Y22671D01*
X384382Y22794D01*
X384342Y22919D01*
X384305Y23034D01*
X384276Y23224D01*
X384275Y23452D01*
X384309Y23671D01*
X384355Y23829D01*
X384474Y24042D01*
X384565Y24148D01*
X384661Y24240D01*
X384812Y24378D01*
X384938Y24473D01*
X385031Y24521D01*
X385133Y24568D01*
X385150Y24625D01*
X385153Y24759D01*
X385144Y25111D01*
X385120Y25295D01*
X385105Y25486D01*
X385057Y25769D01*
X385007Y25919D01*
X384936Y26086D01*
X384879Y26177D01*
X384810Y26281D01*
X384717Y26378D01*
X384608Y26472D01*
X384481Y26572D01*
X384373Y26625D01*
X384238Y26697D01*
X384086Y26760D01*
X383965Y26806D01*
X383842Y26865D01*
X383772Y26901D01*
X383694Y26939D01*
X383615Y26985D01*
X383566Y27005D01*
X383539Y26998D01*
X383522Y26981D01*
X383525Y26860D01*
Y25581D01*
X383528Y22573D01*
X383525Y21100D01*
X383524Y20670D01*
X383525Y19996D01*
X383507Y19448D01*
X383528Y19420D01*
X383648Y19430D01*
X383895Y19428D01*
X384565Y19435D01*
X384577Y19397D01*
X384509Y19281D01*
X384249Y18837D01*
X384081Y18535D01*
X383852Y18147D01*
X383689Y17852D01*
X383464Y17453D01*
X383188Y16952D01*
X383145Y16896D01*
X383125Y16901D01*
X383087Y16948D01*
X382696Y17661D01*
X382530Y17898D01*
X382369Y18193D01*
X382177Y18545D01*
X382024Y18793D01*
X381846Y19075D01*
X381734Y19272D01*
X381677Y19365D01*
Y19398D01*
X381706Y19428D01*
X382388Y19427D01*
X382655Y19424D01*
X382701D01*
X382729Y19446D01*
Y22504D01*
X382742Y25080D01*
X382751Y25529D01*
X382736Y25576D01*
X382699Y25579D01*
X382629Y25522D01*
X382391Y25381D01*
X382207Y25292D01*
X382031Y25188D01*
X381847Y25045D01*
X381606Y24822D01*
X381501Y24661D01*
X381372Y24453D01*
X381298Y24280D01*
X381201Y24032D01*
X381153Y23866D01*
X381120Y23621D01*
X381088Y23324D01*
X381060Y23033D01*
X381075Y22968D01*
X381125Y22962D01*
X381794Y22967D01*
X381816Y22942D01*
X381808Y22851D01*
X381810Y20851D01*
X381799Y20816D01*
X381764Y20809D01*
X379726Y20818D01*
X379671Y20826D01*
X379644Y20844D01*
X379648Y20922D01*
X379652Y22930D01*
X379645Y22959D01*
X379671Y22976D01*
X380279Y22968D01*
X380323Y22982D01*
X380332Y23048D01*
X380340Y23339D01*
X380383Y23647D01*
X380422Y23948D01*
X380458Y24101D01*
X380537Y24425D01*
X380633Y24696D01*
X380786Y25010D01*
X380958Y25195D01*
X381181Y25449D01*
X381478Y25709D01*
X381747Y25871D01*
X382023Y26022D01*
X382268Y26150D01*
X382391Y26209D01*
X382545Y26311D01*
X382668Y26426D01*
X382723Y26537D01*
X382759Y26662D01*
X382756Y27164D01*
X382757Y29294D01*
X382753Y29784D01*
X382731Y29810D01*
X382675Y29832D01*
X382581Y29862D01*
X382476Y29907D01*
X382360Y29986D01*
X382282Y30055D01*
X382198Y30136D01*
X382131Y30226D01*
X382053Y30317D01*
X381940Y30482D01*
X381901Y30613D01*
X381862Y30766D01*
X381846Y30966D01*
X381840Y31170D01*
X381849Y31313D01*
X381881Y31449D01*
X381961Y31645D01*
X382053Y31751D01*
X382144Y31872D01*
X382308Y32035D01*
X382449Y32149D01*
X382577Y32212D01*
X382764Y32286D01*
X382970Y32312D01*
X383214Y32314D01*
X383347Y32293D01*
D02*
G37*
G36*
X357450Y20606D02*
X356950D01*
Y23606D01*
X357450D01*
Y20606D01*
D02*
G37*
G36*
X356050D02*
X355550D01*
Y23606D01*
X356050D01*
Y20606D01*
D02*
G37*
G36*
X347450Y20556D02*
X345550D01*
X345550Y21056D01*
X347450D01*
X347450Y20556D01*
D02*
G37*
G36*
X337450D02*
X335550D01*
X335550Y21056D01*
X337450D01*
X337450Y20556D01*
D02*
G37*
G36*
X38450Y19556D02*
X36550D01*
X36550Y20056D01*
X38450D01*
X38450Y19556D01*
D02*
G37*
G36*
X28450D02*
X26550D01*
X26550Y20056D01*
X28450D01*
X28450Y19556D01*
D02*
G37*
G36*
X337450Y18156D02*
X335550D01*
X335550Y18656D01*
X337450D01*
X337450Y18156D01*
D02*
G37*
G36*
X60550Y17156D02*
X60050D01*
Y19056D01*
X60550Y19056D01*
X60550Y17156D01*
D02*
G37*
G36*
X57950D02*
X57450D01*
Y19056D01*
X57950D01*
Y17156D01*
D02*
G37*
G36*
X65550Y19056D02*
Y17156D01*
X65050Y17156D01*
Y19056D01*
X65550Y19056D01*
D02*
G37*
G36*
X62950Y17156D02*
X62450D01*
Y19056D01*
X62950D01*
Y17156D01*
D02*
G37*
G36*
X77950Y16706D02*
X77450D01*
Y19706D01*
X77950D01*
Y16706D01*
D02*
G37*
G36*
X76550D02*
X76050D01*
Y19706D01*
X76550D01*
Y16706D01*
D02*
G37*
G36*
X337450Y15556D02*
X335550D01*
X335550Y16056D01*
X337450D01*
X337450Y15556D01*
D02*
G37*
G36*
X337450Y13656D02*
X335550D01*
X335550Y14156D01*
X337450D01*
X337450Y13656D01*
D02*
G37*
G36*
X26700Y13306D02*
X22300D01*
Y14806D01*
X26700D01*
Y13306D01*
D02*
G37*
G36*
X82000Y13106D02*
X78000Y13106D01*
X80000Y15106D01*
X82000Y13106D01*
D02*
G37*
G36*
X75000D02*
X73000Y15106D01*
X77000D01*
X75000Y13106D01*
D02*
G37*
G36*
X357500Y11056D02*
X354500D01*
Y11556D01*
X357500D01*
Y11056D01*
D02*
G37*
G36*
X337450D02*
X335550D01*
X335550Y11556D01*
X337450D01*
X337450Y11056D01*
D02*
G37*
G36*
X344600Y10506D02*
X342200Y10506D01*
Y12906D01*
X344600Y10506D01*
D02*
G37*
G36*
X357500Y9656D02*
X354500D01*
Y10156D01*
X357500D01*
Y9656D01*
D02*
G37*
G36*
X62450D02*
X60550D01*
X60550Y10156D01*
X62450D01*
X62450Y9656D01*
D02*
G37*
G36*
X391550Y9556D02*
X389050D01*
Y10056D01*
X391050Y10056D01*
Y39156D01*
X389050Y39156D01*
Y39656D01*
X391550D01*
Y9556D01*
D02*
G37*
G36*
X372250Y10056D02*
X379000D01*
Y9556D01*
X371750D01*
X371750Y12106D01*
X372250D01*
Y10056D01*
D02*
G37*
G36*
X364650Y8556D02*
Y8206D01*
X363350D01*
X363350Y8556D01*
X364650Y8556D01*
D02*
G37*
G36*
X62450Y7056D02*
X60550D01*
X60550Y7556D01*
X62450D01*
X62450Y7056D01*
D02*
G37*
G36*
X51100Y6806D02*
X48700D01*
X51100Y9206D01*
X51100Y6806D01*
D02*
G37*
G36*
X37100D02*
X34700D01*
X37100Y9206D01*
Y6806D01*
D02*
G37*
G36*
X364650Y7006D02*
Y6656D01*
X363350D01*
X363350Y7006D01*
X364650Y7006D01*
D02*
G37*
G36*
X336100Y8456D02*
X337500D01*
Y7756D01*
X336100D01*
Y6556D01*
X335500D01*
Y9656D01*
X336100D01*
Y8456D01*
D02*
G37*
G36*
X19088Y46589D02*
X20642D01*
Y45756D01*
X19088D01*
Y44137D01*
X18154D01*
Y45756D01*
X16600D01*
Y46589D01*
X18154D01*
Y48198D01*
X19088D01*
Y46589D01*
D02*
G37*
G36*
X347217Y30682D02*
X347212Y30655D01*
Y30613D01*
X347207Y30571D01*
X347203Y30521D01*
X347198Y30470D01*
X347175Y30354D01*
X347147Y30239D01*
X347106Y30132D01*
X347078Y30082D01*
X347050Y30035D01*
Y30031D01*
X347041Y30026D01*
X347018Y29998D01*
X346981Y29962D01*
X346930Y29915D01*
X346861Y29874D01*
X346778Y29837D01*
X346676Y29809D01*
X346621Y29805D01*
X346561Y29800D01*
X346556D01*
X346542D01*
X346524D01*
X346496Y29805D01*
X346436Y29809D01*
X346362Y29828D01*
X346357D01*
X346348Y29832D01*
X346329Y29837D01*
X346306Y29846D01*
X346251Y29869D01*
X346186Y29901D01*
X346182D01*
X346172Y29911D01*
X346159Y29920D01*
X346135Y29934D01*
X346089Y29975D01*
X346039Y30026D01*
X346034Y30031D01*
X346029Y30040D01*
X346020Y30054D01*
X346006Y30077D01*
X345988Y30100D01*
X345974Y30132D01*
X345946Y30202D01*
Y30197D01*
X345941Y30183D01*
X345937Y30165D01*
X345932Y30137D01*
X345909Y30077D01*
X345877Y30008D01*
Y30003D01*
X345867Y29994D01*
X345858Y29975D01*
X345844Y29952D01*
X345803Y29901D01*
X345752Y29846D01*
X345747Y29842D01*
X345738Y29832D01*
X345720Y29823D01*
X345701Y29805D01*
X345673Y29791D01*
X345641Y29772D01*
X345567Y29735D01*
X345563D01*
X345549Y29731D01*
X345526Y29721D01*
X345498Y29712D01*
X345461Y29708D01*
X345424Y29698D01*
X345332Y29694D01*
X345327D01*
X345313D01*
X345290D01*
X345262Y29698D01*
X345230Y29703D01*
X345188Y29708D01*
X345096Y29731D01*
X344999Y29763D01*
X344943Y29786D01*
X344893Y29814D01*
X344842Y29846D01*
X344796Y29883D01*
X344749Y29925D01*
X344708Y29975D01*
Y29980D01*
X344699Y29989D01*
X344689Y30003D01*
X344676Y30026D01*
X344662Y30054D01*
X344643Y30091D01*
X344625Y30132D01*
X344606Y30179D01*
X344583Y30234D01*
X344565Y30294D01*
X344546Y30359D01*
X344532Y30433D01*
X344518Y30511D01*
X344509Y30595D01*
X344505Y30682D01*
X344500Y30779D01*
Y31606D01*
X347217D01*
Y30682D01*
D02*
G37*
G36*
Y28719D02*
Y28003D01*
X344500Y27199D01*
Y27762D01*
X345036Y27915D01*
Y28862D01*
X344500Y29015D01*
Y29523D01*
X347217Y28719D01*
D02*
G37*
G36*
Y25014D02*
X346792D01*
Y25757D01*
X344500D01*
Y26279D01*
X346792D01*
Y27023D01*
X347217D01*
Y25014D01*
D02*
G37*
G36*
X358717Y31093D02*
X356943D01*
X356938D01*
X356919D01*
X356896D01*
X356864Y31089D01*
X356827D01*
X356785Y31084D01*
X356702Y31070D01*
X356698D01*
X356684Y31066D01*
X356665Y31061D01*
X356642Y31052D01*
X356582Y31024D01*
X356522Y30987D01*
X356517Y30983D01*
X356508Y30978D01*
X356499Y30964D01*
X356481Y30946D01*
X356444Y30899D01*
X356411Y30839D01*
Y30835D01*
X356407Y30825D01*
X356402Y30802D01*
X356393Y30779D01*
X356388Y30747D01*
X356379Y30710D01*
X356374Y30664D01*
Y30571D01*
X356379Y30544D01*
X356388Y30470D01*
X356402Y30400D01*
Y30396D01*
X356407Y30387D01*
X356416Y30368D01*
X356425Y30350D01*
X356457Y30303D01*
X356504Y30257D01*
X356508Y30253D01*
X356517Y30248D01*
X356531Y30239D01*
X356554Y30225D01*
X356582Y30211D01*
X356614Y30193D01*
X356688Y30169D01*
X356693D01*
X356707Y30165D01*
X356735Y30160D01*
X356767Y30151D01*
X356808Y30146D01*
X356855Y30142D01*
X356906Y30137D01*
X356966D01*
X358717D01*
Y29624D01*
X356998D01*
X356993D01*
X356989D01*
X356975D01*
X356956D01*
X356906Y29629D01*
X356845Y29634D01*
X356771Y29643D01*
X356698Y29657D01*
X356619Y29675D01*
X356540Y29698D01*
X356531Y29703D01*
X356508Y29712D01*
X356471Y29726D01*
X356425Y29749D01*
X356374Y29777D01*
X356319Y29809D01*
X356263Y29851D01*
X356212Y29897D01*
X356208Y29901D01*
X356189Y29920D01*
X356166Y29948D01*
X356139Y29985D01*
X356106Y30031D01*
X356079Y30086D01*
X356046Y30146D01*
X356018Y30216D01*
X356014Y30225D01*
X356009Y30248D01*
X356000Y30285D01*
X355986Y30336D01*
X355972Y30400D01*
X355963Y30470D01*
X355958Y30548D01*
X355954Y30636D01*
Y30678D01*
X355958Y30729D01*
X355963Y30789D01*
X355968Y30858D01*
X355981Y30936D01*
X355995Y31010D01*
X356018Y31084D01*
X356023Y31093D01*
X356032Y31117D01*
X356046Y31149D01*
X356065Y31190D01*
X356092Y31241D01*
X356125Y31292D01*
X356166Y31343D01*
X356208Y31389D01*
X356212Y31394D01*
X356231Y31408D01*
X356259Y31426D01*
X356291Y31454D01*
X356337Y31482D01*
X356388Y31509D01*
X356448Y31532D01*
X356513Y31556D01*
X356522D01*
X356545Y31565D01*
X356582Y31569D01*
X356633Y31579D01*
X356688Y31588D01*
X356758Y31597D01*
X356836Y31602D01*
X356915Y31606D01*
X358717D01*
Y31093D01*
D02*
G37*
G36*
X356568Y29236D02*
X356564Y29222D01*
X356554Y29204D01*
X356545Y29181D01*
X356536Y29153D01*
X356527Y29121D01*
X356504Y29047D01*
Y29042D01*
X356499Y29028D01*
X356494Y29005D01*
X356485Y28982D01*
X356481Y28950D01*
X356471Y28913D01*
X356453Y28834D01*
Y28830D01*
X356448Y28816D01*
X356444Y28797D01*
X356439Y28770D01*
X356434Y28737D01*
X356430Y28700D01*
X356416Y28626D01*
Y28608D01*
X356411Y28589D01*
Y28562D01*
X356407Y28497D01*
Y28372D01*
X356411Y28335D01*
Y28298D01*
X356416Y28257D01*
X356430Y28174D01*
Y28169D01*
X356434Y28155D01*
X356439Y28137D01*
X356448Y28114D01*
X356467Y28058D01*
X356494Y28007D01*
Y28003D01*
X356504Y27998D01*
X356527Y27970D01*
X356559Y27943D01*
X356601Y27915D01*
X356605D01*
X356610Y27910D01*
X356642Y27896D01*
X356684Y27887D01*
X356735Y27883D01*
X356739D01*
X356753D01*
X356771Y27887D01*
X356795Y27892D01*
X356850Y27906D01*
X356873Y27924D01*
X356901Y27943D01*
X356906Y27947D01*
X356915Y27952D01*
X356924Y27966D01*
X356943Y27984D01*
X356979Y28030D01*
X357021Y28095D01*
X357026Y28100D01*
X357030Y28109D01*
X357039Y28132D01*
X357053Y28155D01*
X357067Y28188D01*
X357081Y28225D01*
X357113Y28308D01*
Y28312D01*
X357123Y28326D01*
X357127Y28354D01*
X357141Y28381D01*
X357155Y28418D01*
X357169Y28460D01*
X357201Y28552D01*
X357206Y28557D01*
X357210Y28571D01*
X357220Y28599D01*
X357234Y28626D01*
X357252Y28663D01*
X357271Y28705D01*
X357312Y28793D01*
X357317Y28797D01*
X357321Y28811D01*
X357335Y28834D01*
X357354Y28867D01*
X357400Y28936D01*
X357460Y29010D01*
X357465Y29015D01*
X357478Y29024D01*
X357497Y29042D01*
X357520Y29061D01*
X357552Y29088D01*
X357589Y29111D01*
X357672Y29158D01*
X357677D01*
X357696Y29167D01*
X357723Y29176D01*
X357756Y29185D01*
X357802Y29195D01*
X357853Y29204D01*
X357908Y29208D01*
X357973Y29213D01*
X357982D01*
X358000D01*
X358033Y29208D01*
X358070Y29204D01*
X358121Y29199D01*
X358171Y29190D01*
X358222Y29176D01*
X358278Y29158D01*
X358282Y29153D01*
X358301Y29149D01*
X358329Y29130D01*
X358361Y29111D01*
X358402Y29084D01*
X358444Y29056D01*
X358486Y29015D01*
X358527Y28973D01*
X358532Y28968D01*
X358546Y28950D01*
X358564Y28922D01*
X358587Y28885D01*
X358615Y28839D01*
X358643Y28784D01*
X358670Y28723D01*
X358698Y28654D01*
Y28650D01*
X358703Y28645D01*
X358707Y28617D01*
X358717Y28576D01*
X358730Y28520D01*
X358744Y28451D01*
X358753Y28368D01*
X358758Y28280D01*
X358763Y28178D01*
Y28127D01*
X358758Y28077D01*
X358753Y28012D01*
Y27998D01*
X358749Y27980D01*
Y27957D01*
X358740Y27896D01*
X358730Y27836D01*
Y27823D01*
X358726Y27804D01*
Y27781D01*
X358717Y27730D01*
X358703Y27670D01*
Y27656D01*
X358698Y27638D01*
X358694Y27619D01*
X358684Y27568D01*
X358675Y27518D01*
X358208D01*
Y27522D01*
X358213Y27531D01*
X358218Y27545D01*
X358222Y27564D01*
X358236Y27610D01*
X358250Y27665D01*
Y27670D01*
X358255Y27679D01*
X358259Y27693D01*
X358264Y27716D01*
X358278Y27767D01*
X358287Y27832D01*
Y27836D01*
X358292Y27846D01*
Y27864D01*
X358296Y27883D01*
X358305Y27938D01*
X358315Y28003D01*
Y28017D01*
X358319Y28035D01*
Y28054D01*
X358324Y28104D01*
Y28211D01*
X358319Y28243D01*
X358315Y28317D01*
X358301Y28395D01*
Y28400D01*
X358296Y28409D01*
X358292Y28428D01*
X358282Y28451D01*
X358264Y28497D01*
X358236Y28548D01*
Y28552D01*
X358231Y28557D01*
X358213Y28580D01*
X358181Y28608D01*
X358144Y28636D01*
X358139D01*
X358134Y28640D01*
X358107Y28645D01*
X358070Y28654D01*
X358019Y28659D01*
X358014D01*
X358005D01*
X357991Y28654D01*
X357968Y28650D01*
X357922Y28636D01*
X357894Y28622D01*
X357871Y28603D01*
X357867Y28599D01*
X357862Y28594D01*
X357848Y28580D01*
X357834Y28562D01*
X357797Y28515D01*
X357760Y28455D01*
Y28451D01*
X357751Y28437D01*
X357742Y28418D01*
X357733Y28391D01*
X357719Y28358D01*
X357705Y28321D01*
X357672Y28238D01*
Y28234D01*
X357663Y28215D01*
X357659Y28192D01*
X357645Y28164D01*
X357631Y28127D01*
X357617Y28086D01*
X357580Y27994D01*
Y27989D01*
X357571Y27970D01*
X357562Y27947D01*
X357548Y27915D01*
X357534Y27873D01*
X357515Y27832D01*
X357469Y27744D01*
X357465Y27739D01*
X357460Y27725D01*
X357446Y27702D01*
X357428Y27670D01*
X357381Y27605D01*
X357317Y27531D01*
X357312Y27527D01*
X357303Y27513D01*
X357284Y27499D01*
X357257Y27476D01*
X357224Y27453D01*
X357192Y27425D01*
X357150Y27402D01*
X357104Y27379D01*
X357100Y27374D01*
X357081Y27370D01*
X357058Y27360D01*
X357026Y27347D01*
X356979Y27337D01*
X356933Y27328D01*
X356878Y27324D01*
X356818Y27319D01*
X356813D01*
X356808D01*
X356781D01*
X356739Y27324D01*
X356688Y27328D01*
X356624Y27337D01*
X356559Y27356D01*
X356494Y27374D01*
X356430Y27402D01*
X356420Y27407D01*
X356402Y27416D01*
X356374Y27434D01*
X356337Y27462D01*
X356291Y27494D01*
X356249Y27536D01*
X356203Y27582D01*
X356162Y27633D01*
X356157Y27638D01*
X356143Y27661D01*
X356125Y27689D01*
X356102Y27735D01*
X356079Y27786D01*
X356051Y27846D01*
X356028Y27915D01*
X356005Y27989D01*
Y27998D01*
X355995Y28026D01*
X355991Y28067D01*
X355981Y28118D01*
X355972Y28188D01*
X355963Y28261D01*
X355958Y28345D01*
X355954Y28432D01*
Y28511D01*
X355958Y28562D01*
Y28626D01*
X355968Y28696D01*
X355981Y28848D01*
Y28857D01*
X355986Y28881D01*
X355991Y28922D01*
X356000Y28973D01*
X356014Y29033D01*
X356028Y29098D01*
X356065Y29241D01*
X356568D01*
Y29236D01*
D02*
G37*
G36*
X358717Y25910D02*
X358712Y25882D01*
Y25840D01*
X358707Y25799D01*
X358703Y25748D01*
X358698Y25697D01*
X358675Y25582D01*
X358647Y25466D01*
X358606Y25360D01*
X358578Y25309D01*
X358550Y25263D01*
Y25258D01*
X358541Y25254D01*
X358518Y25226D01*
X358481Y25189D01*
X358430Y25143D01*
X358361Y25101D01*
X358278Y25064D01*
X358176Y25037D01*
X358121Y25032D01*
X358061Y25027D01*
X358056D01*
X358042D01*
X358024D01*
X357996Y25032D01*
X357936Y25037D01*
X357862Y25055D01*
X357857D01*
X357848Y25060D01*
X357829Y25064D01*
X357806Y25074D01*
X357751Y25097D01*
X357686Y25129D01*
X357682D01*
X357672Y25138D01*
X357659Y25148D01*
X357635Y25161D01*
X357589Y25203D01*
X357539Y25254D01*
X357534Y25258D01*
X357529Y25268D01*
X357520Y25282D01*
X357506Y25305D01*
X357488Y25328D01*
X357474Y25360D01*
X357446Y25429D01*
Y25425D01*
X357441Y25411D01*
X357437Y25392D01*
X357432Y25365D01*
X357409Y25305D01*
X357377Y25235D01*
Y25231D01*
X357367Y25221D01*
X357358Y25203D01*
X357344Y25180D01*
X357303Y25129D01*
X357252Y25074D01*
X357247Y25069D01*
X357238Y25060D01*
X357220Y25051D01*
X357201Y25032D01*
X357173Y25018D01*
X357141Y25000D01*
X357067Y24963D01*
X357063D01*
X357049Y24958D01*
X357026Y24949D01*
X356998Y24940D01*
X356961Y24935D01*
X356924Y24926D01*
X356832Y24921D01*
X356827D01*
X356813D01*
X356790D01*
X356762Y24926D01*
X356730Y24930D01*
X356688Y24935D01*
X356596Y24958D01*
X356499Y24991D01*
X356444Y25014D01*
X356393Y25041D01*
X356342Y25074D01*
X356296Y25111D01*
X356249Y25152D01*
X356208Y25203D01*
Y25208D01*
X356199Y25217D01*
X356189Y25231D01*
X356176Y25254D01*
X356162Y25282D01*
X356143Y25319D01*
X356125Y25360D01*
X356106Y25406D01*
X356083Y25462D01*
X356065Y25522D01*
X356046Y25586D01*
X356032Y25660D01*
X356018Y25739D01*
X356009Y25822D01*
X356005Y25910D01*
X356000Y26007D01*
Y26834D01*
X358717D01*
Y25910D01*
D02*
G37*
G36*
X237619Y16184D02*
X237744Y16170D01*
X237882Y16114D01*
X237896D01*
X237910Y16101D01*
X237993Y16059D01*
X238091Y15990D01*
X238202Y15892D01*
X238229Y15865D01*
X238285Y15795D01*
X238354Y15698D01*
X238410Y15573D01*
Y15559D01*
X238424Y15545D01*
X238451Y15462D01*
X238479Y15337D01*
X238493Y15184D01*
Y15171D01*
Y15143D01*
Y15115D01*
X238479Y15059D01*
X238465Y14935D01*
X238410Y14796D01*
Y14782D01*
X238396Y14768D01*
X238354Y14685D01*
X238299Y14588D01*
X238202Y14477D01*
X238174Y14463D01*
X238104Y14407D01*
X238007Y14338D01*
X237882Y14268D01*
X237868D01*
X237855Y14254D01*
X237771Y14241D01*
X237646Y14213D01*
X237494Y14199D01*
X237410D01*
X237355Y14213D01*
X237230Y14227D01*
X237091Y14268D01*
X237077D01*
X237063Y14282D01*
X236980Y14324D01*
X236883Y14393D01*
X236772Y14477D01*
X236744Y14504D01*
X236689Y14574D01*
X236619Y14671D01*
X236564Y14796D01*
Y14810D01*
X236550Y14824D01*
X236536Y14907D01*
X236508Y15032D01*
X236494Y15184D01*
Y15198D01*
Y15226D01*
Y15254D01*
X236508Y15309D01*
X236522Y15434D01*
X236564Y15573D01*
Y15587D01*
X236578Y15601D01*
X236619Y15684D01*
X236675Y15781D01*
X236772Y15892D01*
X236800Y15920D01*
X236869Y15976D01*
X236966Y16045D01*
X237091Y16114D01*
X237105D01*
X237119Y16128D01*
X237216Y16156D01*
X237341Y16184D01*
X237494Y16198D01*
X237563D01*
X237619Y16184D01*
D02*
G37*
G36*
X273762Y13574D02*
X273887D01*
X274012Y13547D01*
X274165Y13519D01*
X274304Y13477D01*
X274442Y13422D01*
X274456Y13408D01*
X274512Y13394D01*
X274581Y13352D01*
X274664Y13297D01*
X274762Y13227D01*
X274859Y13144D01*
X274970Y13033D01*
X275067Y12922D01*
X275081Y12908D01*
X275109Y12867D01*
X275150Y12797D01*
X275206Y12700D01*
X275275Y12589D01*
X275331Y12436D01*
X275386Y12284D01*
X275442Y12103D01*
Y12075D01*
X275455Y12020D01*
X275483Y11923D01*
X275497Y11784D01*
X275525Y11617D01*
X275539Y11423D01*
X275553Y11215D01*
Y10979D01*
X274026D01*
Y10993D01*
Y11034D01*
Y11104D01*
Y11187D01*
X274012Y11381D01*
X273984Y11576D01*
Y11590D01*
X273970Y11617D01*
Y11659D01*
X273956Y11728D01*
X273901Y11853D01*
X273832Y11992D01*
Y12006D01*
X273818Y12020D01*
X273762Y12089D01*
X273679Y12159D01*
X273582Y12228D01*
X273554Y12242D01*
X273485Y12270D01*
X273374Y12297D01*
X273235Y12311D01*
X273179D01*
X273110Y12297D01*
X273026Y12270D01*
X272916Y12242D01*
X272804Y12186D01*
X272679Y12117D01*
X272541Y12020D01*
X272527Y12006D01*
X272485Y11964D01*
X272402Y11895D01*
X272305Y11798D01*
X272194Y11673D01*
X272055Y11520D01*
X271916Y11340D01*
X271763Y11118D01*
Y7106D01*
X270195D01*
Y13450D01*
X271569D01*
X271638Y12519D01*
X271652Y12533D01*
X271666Y12561D01*
X271694Y12603D01*
X271736Y12658D01*
X271847Y12797D01*
X271986Y12950D01*
X271999Y12964D01*
X272013Y12978D01*
X272055Y13019D01*
X272110Y13061D01*
X272249Y13172D01*
X272416Y13283D01*
X272430Y13297D01*
X272457Y13311D01*
X272513Y13338D01*
X272582Y13366D01*
X272749Y13436D01*
X272957Y13505D01*
X272971D01*
X273013Y13519D01*
X273068Y13533D01*
X273151Y13547D01*
X273235Y13561D01*
X273346Y13574D01*
X273596Y13588D01*
X273679D01*
X273762Y13574D01*
D02*
G37*
G36*
X246349Y13561D02*
X246474Y13547D01*
X246627Y13519D01*
X246793Y13450D01*
X246960Y13366D01*
X247126Y13255D01*
X247265Y13089D01*
X247279Y13061D01*
X247321Y12991D01*
X247376Y12880D01*
X247432Y12728D01*
X247487Y12519D01*
X247543Y12270D01*
X247585Y11978D01*
X247598Y11645D01*
Y7106D01*
X246280D01*
Y11423D01*
Y11437D01*
Y11465D01*
Y11506D01*
Y11562D01*
Y11701D01*
X246266Y11839D01*
Y11853D01*
Y11867D01*
X246252Y11950D01*
X246238Y12034D01*
X246210Y12131D01*
X246197Y12159D01*
X246183Y12200D01*
X246141Y12256D01*
X246099Y12311D01*
X246085Y12325D01*
X246044Y12353D01*
X245988Y12367D01*
X245905Y12381D01*
X245877D01*
X245780Y12353D01*
X245725Y12311D01*
X245655Y12270D01*
X245586Y12200D01*
X245516Y12117D01*
X245502Y12103D01*
X245489Y12061D01*
X245447Y12006D01*
X245391Y11909D01*
X245336Y11784D01*
X245267Y11631D01*
X245183Y11437D01*
X245100Y11215D01*
Y7106D01*
X243795D01*
Y11423D01*
Y11437D01*
Y11465D01*
Y11506D01*
Y11562D01*
Y11701D01*
X243781Y11839D01*
Y11853D01*
Y11867D01*
X243767Y11950D01*
X243754Y12034D01*
X243726Y12131D01*
X243712Y12159D01*
X243698Y12200D01*
X243656Y12256D01*
X243615Y12311D01*
X243601Y12325D01*
X243559Y12353D01*
X243504Y12367D01*
X243421Y12381D01*
X243393D01*
X243309Y12353D01*
X243254Y12311D01*
X243198Y12270D01*
X243115Y12200D01*
X243046Y12117D01*
X243032Y12103D01*
X243018Y12061D01*
X242976Y12006D01*
X242921Y11909D01*
X242851Y11784D01*
X242782Y11631D01*
X242699Y11437D01*
X242615Y11215D01*
Y7106D01*
X241297D01*
Y13450D01*
X242421D01*
X242449Y12519D01*
Y12533D01*
X242477Y12561D01*
X242504Y12617D01*
X242532Y12686D01*
X242615Y12839D01*
X242713Y12991D01*
Y13005D01*
X242740Y13033D01*
X242796Y13116D01*
X242893Y13214D01*
X243004Y13325D01*
X243018D01*
X243032Y13352D01*
X243115Y13394D01*
X243226Y13450D01*
X243351Y13505D01*
X243365D01*
X243379Y13519D01*
X243476Y13547D01*
X243601Y13561D01*
X243754Y13574D01*
X243837D01*
X243934Y13561D01*
X244059Y13533D01*
X244184Y13505D01*
X244323Y13450D01*
X244448Y13380D01*
X244559Y13283D01*
X244572Y13269D01*
X244600Y13227D01*
X244656Y13172D01*
X244697Y13089D01*
X244753Y12978D01*
X244809Y12839D01*
X244850Y12686D01*
X244878Y12519D01*
X244892Y12533D01*
X244906Y12561D01*
X244933Y12617D01*
X244975Y12686D01*
X245072Y12839D01*
X245169Y12991D01*
X245183Y13005D01*
X245197Y13033D01*
X245267Y13116D01*
X245364Y13214D01*
X245475Y13325D01*
X245489D01*
X245502Y13352D01*
X245586Y13394D01*
X245697Y13450D01*
X245822Y13505D01*
X245836D01*
X245849Y13519D01*
X245891Y13533D01*
X245947Y13547D01*
X246072Y13561D01*
X246238Y13574D01*
X246266D01*
X246349Y13561D01*
D02*
G37*
G36*
X294596Y13574D02*
X294707D01*
X294846Y13547D01*
X294985Y13519D01*
X295137Y13477D01*
X295276Y13422D01*
X295290D01*
X295332Y13394D01*
X295401Y13352D01*
X295484Y13311D01*
X295679Y13172D01*
X295873Y12978D01*
X295887Y12964D01*
X295915Y12922D01*
X295956Y12867D01*
X296012Y12783D01*
X296081Y12672D01*
X296137Y12561D01*
X296192Y12422D01*
X296248Y12270D01*
Y12256D01*
X296262Y12200D01*
X296289Y12117D01*
X296317Y12006D01*
X296331Y11867D01*
X296359Y11715D01*
X296373Y11534D01*
Y11354D01*
Y7106D01*
X294846D01*
Y11229D01*
Y11243D01*
Y11270D01*
Y11326D01*
X294832Y11395D01*
X294804Y11562D01*
X294749Y11756D01*
X294652Y11950D01*
X294513Y12117D01*
X294429Y12186D01*
X294332Y12242D01*
X294207Y12270D01*
X294069Y12284D01*
X293999D01*
X293930Y12270D01*
X293833Y12242D01*
X293722Y12200D01*
X293583Y12145D01*
X293458Y12075D01*
X293319Y11964D01*
X293305Y11950D01*
X293264Y11909D01*
X293194Y11839D01*
X293097Y11742D01*
X292986Y11617D01*
X292861Y11479D01*
X292722Y11312D01*
X292583Y11118D01*
Y7106D01*
X291057Y7106D01*
Y13450D01*
X292375Y13450D01*
X292403Y12506D01*
X292417Y12519D01*
X292431Y12547D01*
X292472Y12589D01*
X292528Y12658D01*
X292653Y12797D01*
X292806Y12950D01*
X292819Y12964D01*
X292847Y12978D01*
X292889Y13019D01*
X292944Y13061D01*
X293083Y13172D01*
X293264Y13283D01*
X293277Y13297D01*
X293305Y13311D01*
X293361Y13338D01*
X293430Y13366D01*
X293597Y13436D01*
X293791Y13505D01*
X293805D01*
X293847Y13519D01*
X293902Y13533D01*
X293971Y13547D01*
X294069Y13561D01*
X294166Y13574D01*
X294416Y13588D01*
X294499D01*
X294596Y13574D01*
D02*
G37*
G36*
X212482Y7106D02*
X211122D01*
X210969Y11715D01*
X210913Y13561D01*
X210525Y12311D01*
X209623Y9535D01*
X208651D01*
X207832Y12311D01*
X207485Y13561D01*
X207443Y11756D01*
X207305Y7106D01*
X206000D01*
X206402Y15268D01*
X208137D01*
X208859Y12936D01*
X209206Y11631D01*
X209553Y12867D01*
X210303Y15268D01*
X212079D01*
X212482Y7106D01*
D02*
G37*
G36*
X218950D02*
X217618D01*
X217590Y8036D01*
X217576Y8022D01*
X217548Y7995D01*
X217507Y7953D01*
X217465Y7897D01*
X217326Y7745D01*
X217173Y7592D01*
X217160Y7578D01*
X217146Y7564D01*
X217104Y7523D01*
X217049Y7481D01*
X216910Y7370D01*
X216729Y7259D01*
X216715D01*
X216688Y7231D01*
X216646Y7217D01*
X216577Y7176D01*
X216410Y7106D01*
X216202Y7051D01*
X216188D01*
X216160Y7037D01*
X216091Y7023D01*
X216021Y7009D01*
X215924Y6995D01*
X215827Y6981D01*
X215577Y6967D01*
X215494D01*
X215411Y6981D01*
X215286D01*
X215161Y7009D01*
X215008Y7037D01*
X214855Y7065D01*
X214717Y7120D01*
X214703Y7134D01*
X214661Y7148D01*
X214592Y7190D01*
X214508Y7231D01*
X214314Y7370D01*
X214106Y7564D01*
X214092Y7578D01*
X214064Y7620D01*
X214023Y7689D01*
X213967Y7773D01*
X213912Y7870D01*
X213856Y7995D01*
X213801Y8133D01*
X213745Y8272D01*
Y8286D01*
X213731Y8342D01*
X213717Y8425D01*
X213689Y8550D01*
X213676Y8675D01*
X213648Y8841D01*
X213634Y9008D01*
Y9188D01*
Y13450D01*
X215161D01*
Y9313D01*
Y9285D01*
Y9230D01*
X215175Y9133D01*
X215189Y9022D01*
X215244Y8772D01*
X215286Y8647D01*
X215341Y8536D01*
X215355Y8522D01*
X215383Y8494D01*
X215424Y8453D01*
X215494Y8411D01*
X215577Y8355D01*
X215674Y8314D01*
X215799Y8286D01*
X215938Y8272D01*
X216007D01*
X216077Y8286D01*
X216174Y8314D01*
X216285Y8342D01*
X216396Y8397D01*
X216535Y8480D01*
X216660Y8578D01*
X216674Y8591D01*
X216729Y8633D01*
X216799Y8703D01*
X216896Y8800D01*
X217007Y8925D01*
X217132Y9077D01*
X217271Y9244D01*
X217423Y9438D01*
Y13450D01*
X218950D01*
Y7106D01*
D02*
G37*
G36*
X279620Y15254D02*
X279814Y15240D01*
X280036Y15226D01*
X280272Y15198D01*
X280508Y15143D01*
X280744Y15087D01*
X280758D01*
X280772Y15073D01*
X280841Y15059D01*
X280952Y15018D01*
X281105Y14962D01*
X281257Y14893D01*
X281424Y14810D01*
X281604Y14699D01*
X281757Y14588D01*
X281771Y14574D01*
X281826Y14532D01*
X281896Y14463D01*
X281993Y14366D01*
X282090Y14241D01*
X282201Y14102D01*
X282298Y13949D01*
X282396Y13769D01*
X282409Y13741D01*
X282437Y13685D01*
X282465Y13588D01*
X282507Y13450D01*
X282548Y13283D01*
X282590Y13103D01*
X282604Y12880D01*
X282618Y12658D01*
Y12630D01*
Y12547D01*
X282604Y12422D01*
X282590Y12270D01*
X282562Y12089D01*
X282520Y11895D01*
X282465Y11687D01*
X282396Y11479D01*
X282382Y11451D01*
X282354Y11395D01*
X282312Y11284D01*
X282243Y11159D01*
X282146Y11021D01*
X282049Y10868D01*
X281924Y10701D01*
X281771Y10549D01*
X281757Y10535D01*
X281701Y10479D01*
X281604Y10410D01*
X281479Y10327D01*
X281341Y10229D01*
X281160Y10132D01*
X280952Y10035D01*
X280730Y9938D01*
X280702Y9924D01*
X280619Y9910D01*
X280494Y9868D01*
X280313Y9841D01*
X280105Y9799D01*
X279855Y9757D01*
X279578Y9743D01*
X279286Y9730D01*
X278509D01*
Y7106D01*
X276955D01*
Y15268D01*
X279481D01*
X279620Y15254D01*
D02*
G37*
G36*
X238368Y8300D02*
X240200D01*
Y7106D01*
X234787D01*
Y8300D01*
X236800D01*
Y12256D01*
X235009D01*
Y13450D01*
X238368D01*
Y8300D01*
D02*
G37*
G36*
X224294Y8300D02*
X226112D01*
Y7106D01*
X220713D01*
Y8300D01*
X222725D01*
Y14740D01*
X220935D01*
Y15934D01*
X224294D01*
Y8300D01*
D02*
G37*
G36*
X287004Y13574D02*
X287170Y13561D01*
X287351Y13533D01*
X287545Y13491D01*
X287753Y13436D01*
X287948Y13366D01*
X287975Y13352D01*
X288031Y13325D01*
X288128Y13283D01*
X288253Y13214D01*
X288392Y13130D01*
X288544Y13033D01*
X288683Y12922D01*
X288822Y12783D01*
X288836Y12769D01*
X288878Y12714D01*
X288947Y12644D01*
X289016Y12533D01*
X289100Y12409D01*
X289197Y12256D01*
X289280Y12075D01*
X289349Y11895D01*
X289363Y11867D01*
X289377Y11812D01*
X289405Y11701D01*
X289447Y11562D01*
X289488Y11395D01*
X289516Y11201D01*
X289530Y10979D01*
X289544Y10757D01*
Y10729D01*
Y10646D01*
Y10521D01*
X289530Y10354D01*
Y10340D01*
Y10313D01*
Y10271D01*
X289516Y10202D01*
Y10063D01*
X289502Y9896D01*
X285338D01*
Y9882D01*
Y9827D01*
X285352Y9743D01*
Y9646D01*
X285366Y9521D01*
X285394Y9397D01*
X285463Y9147D01*
Y9133D01*
X285491Y9091D01*
X285519Y9036D01*
X285560Y8966D01*
X285671Y8800D01*
X285824Y8619D01*
X285838Y8605D01*
X285865Y8591D01*
X285921Y8550D01*
X285977Y8508D01*
X286060Y8453D01*
X286157Y8397D01*
X286379Y8300D01*
X286393D01*
X286435Y8286D01*
X286504Y8272D01*
X286601Y8245D01*
X286712Y8231D01*
X286837Y8203D01*
X287115Y8189D01*
X287281D01*
X287406Y8203D01*
X287559D01*
X287725Y8217D01*
X287906Y8231D01*
X288100Y8258D01*
X288128D01*
X288197Y8272D01*
X288295Y8286D01*
X288433Y8314D01*
X288600Y8342D01*
X288780Y8383D01*
X288988Y8439D01*
X289197Y8494D01*
Y7287D01*
X289183D01*
X289155Y7273D01*
X289100Y7259D01*
X289030Y7245D01*
X288864Y7190D01*
X288655Y7148D01*
X288614D01*
X288558Y7134D01*
X288475Y7120D01*
X288392Y7106D01*
X288295Y7092D01*
X288072Y7065D01*
X288017D01*
X287961Y7051D01*
X287878Y7037D01*
X287795Y7023D01*
X287684D01*
X287462Y6995D01*
X287406D01*
X287351Y6981D01*
X287281D01*
X287087Y6967D01*
X286754D01*
X286615Y6981D01*
X286435Y6995D01*
X286240Y7009D01*
X286018Y7051D01*
X285796Y7092D01*
X285574Y7162D01*
X285546Y7176D01*
X285477Y7203D01*
X285380Y7245D01*
X285241Y7315D01*
X285088Y7398D01*
X284922Y7509D01*
X284755Y7634D01*
X284602Y7773D01*
X284589Y7786D01*
X284533Y7842D01*
X284464Y7925D01*
X284380Y8050D01*
X284283Y8189D01*
X284172Y8369D01*
X284075Y8564D01*
X283992Y8772D01*
Y8786D01*
X283978Y8800D01*
X283964Y8883D01*
X283922Y9008D01*
X283895Y9174D01*
X283853Y9369D01*
X283811Y9605D01*
X283797Y9868D01*
X283784Y10146D01*
Y10160D01*
Y10188D01*
Y10215D01*
Y10271D01*
X283797Y10424D01*
X283811Y10618D01*
X283839Y10826D01*
X283867Y11062D01*
X283922Y11312D01*
X283992Y11548D01*
Y11562D01*
X284006Y11576D01*
X284033Y11659D01*
X284075Y11770D01*
X284144Y11923D01*
X284228Y12089D01*
X284339Y12270D01*
X284450Y12450D01*
X284589Y12630D01*
X284602Y12644D01*
X284658Y12700D01*
X284741Y12783D01*
X284852Y12894D01*
X284991Y13005D01*
X285158Y13116D01*
X285338Y13241D01*
X285532Y13338D01*
X285560Y13352D01*
X285630Y13380D01*
X285741Y13422D01*
X285893Y13463D01*
X286074Y13505D01*
X286282Y13547D01*
X286518Y13574D01*
X286768Y13588D01*
X286879D01*
X287004Y13574D01*
D02*
G37*
G36*
X265892D02*
X266059Y13561D01*
X266239Y13533D01*
X266434Y13491D01*
X266642Y13436D01*
X266836Y13366D01*
X266864Y13352D01*
X266919Y13325D01*
X267017Y13283D01*
X267141Y13214D01*
X267280Y13130D01*
X267433Y13033D01*
X267572Y12922D01*
X267710Y12783D01*
X267724Y12769D01*
X267766Y12714D01*
X267835Y12644D01*
X267905Y12533D01*
X267988Y12409D01*
X268085Y12256D01*
X268168Y12075D01*
X268238Y11895D01*
X268252Y11867D01*
X268266Y11812D01*
X268293Y11701D01*
X268335Y11562D01*
X268377Y11395D01*
X268405Y11201D01*
X268418Y10979D01*
X268432Y10757D01*
Y10729D01*
Y10646D01*
Y10521D01*
X268418Y10354D01*
Y10340D01*
Y10313D01*
Y10271D01*
X268405Y10202D01*
Y10063D01*
X268391Y9896D01*
X264227D01*
Y9882D01*
Y9827D01*
X264241Y9743D01*
Y9646D01*
X264254Y9521D01*
X264282Y9397D01*
X264352Y9147D01*
Y9133D01*
X264379Y9091D01*
X264407Y9036D01*
X264449Y8966D01*
X264560Y8800D01*
X264712Y8619D01*
X264726Y8605D01*
X264754Y8591D01*
X264810Y8550D01*
X264865Y8508D01*
X264948Y8453D01*
X265045Y8397D01*
X265268Y8300D01*
X265282D01*
X265323Y8286D01*
X265392Y8272D01*
X265490Y8245D01*
X265601Y8231D01*
X265726Y8203D01*
X266003Y8189D01*
X266170D01*
X266295Y8203D01*
X266447D01*
X266614Y8217D01*
X266794Y8231D01*
X266989Y8258D01*
X267017D01*
X267086Y8272D01*
X267183Y8286D01*
X267322Y8314D01*
X267488Y8342D01*
X267669Y8383D01*
X267877Y8439D01*
X268085Y8494D01*
Y7287D01*
X268071D01*
X268044Y7273D01*
X267988Y7259D01*
X267919Y7245D01*
X267752Y7190D01*
X267544Y7148D01*
X267502D01*
X267447Y7134D01*
X267364Y7120D01*
X267280Y7106D01*
X267183Y7092D01*
X266961Y7065D01*
X266905D01*
X266850Y7051D01*
X266767Y7037D01*
X266683Y7023D01*
X266572D01*
X266350Y6995D01*
X266295D01*
X266239Y6981D01*
X266170D01*
X265975Y6967D01*
X265642D01*
X265504Y6981D01*
X265323Y6995D01*
X265129Y7009D01*
X264907Y7051D01*
X264685Y7092D01*
X264463Y7162D01*
X264435Y7176D01*
X264365Y7203D01*
X264268Y7245D01*
X264129Y7315D01*
X263977Y7398D01*
X263810Y7509D01*
X263644Y7634D01*
X263491Y7773D01*
X263477Y7786D01*
X263422Y7842D01*
X263352Y7925D01*
X263269Y8050D01*
X263172Y8189D01*
X263061Y8369D01*
X262964Y8564D01*
X262880Y8772D01*
Y8786D01*
X262866Y8800D01*
X262853Y8883D01*
X262811Y9008D01*
X262783Y9174D01*
X262741Y9369D01*
X262700Y9605D01*
X262686Y9868D01*
X262672Y10146D01*
Y10160D01*
Y10188D01*
Y10215D01*
Y10271D01*
X262686Y10424D01*
X262700Y10618D01*
X262728Y10826D01*
X262755Y11062D01*
X262811Y11312D01*
X262880Y11548D01*
Y11562D01*
X262894Y11576D01*
X262922Y11659D01*
X262964Y11770D01*
X263033Y11923D01*
X263116Y12089D01*
X263227Y12270D01*
X263338Y12450D01*
X263477Y12630D01*
X263491Y12644D01*
X263546Y12700D01*
X263630Y12783D01*
X263741Y12894D01*
X263880Y13005D01*
X264046Y13116D01*
X264227Y13241D01*
X264421Y13338D01*
X264449Y13352D01*
X264518Y13380D01*
X264629Y13422D01*
X264782Y13463D01*
X264962Y13505D01*
X265170Y13547D01*
X265406Y13574D01*
X265656Y13588D01*
X265767D01*
X265892Y13574D01*
D02*
G37*
G36*
X258633Y13450D02*
X261090D01*
Y12256D01*
X258633D01*
Y9272D01*
Y9244D01*
Y9188D01*
X258647Y9091D01*
X258661Y8966D01*
X258688Y8827D01*
X258730Y8703D01*
X258786Y8564D01*
X258869Y8453D01*
X258883Y8439D01*
X258924Y8411D01*
X258980Y8369D01*
X259063Y8328D01*
X259188Y8272D01*
X259327Y8231D01*
X259493Y8203D01*
X259702Y8189D01*
X259840D01*
X259938Y8203D01*
X260049D01*
X260160Y8217D01*
X260423Y8245D01*
X260437D01*
X260479Y8258D01*
X260548Y8272D01*
X260646Y8286D01*
X260743Y8314D01*
X260854Y8342D01*
X261090Y8397D01*
Y7176D01*
X261076D01*
X261020Y7162D01*
X260937Y7148D01*
X260826Y7134D01*
X260701Y7106D01*
X260562Y7079D01*
X260257Y7037D01*
X260243D01*
X260188Y7023D01*
X260104Y7009D01*
X260007D01*
X259882Y6995D01*
X259743Y6981D01*
X259466Y6967D01*
X259355D01*
X259244Y6981D01*
X259091D01*
X258924Y6995D01*
X258744Y7023D01*
X258564Y7051D01*
X258383Y7092D01*
X258369D01*
X258314Y7120D01*
X258217Y7148D01*
X258119Y7190D01*
X257870Y7315D01*
X257745Y7384D01*
X257634Y7481D01*
X257620Y7495D01*
X257592Y7537D01*
X257536Y7592D01*
X257467Y7675D01*
X257398Y7773D01*
X257328Y7897D01*
X257259Y8022D01*
X257203Y8175D01*
Y8189D01*
X257176Y8245D01*
X257162Y8342D01*
X257134Y8453D01*
X257106Y8605D01*
X257092Y8772D01*
X257065Y8952D01*
Y9161D01*
Y12256D01*
X255371D01*
Y13450D01*
X257065D01*
Y15059D01*
X258633Y15476D01*
Y13450D01*
D02*
G37*
G36*
X251818Y13574D02*
X251984Y13561D01*
X252165Y13533D01*
X252359Y13491D01*
X252567Y13436D01*
X252762Y13366D01*
X252789Y13352D01*
X252845Y13325D01*
X252942Y13283D01*
X253067Y13214D01*
X253206Y13130D01*
X253359Y13033D01*
X253497Y12922D01*
X253636Y12783D01*
X253650Y12769D01*
X253692Y12714D01*
X253761Y12644D01*
X253831Y12533D01*
X253914Y12409D01*
X254011Y12256D01*
X254094Y12075D01*
X254164Y11895D01*
X254177Y11867D01*
X254191Y11812D01*
X254219Y11701D01*
X254261Y11562D01*
X254302Y11395D01*
X254330Y11201D01*
X254344Y10979D01*
X254358Y10757D01*
Y10729D01*
Y10646D01*
Y10521D01*
X254344Y10354D01*
Y10340D01*
Y10313D01*
Y10271D01*
X254330Y10202D01*
Y10063D01*
X254316Y9896D01*
X250152D01*
Y9882D01*
Y9827D01*
X250166Y9743D01*
Y9646D01*
X250180Y9521D01*
X250208Y9397D01*
X250277Y9147D01*
Y9133D01*
X250305Y9091D01*
X250333Y9036D01*
X250374Y8966D01*
X250485Y8800D01*
X250638Y8619D01*
X250652Y8605D01*
X250680Y8591D01*
X250735Y8550D01*
X250791Y8508D01*
X250874Y8453D01*
X250971Y8397D01*
X251193Y8300D01*
X251207D01*
X251249Y8286D01*
X251318Y8272D01*
X251415Y8245D01*
X251526Y8231D01*
X251651Y8203D01*
X251929Y8189D01*
X252096D01*
X252220Y8203D01*
X252373D01*
X252540Y8217D01*
X252720Y8231D01*
X252914Y8258D01*
X252942D01*
X253012Y8272D01*
X253109Y8286D01*
X253247Y8314D01*
X253414Y8342D01*
X253594Y8383D01*
X253803Y8439D01*
X254011Y8494D01*
Y7287D01*
X253997D01*
X253969Y7273D01*
X253914Y7259D01*
X253844Y7245D01*
X253678Y7190D01*
X253470Y7148D01*
X253428D01*
X253372Y7134D01*
X253289Y7120D01*
X253206Y7106D01*
X253109Y7092D01*
X252887Y7065D01*
X252831D01*
X252776Y7051D01*
X252692Y7037D01*
X252609Y7023D01*
X252498D01*
X252276Y6995D01*
X252220D01*
X252165Y6981D01*
X252096D01*
X251901Y6967D01*
X251568D01*
X251429Y6981D01*
X251249Y6995D01*
X251055Y7009D01*
X250832Y7051D01*
X250610Y7092D01*
X250388Y7162D01*
X250360Y7176D01*
X250291Y7203D01*
X250194Y7245D01*
X250055Y7315D01*
X249902Y7398D01*
X249736Y7509D01*
X249569Y7634D01*
X249417Y7773D01*
X249403Y7786D01*
X249347Y7842D01*
X249278Y7925D01*
X249195Y8050D01*
X249097Y8189D01*
X248986Y8369D01*
X248889Y8564D01*
X248806Y8772D01*
Y8786D01*
X248792Y8800D01*
X248778Y8883D01*
X248737Y9008D01*
X248709Y9174D01*
X248667Y9369D01*
X248625Y9605D01*
X248612Y9868D01*
X248598Y10146D01*
Y10160D01*
Y10188D01*
Y10215D01*
Y10271D01*
X248612Y10424D01*
X248625Y10618D01*
X248653Y10826D01*
X248681Y11062D01*
X248737Y11312D01*
X248806Y11548D01*
Y11562D01*
X248820Y11576D01*
X248848Y11659D01*
X248889Y11770D01*
X248959Y11923D01*
X249042Y12089D01*
X249153Y12270D01*
X249264Y12450D01*
X249403Y12630D01*
X249417Y12644D01*
X249472Y12700D01*
X249555Y12783D01*
X249667Y12894D01*
X249805Y13005D01*
X249972Y13116D01*
X250152Y13241D01*
X250347Y13338D01*
X250374Y13352D01*
X250444Y13380D01*
X250555Y13422D01*
X250708Y13463D01*
X250888Y13505D01*
X251096Y13547D01*
X251332Y13574D01*
X251582Y13588D01*
X251693D01*
X251818Y13574D01*
D02*
G37*
G36*
X230484Y13450D02*
X232941D01*
Y12256D01*
X230484D01*
Y9272D01*
Y9244D01*
Y9188D01*
X230498Y9091D01*
X230512Y8966D01*
X230540Y8827D01*
X230581Y8703D01*
X230637Y8564D01*
X230720Y8453D01*
X230734Y8439D01*
X230776Y8411D01*
X230831Y8369D01*
X230915Y8328D01*
X231040Y8272D01*
X231178Y8231D01*
X231345Y8203D01*
X231553Y8189D01*
X231692D01*
X231789Y8203D01*
X231900D01*
X232011Y8217D01*
X232275Y8245D01*
X232289D01*
X232330Y8258D01*
X232400Y8272D01*
X232497Y8286D01*
X232594Y8314D01*
X232705Y8342D01*
X232941Y8397D01*
Y7176D01*
X232927D01*
X232872Y7162D01*
X232788Y7148D01*
X232677Y7134D01*
X232552Y7106D01*
X232414Y7079D01*
X232108Y7037D01*
X232094D01*
X232039Y7023D01*
X231956Y7009D01*
X231858D01*
X231733Y6995D01*
X231595Y6981D01*
X231317Y6967D01*
X231206D01*
X231095Y6981D01*
X230942D01*
X230776Y6995D01*
X230595Y7023D01*
X230415Y7051D01*
X230235Y7092D01*
X230221D01*
X230165Y7120D01*
X230068Y7148D01*
X229971Y7190D01*
X229721Y7315D01*
X229596Y7384D01*
X229485Y7481D01*
X229471Y7495D01*
X229443Y7537D01*
X229388Y7592D01*
X229318Y7675D01*
X229249Y7773D01*
X229180Y7897D01*
X229110Y8022D01*
X229055Y8175D01*
Y8189D01*
X229027Y8245D01*
X229013Y8342D01*
X228985Y8453D01*
X228958Y8605D01*
X228944Y8772D01*
X228916Y8952D01*
Y9161D01*
Y12256D01*
X227222D01*
Y13450D01*
X228916D01*
Y15059D01*
X230484Y15476D01*
Y13450D01*
D02*
G37*
G36*
X149588Y42824D02*
X149921Y42787D01*
X150291Y42639D01*
X150328D01*
X150365Y42602D01*
X150587Y42491D01*
X150847Y42305D01*
X151143Y42046D01*
X151217Y41972D01*
X151365Y41787D01*
X151550Y41528D01*
X151698Y41195D01*
Y41158D01*
X151735Y41120D01*
X151809Y40898D01*
X151883Y40565D01*
X151920Y40158D01*
Y40121D01*
Y40047D01*
Y39973D01*
X151883Y39825D01*
X151846Y39491D01*
X151698Y39121D01*
Y39084D01*
X151661Y39047D01*
X151550Y38825D01*
X151402Y38565D01*
X151143Y38269D01*
X151069Y38232D01*
X150884Y38084D01*
X150624Y37899D01*
X150291Y37714D01*
X150254D01*
X150217Y37677D01*
X149995Y37640D01*
X149662Y37566D01*
X149254Y37529D01*
X149032D01*
X148884Y37566D01*
X148551Y37603D01*
X148180Y37714D01*
X148143D01*
X148106Y37751D01*
X147884Y37862D01*
X147625Y38047D01*
X147329Y38269D01*
X147255Y38343D01*
X147107Y38528D01*
X146921Y38788D01*
X146773Y39121D01*
Y39158D01*
X146736Y39195D01*
X146699Y39417D01*
X146625Y39750D01*
X146588Y40158D01*
Y40195D01*
Y40269D01*
Y40343D01*
X146625Y40491D01*
X146662Y40824D01*
X146773Y41195D01*
Y41232D01*
X146810Y41269D01*
X146921Y41491D01*
X147070Y41750D01*
X147329Y42046D01*
X147403Y42120D01*
X147588Y42268D01*
X147847Y42454D01*
X148180Y42639D01*
X148217D01*
X148255Y42676D01*
X148514Y42750D01*
X148847Y42824D01*
X149254Y42861D01*
X149439D01*
X149588Y42824D01*
D02*
G37*
G36*
X188136Y40713D02*
X188654Y40676D01*
X188765D01*
X188913Y40639D01*
X189099D01*
X189580Y40565D01*
X190061Y40491D01*
X190172D01*
X190321Y40454D01*
X190506D01*
X190913Y40380D01*
X191394Y40269D01*
X191506D01*
X191654Y40232D01*
X191802Y40195D01*
X192209Y40121D01*
X192616Y40047D01*
Y36307D01*
X192579D01*
X192505Y36344D01*
X192394Y36381D01*
X192246Y36418D01*
X191876Y36529D01*
X191431Y36640D01*
X191394D01*
X191320Y36677D01*
X191209Y36714D01*
X191024Y36751D01*
X190617Y36862D01*
X190098Y36936D01*
X190061D01*
X189987Y36973D01*
X189839D01*
X189691Y37010D01*
X189247Y37084D01*
X188728Y37158D01*
X188617D01*
X188469Y37195D01*
X188321D01*
X187914Y37232D01*
X187062D01*
X186803Y37195D01*
X186210Y37158D01*
X185581Y37047D01*
X185544D01*
X185470Y37010D01*
X185321Y36973D01*
X185136Y36899D01*
X184766Y36751D01*
X184359Y36529D01*
X184322D01*
X184285Y36492D01*
X184099Y36344D01*
X183877Y36084D01*
X183655Y35788D01*
Y35751D01*
X183618Y35714D01*
X183581Y35492D01*
X183507Y35196D01*
X183470Y34788D01*
Y34751D01*
Y34677D01*
X183507Y34566D01*
X183544Y34381D01*
X183655Y34011D01*
X183766Y33789D01*
X183914Y33604D01*
X183951Y33566D01*
X183988Y33529D01*
X184099Y33418D01*
X184248Y33307D01*
X184618Y33011D01*
X185099Y32715D01*
X185136D01*
X185247Y32641D01*
X185396Y32567D01*
X185618Y32493D01*
X185877Y32381D01*
X186173Y32270D01*
X186840Y32011D01*
X186877D01*
X187025Y31937D01*
X187210Y31900D01*
X187432Y31789D01*
X187728Y31678D01*
X188062Y31567D01*
X188802Y31271D01*
X188839D01*
X188988Y31196D01*
X189173Y31122D01*
X189432Y31011D01*
X189765Y30900D01*
X190098Y30752D01*
X190802Y30382D01*
X190839Y30345D01*
X190950Y30308D01*
X191135Y30197D01*
X191394Y30049D01*
X191913Y29678D01*
X192505Y29160D01*
X192542Y29123D01*
X192653Y29049D01*
X192764Y28901D01*
X192950Y28679D01*
X193135Y28419D01*
X193357Y28160D01*
X193542Y27827D01*
X193727Y27457D01*
X193764Y27419D01*
X193801Y27271D01*
X193875Y27086D01*
X193986Y26827D01*
X194061Y26457D01*
X194135Y26086D01*
X194172Y25642D01*
X194209Y25161D01*
Y25124D01*
Y25087D01*
Y24864D01*
X194172Y24531D01*
X194135Y24124D01*
X194061Y23605D01*
X193912Y23087D01*
X193764Y22569D01*
X193542Y22050D01*
X193505Y21976D01*
X193431Y21828D01*
X193283Y21606D01*
X193061Y21309D01*
X192801Y20939D01*
X192468Y20606D01*
X192098Y20236D01*
X191691Y19902D01*
X191654Y19865D01*
X191469Y19754D01*
X191246Y19606D01*
X190876Y19421D01*
X190469Y19236D01*
X189987Y19014D01*
X189432Y18828D01*
X188839Y18643D01*
X188765D01*
X188543Y18569D01*
X188210Y18532D01*
X187803Y18458D01*
X187247Y18384D01*
X186655Y18310D01*
X185988Y18273D01*
X185284Y18236D01*
X184655D01*
X184248Y18273D01*
X183729D01*
X183174Y18347D01*
X181952Y18458D01*
X181878D01*
X181693Y18495D01*
X181359Y18532D01*
X180952Y18606D01*
X180471Y18717D01*
X179952Y18828D01*
X178804Y19125D01*
Y23161D01*
X178841D01*
X178952Y23124D01*
X179101Y23050D01*
X179286Y22976D01*
X179508Y22902D01*
X179767Y22828D01*
X180359Y22643D01*
X180396D01*
X180508Y22605D01*
X180693Y22569D01*
X180878Y22494D01*
X181137Y22457D01*
X181433Y22383D01*
X182063Y22235D01*
X182100D01*
X182211Y22198D01*
X182359Y22161D01*
X182581Y22124D01*
X182841Y22087D01*
X183137Y22050D01*
X183729Y21939D01*
X183877D01*
X184025Y21902D01*
X184248D01*
X184766Y21865D01*
X185766D01*
X186062Y21902D01*
X186358D01*
X186692Y21939D01*
X187358Y22050D01*
X187395D01*
X187506Y22087D01*
X187654Y22124D01*
X187839Y22198D01*
X188284Y22346D01*
X188691Y22569D01*
X188728D01*
X188765Y22643D01*
X188988Y22828D01*
X189210Y23087D01*
X189432Y23420D01*
Y23457D01*
X189469Y23494D01*
X189580Y23753D01*
X189654Y24087D01*
X189691Y24494D01*
Y24531D01*
Y24642D01*
X189654Y24790D01*
X189617Y24975D01*
X189506Y25420D01*
X189358Y25605D01*
X189210Y25827D01*
X189173Y25864D01*
X189136Y25938D01*
X189024Y26012D01*
X188876Y26160D01*
X188506Y26457D01*
X187988Y26790D01*
X187951Y26827D01*
X187877Y26864D01*
X187691Y26938D01*
X187506Y27049D01*
X187247Y27160D01*
X186951Y27271D01*
X186284Y27531D01*
X186247D01*
X186136Y27605D01*
X185914Y27642D01*
X185692Y27753D01*
X185396Y27864D01*
X185062Y27975D01*
X184322Y28234D01*
X184285Y28271D01*
X184174Y28308D01*
X183951Y28382D01*
X183729Y28493D01*
X183433Y28641D01*
X183100Y28790D01*
X182396Y29123D01*
X182359Y29160D01*
X182248Y29197D01*
X182063Y29308D01*
X181804Y29456D01*
X181248Y29826D01*
X180656Y30308D01*
X180619Y30345D01*
X180545Y30456D01*
X180396Y30604D01*
X180248Y30789D01*
X180026Y31048D01*
X179841Y31345D01*
X179471Y32011D01*
Y32048D01*
X179397Y32196D01*
X179323Y32419D01*
X179249Y32678D01*
X179174Y33048D01*
X179101Y33455D01*
X179063Y33900D01*
X179026Y34418D01*
Y34492D01*
Y34640D01*
X179063Y34900D01*
X179101Y35196D01*
X179138Y35603D01*
X179211Y36010D01*
X179323Y36418D01*
X179471Y36862D01*
X179508Y36899D01*
X179545Y37047D01*
X179693Y37269D01*
X179841Y37529D01*
X180063Y37862D01*
X180285Y38195D01*
X180619Y38528D01*
X180952Y38862D01*
X180989Y38899D01*
X181137Y39010D01*
X181359Y39158D01*
X181656Y39343D01*
X182026Y39565D01*
X182470Y39788D01*
X182952Y40010D01*
X183507Y40232D01*
X183544D01*
X183581Y40269D01*
X183803Y40306D01*
X184136Y40380D01*
X184581Y40491D01*
X185136Y40602D01*
X185803Y40676D01*
X186506Y40713D01*
X187321Y40750D01*
X187728D01*
X188136Y40713D01*
D02*
G37*
G36*
X227239Y35862D02*
X227573D01*
X227906Y35788D01*
X228313Y35714D01*
X228684Y35603D01*
X229054Y35455D01*
X229091Y35418D01*
X229239Y35381D01*
X229424Y35270D01*
X229646Y35122D01*
X229906Y34936D01*
X230165Y34714D01*
X230461Y34418D01*
X230720Y34122D01*
X230757Y34085D01*
X230831Y33974D01*
X230943Y33789D01*
X231091Y33529D01*
X231276Y33233D01*
X231424Y32826D01*
X231572Y32419D01*
X231720Y31937D01*
Y31863D01*
X231757Y31715D01*
X231831Y31456D01*
X231868Y31085D01*
X231942Y30641D01*
X231979Y30123D01*
X232016Y29567D01*
Y28938D01*
X227943D01*
Y28975D01*
Y29086D01*
Y29271D01*
Y29493D01*
X227906Y30012D01*
X227832Y30530D01*
Y30567D01*
X227795Y30641D01*
Y30752D01*
X227758Y30937D01*
X227610Y31271D01*
X227425Y31641D01*
Y31678D01*
X227388Y31715D01*
X227239Y31900D01*
X227017Y32085D01*
X226758Y32270D01*
X226684Y32307D01*
X226499Y32381D01*
X226203Y32456D01*
X225832Y32493D01*
X225684D01*
X225499Y32456D01*
X225277Y32381D01*
X224981Y32307D01*
X224684Y32159D01*
X224351Y31974D01*
X223981Y31715D01*
X223944Y31678D01*
X223833Y31567D01*
X223610Y31382D01*
X223351Y31122D01*
X223055Y30789D01*
X222685Y30382D01*
X222315Y29901D01*
X221907Y29308D01*
Y18606D01*
X217723D01*
Y35529D01*
X221389D01*
X221574Y33048D01*
X221611Y33085D01*
X221648Y33159D01*
X221722Y33270D01*
X221833Y33418D01*
X222129Y33789D01*
X222500Y34196D01*
X222537Y34233D01*
X222574Y34270D01*
X222685Y34381D01*
X222833Y34492D01*
X223203Y34788D01*
X223647Y35085D01*
X223685Y35122D01*
X223759Y35159D01*
X223907Y35233D01*
X224092Y35307D01*
X224536Y35492D01*
X225092Y35677D01*
X225129D01*
X225240Y35714D01*
X225388Y35751D01*
X225610Y35788D01*
X225832Y35825D01*
X226129Y35862D01*
X226795Y35899D01*
X227017D01*
X227239Y35862D01*
D02*
G37*
G36*
X207762Y35862D02*
X208132Y35825D01*
X208539Y35751D01*
X208984Y35640D01*
X209428Y35492D01*
X209872Y35270D01*
X209909Y35233D01*
X210057Y35159D01*
X210280Y35011D01*
X210576Y34826D01*
X210872Y34603D01*
X211206Y34307D01*
X211539Y33974D01*
X211835Y33566D01*
X211872Y33529D01*
X211983Y33381D01*
X212131Y33122D01*
X212279Y32826D01*
X212502Y32419D01*
X212687Y31974D01*
X212872Y31456D01*
X213057Y30863D01*
X213094Y30789D01*
X213131Y30604D01*
X213205Y30271D01*
X213279Y29826D01*
X213353Y29308D01*
X213427Y28716D01*
X213501Y28049D01*
Y27345D01*
Y27308D01*
Y27234D01*
Y27123D01*
Y26938D01*
X213464Y26753D01*
Y26531D01*
X213427Y25975D01*
X213353Y25346D01*
X213205Y24642D01*
X213057Y23976D01*
X212835Y23309D01*
X212798Y23235D01*
X212724Y23013D01*
X212576Y22717D01*
X212353Y22309D01*
X212094Y21865D01*
X211761Y21421D01*
X211391Y20939D01*
X210983Y20495D01*
X210946Y20458D01*
X210798Y20310D01*
X210539Y20124D01*
X210206Y19865D01*
X209798Y19606D01*
X209317Y19310D01*
X208799Y19051D01*
X208206Y18828D01*
X208132Y18791D01*
X207947Y18754D01*
X207613Y18680D01*
X207169Y18569D01*
X206651Y18458D01*
X206095Y18384D01*
X205429Y18347D01*
X204762Y18310D01*
X204355D01*
X203948Y18347D01*
X203466Y18421D01*
X203355D01*
X203244Y18458D01*
X203096D01*
X202726Y18532D01*
X202355Y18606D01*
Y11978D01*
X198282D01*
Y35529D01*
X201800D01*
X201874Y33011D01*
X201911Y33048D01*
X201948Y33122D01*
X202059Y33233D01*
X202207Y33418D01*
X202540Y33789D01*
X202948Y34196D01*
X202985Y34233D01*
X203059Y34270D01*
X203170Y34381D01*
X203318Y34492D01*
X203688Y34788D01*
X204133Y35085D01*
X204170Y35122D01*
X204244Y35159D01*
X204392Y35233D01*
X204577Y35307D01*
X205022Y35492D01*
X205540Y35677D01*
X205577D01*
X205688Y35714D01*
X205836Y35751D01*
X206058Y35788D01*
X206280Y35825D01*
X206577Y35862D01*
X207243Y35899D01*
X207503D01*
X207762Y35862D01*
D02*
G37*
G36*
X131221Y29974D02*
X138997Y18606D01*
X133702D01*
X127184Y29123D01*
Y18606D01*
X123000D01*
Y40380D01*
X127184D01*
Y30419D01*
X133665Y40380D01*
X138627D01*
X131221Y29974D01*
D02*
G37*
G36*
X268750Y18606D02*
X265195Y18606D01*
X265121Y21087D01*
X265084Y21050D01*
X265010Y20976D01*
X264899Y20865D01*
X264788Y20717D01*
X264418Y20310D01*
X264010Y19902D01*
X263973Y19865D01*
X263936Y19828D01*
X263825Y19717D01*
X263677Y19606D01*
X263307Y19310D01*
X262825Y19014D01*
X262788D01*
X262714Y18940D01*
X262603Y18903D01*
X262418Y18791D01*
X261974Y18606D01*
X261418Y18458D01*
X261381D01*
X261307Y18421D01*
X261122Y18384D01*
X260937Y18347D01*
X260678Y18310D01*
X260418Y18273D01*
X259752Y18236D01*
X259530D01*
X259307Y18273D01*
X258974D01*
X258641Y18347D01*
X258234Y18421D01*
X257826Y18495D01*
X257456Y18643D01*
X257419Y18680D01*
X257308Y18717D01*
X257123Y18828D01*
X256901Y18940D01*
X256382Y19310D01*
X255827Y19828D01*
X255790Y19865D01*
X255715Y19976D01*
X255604Y20162D01*
X255456Y20384D01*
X255308Y20643D01*
X255160Y20976D01*
X255012Y21347D01*
X254864Y21717D01*
Y21754D01*
X254827Y21902D01*
X254790Y22124D01*
X254716Y22457D01*
X254679Y22791D01*
X254605Y23235D01*
X254568Y23679D01*
Y24161D01*
Y35529D01*
X258641D01*
Y24494D01*
Y24420D01*
Y24272D01*
X258678Y24013D01*
X258715Y23717D01*
X258863Y23050D01*
X258974Y22717D01*
X259122Y22420D01*
X259159Y22383D01*
X259233Y22309D01*
X259345Y22198D01*
X259530Y22087D01*
X259752Y21939D01*
X260011Y21828D01*
X260344Y21754D01*
X260715Y21717D01*
X260900D01*
X261085Y21754D01*
X261344Y21828D01*
X261640Y21902D01*
X261937Y22050D01*
X262307Y22272D01*
X262640Y22532D01*
X262677Y22569D01*
X262825Y22680D01*
X263010Y22865D01*
X263270Y23124D01*
X263566Y23457D01*
X263899Y23865D01*
X264269Y24309D01*
X264677Y24827D01*
Y35529D01*
X268750Y35529D01*
Y18606D01*
D02*
G37*
G36*
X151587Y21791D02*
X156475Y21791D01*
Y18606D01*
X142033Y18606D01*
Y21791D01*
X147403D01*
Y32344D01*
X142626D01*
Y35529D01*
X151587D01*
Y21791D01*
D02*
G37*
G36*
X280748Y35529D02*
X287302D01*
Y32344D01*
X280748D01*
Y24383D01*
Y24309D01*
Y24161D01*
X280785Y23902D01*
X280822Y23568D01*
X280896Y23198D01*
X281007Y22865D01*
X281155Y22494D01*
X281377Y22198D01*
X281414Y22161D01*
X281525Y22087D01*
X281674Y21976D01*
X281896Y21865D01*
X282229Y21717D01*
X282599Y21606D01*
X283044Y21532D01*
X283599Y21495D01*
X283969D01*
X284229Y21532D01*
X284525D01*
X284821Y21569D01*
X285525Y21643D01*
X285562D01*
X285673Y21680D01*
X285858Y21717D01*
X286117Y21754D01*
X286376Y21828D01*
X286673Y21902D01*
X287302Y22050D01*
Y18791D01*
X287265D01*
X287117Y18754D01*
X286895Y18717D01*
X286598Y18680D01*
X286265Y18606D01*
X285895Y18532D01*
X285080Y18421D01*
X285043D01*
X284895Y18384D01*
X284673Y18347D01*
X284414D01*
X284081Y18310D01*
X283710Y18273D01*
X282970Y18236D01*
X282673D01*
X282377Y18273D01*
X281970D01*
X281525Y18310D01*
X281044Y18384D01*
X280563Y18458D01*
X280081Y18569D01*
X280044D01*
X279896Y18643D01*
X279637Y18717D01*
X279378Y18828D01*
X278711Y19162D01*
X278378Y19347D01*
X278082Y19606D01*
X278045Y19643D01*
X277971Y19754D01*
X277822Y19902D01*
X277637Y20125D01*
X277452Y20384D01*
X277267Y20717D01*
X277082Y21050D01*
X276934Y21458D01*
Y21495D01*
X276860Y21643D01*
X276823Y21902D01*
X276749Y22198D01*
X276675Y22606D01*
X276638Y23050D01*
X276563Y23531D01*
Y24087D01*
Y32344D01*
X272046D01*
Y35529D01*
X276563D01*
Y39825D01*
X280748Y40935D01*
Y35529D01*
D02*
G37*
G36*
X243681Y35862D02*
X244162Y35825D01*
X244681Y35751D01*
X245236Y35640D01*
X245829Y35492D01*
X246384Y35307D01*
X246458Y35270D01*
X246643Y35196D01*
X246902Y35085D01*
X247273Y34900D01*
X247643Y34640D01*
X248087Y34381D01*
X248495Y34048D01*
X248902Y33641D01*
X248939Y33604D01*
X249087Y33455D01*
X249272Y33233D01*
X249495Y32900D01*
X249754Y32493D01*
X250013Y32048D01*
X250272Y31530D01*
X250494Y30937D01*
X250531Y30863D01*
X250568Y30641D01*
X250679Y30308D01*
X250791Y29863D01*
X250865Y29308D01*
X250976Y28679D01*
X251013Y27975D01*
X251050Y27197D01*
Y27160D01*
Y27123D01*
Y27012D01*
Y26864D01*
X251013Y26494D01*
X250976Y25975D01*
X250902Y25420D01*
X250791Y24790D01*
X250642Y24161D01*
X250457Y23531D01*
X250420Y23457D01*
X250346Y23272D01*
X250235Y22939D01*
X250050Y22569D01*
X249828Y22087D01*
X249532Y21643D01*
X249198Y21161D01*
X248828Y20680D01*
X248791Y20643D01*
X248643Y20495D01*
X248421Y20273D01*
X248087Y20013D01*
X247717Y19717D01*
X247273Y19421D01*
X246754Y19125D01*
X246199Y18866D01*
X246125Y18828D01*
X245940Y18754D01*
X245606Y18680D01*
X245199Y18569D01*
X244681Y18421D01*
X244088Y18347D01*
X243422Y18273D01*
X242681Y18236D01*
X242348D01*
X242014Y18273D01*
X241570Y18310D01*
X241015Y18347D01*
X240459Y18458D01*
X239867Y18569D01*
X239311Y18754D01*
X239237Y18791D01*
X239052Y18866D01*
X238793Y18977D01*
X238459Y19162D01*
X238052Y19384D01*
X237608Y19680D01*
X237200Y20013D01*
X236793Y20384D01*
X236756Y20421D01*
X236608Y20569D01*
X236423Y20828D01*
X236201Y21161D01*
X235942Y21532D01*
X235682Y22013D01*
X235423Y22532D01*
X235201Y23124D01*
Y23161D01*
X235164Y23198D01*
X235127Y23420D01*
X235053Y23753D01*
X234942Y24235D01*
X234831Y24790D01*
X234756Y25457D01*
X234719Y26197D01*
X234682Y26975D01*
Y27012D01*
Y27049D01*
Y27160D01*
Y27308D01*
X234719Y27679D01*
X234756Y28197D01*
X234831Y28752D01*
X234905Y29345D01*
X235053Y29974D01*
X235238Y30604D01*
Y30641D01*
X235275Y30678D01*
X235349Y30900D01*
X235497Y31196D01*
X235682Y31567D01*
X235905Y32011D01*
X236201Y32493D01*
X236534Y32974D01*
X236904Y33418D01*
X236941Y33455D01*
X237089Y33604D01*
X237312Y33826D01*
X237645Y34085D01*
X238015Y34381D01*
X238459Y34677D01*
X238941Y34974D01*
X239496Y35233D01*
X239570Y35270D01*
X239756Y35344D01*
X240089Y35455D01*
X240533Y35566D01*
X241052Y35677D01*
X241644Y35788D01*
X242311Y35862D01*
X243014Y35899D01*
X243348D01*
X243681Y35862D01*
D02*
G37*
G36*
X168103Y35529D02*
X174657D01*
Y32344D01*
X168103D01*
Y24383D01*
Y24309D01*
Y24161D01*
X168140Y23902D01*
X168177Y23568D01*
X168251Y23198D01*
X168362Y22865D01*
X168510Y22494D01*
X168732Y22198D01*
X168769Y22161D01*
X168880Y22087D01*
X169028Y21976D01*
X169251Y21865D01*
X169584Y21717D01*
X169954Y21606D01*
X170398Y21532D01*
X170954Y21495D01*
X171324D01*
X171583Y21532D01*
X171880D01*
X172176Y21569D01*
X172879Y21643D01*
X172916D01*
X173028Y21680D01*
X173213Y21717D01*
X173472Y21754D01*
X173731Y21828D01*
X174027Y21902D01*
X174657Y22050D01*
Y18791D01*
X174620D01*
X174472Y18754D01*
X174249Y18717D01*
X173953Y18680D01*
X173620Y18606D01*
X173250Y18532D01*
X172435Y18421D01*
X172398D01*
X172250Y18384D01*
X172028Y18347D01*
X171768D01*
X171435Y18310D01*
X171065Y18273D01*
X170324Y18236D01*
X170028D01*
X169732Y18273D01*
X169325D01*
X168880Y18310D01*
X168399Y18384D01*
X167917Y18458D01*
X167436Y18569D01*
X167399D01*
X167251Y18643D01*
X166992Y18717D01*
X166732Y18828D01*
X166066Y19162D01*
X165733Y19347D01*
X165436Y19606D01*
X165399Y19643D01*
X165325Y19754D01*
X165177Y19902D01*
X164992Y20124D01*
X164807Y20384D01*
X164622Y20717D01*
X164437Y21050D01*
X164288Y21458D01*
Y21495D01*
X164214Y21643D01*
X164177Y21902D01*
X164103Y22198D01*
X164029Y22605D01*
X163992Y23050D01*
X163918Y23531D01*
Y24087D01*
Y32344D01*
X159400D01*
Y35529D01*
X163918D01*
Y39825D01*
X168103Y40935D01*
Y35529D01*
D02*
G37*
%LPC*%
G36*
X346810Y31098D02*
X346094D01*
Y30742D01*
X346098Y30715D01*
X346108Y30650D01*
X346122Y30581D01*
Y30576D01*
X346126Y30567D01*
X346135Y30548D01*
X346140Y30530D01*
X346168Y30484D01*
X346200Y30437D01*
X346205Y30433D01*
X346209Y30428D01*
X346237Y30405D01*
X346274Y30382D01*
X346325Y30359D01*
X346329D01*
X346339Y30354D01*
X346353Y30350D01*
X346371Y30345D01*
X346417Y30336D01*
X346473Y30331D01*
X346477D01*
X346487D01*
X346500D01*
X346519Y30336D01*
X346565Y30340D01*
X346611Y30359D01*
X346616D01*
X346621Y30364D01*
X346648Y30377D01*
X346681Y30400D01*
X346713Y30437D01*
Y30442D01*
X346722Y30447D01*
X346727Y30461D01*
X346741Y30474D01*
X346764Y30521D01*
X346782Y30581D01*
Y30585D01*
X346787Y30595D01*
X346792Y30613D01*
X346796Y30641D01*
X346801Y30668D01*
X346805Y30705D01*
X346810Y30789D01*
Y31098D01*
D02*
G37*
G36*
X345701D02*
X344916D01*
Y30701D01*
X344920Y30668D01*
X344930Y30604D01*
X344943Y30530D01*
Y30525D01*
X344948Y30511D01*
X344957Y30498D01*
X344967Y30474D01*
X344994Y30424D01*
X345031Y30373D01*
X345036Y30368D01*
X345040Y30364D01*
X345068Y30336D01*
X345110Y30303D01*
X345161Y30276D01*
X345165D01*
X345175Y30271D01*
X345188Y30266D01*
X345207Y30257D01*
X345262Y30248D01*
X345322Y30243D01*
X345332D01*
X345350D01*
X345382Y30248D01*
X345424Y30262D01*
X345466Y30276D01*
X345512Y30299D01*
X345558Y30331D01*
X345600Y30377D01*
X345604Y30382D01*
X345613Y30400D01*
X345632Y30433D01*
X345650Y30479D01*
X345669Y30534D01*
X345687Y30604D01*
X345697Y30687D01*
X345701Y30784D01*
Y31098D01*
D02*
G37*
G36*
X345452Y28742D02*
Y28030D01*
X346718Y28381D01*
X345452Y28742D01*
D02*
G37*
G36*
X358310Y26326D02*
X357594D01*
Y25970D01*
X357598Y25942D01*
X357608Y25877D01*
X357622Y25808D01*
Y25804D01*
X357626Y25794D01*
X357635Y25776D01*
X357640Y25757D01*
X357668Y25711D01*
X357700Y25665D01*
X357705Y25660D01*
X357709Y25656D01*
X357737Y25633D01*
X357774Y25609D01*
X357825Y25586D01*
X357829D01*
X357839Y25582D01*
X357853Y25577D01*
X357871Y25573D01*
X357917Y25563D01*
X357973Y25559D01*
X357977D01*
X357987D01*
X358000D01*
X358019Y25563D01*
X358065Y25568D01*
X358111Y25586D01*
X358116D01*
X358121Y25591D01*
X358148Y25605D01*
X358181Y25628D01*
X358213Y25665D01*
Y25670D01*
X358222Y25674D01*
X358227Y25688D01*
X358241Y25702D01*
X358264Y25748D01*
X358282Y25808D01*
Y25813D01*
X358287Y25822D01*
X358292Y25840D01*
X358296Y25868D01*
X358301Y25896D01*
X358305Y25933D01*
X358310Y26016D01*
Y26326D01*
D02*
G37*
G36*
X357201D02*
X356416D01*
Y25928D01*
X356420Y25896D01*
X356430Y25831D01*
X356444Y25757D01*
Y25753D01*
X356448Y25739D01*
X356457Y25725D01*
X356467Y25702D01*
X356494Y25651D01*
X356531Y25600D01*
X356536Y25596D01*
X356540Y25591D01*
X356568Y25563D01*
X356610Y25531D01*
X356661Y25503D01*
X356665D01*
X356675Y25499D01*
X356688Y25494D01*
X356707Y25485D01*
X356762Y25476D01*
X356822Y25471D01*
X356832D01*
X356850D01*
X356882Y25476D01*
X356924Y25489D01*
X356966Y25503D01*
X357012Y25526D01*
X357058Y25559D01*
X357100Y25605D01*
X357104Y25609D01*
X357113Y25628D01*
X357132Y25660D01*
X357150Y25707D01*
X357169Y25762D01*
X357187Y25831D01*
X357197Y25914D01*
X357201Y26011D01*
Y26326D01*
D02*
G37*
G36*
X279467Y13991D02*
X278509D01*
Y11007D01*
X279495D01*
X279592Y11021D01*
X279703Y11034D01*
X279828Y11048D01*
X280064Y11104D01*
X280078D01*
X280119Y11131D01*
X280175Y11145D01*
X280244Y11187D01*
X280411Y11284D01*
X280577Y11423D01*
X280591Y11437D01*
X280619Y11465D01*
X280647Y11506D01*
X280702Y11562D01*
X280799Y11715D01*
X280896Y11909D01*
Y11923D01*
X280910Y11964D01*
X280938Y12020D01*
X280952Y12103D01*
X280980Y12200D01*
X280994Y12311D01*
X281008Y12561D01*
Y12575D01*
Y12617D01*
Y12672D01*
X280994Y12755D01*
X280966Y12936D01*
X280896Y13144D01*
Y13158D01*
X280883Y13186D01*
X280855Y13241D01*
X280827Y13297D01*
X280730Y13450D01*
X280591Y13588D01*
X280577Y13602D01*
X280550Y13616D01*
X280508Y13658D01*
X280452Y13699D01*
X280369Y13741D01*
X280286Y13796D01*
X280064Y13880D01*
X280050D01*
X280008Y13894D01*
X279939Y13921D01*
X279855Y13935D01*
X279731Y13963D01*
X279606Y13977D01*
X279467Y13991D01*
D02*
G37*
G36*
X286726Y12450D02*
X286629D01*
X286532Y12436D01*
X286393Y12409D01*
X286240Y12353D01*
X286088Y12284D01*
X285935Y12186D01*
X285782Y12061D01*
X285768Y12048D01*
X285727Y11992D01*
X285671Y11909D01*
X285588Y11784D01*
X285519Y11631D01*
X285449Y11451D01*
X285394Y11242D01*
X285352Y10993D01*
X287989D01*
Y11007D01*
Y11048D01*
Y11118D01*
X287975Y11215D01*
X287948Y11409D01*
X287892Y11631D01*
Y11645D01*
X287878Y11673D01*
X287850Y11728D01*
X287823Y11798D01*
X287739Y11936D01*
X287614Y12089D01*
X287600Y12103D01*
X287587Y12117D01*
X287503Y12186D01*
X287378Y12284D01*
X287212Y12353D01*
X287198D01*
X287170Y12367D01*
X287129Y12381D01*
X287073Y12409D01*
X286920Y12436D01*
X286726Y12450D01*
D02*
G37*
G36*
X265615D02*
X265517D01*
X265420Y12436D01*
X265282Y12409D01*
X265129Y12353D01*
X264976Y12284D01*
X264823Y12186D01*
X264671Y12061D01*
X264657Y12048D01*
X264615Y11992D01*
X264560Y11909D01*
X264476Y11784D01*
X264407Y11631D01*
X264338Y11451D01*
X264282Y11242D01*
X264241Y10993D01*
X266878D01*
Y11007D01*
Y11048D01*
Y11118D01*
X266864Y11215D01*
X266836Y11409D01*
X266780Y11631D01*
Y11645D01*
X266767Y11673D01*
X266739Y11728D01*
X266711Y11798D01*
X266628Y11936D01*
X266503Y12089D01*
X266489Y12103D01*
X266475Y12117D01*
X266392Y12186D01*
X266267Y12284D01*
X266100Y12353D01*
X266087D01*
X266059Y12367D01*
X266017Y12381D01*
X265962Y12409D01*
X265809Y12436D01*
X265615Y12450D01*
D02*
G37*
G36*
X251540D02*
X251443D01*
X251346Y12436D01*
X251207Y12409D01*
X251055Y12353D01*
X250902Y12284D01*
X250749Y12186D01*
X250596Y12061D01*
X250583Y12048D01*
X250541Y11992D01*
X250485Y11909D01*
X250402Y11784D01*
X250333Y11631D01*
X250263Y11451D01*
X250208Y11242D01*
X250166Y10993D01*
X252803D01*
Y11007D01*
Y11048D01*
Y11118D01*
X252789Y11215D01*
X252762Y11409D01*
X252706Y11631D01*
Y11645D01*
X252692Y11673D01*
X252665Y11728D01*
X252637Y11798D01*
X252554Y11936D01*
X252429Y12089D01*
X252415Y12103D01*
X252401Y12117D01*
X252318Y12186D01*
X252193Y12284D01*
X252026Y12353D01*
X252012D01*
X251984Y12367D01*
X251943Y12381D01*
X251887Y12409D01*
X251735Y12436D01*
X251540Y12450D01*
D02*
G37*
G36*
X206280Y32419D02*
X206095D01*
X205910Y32381D01*
X205651Y32307D01*
X205355Y32196D01*
X205022Y32048D01*
X204688Y31863D01*
X204318Y31567D01*
X204281Y31530D01*
X204170Y31419D01*
X203985Y31234D01*
X203725Y30974D01*
X203429Y30641D01*
X203096Y30271D01*
X202726Y29826D01*
X202355Y29308D01*
Y21902D01*
X202392D01*
X202429Y21865D01*
X202540Y21828D01*
X202689Y21791D01*
X203059Y21717D01*
X203540Y21606D01*
X203651D01*
X203800Y21569D01*
X203985D01*
X204429Y21532D01*
X204947Y21495D01*
X205133D01*
X205318Y21532D01*
X205540D01*
X206132Y21643D01*
X206725Y21865D01*
X206762Y21902D01*
X206873Y21939D01*
X206984Y22050D01*
X207169Y22161D01*
X207613Y22532D01*
X208058Y23013D01*
X208095Y23050D01*
X208169Y23161D01*
X208243Y23309D01*
X208391Y23531D01*
X208502Y23790D01*
X208650Y24087D01*
X208799Y24420D01*
X208910Y24790D01*
Y24827D01*
X208947Y24975D01*
X209021Y25198D01*
X209095Y25494D01*
X209132Y25864D01*
X209206Y26272D01*
X209243Y26716D01*
Y27197D01*
Y27271D01*
Y27419D01*
Y27679D01*
X209206Y28012D01*
Y28382D01*
X209169Y28790D01*
X209021Y29567D01*
Y29604D01*
X208984Y29752D01*
X208947Y29901D01*
X208873Y30160D01*
X208724Y30678D01*
X208465Y31196D01*
Y31234D01*
X208391Y31308D01*
X208206Y31567D01*
X207910Y31863D01*
X207540Y32122D01*
X207503D01*
X207428Y32159D01*
X207317Y32233D01*
X207169Y32270D01*
X206762Y32381D01*
X206280Y32419D01*
D02*
G37*
G36*
X242866Y32381D02*
X242681D01*
X242496Y32344D01*
X242237D01*
X241681Y32196D01*
X241348Y32085D01*
X241052Y31937D01*
X241015D01*
X240940Y31863D01*
X240792Y31752D01*
X240607Y31641D01*
X240237Y31271D01*
X239830Y30789D01*
X239793Y30752D01*
X239756Y30678D01*
X239682Y30530D01*
X239570Y30308D01*
X239459Y30086D01*
X239348Y29789D01*
X239126Y29123D01*
Y29086D01*
X239089Y28975D01*
X239052Y28752D01*
X239015Y28493D01*
X238978Y28197D01*
X238941Y27827D01*
X238904Y27049D01*
Y27012D01*
Y26938D01*
Y26790D01*
Y26605D01*
X238941Y26383D01*
X238978Y26160D01*
X239052Y25568D01*
X239163Y24938D01*
X239348Y24272D01*
X239608Y23642D01*
X239941Y23087D01*
X239978Y23013D01*
X240126Y22865D01*
X240385Y22680D01*
X240718Y22420D01*
X241126Y22161D01*
X241644Y21976D01*
X242200Y21828D01*
X242866Y21754D01*
X243051D01*
X243236Y21791D01*
X243496D01*
X244051Y21939D01*
X244347Y22013D01*
X244644Y22161D01*
X244681Y22198D01*
X244792Y22235D01*
X244903Y22346D01*
X245088Y22457D01*
X245495Y22791D01*
X245866Y23272D01*
X245903Y23309D01*
X245940Y23420D01*
X246014Y23568D01*
X246125Y23753D01*
X246236Y24013D01*
X246384Y24309D01*
X246569Y24975D01*
Y25012D01*
X246606Y25161D01*
X246643Y25346D01*
X246717Y25605D01*
X246754Y25938D01*
X246791Y26272D01*
X246828Y27086D01*
Y27123D01*
Y27197D01*
Y27345D01*
Y27531D01*
X246791Y27753D01*
Y27975D01*
X246717Y28567D01*
X246569Y29197D01*
X246421Y29863D01*
X246162Y30493D01*
X245829Y31048D01*
X245792Y31122D01*
X245643Y31271D01*
X245421Y31456D01*
X245088Y31715D01*
X244681Y31974D01*
X244162Y32159D01*
X243570Y32307D01*
X242866Y32381D01*
D02*
G37*
%LPD*%
D10*
X80000Y15106D02*
X82000Y13106D01*
X78000Y13106D02*
X82000Y13106D01*
X78000Y13106D02*
X80000Y15106D01*
X73000D02*
X75000Y13106D01*
X73000Y15106D02*
X77000D01*
X75000Y13106D02*
X77000Y15106D01*
X73200Y34506D02*
Y35906D01*
X74600D01*
X73200Y22306D02*
X74600D01*
X73200D02*
Y23706D01*
X86800Y22306D02*
Y23706D01*
X85400Y22306D02*
X86800D01*
X85400Y35906D02*
X86800D01*
Y34506D02*
Y35906D01*
X85400Y35906D02*
X86800Y34506D01*
X342200Y10506D02*
X352800D01*
X342200D02*
Y14706D01*
X352800Y10506D02*
Y14706D01*
X342200D02*
X352800D01*
X361500Y10606D02*
X366400D01*
X361600Y16606D02*
X366500D01*
X330100Y32306D02*
Y42906D01*
X325900Y32306D02*
X330100D01*
X325900Y42906D02*
X330100Y42906D01*
X325900Y32306D02*
X325900Y42906D01*
X305900Y26806D02*
Y37406D01*
X310100D01*
X305900Y26806D02*
X310100D01*
Y37406D01*
X51100Y6806D02*
Y17406D01*
X46900Y6806D02*
X51100D01*
X46900Y17406D02*
X51100D01*
X46900Y6806D02*
Y17406D01*
X37100Y6806D02*
Y17406D01*
X32900Y6806D02*
X37100D01*
X32900Y17406D02*
X37100Y17406D01*
X32900Y6806D02*
X32900Y17406D01*
X63000Y42606D02*
Y43606D01*
X48000Y42606D02*
Y43606D01*
X48500Y48606D02*
X62500D01*
X48000Y37106D02*
Y38106D01*
Y37106D02*
X48500Y36606D01*
X62500D01*
X63000Y37106D01*
Y38106D01*
X48000Y48106D02*
X48500Y48606D01*
X62500D02*
X63000Y48106D01*
D40*
X100500Y14106D02*
G03*
X100500Y14106I-500J0D01*
G01*
D41*
X66150Y31156D02*
X66650Y31156D01*
Y33056D01*
X66150Y33056D02*
X66650Y33056D01*
X66150Y31156D02*
Y33056D01*
X69250Y31156D02*
Y33056D01*
X68750Y31156D02*
X69250Y31156D01*
X68750Y31156D02*
Y33056D01*
X69250Y33056D01*
X51000Y30056D02*
X54000D01*
X51000Y29556D02*
X54000D01*
Y30056D01*
Y28156D02*
Y28656D01*
X51000D02*
X54000D01*
X51000Y28156D02*
X54000D01*
X51000Y29556D02*
Y30056D01*
Y28156D02*
Y28656D01*
X56000Y28656D02*
X56000Y28156D01*
Y29556D02*
Y30056D01*
Y28156D02*
X59000D01*
X56000Y28656D02*
X59000Y28656D01*
X59000Y28156D01*
Y29556D02*
Y30056D01*
X56000Y29556D02*
X59000D01*
X56000Y30056D02*
X59000D01*
X61000D02*
X64000D01*
X61000Y29556D02*
X64000Y29556D01*
X64000Y30056D01*
Y28156D02*
Y28656D01*
X61000D02*
X64000D01*
X61000Y28156D02*
X64000Y28156D01*
X61000Y29556D02*
Y30056D01*
Y28156D02*
Y28656D01*
X28500Y41556D02*
X31500D01*
X28500Y41056D02*
X31500D01*
Y41556D01*
Y39656D02*
Y40156D01*
X28500D02*
X31500D01*
X28500Y39656D02*
X31500D01*
X28500Y41056D02*
Y41556D01*
Y39656D02*
Y40156D01*
X19500Y39656D02*
X22500D01*
X19500Y40156D02*
X22500D01*
X19500Y39656D02*
Y40156D01*
Y41056D02*
Y41556D01*
Y41056D02*
X22500D01*
X19500Y41556D02*
X22500D01*
Y39656D02*
Y40156D01*
Y41056D02*
Y41556D01*
X24000Y39656D02*
X27000D01*
X24000Y40156D02*
X27000D01*
X24000Y39656D02*
Y40156D01*
Y41056D02*
Y41556D01*
Y41056D02*
X27000D01*
X24000Y41556D02*
X27000D01*
Y39656D02*
Y40156D01*
Y41056D02*
Y41556D01*
X33000Y41556D02*
X36000D01*
X33000Y41056D02*
X36000D01*
Y41556D01*
Y39656D02*
Y40156D01*
X33000D02*
X36000D01*
X33000Y39656D02*
X36000D01*
X33000Y41056D02*
Y41556D01*
Y39656D02*
Y40156D01*
X37450Y39656D02*
X37950Y39656D01*
Y41556D01*
X37450Y41556D02*
X37950Y41556D01*
X37450Y39656D02*
Y41556D01*
X40550Y39656D02*
Y41556D01*
X40050Y39656D02*
X40550Y39656D01*
X40050Y39656D02*
Y41556D01*
X40550Y41556D01*
X41950Y39656D02*
X42450Y39656D01*
Y41556D01*
X41950Y41556D02*
X42450Y41556D01*
X41950Y39656D02*
Y41556D01*
X45050Y39656D02*
Y41556D01*
X44550Y39656D02*
X45050Y39656D01*
X44550Y39656D02*
Y41556D01*
X45050Y41556D01*
X76000Y43556D02*
X76000Y43056D01*
X76000Y41656D02*
Y42156D01*
X73000Y43556D02*
X76000D01*
X73000Y43056D02*
X76000D01*
X73000D02*
Y43556D01*
Y41656D02*
Y42156D01*
X76000D01*
X73000Y41656D02*
X76000D01*
X82950Y41656D02*
X83450Y41656D01*
Y43556D01*
X82950D02*
X83450D01*
X82950Y41656D02*
Y43556D01*
X86050Y41656D02*
Y43556D01*
X85550Y41656D02*
X86050D01*
X85550D02*
Y43556D01*
X86050Y43556D01*
X76050Y19706D02*
X76550D01*
X77450D02*
X77950D01*
X76050Y16706D02*
Y19706D01*
X76550Y16706D02*
Y19706D01*
X76050Y16706D02*
X76550D01*
X77450D02*
X77950D01*
X77450D02*
Y19706D01*
X77950Y16706D02*
Y19706D01*
X81000Y43056D02*
Y43556D01*
Y41656D02*
Y42156D01*
X78000Y43556D02*
X81000D01*
X78000Y43056D02*
X81000D01*
X78000D02*
Y43556D01*
Y41656D02*
Y42156D01*
X81000D01*
X78000Y41656D02*
X81000D01*
X337450Y16056D02*
X337450Y15556D01*
X335550Y16056D02*
X337450D01*
X335550Y15556D02*
X335550Y16056D01*
X335550Y15556D02*
X337450D01*
X335550Y18656D02*
X337450D01*
X337450Y18156D02*
X337450Y18656D01*
X335550Y18156D02*
X337450D01*
X335550Y18656D02*
X335550Y18156D01*
X337450Y11556D02*
X337450Y11056D01*
X335550Y11556D02*
X337450D01*
X335550Y11056D02*
X335550Y11556D01*
X335550Y11056D02*
X337450D01*
X335550Y14156D02*
X337450D01*
X337450Y13656D02*
X337450Y14156D01*
X335550Y13656D02*
X337450D01*
X335550Y14156D02*
X335550Y13656D01*
X335500Y6556D02*
X336100D01*
X335500Y9656D02*
X336100D01*
X337500Y7756D02*
Y8456D01*
X335500Y6556D02*
Y9656D01*
X336100Y8456D02*
Y9656D01*
Y6556D02*
Y7756D01*
Y8456D02*
X337500D01*
X336100Y7756D02*
X337500D01*
X335550Y23656D02*
X335550Y23156D01*
X337450D01*
X337450Y23656D01*
X335550D02*
X337450D01*
X335550Y20556D02*
X337450D01*
X335550D02*
X335550Y21056D01*
X337450D01*
X337450Y20556D01*
X345550Y23656D02*
X345550Y23156D01*
X347450D01*
X347450Y23656D01*
X345550D02*
X347450D01*
X345550Y20556D02*
X347450D01*
X345550D02*
X345550Y21056D01*
X347450D01*
X347450Y20556D01*
X354500Y9656D02*
Y10156D01*
Y11056D02*
Y11556D01*
Y9656D02*
X357500D01*
X354500Y10156D02*
X357500D01*
Y9656D02*
Y10156D01*
Y11056D02*
Y11556D01*
X354500Y11056D02*
X357500D01*
X354500Y11556D02*
X357500D01*
X355550Y20606D02*
Y23606D01*
X356050Y20606D02*
Y23606D01*
X355550D02*
X356050D01*
X356950D02*
X357450D01*
X356950Y20606D02*
Y23606D01*
X357450Y20606D02*
Y23606D01*
X355550Y20606D02*
X356050D01*
X356950D02*
X357450D01*
X335550Y26606D02*
Y29606D01*
X336050Y26606D02*
Y29606D01*
X335550D02*
X336050D01*
X336950D02*
X337450D01*
X336950D02*
X336950Y26606D01*
X337450Y26606D02*
Y29606D01*
X335550Y26606D02*
X336050D01*
X336950Y26606D02*
X337450Y26606D01*
X67350Y41606D02*
Y43006D01*
X68050Y41606D02*
Y43006D01*
X66150D02*
X67350D01*
X68050D02*
X69250D01*
X66150Y43606D02*
X69250D01*
X67350Y41606D02*
X68050D01*
X69250Y43006D02*
Y43606D01*
X66150Y43006D02*
Y43606D01*
X363350Y8556D02*
X364650Y8556D01*
Y8206D02*
Y8556D01*
X363350Y8206D02*
X364650D01*
X363350D02*
X363350Y8556D01*
X364650Y6656D02*
Y7006D01*
X363350Y7006D02*
X364650Y7006D01*
X363350Y6656D02*
X363350Y7006D01*
X363350Y6656D02*
X364650D01*
X315050Y42606D02*
X315550D01*
X316450D02*
X316950D01*
X315050Y39606D02*
Y42606D01*
X315550Y39606D02*
Y42606D01*
X315050Y39606D02*
X315550D01*
X316450D02*
X316950D01*
X316450D02*
Y42606D01*
X316950Y39606D02*
Y42606D01*
X326450Y27106D02*
X326950D01*
X325050D02*
X325550Y27106D01*
X326950Y27106D02*
Y30106D01*
X326450Y27106D02*
Y30106D01*
X326950D01*
X325050D02*
X325550Y30106D01*
Y27106D02*
Y30106D01*
X325050Y27106D02*
Y30106D01*
X28450Y25056D02*
X28450Y24556D01*
X26550Y25056D02*
X28450D01*
X26550Y24556D02*
X26550Y25056D01*
X26550Y24556D02*
X28450D01*
X26550Y27656D02*
X28450D01*
X28450Y27156D02*
X28450Y27656D01*
X26550Y27156D02*
X28450D01*
X26550Y27656D02*
X26550Y27156D01*
X26550Y22656D02*
X26550Y22156D01*
X28450D01*
X28450Y22656D01*
X26550D02*
X28450D01*
X26550Y19556D02*
X28450D01*
X26550D02*
X26550Y20056D01*
X28450D01*
X28450Y19556D01*
X36550Y27656D02*
X36550Y27156D01*
X38450D01*
X38450Y27656D01*
X36550D02*
X38450D01*
X36550Y24556D02*
X38450D01*
X36550D02*
X36550Y25056D01*
X38450D01*
X38450Y24556D01*
X36550Y22656D02*
X36550Y22156D01*
X38450D01*
X38450Y22656D01*
X36550D02*
X38450D01*
X36550Y19556D02*
X38450D01*
X36550D02*
X36550Y20056D01*
X38450D01*
X38450Y19556D01*
X62450Y7556D02*
X62450Y7056D01*
X60550Y7556D02*
X62450D01*
X60550Y7056D02*
X60550Y7556D01*
X60550Y7056D02*
X62450D01*
X60550Y10156D02*
X62450D01*
X62450Y9656D02*
X62450Y10156D01*
X60550Y9656D02*
X62450D01*
X60550Y10156D02*
X60550Y9656D01*
X49000Y29556D02*
Y30056D01*
Y28156D02*
Y28656D01*
X46000Y30056D02*
X49000D01*
X46000Y29556D02*
X49000D01*
X46000D02*
Y30056D01*
Y28156D02*
Y28656D01*
X49000D01*
X46000Y28156D02*
X49000D01*
X60050Y19056D02*
X60550Y19056D01*
X60050Y17156D02*
Y19056D01*
Y17156D02*
X60550D01*
X60550Y19056D01*
X57450Y17156D02*
Y19056D01*
X57950D01*
Y17156D02*
Y19056D01*
X57450Y17156D02*
X57950D01*
X65050Y19056D02*
X65550Y19056D01*
X65050Y17156D02*
Y19056D01*
Y17156D02*
X65550Y17156D01*
Y19056D01*
X62450Y17156D02*
Y19056D01*
X62950D01*
Y17156D02*
Y19056D01*
X62450Y17156D02*
X62950D01*
X306950Y40056D02*
X306950Y39556D01*
X305050Y40056D02*
X306950D01*
X305050Y39556D02*
X305050Y40056D01*
X305050Y39556D02*
X306950D01*
X305050Y42656D02*
X306950D01*
X306950Y42156D02*
X306950Y42656D01*
X305050Y42156D02*
X306950D01*
X305050Y42656D02*
X305050Y42156D01*
X371750Y37106D02*
X372250D01*
Y39156D01*
X379000D01*
X371750Y39656D02*
X379000D01*
X371750Y37106D02*
X371750Y39656D01*
X389050D02*
X391550D01*
Y9556D02*
Y39656D01*
X389050Y39156D02*
X391050Y39156D01*
Y10056D02*
Y39156D01*
X389050Y9556D02*
X391550D01*
X389050D02*
Y10056D01*
X391050Y10056D01*
X371750Y12106D02*
X372250D01*
Y10056D02*
Y12106D01*
X371750D02*
X371750Y9556D01*
X372250Y10056D02*
X379000D01*
X371750Y9556D02*
X379000D01*
Y10056D01*
Y39156D02*
Y39656D01*
X389050Y39156D02*
Y39656D01*
D42*
X316000Y29406D02*
Y34806D01*
X320400D01*
Y29406D02*
Y34806D01*
X316000Y29406D02*
X320400D01*
X316000Y33306D02*
X320400D01*
X22300Y13306D02*
X26700D01*
X22300Y9406D02*
X26700D01*
Y14806D01*
X22300D02*
X26700D01*
X22300Y9406D02*
Y14806D01*
M02*
