M48
;Layer_Color=9474304
;FILE_FORMAT=2:5
INCH,TZ
;TYPE=PLATED
T1F00S00C0.01200
T2F00S00C0.03000
T3F00S00C0.03200
;TYPE=NON_PLATED
T5F00S00C0.02800
%
T01
X373500Y19606
X376000
X371000
X365800Y19573
X362200Y17606
X359700Y14506
X359300Y11206
X362000Y7606
X356000
X355300Y13606
Y16106
X350700Y24606
X348493Y26613
X343500Y28106
Y30606
Y33106
X332700Y37606
X329000Y28606
X333500Y17106
X330000Y12606
X336500Y10206
X339500Y9106
X347500Y7606
X323000Y14706
X313000Y41106
X361000Y32606
Y30106
Y27606
X108400Y16761
X92450Y15156
X80000Y15106
X75000Y18106
X76063Y20606
X78031Y26106
X83000Y29106
X81968Y32206
X88500Y31075
Y27138
X86000Y23106
X89500Y37106
X90000Y39606
X94000Y41575
X84500Y45606
X79500
X74500
Y39606
X73000Y35106
X71400Y33106
X67700Y29106
X62500Y26106
X64000Y21106
X60193Y32106
X70500Y7106
X98500Y31075
X57634Y35669
X57500Y26106
X52500
X47398Y32106
X44839Y37606
X39720
X34602Y37669
X34500Y43606
X25500
X21000
X21807Y37606
X26925
X42279Y40669
X48625Y46106
X51000
X59000Y21106
X17000Y11106
Y8106
X10000Y34606
T02
X75000Y10106
X80000Y10106
X85000Y10106
X90000Y10106
X95000Y10106
X100000Y10106
T03
X372700Y15106
Y34106
X357906Y37606
X346094
T05
X51500Y43106
X59500
M30
