G04*
G04 #@! TF.GenerationSoftware,Altium Limited,Altium Designer,20.1.7 (139)*
G04*
G04 Layer_Color=32896*
%FSLAX25Y25*%
%MOIN*%
G70*
G04*
G04 #@! TF.SameCoordinates,AE6903BA-CC81-4101-B740-E620CA86DFFE*
G04*
G04*
G04 #@! TF.FilePolarity,Positive*
G04*
G01*
G75*
%ADD10C,0.00600*%
%ADD40C,0.01500*%
G36*
X75000Y14106D02*
X77000Y16106D01*
X73000D01*
X75000Y14106D01*
D02*
G37*
G36*
X80000Y16106D02*
X78000Y14106D01*
X82000Y14106D01*
X80000Y16106D01*
D02*
G37*
G36*
X325636Y10920D02*
X325663D01*
X325686Y10915D01*
X325702D01*
X325775Y10909D01*
X325841Y10898D01*
X325869Y10893D01*
X325891D01*
X325902Y10887D01*
X325908D01*
X325980Y10876D01*
X326046Y10859D01*
X326074Y10854D01*
X326096Y10848D01*
X326108Y10843D01*
X326113D01*
X326185Y10826D01*
X326257Y10809D01*
X326285Y10798D01*
X326307Y10793D01*
X326318Y10787D01*
X326324D01*
Y10277D01*
X326180Y10315D01*
X326113Y10338D01*
X326052Y10349D01*
X326008Y10360D01*
X325969Y10371D01*
X325941Y10377D01*
X325935D01*
X325797Y10399D01*
X325730Y10404D01*
X325669Y10410D01*
X325619Y10415D01*
X325547D01*
X325453Y10410D01*
X325369Y10399D01*
X325303Y10382D01*
X325247Y10365D01*
X325203Y10343D01*
X325169Y10327D01*
X325153Y10315D01*
X325147Y10310D01*
X325103Y10266D01*
X325070Y10216D01*
X325047Y10166D01*
X325031Y10116D01*
X325020Y10071D01*
X325014Y10038D01*
Y10016D01*
Y10005D01*
X325020Y9938D01*
X325031Y9877D01*
X325036Y9855D01*
X325042Y9838D01*
X325047Y9827D01*
Y9821D01*
X325081Y9760D01*
X325114Y9710D01*
X325147Y9677D01*
X325153Y9672D01*
X325158Y9666D01*
X325225Y9622D01*
X325292Y9588D01*
X325319Y9577D01*
X325342Y9566D01*
X325358Y9561D01*
X325364D01*
X325414Y9550D01*
X325469Y9544D01*
X325519Y9533D01*
X325575D01*
X325619Y9527D01*
X326019D01*
Y9061D01*
X325586D01*
X325514Y9056D01*
X325453Y9050D01*
X325403Y9044D01*
X325358Y9033D01*
X325330Y9028D01*
X325308Y9022D01*
X325303D01*
X325247Y9011D01*
X325203Y8995D01*
X325158Y8978D01*
X325125Y8961D01*
X325097Y8950D01*
X325075Y8939D01*
X325064Y8934D01*
X325059Y8928D01*
X324992Y8878D01*
X324948Y8828D01*
X324931Y8811D01*
X324920Y8795D01*
X324909Y8784D01*
Y8778D01*
X324881Y8711D01*
X324864Y8650D01*
X324859Y8623D01*
Y8601D01*
Y8589D01*
Y8584D01*
X324864Y8501D01*
X324875Y8462D01*
X324881Y8428D01*
X324892Y8401D01*
X324903Y8378D01*
X324909Y8367D01*
Y8362D01*
X324948Y8295D01*
X324997Y8245D01*
X325020Y8229D01*
X325036Y8212D01*
X325047Y8206D01*
X325053Y8201D01*
X325131Y8157D01*
X325208Y8129D01*
X325247Y8118D01*
X325270Y8107D01*
X325292Y8101D01*
X325297D01*
X325414Y8084D01*
X325475Y8073D01*
X325530D01*
X325580Y8068D01*
X325730D01*
X325808Y8073D01*
X325880D01*
X325941Y8079D01*
X325991D01*
X326030Y8084D01*
X326063D01*
X326135Y8090D01*
X326202Y8101D01*
X326257Y8107D01*
X326313Y8118D01*
X326352Y8123D01*
X326385Y8129D01*
X326407Y8134D01*
X326413D01*
Y7607D01*
X326363Y7602D01*
X326307Y7596D01*
X326291Y7590D01*
X326257D01*
X326191Y7585D01*
X326135Y7579D01*
X326113Y7574D01*
X326080D01*
X326008Y7568D01*
X325952D01*
X325924Y7563D01*
X325891D01*
X325824Y7557D01*
X325713D01*
X325575Y7563D01*
X325447Y7568D01*
X325336Y7579D01*
X325242Y7596D01*
X325158Y7607D01*
X325103Y7618D01*
X325081Y7624D01*
X325064D01*
X325059Y7629D01*
X325053D01*
X324953Y7657D01*
X324859Y7690D01*
X324781Y7724D01*
X324714Y7757D01*
X324659Y7790D01*
X324620Y7812D01*
X324592Y7829D01*
X324587Y7835D01*
X324520Y7890D01*
X324465Y7946D01*
X324415Y8001D01*
X324376Y8051D01*
X324348Y8101D01*
X324326Y8134D01*
X324315Y8157D01*
X324309Y8168D01*
X324276Y8240D01*
X324254Y8317D01*
X324237Y8390D01*
X324226Y8456D01*
X324220Y8517D01*
X324215Y8562D01*
Y8589D01*
Y8601D01*
X324220Y8711D01*
X324232Y8756D01*
X324237Y8800D01*
X324248Y8834D01*
X324259Y8856D01*
X324265Y8873D01*
Y8878D01*
X324309Y8967D01*
X324331Y9006D01*
X324354Y9039D01*
X324376Y9061D01*
X324393Y9083D01*
X324404Y9094D01*
X324409Y9100D01*
X324481Y9167D01*
X324548Y9211D01*
X324581Y9233D01*
X324604Y9244D01*
X324620Y9255D01*
X324626D01*
X324720Y9294D01*
X324770Y9311D01*
X324814Y9322D01*
X324853Y9333D01*
X324881Y9339D01*
X324903Y9344D01*
X324909D01*
X324820Y9383D01*
X324748Y9433D01*
X324681Y9477D01*
X324626Y9522D01*
X324581Y9566D01*
X324553Y9600D01*
X324531Y9622D01*
X324526Y9627D01*
X324481Y9699D01*
X324448Y9777D01*
X324420Y9860D01*
X324404Y9933D01*
X324393Y10005D01*
X324387Y10055D01*
Y10077D01*
Y10093D01*
Y10099D01*
Y10105D01*
X324393Y10171D01*
X324398Y10238D01*
X324409Y10293D01*
X324420Y10343D01*
X324437Y10388D01*
X324448Y10415D01*
X324454Y10438D01*
X324459Y10443D01*
X324487Y10499D01*
X324520Y10549D01*
X324559Y10593D01*
X324592Y10632D01*
X324620Y10665D01*
X324648Y10687D01*
X324664Y10698D01*
X324670Y10704D01*
X324726Y10743D01*
X324781Y10776D01*
X324842Y10804D01*
X324892Y10826D01*
X324942Y10843D01*
X324981Y10854D01*
X325003Y10865D01*
X325014D01*
X325092Y10887D01*
X325169Y10898D01*
X325247Y10909D01*
X325319Y10920D01*
X325386D01*
X325436Y10926D01*
X325564D01*
X325636Y10920D01*
D02*
G37*
G36*
X320008D02*
X320036D01*
X320058Y10915D01*
X320075D01*
X320147Y10909D01*
X320213Y10898D01*
X320241Y10893D01*
X320263D01*
X320274Y10887D01*
X320280D01*
X320352Y10876D01*
X320419Y10859D01*
X320446Y10854D01*
X320469Y10848D01*
X320480Y10843D01*
X320485D01*
X320557Y10826D01*
X320630Y10809D01*
X320657Y10798D01*
X320680Y10793D01*
X320691Y10787D01*
X320696D01*
Y10277D01*
X320552Y10315D01*
X320485Y10338D01*
X320424Y10349D01*
X320380Y10360D01*
X320341Y10371D01*
X320313Y10377D01*
X320308D01*
X320169Y10399D01*
X320102Y10404D01*
X320041Y10410D01*
X319991Y10415D01*
X319919D01*
X319825Y10410D01*
X319742Y10399D01*
X319675Y10382D01*
X319619Y10365D01*
X319575Y10343D01*
X319542Y10327D01*
X319525Y10315D01*
X319520Y10310D01*
X319475Y10266D01*
X319442Y10216D01*
X319420Y10166D01*
X319403Y10116D01*
X319392Y10071D01*
X319387Y10038D01*
Y10016D01*
Y10005D01*
X319392Y9938D01*
X319403Y9877D01*
X319409Y9855D01*
X319414Y9838D01*
X319420Y9827D01*
Y9821D01*
X319453Y9760D01*
X319486Y9710D01*
X319520Y9677D01*
X319525Y9672D01*
X319531Y9666D01*
X319597Y9622D01*
X319664Y9588D01*
X319692Y9577D01*
X319714Y9566D01*
X319730Y9561D01*
X319736D01*
X319786Y9550D01*
X319842Y9544D01*
X319892Y9533D01*
X319947D01*
X319991Y9527D01*
X320391D01*
Y9061D01*
X319958D01*
X319886Y9056D01*
X319825Y9050D01*
X319775Y9044D01*
X319730Y9033D01*
X319703Y9028D01*
X319681Y9022D01*
X319675D01*
X319619Y9011D01*
X319575Y8995D01*
X319531Y8978D01*
X319497Y8961D01*
X319470Y8950D01*
X319447Y8939D01*
X319436Y8934D01*
X319431Y8928D01*
X319364Y8878D01*
X319320Y8828D01*
X319303Y8811D01*
X319292Y8795D01*
X319281Y8784D01*
Y8778D01*
X319253Y8711D01*
X319237Y8650D01*
X319231Y8623D01*
Y8601D01*
Y8589D01*
Y8584D01*
X319237Y8501D01*
X319248Y8462D01*
X319253Y8428D01*
X319264Y8401D01*
X319275Y8378D01*
X319281Y8367D01*
Y8362D01*
X319320Y8295D01*
X319370Y8245D01*
X319392Y8229D01*
X319409Y8212D01*
X319420Y8206D01*
X319425Y8201D01*
X319503Y8157D01*
X319581Y8129D01*
X319619Y8118D01*
X319642Y8107D01*
X319664Y8101D01*
X319670D01*
X319786Y8084D01*
X319847Y8073D01*
X319903D01*
X319953Y8068D01*
X320102D01*
X320180Y8073D01*
X320252D01*
X320313Y8079D01*
X320363D01*
X320402Y8084D01*
X320435D01*
X320508Y8090D01*
X320574Y8101D01*
X320630Y8107D01*
X320685Y8118D01*
X320724Y8123D01*
X320757Y8129D01*
X320779Y8134D01*
X320785D01*
Y7607D01*
X320735Y7602D01*
X320680Y7596D01*
X320663Y7590D01*
X320630D01*
X320563Y7585D01*
X320508Y7579D01*
X320485Y7574D01*
X320452D01*
X320380Y7568D01*
X320324D01*
X320297Y7563D01*
X320263D01*
X320197Y7557D01*
X320086D01*
X319947Y7563D01*
X319819Y7568D01*
X319708Y7579D01*
X319614Y7596D01*
X319531Y7607D01*
X319475Y7618D01*
X319453Y7624D01*
X319436D01*
X319431Y7629D01*
X319425D01*
X319325Y7657D01*
X319231Y7690D01*
X319153Y7724D01*
X319087Y7757D01*
X319031Y7790D01*
X318992Y7812D01*
X318965Y7829D01*
X318959Y7835D01*
X318893Y7890D01*
X318837Y7946D01*
X318787Y8001D01*
X318748Y8051D01*
X318720Y8101D01*
X318698Y8134D01*
X318687Y8157D01*
X318682Y8168D01*
X318648Y8240D01*
X318626Y8317D01*
X318609Y8390D01*
X318598Y8456D01*
X318593Y8517D01*
X318587Y8562D01*
Y8589D01*
Y8601D01*
X318593Y8711D01*
X318604Y8756D01*
X318609Y8800D01*
X318621Y8834D01*
X318632Y8856D01*
X318637Y8873D01*
Y8878D01*
X318682Y8967D01*
X318704Y9006D01*
X318726Y9039D01*
X318748Y9061D01*
X318765Y9083D01*
X318776Y9094D01*
X318781Y9100D01*
X318854Y9167D01*
X318920Y9211D01*
X318953Y9233D01*
X318976Y9244D01*
X318992Y9255D01*
X318998D01*
X319092Y9294D01*
X319142Y9311D01*
X319187Y9322D01*
X319226Y9333D01*
X319253Y9339D01*
X319275Y9344D01*
X319281D01*
X319192Y9383D01*
X319120Y9433D01*
X319054Y9477D01*
X318998Y9522D01*
X318953Y9566D01*
X318926Y9600D01*
X318904Y9622D01*
X318898Y9627D01*
X318854Y9699D01*
X318820Y9777D01*
X318793Y9860D01*
X318776Y9933D01*
X318765Y10005D01*
X318759Y10055D01*
Y10077D01*
Y10093D01*
Y10099D01*
Y10105D01*
X318765Y10171D01*
X318770Y10238D01*
X318781Y10293D01*
X318793Y10343D01*
X318809Y10388D01*
X318820Y10415D01*
X318826Y10438D01*
X318831Y10443D01*
X318859Y10499D01*
X318893Y10549D01*
X318931Y10593D01*
X318965Y10632D01*
X318992Y10665D01*
X319020Y10687D01*
X319037Y10698D01*
X319042Y10704D01*
X319098Y10743D01*
X319153Y10776D01*
X319214Y10804D01*
X319264Y10826D01*
X319314Y10843D01*
X319353Y10854D01*
X319375Y10865D01*
X319387D01*
X319464Y10887D01*
X319542Y10898D01*
X319619Y10909D01*
X319692Y10920D01*
X319758D01*
X319808Y10926D01*
X319936D01*
X320008Y10920D01*
D02*
G37*
G36*
X322950Y7607D02*
X322139D01*
X321135Y10870D01*
X321790D01*
X322339Y8939D01*
X322522Y8256D01*
X322700Y8900D01*
X323249Y10870D01*
X323949D01*
X322950Y7607D01*
D02*
G37*
G36*
X323665Y28603D02*
X323105D01*
Y29613D01*
Y30967D01*
X322927Y30546D01*
X322056Y28603D01*
X321301D01*
Y31866D01*
X321862D01*
Y30962D01*
Y29524D01*
X322023Y29902D01*
X322911Y31866D01*
X323665D01*
Y28603D01*
D02*
G37*
G36*
X325147Y31916D02*
X325275Y31905D01*
X325386Y31883D01*
X325486Y31861D01*
X325569Y31839D01*
X325602Y31828D01*
X325630Y31817D01*
X325658Y31811D01*
X325675Y31806D01*
X325680Y31800D01*
X325686D01*
X325791Y31750D01*
X325886Y31700D01*
X325974Y31644D01*
X326046Y31589D01*
X326102Y31539D01*
X326146Y31500D01*
X326174Y31473D01*
X326185Y31461D01*
X326257Y31373D01*
X326318Y31284D01*
X326368Y31189D01*
X326413Y31106D01*
X326446Y31029D01*
X326468Y30973D01*
X326479Y30951D01*
X326485Y30934D01*
X326490Y30923D01*
Y30918D01*
X326524Y30795D01*
X326552Y30668D01*
X326568Y30546D01*
X326585Y30429D01*
X326590Y30335D01*
Y30290D01*
X326596Y30257D01*
Y30224D01*
Y30202D01*
Y30190D01*
Y30185D01*
X326590Y30041D01*
X326579Y29907D01*
X326563Y29785D01*
X326546Y29680D01*
X326529Y29597D01*
X326518Y29558D01*
X326513Y29530D01*
X326507Y29508D01*
X326501Y29491D01*
X326496Y29480D01*
Y29474D01*
X326457Y29364D01*
X326407Y29264D01*
X326363Y29175D01*
X326313Y29103D01*
X326274Y29042D01*
X326241Y28997D01*
X326213Y28969D01*
X326207Y28958D01*
X326135Y28886D01*
X326058Y28825D01*
X325980Y28770D01*
X325908Y28725D01*
X325841Y28692D01*
X325791Y28670D01*
X325758Y28653D01*
X325752Y28648D01*
X325747D01*
X325641Y28614D01*
X325536Y28592D01*
X325436Y28570D01*
X325342Y28559D01*
X325258Y28553D01*
X325225D01*
X325192Y28548D01*
X325031D01*
X324931Y28553D01*
X324842Y28564D01*
X324759Y28575D01*
X324698Y28581D01*
X324648Y28592D01*
X324615Y28598D01*
X324604D01*
X324515Y28614D01*
X324426Y28642D01*
X324348Y28664D01*
X324276Y28692D01*
X324215Y28714D01*
X324171Y28731D01*
X324143Y28742D01*
X324132Y28747D01*
Y30490D01*
X325292D01*
Y29985D01*
X324737D01*
Y29147D01*
X324764Y29142D01*
X324787Y29130D01*
X324803Y29125D01*
X324809D01*
X324836Y29119D01*
X324859Y29114D01*
X324875Y29108D01*
X324881D01*
X324909Y29103D01*
X324937D01*
X324959Y29097D01*
X325064D01*
X325147Y29103D01*
X325231Y29108D01*
X325297Y29119D01*
X325358Y29136D01*
X325403Y29147D01*
X325442Y29158D01*
X325464Y29164D01*
X325469Y29169D01*
X325530Y29202D01*
X325580Y29236D01*
X325630Y29275D01*
X325669Y29308D01*
X325697Y29341D01*
X325725Y29369D01*
X325736Y29386D01*
X325741Y29391D01*
X325808Y29508D01*
X325836Y29569D01*
X325858Y29624D01*
X325874Y29674D01*
X325886Y29713D01*
X325897Y29735D01*
Y29746D01*
X325924Y29907D01*
X325930Y29991D01*
X325935Y30063D01*
X325941Y30124D01*
Y30174D01*
Y30207D01*
Y30213D01*
Y30218D01*
X325935Y30318D01*
X325930Y30407D01*
X325919Y30490D01*
X325908Y30562D01*
X325897Y30618D01*
X325891Y30662D01*
X325880Y30690D01*
Y30701D01*
X325852Y30779D01*
X325824Y30851D01*
X325797Y30912D01*
X325769Y30962D01*
X325741Y31006D01*
X325719Y31034D01*
X325708Y31056D01*
X325702Y31062D01*
X325658Y31117D01*
X325608Y31162D01*
X325558Y31201D01*
X325514Y31234D01*
X325469Y31256D01*
X325436Y31273D01*
X325414Y31284D01*
X325408Y31289D01*
X325342Y31317D01*
X325270Y31339D01*
X325203Y31350D01*
X325136Y31361D01*
X325086Y31367D01*
X325042Y31373D01*
X324920D01*
X324836Y31361D01*
X324759Y31356D01*
X324692Y31345D01*
X324637Y31334D01*
X324592Y31323D01*
X324565Y31317D01*
X324553Y31312D01*
X324470Y31289D01*
X324398Y31267D01*
X324326Y31245D01*
X324265Y31223D01*
X324215Y31201D01*
X324176Y31189D01*
X324154Y31178D01*
X324143Y31173D01*
Y31778D01*
X324304Y31817D01*
X324376Y31839D01*
X324443Y31850D01*
X324498Y31861D01*
X324537Y31872D01*
X324565Y31878D01*
X324576D01*
X324731Y31905D01*
X324803Y31911D01*
X324870Y31916D01*
X324925Y31922D01*
X325009D01*
X325147Y31916D01*
D02*
G37*
G36*
X320868Y28603D02*
X320041D01*
X319886Y28609D01*
X319742Y28620D01*
X319619Y28642D01*
X319509Y28664D01*
X319464Y28670D01*
X319420Y28681D01*
X319387Y28692D01*
X319359Y28703D01*
X319337Y28709D01*
X319314Y28714D01*
X319309Y28720D01*
X319303D01*
X319192Y28770D01*
X319092Y28820D01*
X319004Y28875D01*
X318931Y28931D01*
X318870Y28980D01*
X318826Y29019D01*
X318804Y29042D01*
X318793Y29053D01*
X318720Y29142D01*
X318659Y29230D01*
X318609Y29319D01*
X318571Y29402D01*
X318537Y29474D01*
X318515Y29535D01*
X318510Y29558D01*
X318504Y29574D01*
X318498Y29580D01*
Y29585D01*
X318465Y29702D01*
X318443Y29824D01*
X318426Y29941D01*
X318415Y30046D01*
X318410Y30141D01*
X318404Y30179D01*
Y30213D01*
Y30235D01*
Y30257D01*
Y30268D01*
Y30274D01*
X318410Y30424D01*
X318421Y30562D01*
X318432Y30684D01*
X318448Y30790D01*
X318471Y30873D01*
X318476Y30906D01*
X318482Y30934D01*
X318487Y30962D01*
X318493Y30979D01*
X318498Y30984D01*
Y30990D01*
X318537Y31095D01*
X318582Y31195D01*
X318632Y31278D01*
X318676Y31350D01*
X318715Y31406D01*
X318748Y31450D01*
X318770Y31473D01*
X318781Y31484D01*
X318854Y31550D01*
X318937Y31611D01*
X319015Y31661D01*
X319087Y31700D01*
X319153Y31733D01*
X319203Y31756D01*
X319242Y31767D01*
X319248Y31772D01*
X319253D01*
X319359Y31806D01*
X319470Y31828D01*
X319581Y31844D01*
X319681Y31855D01*
X319769Y31861D01*
X319808Y31866D01*
X320868D01*
Y28603D01*
D02*
G37*
G36*
X282153Y42824D02*
X282486Y42750D01*
X282746Y42676D01*
X282783Y42639D01*
X282820D01*
X283153Y42454D01*
X283412Y42268D01*
X283597Y42120D01*
X283671Y42046D01*
X283930Y41750D01*
X284079Y41491D01*
X284190Y41269D01*
X284227Y41232D01*
Y41195D01*
X284338Y40824D01*
X284375Y40491D01*
X284412Y40343D01*
Y40269D01*
Y40195D01*
Y40158D01*
X284375Y39750D01*
X284301Y39417D01*
X284264Y39195D01*
X284227Y39158D01*
Y39121D01*
X284079Y38788D01*
X283893Y38528D01*
X283745Y38343D01*
X283671Y38269D01*
X283375Y38047D01*
X283116Y37862D01*
X282894Y37751D01*
X282857Y37714D01*
X282820D01*
X282449Y37603D01*
X282116Y37566D01*
X281968Y37529D01*
X281746D01*
X281338Y37566D01*
X281005Y37640D01*
X280783Y37677D01*
X280746Y37714D01*
X280709D01*
X280376Y37899D01*
X280116Y38084D01*
X279931Y38232D01*
X279857Y38269D01*
X279598Y38565D01*
X279450Y38825D01*
X279339Y39047D01*
X279302Y39084D01*
Y39121D01*
X279154Y39491D01*
X279117Y39825D01*
X279080Y39973D01*
Y40047D01*
Y40121D01*
Y40158D01*
X279117Y40565D01*
X279191Y40898D01*
X279265Y41120D01*
X279302Y41158D01*
Y41195D01*
X279450Y41528D01*
X279635Y41787D01*
X279783Y41972D01*
X279857Y42046D01*
X280153Y42305D01*
X280413Y42491D01*
X280635Y42602D01*
X280672Y42639D01*
X280709D01*
X281079Y42787D01*
X281413Y42824D01*
X281561Y42861D01*
X281746D01*
X282153Y42824D01*
D02*
G37*
G36*
X308000Y18606D02*
X303816D01*
Y29123D01*
X297298Y18606D01*
X292003D01*
X299779Y29974D01*
X292373Y40380D01*
X297335D01*
X303816Y30419D01*
Y40380D01*
X308000D01*
Y18606D01*
D02*
G37*
G36*
X176432Y24161D02*
Y23679D01*
X176395Y23235D01*
X176321Y22791D01*
X176284Y22457D01*
X176210Y22124D01*
X176173Y21902D01*
X176136Y21754D01*
Y21717D01*
X175988Y21347D01*
X175840Y20976D01*
X175692Y20643D01*
X175544Y20384D01*
X175396Y20162D01*
X175285Y19976D01*
X175210Y19865D01*
X175173Y19828D01*
X174618Y19310D01*
X174100Y18939D01*
X173877Y18828D01*
X173692Y18717D01*
X173581Y18680D01*
X173544Y18643D01*
X173174Y18495D01*
X172766Y18421D01*
X172359Y18347D01*
X172026Y18273D01*
X171693D01*
X171470Y18236D01*
X171248D01*
X170582Y18273D01*
X170323Y18310D01*
X170063Y18347D01*
X169878Y18384D01*
X169693Y18421D01*
X169619Y18458D01*
X169582D01*
X169026Y18606D01*
X168582Y18791D01*
X168397Y18902D01*
X168286Y18939D01*
X168212Y19014D01*
X168175D01*
X167693Y19310D01*
X167323Y19606D01*
X167175Y19717D01*
X167064Y19828D01*
X167027Y19865D01*
X166990Y19902D01*
X166582Y20310D01*
X166212Y20717D01*
X166101Y20865D01*
X165990Y20976D01*
X165916Y21050D01*
X165879Y21087D01*
X165805Y18606D01*
X162250Y18606D01*
Y35529D01*
X166323Y35529D01*
Y24827D01*
X166730Y24309D01*
X167101Y23865D01*
X167434Y23457D01*
X167730Y23124D01*
X167990Y22865D01*
X168175Y22680D01*
X168323Y22569D01*
X168360Y22532D01*
X168693Y22272D01*
X169063Y22050D01*
X169360Y21902D01*
X169656Y21828D01*
X169915Y21754D01*
X170100Y21717D01*
X170285D01*
X170656Y21754D01*
X170989Y21828D01*
X171248Y21939D01*
X171470Y22087D01*
X171655Y22198D01*
X171767Y22309D01*
X171841Y22383D01*
X171878Y22420D01*
X172026Y22717D01*
X172137Y23050D01*
X172285Y23716D01*
X172322Y24013D01*
X172359Y24272D01*
Y24420D01*
Y24494D01*
Y35529D01*
X176432D01*
Y24161D01*
D02*
G37*
G36*
X267082Y39825D02*
Y35529D01*
X271600D01*
Y32344D01*
X267082D01*
Y24087D01*
Y23531D01*
X267008Y23050D01*
X266971Y22605D01*
X266897Y22198D01*
X266823Y21902D01*
X266786Y21643D01*
X266711Y21495D01*
Y21458D01*
X266563Y21050D01*
X266378Y20717D01*
X266193Y20384D01*
X266008Y20124D01*
X265823Y19902D01*
X265675Y19754D01*
X265601Y19643D01*
X265564Y19606D01*
X265267Y19347D01*
X264934Y19162D01*
X264268Y18828D01*
X264008Y18717D01*
X263749Y18643D01*
X263601Y18569D01*
X263564D01*
X263083Y18458D01*
X262601Y18384D01*
X262120Y18310D01*
X261676Y18273D01*
X261268D01*
X260972Y18236D01*
X260676D01*
X259935Y18273D01*
X259565Y18310D01*
X259231Y18347D01*
X258972D01*
X258750Y18384D01*
X258602Y18421D01*
X258565D01*
X257750Y18532D01*
X257380Y18606D01*
X257047Y18680D01*
X256750Y18717D01*
X256528Y18754D01*
X256380Y18791D01*
X256343D01*
Y22050D01*
X256973Y21902D01*
X257269Y21828D01*
X257528Y21754D01*
X257787Y21717D01*
X257973Y21680D01*
X258084Y21643D01*
X258121D01*
X258824Y21569D01*
X259120Y21532D01*
X259417D01*
X259676Y21495D01*
X260046D01*
X260602Y21532D01*
X261046Y21606D01*
X261416Y21717D01*
X261750Y21865D01*
X261972Y21976D01*
X262120Y22087D01*
X262231Y22161D01*
X262268Y22198D01*
X262490Y22494D01*
X262638Y22865D01*
X262749Y23198D01*
X262823Y23568D01*
X262860Y23902D01*
X262897Y24161D01*
Y24309D01*
Y24383D01*
Y32344D01*
X256343D01*
Y35529D01*
X262897D01*
Y40935D01*
X267082Y39825D01*
D02*
G37*
G36*
X154437Y39825D02*
Y35529D01*
X158954D01*
Y32344D01*
X154437D01*
Y24087D01*
Y23531D01*
X154362Y23050D01*
X154325Y22605D01*
X154251Y22198D01*
X154177Y21902D01*
X154140Y21643D01*
X154066Y21495D01*
Y21458D01*
X153918Y21050D01*
X153733Y20717D01*
X153548Y20384D01*
X153363Y20124D01*
X153178Y19902D01*
X153029Y19754D01*
X152955Y19643D01*
X152918Y19606D01*
X152622Y19347D01*
X152289Y19162D01*
X151622Y18828D01*
X151363Y18717D01*
X151104Y18643D01*
X150956Y18569D01*
X150919D01*
X150437Y18458D01*
X149956Y18384D01*
X149475Y18310D01*
X149030Y18273D01*
X148623D01*
X148327Y18236D01*
X148030D01*
X147290Y18273D01*
X146920Y18310D01*
X146586Y18347D01*
X146327D01*
X146105Y18384D01*
X145957Y18421D01*
X145920D01*
X145105Y18532D01*
X144735Y18606D01*
X144402Y18680D01*
X144105Y18717D01*
X143883Y18754D01*
X143735Y18791D01*
X143698D01*
Y22050D01*
X144327Y21902D01*
X144624Y21828D01*
X144883Y21754D01*
X145142Y21717D01*
X145327Y21680D01*
X145438Y21643D01*
X145475D01*
X146179Y21569D01*
X146475Y21532D01*
X146771D01*
X147031Y21495D01*
X147401D01*
X147956Y21532D01*
X148401Y21606D01*
X148771Y21717D01*
X149104Y21865D01*
X149326Y21976D01*
X149475Y22087D01*
X149586Y22161D01*
X149623Y22198D01*
X149845Y22494D01*
X149993Y22865D01*
X150104Y23198D01*
X150178Y23568D01*
X150215Y23902D01*
X150252Y24161D01*
Y24309D01*
Y24383D01*
Y32344D01*
X143698D01*
Y35529D01*
X150252D01*
Y40935D01*
X154437Y39825D01*
D02*
G37*
G36*
X288374Y32344D02*
X283597D01*
Y21791D01*
X288967D01*
Y18606D01*
X274525Y18606D01*
Y21791D01*
X279413Y21791D01*
Y35529D01*
X288374D01*
Y32344D01*
D02*
G37*
G36*
X204872Y35862D02*
X205168Y35825D01*
X205390Y35788D01*
X205612Y35751D01*
X205760Y35714D01*
X205871Y35677D01*
X205908D01*
X206464Y35492D01*
X206908Y35307D01*
X207093Y35233D01*
X207241Y35159D01*
X207315Y35122D01*
X207352Y35085D01*
X207797Y34788D01*
X208167Y34492D01*
X208315Y34381D01*
X208426Y34270D01*
X208463Y34233D01*
X208500Y34196D01*
X208871Y33789D01*
X209167Y33418D01*
X209278Y33270D01*
X209352Y33159D01*
X209389Y33085D01*
X209426Y33048D01*
X209611Y35529D01*
X213277D01*
Y18606D01*
X209093D01*
Y29308D01*
X208685Y29900D01*
X208315Y30382D01*
X207945Y30789D01*
X207649Y31122D01*
X207389Y31382D01*
X207167Y31567D01*
X207056Y31678D01*
X207019Y31715D01*
X206649Y31974D01*
X206316Y32159D01*
X206019Y32307D01*
X205723Y32381D01*
X205501Y32456D01*
X205316Y32493D01*
X205168D01*
X204797Y32456D01*
X204501Y32381D01*
X204316Y32307D01*
X204242Y32270D01*
X203983Y32085D01*
X203761Y31900D01*
X203612Y31715D01*
X203575Y31678D01*
Y31641D01*
X203390Y31271D01*
X203242Y30937D01*
X203205Y30752D01*
Y30641D01*
X203168Y30567D01*
Y30530D01*
X203094Y30011D01*
X203057Y29493D01*
Y29271D01*
Y29086D01*
Y28975D01*
Y28938D01*
X198984D01*
Y29567D01*
X199021Y30123D01*
X199058Y30641D01*
X199132Y31085D01*
X199169Y31456D01*
X199243Y31715D01*
X199280Y31863D01*
Y31937D01*
X199428Y32419D01*
X199576Y32826D01*
X199724Y33233D01*
X199909Y33529D01*
X200058Y33789D01*
X200169Y33974D01*
X200243Y34085D01*
X200280Y34122D01*
X200539Y34418D01*
X200835Y34714D01*
X201094Y34936D01*
X201354Y35122D01*
X201576Y35270D01*
X201761Y35381D01*
X201909Y35418D01*
X201946Y35455D01*
X202316Y35603D01*
X202687Y35714D01*
X203094Y35788D01*
X203427Y35862D01*
X203761D01*
X203983Y35899D01*
X204205D01*
X204872Y35862D01*
D02*
G37*
G36*
X244494Y40713D02*
X245197Y40676D01*
X245864Y40602D01*
X246419Y40491D01*
X246864Y40380D01*
X247197Y40306D01*
X247419Y40269D01*
X247456Y40232D01*
X247493D01*
X248048Y40010D01*
X248530Y39788D01*
X248974Y39565D01*
X249344Y39343D01*
X249641Y39158D01*
X249863Y39010D01*
X250011Y38899D01*
X250048Y38862D01*
X250381Y38528D01*
X250715Y38195D01*
X250937Y37862D01*
X251159Y37529D01*
X251307Y37269D01*
X251455Y37047D01*
X251492Y36899D01*
X251529Y36862D01*
X251677Y36418D01*
X251788Y36010D01*
X251863Y35603D01*
X251900Y35196D01*
X251937Y34900D01*
X251974Y34640D01*
Y34492D01*
Y34418D01*
X251937Y33900D01*
X251900Y33455D01*
X251825Y33048D01*
X251751Y32678D01*
X251677Y32419D01*
X251603Y32196D01*
X251529Y32048D01*
Y32011D01*
X251159Y31345D01*
X250974Y31048D01*
X250752Y30789D01*
X250604Y30604D01*
X250455Y30456D01*
X250381Y30345D01*
X250344Y30308D01*
X249752Y29826D01*
X249196Y29456D01*
X248937Y29308D01*
X248752Y29197D01*
X248641Y29160D01*
X248604Y29123D01*
X247900Y28789D01*
X247567Y28641D01*
X247271Y28493D01*
X247049Y28382D01*
X246826Y28308D01*
X246715Y28271D01*
X246678Y28234D01*
X245938Y27975D01*
X245604Y27864D01*
X245308Y27753D01*
X245086Y27642D01*
X244864Y27605D01*
X244753Y27531D01*
X244716D01*
X244049Y27271D01*
X243753Y27160D01*
X243494Y27049D01*
X243309Y26938D01*
X243123Y26864D01*
X243049Y26827D01*
X243012Y26790D01*
X242494Y26457D01*
X242124Y26160D01*
X241975Y26012D01*
X241864Y25938D01*
X241827Y25864D01*
X241790Y25827D01*
X241642Y25605D01*
X241494Y25420D01*
X241383Y24975D01*
X241346Y24790D01*
X241309Y24642D01*
Y24531D01*
Y24494D01*
X241346Y24087D01*
X241420Y23753D01*
X241531Y23494D01*
X241568Y23457D01*
Y23420D01*
X241790Y23087D01*
X242013Y22828D01*
X242235Y22643D01*
X242272Y22569D01*
X242309D01*
X242716Y22346D01*
X243161Y22198D01*
X243346Y22124D01*
X243494Y22087D01*
X243605Y22050D01*
X243642D01*
X244308Y21939D01*
X244642Y21902D01*
X244938D01*
X245234Y21865D01*
X246234D01*
X246752Y21902D01*
X246975D01*
X247123Y21939D01*
X247271D01*
X247863Y22050D01*
X248160Y22087D01*
X248419Y22124D01*
X248641Y22161D01*
X248789Y22198D01*
X248900Y22235D01*
X248937D01*
X249567Y22383D01*
X249863Y22457D01*
X250122Y22494D01*
X250307Y22569D01*
X250492Y22605D01*
X250604Y22643D01*
X250641D01*
X251233Y22828D01*
X251492Y22902D01*
X251714Y22976D01*
X251900Y23050D01*
X252048Y23124D01*
X252159Y23161D01*
X252196D01*
Y19125D01*
X251048Y18828D01*
X250529Y18717D01*
X250048Y18606D01*
X249641Y18532D01*
X249307Y18495D01*
X249122Y18458D01*
X249048D01*
X247826Y18347D01*
X247271Y18273D01*
X246752D01*
X246345Y18236D01*
X245715D01*
X245012Y18273D01*
X244345Y18310D01*
X243753Y18384D01*
X243197Y18458D01*
X242790Y18532D01*
X242457Y18569D01*
X242235Y18643D01*
X242161D01*
X241568Y18828D01*
X241013Y19014D01*
X240531Y19236D01*
X240124Y19421D01*
X239754Y19606D01*
X239531Y19754D01*
X239346Y19865D01*
X239309Y19902D01*
X238902Y20236D01*
X238532Y20606D01*
X238198Y20939D01*
X237939Y21309D01*
X237717Y21606D01*
X237569Y21828D01*
X237495Y21976D01*
X237458Y22050D01*
X237236Y22569D01*
X237088Y23087D01*
X236939Y23605D01*
X236865Y24124D01*
X236828Y24531D01*
X236791Y24864D01*
Y25087D01*
Y25124D01*
Y25161D01*
X236828Y25642D01*
X236865Y26086D01*
X236939Y26457D01*
X237014Y26827D01*
X237125Y27086D01*
X237199Y27271D01*
X237236Y27419D01*
X237273Y27457D01*
X237458Y27827D01*
X237643Y28160D01*
X237865Y28419D01*
X238050Y28678D01*
X238235Y28901D01*
X238347Y29049D01*
X238458Y29123D01*
X238495Y29160D01*
X239087Y29678D01*
X239606Y30049D01*
X239865Y30197D01*
X240050Y30308D01*
X240161Y30345D01*
X240198Y30382D01*
X240902Y30752D01*
X241235Y30900D01*
X241568Y31011D01*
X241827Y31122D01*
X242013Y31196D01*
X242161Y31271D01*
X242198D01*
X242938Y31567D01*
X243272Y31678D01*
X243568Y31789D01*
X243790Y31900D01*
X243975Y31937D01*
X244123Y32011D01*
X244160D01*
X244827Y32270D01*
X245123Y32381D01*
X245382Y32493D01*
X245604Y32567D01*
X245753Y32641D01*
X245864Y32715D01*
X245901D01*
X246382Y33011D01*
X246752Y33307D01*
X246901Y33418D01*
X247012Y33529D01*
X247049Y33566D01*
X247086Y33603D01*
X247234Y33789D01*
X247345Y34011D01*
X247456Y34381D01*
X247493Y34566D01*
X247530Y34677D01*
Y34751D01*
Y34788D01*
X247493Y35196D01*
X247419Y35492D01*
X247382Y35714D01*
X247345Y35751D01*
Y35788D01*
X247123Y36084D01*
X246901Y36344D01*
X246715Y36492D01*
X246678Y36529D01*
X246641D01*
X246234Y36751D01*
X245864Y36899D01*
X245678Y36973D01*
X245530Y37010D01*
X245456Y37047D01*
X245419D01*
X244790Y37158D01*
X244197Y37195D01*
X243938Y37232D01*
X243086D01*
X242679Y37195D01*
X242531D01*
X242383Y37158D01*
X242272D01*
X241753Y37084D01*
X241309Y37010D01*
X241161Y36973D01*
X241013D01*
X240939Y36936D01*
X240902D01*
X240383Y36862D01*
X239976Y36751D01*
X239791Y36714D01*
X239680Y36677D01*
X239606Y36640D01*
X239569D01*
X239124Y36529D01*
X238754Y36418D01*
X238606Y36381D01*
X238495Y36344D01*
X238421Y36307D01*
X238384D01*
Y40047D01*
X238791Y40121D01*
X239198Y40195D01*
X239346Y40232D01*
X239494Y40269D01*
X239606D01*
X240087Y40380D01*
X240494Y40454D01*
X240680D01*
X240828Y40491D01*
X240939D01*
X241420Y40565D01*
X241901Y40639D01*
X242087D01*
X242235Y40676D01*
X242346D01*
X242864Y40713D01*
X243272Y40750D01*
X243679D01*
X244494Y40713D01*
D02*
G37*
G36*
X188689Y35862D02*
X189356Y35788D01*
X189948Y35677D01*
X190467Y35566D01*
X190911Y35455D01*
X191244Y35344D01*
X191430Y35270D01*
X191504Y35233D01*
X192059Y34973D01*
X192541Y34677D01*
X192985Y34381D01*
X193355Y34085D01*
X193688Y33826D01*
X193911Y33603D01*
X194059Y33455D01*
X194096Y33418D01*
X194466Y32974D01*
X194799Y32493D01*
X195096Y32011D01*
X195318Y31567D01*
X195503Y31196D01*
X195651Y30900D01*
X195725Y30678D01*
X195762Y30641D01*
Y30604D01*
X195947Y29974D01*
X196095Y29345D01*
X196169Y28752D01*
X196244Y28197D01*
X196281Y27679D01*
X196318Y27308D01*
Y27160D01*
Y27049D01*
Y27012D01*
Y26975D01*
X196281Y26197D01*
X196244Y25457D01*
X196169Y24790D01*
X196058Y24235D01*
X195947Y23753D01*
X195873Y23420D01*
X195836Y23198D01*
X195799Y23161D01*
Y23124D01*
X195577Y22532D01*
X195318Y22013D01*
X195059Y21532D01*
X194799Y21161D01*
X194577Y20828D01*
X194392Y20569D01*
X194244Y20421D01*
X194207Y20384D01*
X193799Y20013D01*
X193392Y19680D01*
X192948Y19384D01*
X192541Y19162D01*
X192207Y18977D01*
X191948Y18866D01*
X191763Y18791D01*
X191689Y18754D01*
X191133Y18569D01*
X190541Y18458D01*
X189985Y18347D01*
X189430Y18310D01*
X188986Y18273D01*
X188652Y18236D01*
X188319D01*
X187578Y18273D01*
X186912Y18347D01*
X186319Y18421D01*
X185801Y18569D01*
X185394Y18680D01*
X185060Y18754D01*
X184875Y18828D01*
X184801Y18866D01*
X184246Y19125D01*
X183727Y19421D01*
X183283Y19717D01*
X182913Y20013D01*
X182579Y20273D01*
X182357Y20495D01*
X182209Y20643D01*
X182172Y20680D01*
X181802Y21161D01*
X181468Y21643D01*
X181172Y22087D01*
X180950Y22569D01*
X180765Y22939D01*
X180654Y23272D01*
X180580Y23457D01*
X180543Y23531D01*
X180358Y24161D01*
X180210Y24790D01*
X180098Y25420D01*
X180024Y25975D01*
X179987Y26494D01*
X179950Y26864D01*
Y27012D01*
Y27123D01*
Y27160D01*
Y27197D01*
X179987Y27975D01*
X180024Y28678D01*
X180135Y29308D01*
X180210Y29863D01*
X180321Y30308D01*
X180432Y30641D01*
X180469Y30863D01*
X180506Y30937D01*
X180728Y31530D01*
X180987Y32048D01*
X181246Y32493D01*
X181506Y32900D01*
X181728Y33233D01*
X181913Y33455D01*
X182061Y33603D01*
X182098Y33641D01*
X182505Y34048D01*
X182913Y34381D01*
X183357Y34640D01*
X183727Y34900D01*
X184098Y35085D01*
X184357Y35196D01*
X184542Y35270D01*
X184616Y35307D01*
X185171Y35492D01*
X185764Y35640D01*
X186319Y35751D01*
X186838Y35825D01*
X187319Y35862D01*
X187653Y35899D01*
X187986D01*
X188689Y35862D01*
D02*
G37*
G36*
X224423Y35862D02*
X224720Y35825D01*
X224942Y35788D01*
X225164Y35751D01*
X225312Y35714D01*
X225423Y35677D01*
X225460D01*
X225978Y35492D01*
X226423Y35307D01*
X226608Y35233D01*
X226756Y35159D01*
X226830Y35122D01*
X226867Y35085D01*
X227312Y34788D01*
X227682Y34492D01*
X227830Y34381D01*
X227941Y34270D01*
X228015Y34233D01*
X228052Y34196D01*
X228460Y33789D01*
X228793Y33418D01*
X228941Y33233D01*
X229052Y33122D01*
X229089Y33048D01*
X229126Y33011D01*
X229200Y35529D01*
X232718D01*
Y11978D01*
X228645D01*
Y18606D01*
X228274Y18532D01*
X227904Y18458D01*
X227756D01*
X227645Y18421D01*
X227534D01*
X227052Y18347D01*
X226645Y18310D01*
X226238D01*
X225571Y18347D01*
X224905Y18384D01*
X224349Y18458D01*
X223831Y18569D01*
X223387Y18680D01*
X223053Y18754D01*
X222868Y18791D01*
X222794Y18828D01*
X222201Y19051D01*
X221683Y19310D01*
X221202Y19606D01*
X220794Y19865D01*
X220461Y20124D01*
X220202Y20310D01*
X220054Y20458D01*
X220017Y20495D01*
X219609Y20939D01*
X219239Y21421D01*
X218906Y21865D01*
X218647Y22309D01*
X218424Y22717D01*
X218276Y23013D01*
X218202Y23235D01*
X218165Y23309D01*
X217943Y23976D01*
X217795Y24642D01*
X217647Y25346D01*
X217573Y25975D01*
X217536Y26531D01*
Y26753D01*
X217499Y26938D01*
Y27123D01*
Y27234D01*
Y27308D01*
Y27345D01*
Y28049D01*
X217573Y28716D01*
X217647Y29308D01*
X217721Y29826D01*
X217795Y30271D01*
X217869Y30604D01*
X217906Y30789D01*
X217943Y30863D01*
X218128Y31456D01*
X218313Y31974D01*
X218498Y32419D01*
X218721Y32826D01*
X218869Y33122D01*
X219017Y33381D01*
X219128Y33529D01*
X219165Y33566D01*
X219461Y33974D01*
X219795Y34307D01*
X220128Y34603D01*
X220424Y34825D01*
X220720Y35011D01*
X220942Y35159D01*
X221091Y35233D01*
X221128Y35270D01*
X221572Y35492D01*
X222016Y35640D01*
X222461Y35751D01*
X222868Y35825D01*
X223238Y35862D01*
X223498Y35899D01*
X223757D01*
X224423Y35862D01*
D02*
G37*
G36*
X193659Y16184D02*
X193784Y16156D01*
X193881Y16128D01*
X193895Y16114D01*
X193909D01*
X194034Y16045D01*
X194131Y15976D01*
X194200Y15920D01*
X194228Y15892D01*
X194325Y15781D01*
X194381Y15684D01*
X194422Y15601D01*
X194436Y15587D01*
Y15573D01*
X194478Y15434D01*
X194492Y15309D01*
X194506Y15254D01*
Y15226D01*
Y15198D01*
Y15184D01*
X194492Y15032D01*
X194464Y14907D01*
X194450Y14824D01*
X194436Y14810D01*
Y14796D01*
X194381Y14671D01*
X194311Y14574D01*
X194256Y14504D01*
X194228Y14477D01*
X194117Y14393D01*
X194020Y14324D01*
X193937Y14282D01*
X193923Y14268D01*
X193909D01*
X193770Y14227D01*
X193645Y14213D01*
X193590Y14199D01*
X193506D01*
X193354Y14213D01*
X193229Y14241D01*
X193145Y14254D01*
X193131Y14268D01*
X193118D01*
X192993Y14338D01*
X192896Y14407D01*
X192826Y14463D01*
X192798Y14477D01*
X192701Y14588D01*
X192646Y14685D01*
X192604Y14768D01*
X192590Y14782D01*
Y14796D01*
X192535Y14935D01*
X192521Y15059D01*
X192507Y15115D01*
Y15143D01*
Y15171D01*
Y15184D01*
X192521Y15337D01*
X192549Y15462D01*
X192576Y15545D01*
X192590Y15559D01*
Y15573D01*
X192646Y15698D01*
X192715Y15795D01*
X192771Y15865D01*
X192798Y15892D01*
X192909Y15990D01*
X193007Y16059D01*
X193090Y16101D01*
X193104Y16114D01*
X193118D01*
X193256Y16170D01*
X193381Y16184D01*
X193437Y16198D01*
X193506D01*
X193659Y16184D01*
D02*
G37*
G36*
X187399Y13561D02*
X187524Y13547D01*
X187621Y13519D01*
X187635Y13505D01*
X187649D01*
X187774Y13449D01*
X187885Y13394D01*
X187968Y13352D01*
X187982Y13325D01*
X187996D01*
X188107Y13214D01*
X188204Y13116D01*
X188260Y13033D01*
X188287Y13005D01*
Y12991D01*
X188385Y12839D01*
X188468Y12686D01*
X188496Y12617D01*
X188523Y12561D01*
X188551Y12533D01*
Y12519D01*
X188579Y13449D01*
X189703D01*
Y7106D01*
X188385D01*
Y11215D01*
X188301Y11437D01*
X188218Y11631D01*
X188149Y11784D01*
X188079Y11909D01*
X188024Y12006D01*
X187982Y12061D01*
X187968Y12103D01*
X187954Y12117D01*
X187885Y12200D01*
X187802Y12270D01*
X187746Y12311D01*
X187691Y12353D01*
X187607Y12381D01*
X187580D01*
X187496Y12367D01*
X187441Y12353D01*
X187399Y12325D01*
X187385Y12311D01*
X187344Y12256D01*
X187302Y12200D01*
X187288Y12159D01*
X187274Y12131D01*
X187246Y12034D01*
X187232Y11950D01*
X187219Y11867D01*
Y11853D01*
Y11839D01*
X187205Y11701D01*
Y11562D01*
Y11506D01*
Y11465D01*
Y11437D01*
Y11423D01*
Y7106D01*
X185900D01*
Y11215D01*
X185817Y11437D01*
X185733Y11631D01*
X185664Y11784D01*
X185609Y11909D01*
X185553Y12006D01*
X185511Y12061D01*
X185497Y12103D01*
X185484Y12117D01*
X185414Y12200D01*
X185345Y12270D01*
X185275Y12311D01*
X185220Y12353D01*
X185123Y12381D01*
X185095D01*
X185012Y12367D01*
X184956Y12353D01*
X184915Y12325D01*
X184901Y12311D01*
X184859Y12256D01*
X184817Y12200D01*
X184803Y12159D01*
X184790Y12131D01*
X184762Y12034D01*
X184748Y11950D01*
X184734Y11867D01*
Y11853D01*
Y11839D01*
X184720Y11701D01*
Y11562D01*
Y11506D01*
Y11465D01*
Y11437D01*
Y11423D01*
Y7106D01*
X183402D01*
Y11645D01*
X183415Y11978D01*
X183457Y12270D01*
X183513Y12519D01*
X183568Y12728D01*
X183624Y12880D01*
X183679Y12991D01*
X183721Y13061D01*
X183735Y13089D01*
X183874Y13255D01*
X184040Y13366D01*
X184207Y13449D01*
X184373Y13519D01*
X184526Y13547D01*
X184651Y13561D01*
X184734Y13574D01*
X184762D01*
X184928Y13561D01*
X185053Y13547D01*
X185109Y13533D01*
X185151Y13519D01*
X185164Y13505D01*
X185178D01*
X185303Y13449D01*
X185414Y13394D01*
X185497Y13352D01*
X185511Y13325D01*
X185525D01*
X185636Y13214D01*
X185733Y13116D01*
X185803Y13033D01*
X185817Y13005D01*
X185831Y12991D01*
X185928Y12839D01*
X186025Y12686D01*
X186067Y12617D01*
X186094Y12561D01*
X186108Y12533D01*
X186122Y12519D01*
X186150Y12686D01*
X186191Y12839D01*
X186247Y12978D01*
X186303Y13089D01*
X186344Y13172D01*
X186400Y13227D01*
X186427Y13269D01*
X186441Y13283D01*
X186552Y13380D01*
X186677Y13449D01*
X186816Y13505D01*
X186941Y13533D01*
X187066Y13561D01*
X187163Y13574D01*
X187246D01*
X187399Y13561D01*
D02*
G37*
G36*
X225000Y7106D02*
X223695D01*
X223556Y11756D01*
X223515Y13561D01*
X223168Y12311D01*
X222349Y9535D01*
X221377D01*
X220475Y12311D01*
X220087Y13561D01*
X220031Y11715D01*
X219878Y7106D01*
X218518D01*
X218921Y15268D01*
X220697D01*
X221447Y12867D01*
X221794Y11631D01*
X222141Y12936D01*
X222863Y15268D01*
X224598D01*
X225000Y7106D01*
D02*
G37*
G36*
X217366Y9188D02*
Y9008D01*
X217352Y8841D01*
X217324Y8675D01*
X217311Y8550D01*
X217283Y8425D01*
X217269Y8342D01*
X217255Y8286D01*
Y8272D01*
X217199Y8133D01*
X217144Y7995D01*
X217088Y7870D01*
X217033Y7773D01*
X216977Y7689D01*
X216936Y7620D01*
X216908Y7578D01*
X216894Y7564D01*
X216686Y7370D01*
X216492Y7231D01*
X216408Y7190D01*
X216339Y7148D01*
X216297Y7134D01*
X216283Y7120D01*
X216145Y7065D01*
X215992Y7037D01*
X215839Y7009D01*
X215714Y6981D01*
X215589D01*
X215506Y6967D01*
X215423D01*
X215173Y6981D01*
X215076Y6995D01*
X214979Y7009D01*
X214909Y7023D01*
X214840Y7037D01*
X214812Y7051D01*
X214798D01*
X214590Y7106D01*
X214423Y7176D01*
X214354Y7217D01*
X214312Y7231D01*
X214285Y7259D01*
X214271D01*
X214090Y7370D01*
X213951Y7481D01*
X213896Y7523D01*
X213854Y7564D01*
X213841Y7578D01*
X213827Y7592D01*
X213674Y7745D01*
X213535Y7897D01*
X213493Y7953D01*
X213452Y7995D01*
X213424Y8022D01*
X213410Y8036D01*
X213382Y7106D01*
X212050D01*
Y13450D01*
X213577D01*
Y9438D01*
X213729Y9244D01*
X213868Y9077D01*
X213993Y8925D01*
X214104Y8800D01*
X214201Y8703D01*
X214271Y8633D01*
X214326Y8591D01*
X214340Y8578D01*
X214465Y8480D01*
X214604Y8397D01*
X214715Y8342D01*
X214826Y8314D01*
X214923Y8286D01*
X214992Y8272D01*
X215062D01*
X215201Y8286D01*
X215326Y8314D01*
X215423Y8355D01*
X215506Y8411D01*
X215576Y8453D01*
X215617Y8494D01*
X215645Y8522D01*
X215659Y8536D01*
X215714Y8647D01*
X215756Y8772D01*
X215811Y9022D01*
X215825Y9133D01*
X215839Y9230D01*
Y9285D01*
Y9313D01*
Y13450D01*
X217366D01*
Y9188D01*
D02*
G37*
G36*
X202084Y15059D02*
Y13450D01*
X203778D01*
Y12256D01*
X202084D01*
Y9161D01*
Y8952D01*
X202056Y8772D01*
X202043Y8605D01*
X202015Y8453D01*
X201987Y8342D01*
X201973Y8245D01*
X201945Y8189D01*
Y8175D01*
X201890Y8022D01*
X201820Y7897D01*
X201751Y7773D01*
X201682Y7675D01*
X201612Y7592D01*
X201557Y7537D01*
X201529Y7495D01*
X201515Y7481D01*
X201404Y7384D01*
X201279Y7315D01*
X201029Y7190D01*
X200932Y7148D01*
X200835Y7120D01*
X200779Y7092D01*
X200765D01*
X200585Y7051D01*
X200405Y7023D01*
X200224Y6995D01*
X200058Y6981D01*
X199905D01*
X199794Y6967D01*
X199683D01*
X199405Y6981D01*
X199267Y6995D01*
X199142Y7009D01*
X199044D01*
X198961Y7023D01*
X198906Y7037D01*
X198892D01*
X198586Y7079D01*
X198448Y7106D01*
X198323Y7134D01*
X198212Y7148D01*
X198128Y7162D01*
X198073Y7176D01*
X198059D01*
Y8397D01*
X198295Y8342D01*
X198406Y8314D01*
X198503Y8286D01*
X198600Y8272D01*
X198670Y8258D01*
X198711Y8245D01*
X198725D01*
X198989Y8217D01*
X199100Y8203D01*
X199211D01*
X199308Y8189D01*
X199447D01*
X199655Y8203D01*
X199822Y8231D01*
X199960Y8272D01*
X200085Y8328D01*
X200169Y8369D01*
X200224Y8411D01*
X200266Y8439D01*
X200280Y8453D01*
X200363Y8564D01*
X200418Y8703D01*
X200460Y8827D01*
X200488Y8966D01*
X200502Y9091D01*
X200516Y9188D01*
Y9244D01*
Y9272D01*
Y12256D01*
X198059D01*
Y13450D01*
X200516D01*
Y15476D01*
X202084Y15059D01*
D02*
G37*
G36*
X179668Y13574D02*
X179904Y13547D01*
X180112Y13505D01*
X180292Y13463D01*
X180445Y13422D01*
X180556Y13380D01*
X180626Y13352D01*
X180653Y13338D01*
X180848Y13241D01*
X181028Y13116D01*
X181195Y13005D01*
X181333Y12894D01*
X181445Y12783D01*
X181528Y12700D01*
X181583Y12644D01*
X181597Y12630D01*
X181736Y12450D01*
X181847Y12270D01*
X181958Y12089D01*
X182041Y11923D01*
X182111Y11770D01*
X182152Y11659D01*
X182180Y11576D01*
X182194Y11562D01*
Y11548D01*
X182264Y11312D01*
X182319Y11062D01*
X182347Y10826D01*
X182375Y10618D01*
X182388Y10424D01*
X182402Y10271D01*
Y10215D01*
Y10188D01*
Y10160D01*
Y10146D01*
X182388Y9868D01*
X182375Y9605D01*
X182333Y9369D01*
X182291Y9174D01*
X182264Y9008D01*
X182222Y8883D01*
X182208Y8800D01*
X182194Y8786D01*
Y8772D01*
X182111Y8564D01*
X182014Y8369D01*
X181903Y8189D01*
X181805Y8050D01*
X181722Y7925D01*
X181653Y7842D01*
X181597Y7786D01*
X181583Y7773D01*
X181431Y7634D01*
X181264Y7509D01*
X181098Y7398D01*
X180945Y7315D01*
X180806Y7245D01*
X180709Y7203D01*
X180640Y7176D01*
X180612Y7162D01*
X180390Y7092D01*
X180168Y7051D01*
X179946Y7009D01*
X179751Y6995D01*
X179571Y6981D01*
X179432Y6967D01*
X179099D01*
X178904Y6981D01*
X178835D01*
X178780Y6995D01*
X178724D01*
X178502Y7023D01*
X178391D01*
X178308Y7037D01*
X178224Y7051D01*
X178169Y7065D01*
X178113D01*
X177891Y7092D01*
X177794Y7106D01*
X177711Y7120D01*
X177628Y7134D01*
X177572Y7148D01*
X177530D01*
X177322Y7190D01*
X177156Y7245D01*
X177086Y7259D01*
X177031Y7273D01*
X177003Y7287D01*
X176989D01*
Y8494D01*
X177197Y8439D01*
X177406Y8383D01*
X177586Y8342D01*
X177752Y8314D01*
X177891Y8286D01*
X177988Y8272D01*
X178058Y8258D01*
X178086D01*
X178280Y8231D01*
X178460Y8217D01*
X178627Y8203D01*
X178780D01*
X178904Y8189D01*
X179071D01*
X179349Y8203D01*
X179474Y8231D01*
X179585Y8245D01*
X179682Y8272D01*
X179751Y8286D01*
X179793Y8300D01*
X179807D01*
X180029Y8397D01*
X180126Y8453D01*
X180209Y8508D01*
X180265Y8550D01*
X180320Y8591D01*
X180348Y8605D01*
X180362Y8619D01*
X180515Y8800D01*
X180626Y8966D01*
X180667Y9036D01*
X180695Y9091D01*
X180723Y9133D01*
Y9147D01*
X180792Y9397D01*
X180820Y9521D01*
X180834Y9646D01*
Y9743D01*
X180848Y9827D01*
Y9882D01*
Y9896D01*
X176684D01*
X176670Y10063D01*
Y10202D01*
X176656Y10271D01*
Y10313D01*
Y10340D01*
Y10354D01*
X176642Y10521D01*
Y10646D01*
Y10729D01*
Y10757D01*
X176656Y10979D01*
X176670Y11201D01*
X176698Y11395D01*
X176739Y11562D01*
X176781Y11701D01*
X176809Y11812D01*
X176822Y11867D01*
X176836Y11895D01*
X176906Y12075D01*
X176989Y12256D01*
X177086Y12409D01*
X177170Y12533D01*
X177239Y12644D01*
X177308Y12714D01*
X177350Y12769D01*
X177364Y12783D01*
X177503Y12922D01*
X177641Y13033D01*
X177794Y13130D01*
X177933Y13214D01*
X178058Y13283D01*
X178155Y13325D01*
X178210Y13352D01*
X178238Y13366D01*
X178433Y13436D01*
X178641Y13491D01*
X178835Y13533D01*
X179016Y13561D01*
X179182Y13574D01*
X179307Y13588D01*
X179418D01*
X179668Y13574D01*
D02*
G37*
G36*
X173935Y15059D02*
Y13449D01*
X175629D01*
Y12256D01*
X173935D01*
Y9161D01*
Y8952D01*
X173908Y8772D01*
X173894Y8605D01*
X173866Y8453D01*
X173838Y8342D01*
X173824Y8245D01*
X173797Y8189D01*
Y8175D01*
X173741Y8022D01*
X173672Y7897D01*
X173602Y7773D01*
X173533Y7675D01*
X173464Y7592D01*
X173408Y7537D01*
X173380Y7495D01*
X173366Y7481D01*
X173255Y7384D01*
X173130Y7315D01*
X172881Y7190D01*
X172783Y7148D01*
X172686Y7120D01*
X172631Y7092D01*
X172617D01*
X172436Y7051D01*
X172256Y7023D01*
X172076Y6995D01*
X171909Y6981D01*
X171756D01*
X171645Y6967D01*
X171534D01*
X171257Y6981D01*
X171118Y6995D01*
X170993Y7009D01*
X170896D01*
X170812Y7023D01*
X170757Y7037D01*
X170743D01*
X170438Y7079D01*
X170299Y7106D01*
X170174Y7134D01*
X170063Y7148D01*
X169980Y7162D01*
X169924Y7176D01*
X169910D01*
Y8397D01*
X170146Y8342D01*
X170257Y8314D01*
X170354Y8286D01*
X170452Y8272D01*
X170521Y8258D01*
X170563Y8245D01*
X170577D01*
X170840Y8217D01*
X170951Y8203D01*
X171062D01*
X171160Y8189D01*
X171298D01*
X171507Y8203D01*
X171673Y8231D01*
X171812Y8272D01*
X171937Y8328D01*
X172020Y8369D01*
X172076Y8411D01*
X172117Y8439D01*
X172131Y8453D01*
X172214Y8564D01*
X172270Y8703D01*
X172311Y8827D01*
X172339Y8966D01*
X172353Y9091D01*
X172367Y9188D01*
Y9244D01*
Y9272D01*
Y12256D01*
X169910D01*
Y13449D01*
X172367D01*
Y15476D01*
X173935Y15059D01*
D02*
G37*
G36*
X165594Y13574D02*
X165830Y13547D01*
X166038Y13505D01*
X166218Y13463D01*
X166371Y13422D01*
X166482Y13380D01*
X166551Y13352D01*
X166579Y13338D01*
X166773Y13241D01*
X166954Y13116D01*
X167120Y13005D01*
X167259Y12894D01*
X167370Y12783D01*
X167454Y12700D01*
X167509Y12644D01*
X167523Y12630D01*
X167662Y12450D01*
X167773Y12270D01*
X167884Y12089D01*
X167967Y11923D01*
X168036Y11770D01*
X168078Y11659D01*
X168106Y11576D01*
X168120Y11562D01*
Y11548D01*
X168189Y11312D01*
X168245Y11062D01*
X168272Y10826D01*
X168300Y10618D01*
X168314Y10424D01*
X168328Y10271D01*
Y10215D01*
Y10188D01*
Y10160D01*
Y10146D01*
X168314Y9868D01*
X168300Y9605D01*
X168259Y9369D01*
X168217Y9174D01*
X168189Y9008D01*
X168148Y8883D01*
X168134Y8800D01*
X168120Y8786D01*
Y8772D01*
X168036Y8564D01*
X167939Y8369D01*
X167828Y8189D01*
X167731Y8050D01*
X167648Y7925D01*
X167578Y7842D01*
X167523Y7786D01*
X167509Y7773D01*
X167356Y7634D01*
X167190Y7509D01*
X167023Y7398D01*
X166871Y7315D01*
X166732Y7245D01*
X166635Y7203D01*
X166565Y7176D01*
X166537Y7162D01*
X166315Y7092D01*
X166093Y7051D01*
X165871Y7009D01*
X165677Y6995D01*
X165496Y6981D01*
X165358Y6967D01*
X165024D01*
X164830Y6981D01*
X164761D01*
X164705Y6995D01*
X164650D01*
X164428Y7023D01*
X164317D01*
X164233Y7037D01*
X164150Y7051D01*
X164095Y7065D01*
X164039D01*
X163817Y7092D01*
X163720Y7106D01*
X163637Y7120D01*
X163553Y7134D01*
X163498Y7148D01*
X163456D01*
X163248Y7190D01*
X163081Y7245D01*
X163012Y7259D01*
X162956Y7273D01*
X162929Y7287D01*
X162915D01*
Y8494D01*
X163123Y8439D01*
X163331Y8383D01*
X163512Y8342D01*
X163678Y8314D01*
X163817Y8286D01*
X163914Y8272D01*
X163984Y8258D01*
X164011D01*
X164206Y8231D01*
X164386Y8217D01*
X164553Y8203D01*
X164705D01*
X164830Y8189D01*
X164997D01*
X165274Y8203D01*
X165399Y8231D01*
X165510Y8245D01*
X165608Y8272D01*
X165677Y8286D01*
X165718Y8300D01*
X165732D01*
X165954Y8397D01*
X166052Y8453D01*
X166135Y8508D01*
X166190Y8550D01*
X166246Y8591D01*
X166274Y8605D01*
X166288Y8619D01*
X166440Y8800D01*
X166551Y8966D01*
X166593Y9036D01*
X166621Y9091D01*
X166648Y9133D01*
Y9147D01*
X166718Y9397D01*
X166746Y9521D01*
X166760Y9646D01*
Y9743D01*
X166773Y9827D01*
Y9882D01*
Y9896D01*
X162609D01*
X162595Y10063D01*
Y10202D01*
X162582Y10271D01*
Y10313D01*
Y10340D01*
Y10354D01*
X162568Y10521D01*
Y10646D01*
Y10729D01*
Y10757D01*
X162582Y10979D01*
X162595Y11201D01*
X162623Y11395D01*
X162665Y11562D01*
X162707Y11701D01*
X162734Y11812D01*
X162748Y11867D01*
X162762Y11895D01*
X162831Y12075D01*
X162915Y12256D01*
X163012Y12409D01*
X163095Y12533D01*
X163165Y12644D01*
X163234Y12714D01*
X163276Y12769D01*
X163289Y12783D01*
X163428Y12922D01*
X163567Y13033D01*
X163720Y13130D01*
X163859Y13214D01*
X163984Y13283D01*
X164081Y13325D01*
X164136Y13352D01*
X164164Y13366D01*
X164358Y13436D01*
X164567Y13491D01*
X164761Y13533D01*
X164941Y13561D01*
X165108Y13574D01*
X165233Y13588D01*
X165344D01*
X165594Y13574D01*
D02*
G37*
G36*
X144482D02*
X144718Y13547D01*
X144926Y13505D01*
X145107Y13463D01*
X145259Y13422D01*
X145370Y13380D01*
X145440Y13352D01*
X145468Y13338D01*
X145662Y13241D01*
X145842Y13116D01*
X146009Y13005D01*
X146148Y12894D01*
X146259Y12783D01*
X146342Y12700D01*
X146398Y12644D01*
X146411Y12630D01*
X146550Y12450D01*
X146661Y12270D01*
X146772Y12089D01*
X146856Y11923D01*
X146925Y11770D01*
X146967Y11659D01*
X146994Y11576D01*
X147008Y11562D01*
Y11548D01*
X147078Y11312D01*
X147133Y11062D01*
X147161Y10826D01*
X147189Y10618D01*
X147203Y10424D01*
X147216Y10271D01*
Y10215D01*
Y10188D01*
Y10160D01*
Y10146D01*
X147203Y9868D01*
X147189Y9605D01*
X147147Y9369D01*
X147105Y9174D01*
X147078Y9008D01*
X147036Y8883D01*
X147022Y8800D01*
X147008Y8786D01*
Y8772D01*
X146925Y8564D01*
X146828Y8369D01*
X146717Y8189D01*
X146620Y8050D01*
X146536Y7925D01*
X146467Y7842D01*
X146411Y7786D01*
X146398Y7773D01*
X146245Y7634D01*
X146078Y7509D01*
X145912Y7398D01*
X145759Y7315D01*
X145620Y7245D01*
X145523Y7203D01*
X145454Y7176D01*
X145426Y7162D01*
X145204Y7092D01*
X144982Y7051D01*
X144760Y7009D01*
X144565Y6995D01*
X144385Y6981D01*
X144246Y6967D01*
X143913D01*
X143719Y6981D01*
X143649D01*
X143594Y6995D01*
X143538D01*
X143316Y7023D01*
X143205D01*
X143122Y7037D01*
X143039Y7051D01*
X142983Y7065D01*
X142928D01*
X142706Y7092D01*
X142608Y7106D01*
X142525Y7120D01*
X142442Y7134D01*
X142386Y7148D01*
X142345D01*
X142136Y7190D01*
X141970Y7245D01*
X141900Y7259D01*
X141845Y7273D01*
X141817Y7287D01*
X141803D01*
Y8494D01*
X142011Y8439D01*
X142220Y8383D01*
X142400Y8342D01*
X142567Y8314D01*
X142706Y8286D01*
X142803Y8272D01*
X142872Y8258D01*
X142900D01*
X143094Y8231D01*
X143275Y8217D01*
X143441Y8203D01*
X143594D01*
X143719Y8189D01*
X143885D01*
X144163Y8203D01*
X144288Y8231D01*
X144399Y8245D01*
X144496Y8272D01*
X144565Y8286D01*
X144607Y8300D01*
X144621D01*
X144843Y8397D01*
X144940Y8453D01*
X145023Y8508D01*
X145079Y8550D01*
X145134Y8591D01*
X145162Y8605D01*
X145176Y8619D01*
X145329Y8800D01*
X145440Y8966D01*
X145482Y9036D01*
X145509Y9091D01*
X145537Y9133D01*
Y9147D01*
X145606Y9397D01*
X145634Y9521D01*
X145648Y9646D01*
Y9743D01*
X145662Y9827D01*
Y9882D01*
Y9896D01*
X141498D01*
X141484Y10063D01*
Y10202D01*
X141470Y10271D01*
Y10313D01*
Y10340D01*
Y10354D01*
X141456Y10521D01*
Y10646D01*
Y10729D01*
Y10757D01*
X141470Y10979D01*
X141484Y11201D01*
X141512Y11395D01*
X141553Y11562D01*
X141595Y11701D01*
X141623Y11812D01*
X141637Y11867D01*
X141651Y11895D01*
X141720Y12075D01*
X141803Y12256D01*
X141900Y12409D01*
X141984Y12533D01*
X142053Y12644D01*
X142122Y12714D01*
X142164Y12769D01*
X142178Y12783D01*
X142317Y12922D01*
X142456Y13033D01*
X142608Y13130D01*
X142747Y13214D01*
X142872Y13283D01*
X142969Y13325D01*
X143025Y13352D01*
X143052Y13366D01*
X143247Y13436D01*
X143455Y13491D01*
X143649Y13533D01*
X143830Y13561D01*
X143996Y13574D01*
X144121Y13588D01*
X144232D01*
X144482Y13574D01*
D02*
G37*
G36*
X210065Y14740D02*
X208275D01*
Y8300D01*
X210287D01*
Y7106D01*
X204888D01*
Y8300D01*
X206706D01*
Y15934D01*
X210065D01*
Y14740D01*
D02*
G37*
G36*
X195991Y12256D02*
X194200D01*
Y8300D01*
X196213D01*
Y7106D01*
X190800D01*
Y8300D01*
X192632D01*
Y13449D01*
X195991D01*
Y12256D01*
D02*
G37*
G36*
X157654Y13574D02*
X157765Y13561D01*
X157849Y13547D01*
X157932Y13533D01*
X157987Y13519D01*
X158029Y13505D01*
X158043D01*
X158251Y13436D01*
X158418Y13366D01*
X158487Y13338D01*
X158543Y13311D01*
X158570Y13297D01*
X158584Y13283D01*
X158751Y13172D01*
X158890Y13061D01*
X158945Y13019D01*
X158987Y12978D01*
X159001Y12964D01*
X159014Y12950D01*
X159153Y12797D01*
X159264Y12658D01*
X159306Y12603D01*
X159334Y12561D01*
X159348Y12533D01*
X159362Y12519D01*
X159431Y13449D01*
X160805D01*
Y7106D01*
X159237D01*
Y11118D01*
X159084Y11340D01*
X158945Y11520D01*
X158806Y11673D01*
X158695Y11798D01*
X158598Y11895D01*
X158515Y11964D01*
X158473Y12006D01*
X158459Y12020D01*
X158320Y12117D01*
X158196Y12186D01*
X158084Y12242D01*
X157974Y12270D01*
X157890Y12297D01*
X157821Y12311D01*
X157765D01*
X157626Y12297D01*
X157515Y12270D01*
X157446Y12242D01*
X157418Y12228D01*
X157321Y12159D01*
X157238Y12089D01*
X157182Y12020D01*
X157168Y12006D01*
Y11992D01*
X157099Y11853D01*
X157044Y11728D01*
X157030Y11659D01*
Y11617D01*
X157016Y11590D01*
Y11576D01*
X156988Y11381D01*
X156974Y11187D01*
Y11104D01*
Y11034D01*
Y10993D01*
Y10979D01*
X155447D01*
Y11215D01*
X155461Y11423D01*
X155475Y11617D01*
X155503Y11784D01*
X155517Y11923D01*
X155544Y12020D01*
X155558Y12075D01*
Y12103D01*
X155614Y12284D01*
X155669Y12436D01*
X155725Y12589D01*
X155794Y12700D01*
X155850Y12797D01*
X155892Y12867D01*
X155919Y12908D01*
X155933Y12922D01*
X156030Y13033D01*
X156141Y13144D01*
X156238Y13227D01*
X156336Y13297D01*
X156419Y13352D01*
X156488Y13394D01*
X156544Y13408D01*
X156558Y13422D01*
X156696Y13477D01*
X156835Y13519D01*
X156988Y13547D01*
X157113Y13574D01*
X157238D01*
X157321Y13588D01*
X157404D01*
X157654Y13574D01*
D02*
G37*
G36*
X154045Y7106D02*
X152491D01*
Y9730D01*
X151714D01*
X151422Y9743D01*
X151145Y9757D01*
X150895Y9799D01*
X150687Y9841D01*
X150506Y9868D01*
X150381Y9910D01*
X150298Y9924D01*
X150270Y9938D01*
X150048Y10035D01*
X149840Y10132D01*
X149659Y10229D01*
X149521Y10326D01*
X149396Y10410D01*
X149299Y10479D01*
X149243Y10535D01*
X149229Y10548D01*
X149076Y10701D01*
X148951Y10868D01*
X148854Y11020D01*
X148757Y11159D01*
X148688Y11284D01*
X148646Y11395D01*
X148618Y11451D01*
X148605Y11479D01*
X148535Y11687D01*
X148480Y11895D01*
X148438Y12089D01*
X148410Y12270D01*
X148396Y12422D01*
X148382Y12547D01*
Y12630D01*
Y12658D01*
X148396Y12880D01*
X148410Y13102D01*
X148452Y13283D01*
X148493Y13449D01*
X148535Y13588D01*
X148563Y13685D01*
X148591Y13741D01*
X148605Y13769D01*
X148702Y13949D01*
X148799Y14102D01*
X148910Y14241D01*
X149007Y14366D01*
X149104Y14463D01*
X149174Y14532D01*
X149229Y14574D01*
X149243Y14588D01*
X149396Y14699D01*
X149576Y14810D01*
X149743Y14893D01*
X149895Y14962D01*
X150048Y15018D01*
X150159Y15059D01*
X150228Y15073D01*
X150242Y15087D01*
X150256D01*
X150492Y15143D01*
X150728Y15198D01*
X150964Y15226D01*
X151186Y15240D01*
X151381Y15254D01*
X151519Y15268D01*
X154045D01*
Y7106D01*
D02*
G37*
G36*
X136834Y13574D02*
X136931Y13561D01*
X137029Y13547D01*
X137098Y13533D01*
X137153Y13519D01*
X137195Y13505D01*
X137209D01*
X137403Y13436D01*
X137570Y13366D01*
X137639Y13338D01*
X137695Y13311D01*
X137723Y13297D01*
X137736Y13283D01*
X137917Y13172D01*
X138056Y13061D01*
X138111Y13019D01*
X138153Y12978D01*
X138181Y12964D01*
X138195Y12950D01*
X138347Y12797D01*
X138472Y12658D01*
X138528Y12589D01*
X138569Y12547D01*
X138583Y12519D01*
X138597Y12506D01*
X138625Y13449D01*
X139943Y13449D01*
Y7106D01*
X138417Y7106D01*
Y11118D01*
X138278Y11312D01*
X138139Y11479D01*
X138014Y11617D01*
X137903Y11742D01*
X137806Y11839D01*
X137736Y11909D01*
X137695Y11950D01*
X137681Y11964D01*
X137542Y12075D01*
X137417Y12145D01*
X137278Y12200D01*
X137167Y12242D01*
X137070Y12270D01*
X137001Y12284D01*
X136931D01*
X136793Y12270D01*
X136668Y12242D01*
X136571Y12186D01*
X136487Y12117D01*
X136348Y11950D01*
X136251Y11756D01*
X136196Y11562D01*
X136168Y11395D01*
X136154Y11326D01*
Y11270D01*
Y11242D01*
Y11229D01*
Y7106D01*
X134627D01*
Y11354D01*
Y11534D01*
X134641Y11714D01*
X134669Y11867D01*
X134683Y12006D01*
X134711Y12117D01*
X134738Y12200D01*
X134752Y12256D01*
Y12270D01*
X134808Y12422D01*
X134863Y12561D01*
X134919Y12672D01*
X134988Y12783D01*
X135044Y12867D01*
X135085Y12922D01*
X135113Y12964D01*
X135127Y12978D01*
X135321Y13172D01*
X135516Y13311D01*
X135599Y13352D01*
X135668Y13394D01*
X135710Y13422D01*
X135724D01*
X135863Y13477D01*
X136015Y13519D01*
X136154Y13547D01*
X136293Y13574D01*
X136404D01*
X136501Y13588D01*
X136584D01*
X136834Y13574D01*
D02*
G37*
G36*
X93319Y29774D02*
X93390Y29767D01*
X93449Y29760D01*
X93501Y29752D01*
X93534Y29745D01*
X93549Y29741D01*
X93560D01*
X93564Y29737D01*
X93567D01*
X93630Y29719D01*
X93690Y29700D01*
X93741Y29682D01*
X93786Y29664D01*
X93819Y29645D01*
X93849Y29630D01*
X93863Y29623D01*
X93871Y29619D01*
X93915Y29590D01*
X93956Y29556D01*
X93993Y29527D01*
X94023Y29497D01*
X94048Y29471D01*
X94067Y29449D01*
X94078Y29434D01*
X94082Y29430D01*
X94137Y29345D01*
X94163Y29301D01*
X94182Y29264D01*
X94196Y29231D01*
X94208Y29201D01*
X94215Y29186D01*
X94219Y29179D01*
X94252Y29075D01*
X94263Y29023D01*
X94274Y28979D01*
X94282Y28938D01*
X94289Y28905D01*
X94293Y28887D01*
Y28883D01*
Y28879D01*
X94304Y28761D01*
X94307Y28701D01*
Y28650D01*
X94311Y28605D01*
Y28568D01*
Y28546D01*
Y28542D01*
Y28539D01*
X94307Y28450D01*
X94304Y28365D01*
X94293Y28287D01*
X94282Y28217D01*
X94263Y28150D01*
X94248Y28091D01*
X94230Y28036D01*
X94211Y27987D01*
X94193Y27947D01*
X94174Y27910D01*
X94156Y27876D01*
X94141Y27850D01*
X94130Y27832D01*
X94119Y27817D01*
X94115Y27810D01*
X94111Y27806D01*
X94071Y27765D01*
X94030Y27728D01*
X93982Y27695D01*
X93937Y27669D01*
X93889Y27647D01*
X93841Y27628D01*
X93745Y27599D01*
X93701Y27588D01*
X93660Y27580D01*
X93627Y27577D01*
X93593Y27573D01*
X93567Y27569D01*
X93530D01*
X93464Y27573D01*
X93405Y27577D01*
X93349Y27584D01*
X93301Y27595D01*
X93264Y27603D01*
X93234Y27610D01*
X93216Y27614D01*
X93208Y27617D01*
X93157Y27640D01*
X93105Y27662D01*
X93064Y27688D01*
X93027Y27710D01*
X92998Y27732D01*
X92975Y27751D01*
X92961Y27762D01*
X92957Y27765D01*
X92920Y27802D01*
X92887Y27843D01*
X92857Y27880D01*
X92835Y27917D01*
X92816Y27947D01*
X92801Y27973D01*
X92794Y27987D01*
X92790Y27995D01*
X92768Y28047D01*
X92753Y28098D01*
X92742Y28150D01*
X92735Y28195D01*
X92731Y28235D01*
X92728Y28269D01*
Y28287D01*
Y28295D01*
Y28350D01*
X92735Y28402D01*
X92742Y28450D01*
X92750Y28491D01*
X92757Y28524D01*
X92765Y28550D01*
X92768Y28568D01*
X92772Y28572D01*
X92790Y28616D01*
X92813Y28657D01*
X92835Y28694D01*
X92857Y28724D01*
X92875Y28750D01*
X92894Y28768D01*
X92905Y28779D01*
X92909Y28783D01*
X92942Y28813D01*
X92979Y28842D01*
X93016Y28864D01*
X93053Y28883D01*
X93083Y28898D01*
X93109Y28909D01*
X93123Y28912D01*
X93131Y28916D01*
X93183Y28931D01*
X93234Y28946D01*
X93286Y28953D01*
X93334Y28957D01*
X93375Y28960D01*
X93408Y28964D01*
X93438D01*
X93527Y28960D01*
X93564Y28957D01*
X93601Y28949D01*
X93630Y28946D01*
X93652Y28938D01*
X93667Y28935D01*
X93671D01*
X93712Y28923D01*
X93749Y28912D01*
X93782Y28901D01*
X93812Y28890D01*
X93834Y28883D01*
X93852Y28875D01*
X93863Y28872D01*
X93867Y28868D01*
X93863Y28905D01*
X93860Y28949D01*
X93852Y28994D01*
X93845Y29031D01*
X93834Y29064D01*
X93826Y29090D01*
X93823Y29109D01*
X93815Y29123D01*
Y29127D01*
X93800Y29164D01*
X93782Y29194D01*
X93764Y29223D01*
X93745Y29249D01*
X93726Y29268D01*
X93712Y29282D01*
X93704Y29290D01*
X93701Y29294D01*
X93671Y29319D01*
X93638Y29342D01*
X93571Y29375D01*
X93545Y29386D01*
X93519Y29393D01*
X93505Y29401D01*
X93501D01*
X93453Y29412D01*
X93401Y29423D01*
X93353Y29430D01*
X93305Y29434D01*
X93264Y29438D01*
X92909D01*
Y29782D01*
X93242D01*
X93319Y29774D01*
D02*
G37*
G36*
X98000Y27606D02*
X97586D01*
Y28306D01*
X97378D01*
X97301Y28309D01*
X97227Y28313D01*
X97160Y28324D01*
X97105Y28335D01*
X97057Y28343D01*
X97023Y28354D01*
X97001Y28357D01*
X96994Y28361D01*
X96934Y28387D01*
X96879Y28413D01*
X96831Y28439D01*
X96794Y28465D01*
X96760Y28487D01*
X96735Y28505D01*
X96720Y28520D01*
X96716Y28524D01*
X96675Y28565D01*
X96642Y28609D01*
X96616Y28650D01*
X96590Y28687D01*
X96572Y28720D01*
X96561Y28750D01*
X96553Y28764D01*
X96550Y28772D01*
X96531Y28827D01*
X96516Y28883D01*
X96505Y28935D01*
X96498Y28983D01*
X96494Y29023D01*
X96490Y29057D01*
Y29079D01*
Y29086D01*
X96494Y29146D01*
X96498Y29205D01*
X96509Y29253D01*
X96520Y29297D01*
X96531Y29334D01*
X96539Y29360D01*
X96546Y29375D01*
X96550Y29382D01*
X96575Y29430D01*
X96601Y29471D01*
X96631Y29508D01*
X96657Y29541D01*
X96683Y29567D01*
X96701Y29586D01*
X96716Y29597D01*
X96720Y29601D01*
X96760Y29630D01*
X96809Y29660D01*
X96853Y29682D01*
X96894Y29700D01*
X96934Y29715D01*
X96964Y29726D01*
X96983Y29730D01*
X96986Y29734D01*
X96990D01*
X97053Y29749D01*
X97116Y29763D01*
X97179Y29771D01*
X97238Y29774D01*
X97290Y29778D01*
X97327Y29782D01*
X98000D01*
Y27606D01*
D02*
G37*
G36*
X96135D02*
X95473D01*
X95395Y27610D01*
X95325Y27614D01*
X95258Y27621D01*
X95195Y27632D01*
X95136Y27643D01*
X95084Y27658D01*
X95036Y27673D01*
X94992Y27691D01*
X94955Y27706D01*
X94922Y27721D01*
X94892Y27736D01*
X94870Y27747D01*
X94851Y27758D01*
X94840Y27765D01*
X94833Y27773D01*
X94829D01*
X94788Y27806D01*
X94755Y27843D01*
X94726Y27880D01*
X94700Y27921D01*
X94677Y27962D01*
X94659Y28006D01*
X94633Y28084D01*
X94614Y28158D01*
X94611Y28191D01*
X94607Y28217D01*
X94603Y28239D01*
Y28258D01*
Y28269D01*
Y28272D01*
X94607Y28346D01*
X94614Y28376D01*
X94618Y28405D01*
X94626Y28428D01*
X94633Y28446D01*
X94637Y28457D01*
Y28461D01*
X94666Y28520D01*
X94681Y28546D01*
X94692Y28568D01*
X94707Y28583D01*
X94714Y28598D01*
X94722Y28605D01*
X94726Y28609D01*
X94770Y28650D01*
X94811Y28683D01*
X94829Y28694D01*
X94844Y28701D01*
X94851Y28709D01*
X94855D01*
X94911Y28735D01*
X94959Y28753D01*
X94981Y28757D01*
X94996Y28761D01*
X95007Y28764D01*
X95010D01*
X94955Y28787D01*
X94929Y28798D01*
X94911Y28813D01*
X94892Y28824D01*
X94881Y28831D01*
X94873Y28835D01*
X94870Y28838D01*
X94829Y28879D01*
X94796Y28916D01*
X94785Y28935D01*
X94777Y28946D01*
X94770Y28953D01*
Y28957D01*
X94744Y29009D01*
X94726Y29053D01*
X94718Y29072D01*
X94714Y29086D01*
X94711Y29094D01*
Y29097D01*
X94696Y29157D01*
X94692Y29205D01*
X94688Y29227D01*
Y29242D01*
Y29253D01*
Y29256D01*
X94692Y29305D01*
X94696Y29349D01*
X94718Y29430D01*
X94748Y29497D01*
X94781Y29553D01*
X94818Y29593D01*
X94848Y29623D01*
X94870Y29641D01*
X94873Y29649D01*
X94877D01*
X94914Y29671D01*
X94955Y29693D01*
X95040Y29726D01*
X95132Y29749D01*
X95225Y29767D01*
X95266Y29771D01*
X95306Y29774D01*
X95340Y29778D01*
X95373D01*
X95395Y29782D01*
X96135D01*
Y27606D01*
D02*
G37*
G36*
X95285Y33434D02*
X95152Y33101D01*
X94667Y33364D01*
Y31969D01*
X95222D01*
Y31606D01*
X93772D01*
Y31969D01*
X94249D01*
Y33797D01*
X94593D01*
X95285Y33434D01*
D02*
G37*
G36*
X96299Y33812D02*
X96377Y33804D01*
X96447Y33789D01*
X96506Y33778D01*
X96558Y33763D01*
X96595Y33749D01*
X96610Y33745D01*
X96621Y33741D01*
X96625Y33737D01*
X96628D01*
X96695Y33704D01*
X96754Y33671D01*
X96810Y33634D01*
X96858Y33597D01*
X96895Y33564D01*
X96924Y33538D01*
X96939Y33519D01*
X96947Y33512D01*
X96991Y33453D01*
X97032Y33393D01*
X97065Y33331D01*
X97095Y33275D01*
X97117Y33223D01*
X97132Y33186D01*
X97139Y33171D01*
X97143Y33160D01*
X97146Y33153D01*
Y33149D01*
X97168Y33068D01*
X97183Y32983D01*
X97198Y32901D01*
X97206Y32824D01*
X97209Y32761D01*
Y32731D01*
X97213Y32709D01*
Y32687D01*
Y32672D01*
Y32664D01*
Y32661D01*
X97209Y32565D01*
X97202Y32472D01*
X97194Y32391D01*
X97180Y32324D01*
X97168Y32265D01*
X97165Y32243D01*
X97161Y32224D01*
X97157Y32209D01*
X97154Y32198D01*
X97150Y32191D01*
Y32187D01*
X97124Y32117D01*
X97095Y32050D01*
X97065Y31995D01*
X97035Y31943D01*
X97006Y31906D01*
X96983Y31876D01*
X96969Y31858D01*
X96965Y31850D01*
X96917Y31802D01*
X96865Y31762D01*
X96813Y31725D01*
X96765Y31695D01*
X96721Y31673D01*
X96688Y31658D01*
X96665Y31647D01*
X96662Y31643D01*
X96658D01*
X96588Y31621D01*
X96517Y31606D01*
X96447Y31591D01*
X96384Y31584D01*
X96325Y31580D01*
X96303D01*
X96284Y31577D01*
X96188D01*
X96136Y31580D01*
X96088Y31588D01*
X96047Y31591D01*
X96010Y31599D01*
X95985Y31603D01*
X95970Y31606D01*
X95962D01*
X95859Y31632D01*
X95811Y31643D01*
X95770Y31658D01*
X95733Y31673D01*
X95703Y31680D01*
X95685Y31688D01*
X95677Y31691D01*
Y32076D01*
X95718Y32058D01*
X95759Y32039D01*
X95774Y32035D01*
X95788Y32028D01*
X95796Y32024D01*
X95799D01*
X95848Y32010D01*
X95888Y31995D01*
X95903Y31991D01*
X95918Y31987D01*
X95925Y31984D01*
X95929D01*
X95977Y31973D01*
X96018Y31962D01*
X96033Y31958D01*
X96047D01*
X96055Y31954D01*
X96058D01*
X96103Y31950D01*
X96140Y31947D01*
X96177D01*
X96232Y31950D01*
X96280Y31954D01*
X96325Y31962D01*
X96366Y31973D01*
X96395Y31980D01*
X96421Y31987D01*
X96436Y31991D01*
X96440Y31995D01*
X96480Y32017D01*
X96514Y32039D01*
X96547Y32065D01*
X96573Y32087D01*
X96595Y32109D01*
X96610Y32128D01*
X96621Y32139D01*
X96625Y32143D01*
X96650Y32180D01*
X96669Y32221D01*
X96688Y32258D01*
X96702Y32294D01*
X96713Y32328D01*
X96721Y32354D01*
X96728Y32368D01*
Y32376D01*
X96747Y32487D01*
X96754Y32539D01*
X96758Y32587D01*
Y32631D01*
X96762Y32664D01*
Y32687D01*
Y32690D01*
Y32694D01*
Y32753D01*
X96758Y32812D01*
X96750Y32864D01*
X96747Y32909D01*
X96739Y32946D01*
X96736Y32975D01*
X96732Y32990D01*
Y32998D01*
X96717Y33049D01*
X96702Y33094D01*
X96684Y33134D01*
X96669Y33171D01*
X96650Y33197D01*
X96639Y33220D01*
X96632Y33234D01*
X96628Y33238D01*
X96599Y33275D01*
X96569Y33305D01*
X96539Y33331D01*
X96510Y33353D01*
X96484Y33371D01*
X96465Y33382D01*
X96451Y33390D01*
X96447Y33393D01*
X96403Y33412D01*
X96358Y33427D01*
X96314Y33438D01*
X96273Y33445D01*
X96236Y33449D01*
X96206Y33453D01*
X96181D01*
X96099Y33449D01*
X96062Y33445D01*
X96025Y33438D01*
X95996Y33434D01*
X95973Y33427D01*
X95955Y33423D01*
X95951D01*
X95855Y33397D01*
X95807Y33382D01*
X95766Y33367D01*
X95729Y33353D01*
X95703Y33342D01*
X95685Y33334D01*
X95677Y33331D01*
Y33737D01*
X95729Y33752D01*
X95774Y33763D01*
X95788Y33767D01*
X95803Y33771D01*
X95811Y33775D01*
X95814D01*
X95862Y33786D01*
X95903Y33793D01*
X95922D01*
X95933Y33797D01*
X95944D01*
X95992Y33804D01*
X96033Y33808D01*
X96047Y33812D01*
X96073D01*
X96121Y33815D01*
X96214D01*
X96299Y33812D01*
D02*
G37*
G36*
X99000Y31606D02*
X98586D01*
Y32306D01*
X98378D01*
X98301Y32309D01*
X98227Y32313D01*
X98160Y32324D01*
X98105Y32335D01*
X98057Y32343D01*
X98023Y32354D01*
X98001Y32357D01*
X97994Y32361D01*
X97934Y32387D01*
X97879Y32413D01*
X97831Y32439D01*
X97794Y32465D01*
X97760Y32487D01*
X97735Y32505D01*
X97720Y32520D01*
X97716Y32524D01*
X97675Y32565D01*
X97642Y32609D01*
X97616Y32650D01*
X97590Y32687D01*
X97572Y32720D01*
X97561Y32750D01*
X97553Y32764D01*
X97550Y32772D01*
X97531Y32827D01*
X97516Y32883D01*
X97505Y32935D01*
X97498Y32983D01*
X97494Y33023D01*
X97490Y33057D01*
Y33079D01*
Y33086D01*
X97494Y33145D01*
X97498Y33205D01*
X97509Y33253D01*
X97520Y33297D01*
X97531Y33334D01*
X97539Y33360D01*
X97546Y33375D01*
X97550Y33382D01*
X97575Y33430D01*
X97601Y33471D01*
X97631Y33508D01*
X97657Y33541D01*
X97683Y33567D01*
X97701Y33586D01*
X97716Y33597D01*
X97720Y33601D01*
X97760Y33630D01*
X97809Y33660D01*
X97853Y33682D01*
X97894Y33700D01*
X97934Y33715D01*
X97964Y33726D01*
X97983Y33730D01*
X97986Y33734D01*
X97990D01*
X98053Y33749D01*
X98116Y33763D01*
X98179Y33771D01*
X98238Y33775D01*
X98290Y33778D01*
X98327Y33782D01*
X99000D01*
Y31606D01*
D02*
G37*
G36*
X93298Y32624D02*
X92873D01*
X92777Y32620D01*
X92699Y32609D01*
X92629Y32594D01*
X92577Y32579D01*
X92532Y32565D01*
X92503Y32550D01*
X92488Y32539D01*
X92481Y32535D01*
X92440Y32498D01*
X92410Y32457D01*
X92388Y32417D01*
X92373Y32372D01*
X92366Y32335D01*
X92358Y32306D01*
Y32283D01*
Y32280D01*
Y32276D01*
X92366Y32217D01*
X92381Y32161D01*
X92399Y32117D01*
X92425Y32080D01*
X92451Y32050D01*
X92470Y32028D01*
X92484Y32013D01*
X92492Y32010D01*
X92544Y31980D01*
X92606Y31958D01*
X92669Y31939D01*
X92732Y31928D01*
X92788Y31921D01*
X92810D01*
X92832Y31917D01*
X92873D01*
X92965Y31921D01*
X93006D01*
X93047Y31925D01*
X93076D01*
X93102Y31928D01*
X93124D01*
X93169Y31936D01*
X93209Y31939D01*
X93247Y31947D01*
X93276Y31954D01*
X93302Y31962D01*
X93324Y31965D01*
X93335Y31969D01*
X93339D01*
Y31614D01*
X93302Y31610D01*
X93269Y31603D01*
X93254D01*
X93247Y31599D01*
X93235D01*
X93195Y31595D01*
X93158Y31591D01*
X93143Y31588D01*
X93121D01*
X93076Y31584D01*
X93039Y31580D01*
X93024Y31577D01*
X93002D01*
X92962Y31573D01*
X92891D01*
X92814Y31577D01*
X92743Y31580D01*
X92677Y31588D01*
X92621Y31599D01*
X92573Y31606D01*
X92536Y31614D01*
X92525Y31617D01*
X92514D01*
X92510Y31621D01*
X92506D01*
X92444Y31640D01*
X92384Y31662D01*
X92333Y31688D01*
X92285Y31710D01*
X92251Y31728D01*
X92222Y31747D01*
X92207Y31758D01*
X92199Y31762D01*
X92155Y31799D01*
X92114Y31836D01*
X92077Y31873D01*
X92048Y31910D01*
X92026Y31939D01*
X92011Y31965D01*
X92000Y31980D01*
X91996Y31987D01*
X91970Y32039D01*
X91952Y32095D01*
X91940Y32146D01*
X91929Y32195D01*
X91926Y32239D01*
X91922Y32272D01*
Y32294D01*
Y32298D01*
Y32302D01*
X91926Y32372D01*
X91933Y32431D01*
X91944Y32487D01*
X91955Y32535D01*
X91970Y32572D01*
X91981Y32598D01*
X91988Y32613D01*
X91992Y32620D01*
X92022Y32664D01*
X92051Y32705D01*
X92081Y32739D01*
X92111Y32768D01*
X92137Y32790D01*
X92159Y32805D01*
X92173Y32816D01*
X92177Y32820D01*
X92222Y32846D01*
X92266Y32868D01*
X92310Y32886D01*
X92355Y32901D01*
X92388Y32909D01*
X92418Y32916D01*
X92436Y32923D01*
X92444D01*
X92558Y32942D01*
X92610Y32949D01*
X92658Y32953D01*
X92703Y32957D01*
X92917D01*
Y33397D01*
X92040D01*
Y33782D01*
X93298D01*
Y32624D01*
D02*
G37*
G36*
X340488Y38256D02*
X342042D01*
Y37424D01*
X340488D01*
Y35814D01*
X339554D01*
Y37424D01*
X338000D01*
Y38256D01*
X339554D01*
Y39875D01*
X340488D01*
Y38256D01*
D02*
G37*
G36*
X364590Y37087D02*
X362000D01*
Y37993D01*
X364590D01*
Y37087D01*
D02*
G37*
%LPC*%
G36*
X320252Y31350D02*
X319941D01*
X319853Y31345D01*
X319769Y31339D01*
X319697Y31328D01*
X319642Y31312D01*
X319592Y31295D01*
X319553Y31284D01*
X319531Y31278D01*
X319525Y31273D01*
X319464Y31245D01*
X319409Y31206D01*
X319364Y31173D01*
X319325Y31139D01*
X319292Y31106D01*
X319270Y31078D01*
X319259Y31062D01*
X319253Y31056D01*
X319220Y31001D01*
X319187Y30940D01*
X319164Y30879D01*
X319142Y30823D01*
X319126Y30773D01*
X319114Y30734D01*
X319109Y30712D01*
Y30701D01*
X319081Y30540D01*
X319076Y30462D01*
X319070Y30390D01*
X319065Y30329D01*
Y30279D01*
Y30246D01*
Y30240D01*
Y30235D01*
Y30129D01*
X319076Y30035D01*
X319087Y29941D01*
X319103Y29857D01*
X319120Y29780D01*
X319142Y29713D01*
X319159Y29652D01*
X319181Y29597D01*
X319203Y29547D01*
X319226Y29502D01*
X319248Y29469D01*
X319264Y29436D01*
X319281Y29413D01*
X319292Y29397D01*
X319298Y29391D01*
X319303Y29386D01*
X319348Y29341D01*
X319398Y29297D01*
X319509Y29230D01*
X319619Y29186D01*
X319730Y29153D01*
X319830Y29136D01*
X319875Y29125D01*
X319914D01*
X319941Y29119D01*
X320252D01*
Y31350D01*
D02*
G37*
G36*
X188319Y32381D02*
X188134D01*
X187430Y32307D01*
X186838Y32159D01*
X186319Y31974D01*
X185912Y31715D01*
X185579Y31456D01*
X185357Y31271D01*
X185208Y31122D01*
X185171Y31048D01*
X184838Y30493D01*
X184579Y29863D01*
X184431Y29197D01*
X184283Y28567D01*
X184209Y27975D01*
Y27753D01*
X184172Y27531D01*
Y27345D01*
Y27197D01*
Y27123D01*
Y27086D01*
X184209Y26272D01*
X184246Y25938D01*
X184283Y25605D01*
X184357Y25346D01*
X184394Y25161D01*
X184431Y25012D01*
Y24975D01*
X184616Y24309D01*
X184764Y24013D01*
X184875Y23753D01*
X184986Y23568D01*
X185060Y23420D01*
X185097Y23309D01*
X185134Y23272D01*
X185505Y22791D01*
X185912Y22457D01*
X186097Y22346D01*
X186208Y22235D01*
X186319Y22198D01*
X186356Y22161D01*
X186653Y22013D01*
X186949Y21939D01*
X187504Y21791D01*
X187764D01*
X187949Y21754D01*
X188134D01*
X188800Y21828D01*
X189356Y21976D01*
X189874Y22161D01*
X190282Y22420D01*
X190615Y22680D01*
X190874Y22865D01*
X191022Y23013D01*
X191059Y23087D01*
X191393Y23642D01*
X191652Y24272D01*
X191837Y24938D01*
X191948Y25568D01*
X192022Y26160D01*
X192059Y26383D01*
X192096Y26605D01*
Y26790D01*
Y26938D01*
Y27012D01*
Y27049D01*
X192059Y27827D01*
X192022Y28197D01*
X191985Y28493D01*
X191948Y28752D01*
X191911Y28975D01*
X191874Y29086D01*
Y29123D01*
X191652Y29789D01*
X191541Y30086D01*
X191430Y30308D01*
X191319Y30530D01*
X191244Y30678D01*
X191207Y30752D01*
X191170Y30789D01*
X190763Y31271D01*
X190393Y31641D01*
X190208Y31752D01*
X190059Y31863D01*
X189985Y31937D01*
X189948D01*
X189652Y32085D01*
X189319Y32196D01*
X188763Y32344D01*
X188504D01*
X188319Y32381D01*
D02*
G37*
G36*
X224905Y32419D02*
X224720D01*
X224238Y32381D01*
X223831Y32270D01*
X223683Y32233D01*
X223572Y32159D01*
X223498Y32122D01*
X223461D01*
X223090Y31863D01*
X222794Y31567D01*
X222609Y31308D01*
X222535Y31234D01*
Y31196D01*
X222276Y30678D01*
X222127Y30160D01*
X222053Y29900D01*
X222016Y29752D01*
X221979Y29604D01*
Y29567D01*
X221831Y28789D01*
X221794Y28382D01*
Y28012D01*
X221757Y27679D01*
Y27419D01*
Y27271D01*
Y27197D01*
Y26716D01*
X221794Y26272D01*
X221868Y25864D01*
X221905Y25494D01*
X221979Y25198D01*
X222053Y24975D01*
X222090Y24827D01*
Y24790D01*
X222201Y24420D01*
X222350Y24087D01*
X222498Y23790D01*
X222609Y23531D01*
X222757Y23309D01*
X222831Y23161D01*
X222905Y23050D01*
X222942Y23013D01*
X223387Y22532D01*
X223831Y22161D01*
X224016Y22050D01*
X224127Y21939D01*
X224238Y21902D01*
X224275Y21865D01*
X224868Y21643D01*
X225460Y21532D01*
X225682D01*
X225868Y21495D01*
X226053D01*
X226571Y21532D01*
X227015Y21569D01*
X227201D01*
X227349Y21606D01*
X227460D01*
X227941Y21717D01*
X228311Y21791D01*
X228460Y21828D01*
X228571Y21865D01*
X228608Y21902D01*
X228645D01*
Y29308D01*
X228274Y29826D01*
X227904Y30271D01*
X227571Y30641D01*
X227275Y30974D01*
X227015Y31234D01*
X226830Y31419D01*
X226719Y31530D01*
X226682Y31567D01*
X226312Y31863D01*
X225978Y32048D01*
X225645Y32196D01*
X225349Y32307D01*
X225090Y32381D01*
X224905Y32419D01*
D02*
G37*
G36*
X179557Y12450D02*
X179460D01*
X179265Y12436D01*
X179113Y12409D01*
X179057Y12381D01*
X179016Y12367D01*
X178988Y12353D01*
X178974D01*
X178807Y12284D01*
X178682Y12186D01*
X178599Y12117D01*
X178585Y12103D01*
X178571Y12089D01*
X178446Y11936D01*
X178363Y11798D01*
X178335Y11728D01*
X178308Y11673D01*
X178294Y11645D01*
Y11631D01*
X178238Y11409D01*
X178210Y11215D01*
X178197Y11118D01*
Y11048D01*
Y11007D01*
Y10993D01*
X180834D01*
X180792Y11242D01*
X180737Y11451D01*
X180667Y11631D01*
X180598Y11784D01*
X180515Y11909D01*
X180459Y11992D01*
X180417Y12048D01*
X180404Y12061D01*
X180251Y12186D01*
X180098Y12284D01*
X179946Y12353D01*
X179793Y12409D01*
X179654Y12436D01*
X179557Y12450D01*
D02*
G37*
G36*
X165483D02*
X165385D01*
X165191Y12436D01*
X165038Y12409D01*
X164983Y12381D01*
X164941Y12367D01*
X164913Y12353D01*
X164900D01*
X164733Y12284D01*
X164608Y12186D01*
X164525Y12117D01*
X164511Y12103D01*
X164497Y12089D01*
X164372Y11936D01*
X164289Y11798D01*
X164261Y11728D01*
X164233Y11673D01*
X164219Y11645D01*
Y11631D01*
X164164Y11409D01*
X164136Y11215D01*
X164122Y11118D01*
Y11048D01*
Y11007D01*
Y10993D01*
X166760D01*
X166718Y11242D01*
X166662Y11451D01*
X166593Y11631D01*
X166524Y11784D01*
X166440Y11909D01*
X166385Y11992D01*
X166343Y12048D01*
X166329Y12061D01*
X166177Y12186D01*
X166024Y12284D01*
X165871Y12353D01*
X165718Y12409D01*
X165580Y12436D01*
X165483Y12450D01*
D02*
G37*
G36*
X144371D02*
X144274D01*
X144080Y12436D01*
X143927Y12409D01*
X143871Y12381D01*
X143830Y12367D01*
X143802Y12353D01*
X143788D01*
X143622Y12284D01*
X143497Y12186D01*
X143413Y12117D01*
X143400Y12103D01*
X143386Y12089D01*
X143261Y11936D01*
X143177Y11798D01*
X143150Y11728D01*
X143122Y11673D01*
X143108Y11645D01*
Y11631D01*
X143052Y11409D01*
X143025Y11215D01*
X143011Y11118D01*
Y11048D01*
Y11007D01*
Y10993D01*
X145648D01*
X145606Y11242D01*
X145551Y11451D01*
X145482Y11631D01*
X145412Y11784D01*
X145329Y11909D01*
X145273Y11992D01*
X145232Y12048D01*
X145218Y12061D01*
X145065Y12186D01*
X144912Y12284D01*
X144760Y12353D01*
X144607Y12409D01*
X144468Y12436D01*
X144371Y12450D01*
D02*
G37*
G36*
X152491Y13991D02*
X151533D01*
X151394Y13977D01*
X151269Y13963D01*
X151145Y13935D01*
X151061Y13921D01*
X150992Y13894D01*
X150950Y13880D01*
X150936D01*
X150714Y13796D01*
X150631Y13741D01*
X150548Y13699D01*
X150492Y13658D01*
X150451Y13616D01*
X150423Y13602D01*
X150409Y13588D01*
X150270Y13449D01*
X150173Y13297D01*
X150145Y13241D01*
X150117Y13186D01*
X150103Y13158D01*
Y13144D01*
X150034Y12936D01*
X150006Y12755D01*
X149993Y12672D01*
Y12617D01*
Y12575D01*
Y12561D01*
X150006Y12311D01*
X150020Y12200D01*
X150048Y12103D01*
X150062Y12020D01*
X150090Y11964D01*
X150103Y11923D01*
Y11909D01*
X150201Y11714D01*
X150298Y11562D01*
X150353Y11506D01*
X150381Y11465D01*
X150409Y11437D01*
X150423Y11423D01*
X150589Y11284D01*
X150756Y11187D01*
X150825Y11145D01*
X150881Y11131D01*
X150922Y11104D01*
X150936D01*
X151172Y11048D01*
X151297Y11034D01*
X151408Y11020D01*
X151505Y11007D01*
X152491D01*
Y13991D01*
D02*
G37*
G36*
X93534Y28627D02*
X93501D01*
X93438Y28624D01*
X93408Y28620D01*
X93386Y28616D01*
X93368Y28609D01*
X93353Y28605D01*
X93345Y28602D01*
X93342D01*
X93297Y28579D01*
X93264Y28554D01*
X93242Y28535D01*
X93234Y28531D01*
Y28528D01*
X93205Y28491D01*
X93186Y28457D01*
X93179Y28439D01*
X93175Y28428D01*
X93172Y28420D01*
Y28417D01*
X93157Y28368D01*
X93153Y28324D01*
X93149Y28306D01*
Y28291D01*
Y28280D01*
Y28276D01*
X93153Y28220D01*
X93157Y28195D01*
X93160Y28172D01*
X93168Y28154D01*
X93172Y28139D01*
X93175Y28132D01*
Y28128D01*
X93197Y28080D01*
X93223Y28043D01*
X93231Y28028D01*
X93242Y28021D01*
X93246Y28013D01*
X93249Y28010D01*
X93286Y27976D01*
X93319Y27954D01*
X93338Y27947D01*
X93349Y27939D01*
X93357Y27936D01*
X93360D01*
X93408Y27921D01*
X93456Y27913D01*
X93475Y27910D01*
X93505D01*
X93567Y27913D01*
X93597Y27921D01*
X93619Y27924D01*
X93641Y27932D01*
X93656Y27936D01*
X93664Y27939D01*
X93667D01*
X93693Y27954D01*
X93715Y27969D01*
X93752Y28006D01*
X93767Y28021D01*
X93778Y28036D01*
X93782Y28043D01*
X93786Y28047D01*
X93804Y28076D01*
X93815Y28106D01*
X93837Y28169D01*
X93845Y28195D01*
X93852Y28217D01*
X93856Y28232D01*
Y28235D01*
X93863Y28280D01*
X93867Y28328D01*
X93875Y28376D01*
Y28420D01*
X93878Y28461D01*
Y28491D01*
Y28513D01*
Y28520D01*
X93852Y28535D01*
X93826Y28546D01*
X93808Y28554D01*
X93804Y28557D01*
X93800D01*
X93767Y28572D01*
X93738Y28579D01*
X93715Y28587D01*
X93712Y28591D01*
X93708D01*
X93671Y28602D01*
X93641Y28609D01*
X93616Y28616D01*
X93608D01*
X93567Y28624D01*
X93534Y28627D01*
D02*
G37*
G36*
X97586Y29441D02*
X97330D01*
X97293Y29438D01*
X97260Y29434D01*
X97227Y29427D01*
X97205Y29423D01*
X97186Y29416D01*
X97175Y29412D01*
X97171D01*
X97112Y29390D01*
X97090Y29375D01*
X97068Y29364D01*
X97053Y29353D01*
X97042Y29342D01*
X97034Y29338D01*
X97031Y29334D01*
X96994Y29297D01*
X96968Y29256D01*
X96960Y29242D01*
X96953Y29227D01*
X96949Y29219D01*
Y29216D01*
X96931Y29160D01*
X96923Y29112D01*
X96920Y29090D01*
Y29075D01*
Y29064D01*
Y29060D01*
X96923Y28994D01*
X96927Y28964D01*
X96934Y28938D01*
X96938Y28916D01*
X96946Y28901D01*
X96949Y28890D01*
Y28887D01*
X96975Y28835D01*
X97001Y28794D01*
X97016Y28779D01*
X97023Y28768D01*
X97031Y28761D01*
X97034Y28757D01*
X97079Y28720D01*
X97123Y28694D01*
X97142Y28683D01*
X97156Y28679D01*
X97167Y28672D01*
X97171D01*
X97234Y28657D01*
X97267Y28653D01*
X97297Y28650D01*
X97323Y28646D01*
X97586D01*
Y29441D01*
D02*
G37*
G36*
X95728Y29456D02*
X95480D01*
X95414Y29453D01*
X95384Y29449D01*
X95362Y29445D01*
X95340Y29441D01*
X95325Y29438D01*
X95318Y29434D01*
X95314D01*
X95266Y29419D01*
X95229Y29401D01*
X95218Y29390D01*
X95206Y29386D01*
X95203Y29379D01*
X95199D01*
X95170Y29353D01*
X95151Y29327D01*
X95140Y29305D01*
X95136Y29301D01*
Y29297D01*
X95121Y29260D01*
X95118Y29223D01*
X95114Y29208D01*
Y29197D01*
Y29190D01*
Y29186D01*
X95118Y29142D01*
X95125Y29105D01*
X95129Y29090D01*
X95132Y29079D01*
X95136Y29072D01*
Y29068D01*
X95155Y29027D01*
X95173Y28997D01*
X95192Y28975D01*
X95195Y28972D01*
X95199Y28968D01*
X95236Y28942D01*
X95273Y28920D01*
X95288Y28916D01*
X95303Y28909D01*
X95310Y28905D01*
X95314D01*
X95369Y28894D01*
X95421Y28887D01*
X95443Y28883D01*
X95728D01*
Y29456D01*
D02*
G37*
G36*
Y28568D02*
X95477D01*
X95399Y28565D01*
X95332Y28557D01*
X95277Y28542D01*
X95232Y28528D01*
X95195Y28513D01*
X95170Y28498D01*
X95155Y28491D01*
X95151Y28487D01*
X95114Y28454D01*
X95088Y28417D01*
X95070Y28380D01*
X95059Y28346D01*
X95047Y28313D01*
X95044Y28287D01*
Y28272D01*
Y28265D01*
X95047Y28217D01*
X95055Y28172D01*
X95062Y28158D01*
X95066Y28146D01*
X95070Y28139D01*
Y28135D01*
X95092Y28095D01*
X95118Y28061D01*
X95140Y28039D01*
X95144Y28036D01*
X95147Y28032D01*
X95188Y28002D01*
X95229Y27980D01*
X95247Y27973D01*
X95258Y27965D01*
X95269Y27962D01*
X95273D01*
X95332Y27950D01*
X95384Y27943D01*
X95410Y27939D01*
X95728D01*
Y28568D01*
D02*
G37*
G36*
X98586Y33441D02*
X98330D01*
X98293Y33438D01*
X98260Y33434D01*
X98227Y33427D01*
X98204Y33423D01*
X98186Y33416D01*
X98175Y33412D01*
X98171D01*
X98112Y33390D01*
X98090Y33375D01*
X98068Y33364D01*
X98053Y33353D01*
X98042Y33342D01*
X98034Y33338D01*
X98031Y33334D01*
X97994Y33297D01*
X97968Y33257D01*
X97960Y33242D01*
X97953Y33227D01*
X97949Y33220D01*
Y33216D01*
X97931Y33160D01*
X97923Y33112D01*
X97920Y33090D01*
Y33075D01*
Y33064D01*
Y33060D01*
X97923Y32994D01*
X97927Y32964D01*
X97934Y32938D01*
X97938Y32916D01*
X97945Y32901D01*
X97949Y32890D01*
Y32886D01*
X97975Y32835D01*
X98001Y32794D01*
X98016Y32779D01*
X98023Y32768D01*
X98031Y32761D01*
X98034Y32757D01*
X98079Y32720D01*
X98123Y32694D01*
X98142Y32683D01*
X98156Y32679D01*
X98168Y32672D01*
X98171D01*
X98234Y32657D01*
X98267Y32653D01*
X98297Y32650D01*
X98323Y32646D01*
X98586D01*
Y33441D01*
D02*
G37*
%LPD*%
D10*
X78000Y14106D02*
X82000Y14106D01*
X80000Y16106D02*
X82000Y14106D01*
X75000D02*
X77000Y16106D01*
X73000D02*
X77000D01*
X73000D02*
X75000Y14106D01*
X78000Y14106D02*
X80000Y16106D01*
D40*
X100500Y15106D02*
G03*
X100500Y15106I-500J0D01*
G01*
M02*
