G04*
G04 #@! TF.GenerationSoftware,Altium Limited,Altium Designer,20.1.7 (139)*
G04*
G04 Layer_Physical_Order=2*
G04 Layer_Color=16711680*
%FSLAX25Y25*%
%MOIN*%
G70*
G04*
G04 #@! TF.SameCoordinates,AE6903BA-CC81-4101-B740-E620CA86DFFE*
G04*
G04*
G04 #@! TF.FilePolarity,Positive*
G04*
G01*
G75*
%ADD10C,0.00600*%
%ADD11C,0.01000*%
%ADD12C,0.02000*%
%ADD13C,0.00800*%
G04:AMPARAMS|DCode=24|XSize=50mil|YSize=120mil|CornerRadius=12.5mil|HoleSize=0mil|Usage=FLASHONLY|Rotation=270.000|XOffset=0mil|YOffset=0mil|HoleType=Round|Shape=RoundedRectangle|*
%AMROUNDEDRECTD24*
21,1,0.05000,0.09500,0,0,270.0*
21,1,0.02500,0.12000,0,0,270.0*
1,1,0.02500,-0.04750,-0.01250*
1,1,0.02500,-0.04750,0.01250*
1,1,0.02500,0.04750,0.01250*
1,1,0.02500,0.04750,-0.01250*
%
%ADD24ROUNDEDRECTD24*%
%ADD32C,0.05000*%
%ADD33C,0.04000*%
%ADD34C,0.02000*%
%ADD35O,0.05000X0.05400*%
G04:AMPARAMS|DCode=36|XSize=90mil|YSize=68mil|CornerRadius=27.2mil|HoleSize=0mil|Usage=FLASHONLY|Rotation=0.000|XOffset=0mil|YOffset=0mil|HoleType=Round|Shape=RoundedRectangle|*
%AMROUNDEDRECTD36*
21,1,0.09000,0.01360,0,0,0.0*
21,1,0.03560,0.06800,0,0,0.0*
1,1,0.05440,0.01780,-0.00680*
1,1,0.05440,-0.01780,-0.00680*
1,1,0.05440,-0.01780,0.00680*
1,1,0.05440,0.01780,0.00680*
%
%ADD36ROUNDEDRECTD36*%
%ADD37C,0.01600*%
G04:AMPARAMS|DCode=38|XSize=16mil|YSize=100mil|CornerRadius=4mil|HoleSize=0mil|Usage=FLASHONLY|Rotation=180.000|XOffset=0mil|YOffset=0mil|HoleType=Round|Shape=RoundedRectangle|*
%AMROUNDEDRECTD38*
21,1,0.01600,0.09200,0,0,180.0*
21,1,0.00800,0.10000,0,0,180.0*
1,1,0.00800,-0.00400,0.04600*
1,1,0.00800,0.00400,0.04600*
1,1,0.00800,0.00400,-0.04600*
1,1,0.00800,-0.00400,-0.04600*
%
%ADD38ROUNDEDRECTD38*%
%ADD39C,0.03000*%
G36*
X3923Y48397D02*
X4104Y47797D01*
X3628Y47479D01*
X3131Y46734D01*
X2956Y45856D01*
Y45106D01*
X10000D01*
X17044D01*
Y45856D01*
X16870Y46734D01*
X16372Y47479D01*
X15895Y47797D01*
X16078Y48397D01*
X47373Y48397D01*
X47555Y47797D01*
X47183Y47548D01*
X46741Y46887D01*
X46586Y46106D01*
X46741Y45326D01*
X47183Y44664D01*
X47845Y44222D01*
X48625Y44067D01*
X48632D01*
X49125Y43467D01*
X49053Y43106D01*
X49239Y42170D01*
X49255Y42145D01*
X49090Y41745D01*
X48656Y41379D01*
X48344Y41588D01*
X47898Y41677D01*
Y35669D01*
Y29662D01*
X48031Y29688D01*
X48631Y29276D01*
Y22150D01*
X48619D01*
X48768Y21016D01*
X49206Y19959D01*
X49902Y19052D01*
X50810Y18356D01*
X51866Y17918D01*
X53000Y17769D01*
Y17781D01*
X60586D01*
Y17766D01*
X61816Y17928D01*
X62963Y18403D01*
X63864Y19094D01*
X64000Y19067D01*
X64780Y19222D01*
X65442Y19664D01*
X65884Y20326D01*
X66039Y21106D01*
X65884Y21887D01*
X65442Y22548D01*
X64780Y22990D01*
X64000Y23145D01*
X63220Y22990D01*
X62558Y22548D01*
X62116Y21887D01*
X61961Y21106D01*
X61963Y21094D01*
X61606Y20852D01*
X61038Y21115D01*
X61037Y21117D01*
X60884Y21887D01*
X60442Y22548D01*
X59780Y22990D01*
X59000Y23145D01*
X58220Y22990D01*
X57824Y22726D01*
X57523Y22546D01*
X56955Y22529D01*
X56681Y22713D01*
X56478Y23016D01*
X56407Y23374D01*
X56400D01*
Y29276D01*
X57000Y29688D01*
X57234Y29642D01*
X58034D01*
X58580Y29750D01*
X58913Y29973D01*
X59247Y29750D01*
X59793Y29642D01*
X60593D01*
X61139Y29750D01*
X61602Y30060D01*
X61912Y30523D01*
X62020Y31069D01*
Y31241D01*
X62077Y31326D01*
X62232Y32106D01*
X62077Y32887D01*
X62020Y32971D01*
Y40269D01*
X61912Y40815D01*
X61602Y41279D01*
X61502Y41783D01*
X61761Y42170D01*
X61947Y43106D01*
X61874Y43474D01*
X61873Y43506D01*
X62372Y44044D01*
X63416Y43941D01*
X64915Y43487D01*
X66296Y42748D01*
X67434Y41814D01*
X67487Y41735D01*
X69151Y40071D01*
X69573Y39649D01*
X69574Y39648D01*
X69575Y39648D01*
X69575Y39647D01*
X69576Y39648D01*
X69615Y39621D01*
X70653Y38769D01*
X71881Y38113D01*
X73156Y37726D01*
X73010Y37143D01*
X73000Y37146D01*
X72220Y36990D01*
X71558Y36548D01*
X71116Y35887D01*
X70961Y35106D01*
X70970Y35060D01*
X70620Y34990D01*
X69958Y34548D01*
X69516Y33887D01*
X69361Y33106D01*
X69516Y32326D01*
X69958Y31664D01*
X70094Y31574D01*
X70111Y31552D01*
X70164Y31506D01*
X70174Y31496D01*
Y18606D01*
X70184Y18559D01*
X70035Y17048D01*
X69580Y15549D01*
X68842Y14168D01*
X67849Y12958D01*
X66638Y11964D01*
X65257Y11226D01*
X63758Y10771D01*
X62247Y10622D01*
X62200Y10632D01*
X21350D01*
X21349Y10632D01*
X21348Y10632D01*
X21343Y10632D01*
X21293Y10622D01*
X20094Y10780D01*
X19018Y11225D01*
X19011Y11284D01*
X18990Y11353D01*
X18884Y11887D01*
X18442Y12548D01*
X17780Y12990D01*
X17213Y13103D01*
X17044Y13356D01*
Y14106D01*
X10500D01*
Y12120D01*
X11000D01*
X10905Y12110D01*
X10820Y12079D01*
X10745Y12028D01*
X10680Y11958D01*
X10625Y11867D01*
X10580Y11755D01*
X10545Y11624D01*
X10520Y11472D01*
X10505Y11300D01*
X10500Y11108D01*
Y11062D01*
X14750D01*
X15003Y10893D01*
X15116Y10326D01*
X15278Y10083D01*
X15528Y9606D01*
X15278Y9130D01*
X15116Y8887D01*
X15003Y8320D01*
X14750Y8150D01*
X10500D01*
Y8105D01*
D01*
X10505Y7913D01*
X10520Y7741D01*
X10545Y7589D01*
X10580Y7457D01*
X10625Y7346D01*
X10680Y7255D01*
X10745Y7184D01*
X10820Y7134D01*
X10905Y7103D01*
X11000Y7093D01*
X10500D01*
Y5106D01*
X17044D01*
Y5856D01*
X17213Y6110D01*
X17780Y6222D01*
X18442Y6664D01*
X18490Y6737D01*
X18507Y6751D01*
X18530Y6768D01*
X18548Y6779D01*
X18551Y6781D01*
X62299D01*
Y6769D01*
X64214Y6919D01*
X66081Y7368D01*
X67856Y8102D01*
X69493Y9106D01*
X70953Y10353D01*
X71491Y10983D01*
X72055Y10719D01*
X71974Y10106D01*
X72077Y9323D01*
X72379Y8593D01*
X72860Y7967D01*
X73487Y7486D01*
X74217Y7184D01*
X75000Y7080D01*
X75783Y7184D01*
X76008Y7277D01*
X76994Y6468D01*
X77273Y6319D01*
X77127Y5737D01*
X28126D01*
X28106Y5733D01*
X28086Y5736D01*
X27262Y5695D01*
X27203Y5681D01*
X27143D01*
X25528Y5359D01*
X25453Y5329D01*
X25375Y5313D01*
X23853Y4683D01*
X23786Y4638D01*
X23712Y4607D01*
X22343Y3692D01*
X22300Y3650D01*
X22248Y3619D01*
X21637Y3065D01*
X21625Y3049D01*
X21608Y3037D01*
X21080Y2509D01*
X19838Y1679D01*
X18457Y1107D01*
X16992Y816D01*
X16078D01*
X15895Y1416D01*
X16372Y1734D01*
X16870Y2478D01*
X17044Y3356D01*
Y4106D01*
X10000D01*
X2956D01*
Y3356D01*
X3131Y2478D01*
X3628Y1734D01*
X4104Y1416D01*
X3923Y816D01*
X816D01*
Y48397D01*
X3923D01*
D02*
G37*
G36*
X347700Y40106D02*
X347899Y40106D01*
X348267Y39954D01*
X348548Y39673D01*
X348700Y39305D01*
X348700Y39106D01*
X348700Y39106D01*
X348700Y36106D01*
X348700Y35907D01*
X348548Y35540D01*
X348266Y35258D01*
X347899Y35106D01*
X347700Y35106D01*
Y35106D01*
X347544Y35091D01*
X347255Y34971D01*
X347035Y34751D01*
X346915Y34462D01*
X346900Y34306D01*
Y34306D01*
Y34306D01*
D01*
X346900Y18106D01*
X346919Y17911D01*
X347069Y17551D01*
X347344Y17275D01*
X347705Y17126D01*
X347900Y17106D01*
X355300Y17106D01*
X355499Y17106D01*
X355867Y16954D01*
X356148Y16673D01*
X356300Y16305D01*
X356300Y16106D01*
X356300Y16106D01*
X356300Y13606D01*
X356300Y13407D01*
X356148Y13040D01*
X355867Y12758D01*
X355499Y12606D01*
X355300Y12606D01*
X345500Y12606D01*
X345195Y12606D01*
X344596Y12725D01*
X344032Y12959D01*
X343524Y13298D01*
X343092Y13730D01*
X342753Y14238D01*
X342519Y14802D01*
X342400Y15401D01*
X342400Y15707D01*
X342400Y15707D01*
X342400Y38606D01*
X342400Y38905D01*
X342628Y39456D01*
X343050Y39878D01*
X343602Y40106D01*
X343900Y40106D01*
X343900Y40106D01*
X347700Y40106D01*
D02*
G37*
G36*
X73766Y34450D02*
X73661Y34261D01*
X73618Y34168D01*
X73582Y34077D01*
X73553Y33987D01*
X73530Y33898D01*
X73513Y33811D01*
X73503Y33725D01*
X73500Y33640D01*
X72900Y33511D01*
X72896Y33603D01*
X72882Y33691D01*
X72860Y33776D01*
X72829Y33857D01*
X72789Y33935D01*
X72741Y34008D01*
X72683Y34078D01*
X72616Y34145D01*
X72541Y34207D01*
X72457Y34267D01*
X73829Y34547D01*
X73766Y34450D01*
D02*
G37*
G36*
X60695Y33465D02*
X60711Y33271D01*
X60725Y33185D01*
X60743Y33106D01*
X60765Y33035D01*
X60791Y32970D01*
X60821Y32913D01*
X60855Y32863D01*
X60893Y32820D01*
X59493D01*
X59531Y32863D01*
X59565Y32913D01*
X59595Y32970D01*
X59621Y33035D01*
X59643Y33106D01*
X59661Y33185D01*
X59675Y33271D01*
X59685Y33364D01*
X59693Y33572D01*
X60693D01*
X60695Y33465D01*
D02*
G37*
G36*
X100625Y32306D02*
X100595Y32363D01*
X100556Y32414D01*
X100508Y32459D01*
X100451Y32498D01*
X100386Y32531D01*
X100312Y32558D01*
X100230Y32579D01*
X100139Y32594D01*
X100039Y32603D01*
X99930Y32606D01*
Y33206D01*
X100039Y33209D01*
X100139Y33218D01*
X100230Y33233D01*
X100312Y33254D01*
X100386Y33281D01*
X100451Y33314D01*
X100508Y33353D01*
X100556Y33398D01*
X100595Y33449D01*
X100625Y33506D01*
Y32306D01*
D02*
G37*
G36*
X83485Y32606D02*
X83387Y32602D01*
X83299Y32590D01*
X83222Y32570D01*
X83154Y32542D01*
X83098Y32506D01*
X83051Y32462D01*
X83015Y32410D01*
X82989Y32350D01*
X82974Y32282D01*
X82968Y32206D01*
X82127Y33194D01*
X83283Y33206D01*
X83485Y32606D01*
D02*
G37*
G36*
X72098Y32378D02*
X72035Y32290D01*
X71980Y32202D01*
X71932Y32114D01*
X71892Y32026D01*
X71859Y31939D01*
X71833Y31851D01*
X71815Y31764D01*
X71804Y31677D01*
X71800Y31590D01*
X71200Y31526D01*
X71196Y31617D01*
X71183Y31705D01*
X71162Y31791D01*
X71132Y31875D01*
X71094Y31956D01*
X71047Y32035D01*
X70992Y32111D01*
X70928Y32185D01*
X70856Y32256D01*
X70775Y32326D01*
X72168Y32466D01*
X72098Y32378D01*
D02*
G37*
G36*
X97786Y30375D02*
X97707Y30451D01*
X97627Y30519D01*
X97546Y30579D01*
X97463Y30631D01*
X97380Y30675D01*
X97295Y30711D01*
X97210Y30739D01*
X97123Y30759D01*
X97035Y30771D01*
X96946Y30775D01*
Y31375D01*
X97035Y31379D01*
X97123Y31391D01*
X97210Y31411D01*
X97295Y31439D01*
X97380Y31475D01*
X97463Y31519D01*
X97546Y31571D01*
X97627Y31631D01*
X97707Y31699D01*
X97786Y31775D01*
Y30375D01*
D02*
G37*
G36*
X89293Y31699D02*
X89373Y31631D01*
X89454Y31571D01*
X89537Y31519D01*
X89620Y31475D01*
X89705Y31439D01*
X89790Y31411D01*
X89877Y31391D01*
X89965Y31379D01*
X90054Y31375D01*
Y30775D01*
X89965Y30771D01*
X89877Y30759D01*
X89790Y30739D01*
X89705Y30711D01*
X89620Y30675D01*
X89537Y30631D01*
X89454Y30579D01*
X89373Y30519D01*
X89293Y30451D01*
X89214Y30375D01*
Y31775D01*
X89293Y31699D01*
D02*
G37*
G36*
X55612Y30740D02*
X55563Y30719D01*
X55519Y30686D01*
X55480Y30639D01*
X55448Y30578D01*
X55422Y30504D01*
X55401Y30417D01*
X55387Y30316D01*
X55378Y30202D01*
X55375Y30074D01*
X54775D01*
X54772Y30202D01*
X54763Y30316D01*
X54748Y30417D01*
X54728Y30504D01*
X54702Y30578D01*
X54669Y30639D01*
X54631Y30686D01*
X54587Y30719D01*
X54537Y30740D01*
X54482Y30746D01*
X55668D01*
X55612Y30740D01*
D02*
G37*
G36*
X50494D02*
X50444Y30719D01*
X50400Y30686D01*
X50362Y30639D01*
X50330Y30578D01*
X50304Y30504D01*
X50283Y30417D01*
X50268Y30316D01*
X50260Y30202D01*
X50257Y30074D01*
X49657D01*
X49654Y30202D01*
X49645Y30316D01*
X49630Y30417D01*
X49610Y30504D01*
X49583Y30578D01*
X49551Y30639D01*
X49513Y30686D01*
X49469Y30719D01*
X49419Y30740D01*
X49363Y30746D01*
X50550D01*
X50494Y30740D01*
D02*
G37*
G36*
X99625Y28506D02*
X99595Y28563D01*
X99555Y28614D01*
X99508Y28659D01*
X99451Y28698D01*
X99386Y28731D01*
X99312Y28758D01*
X99230Y28779D01*
X99139Y28794D01*
X99039Y28803D01*
X98930Y28806D01*
Y29406D01*
X99039Y29409D01*
X99139Y29418D01*
X99230Y29433D01*
X99312Y29454D01*
X99386Y29481D01*
X99451Y29514D01*
X99508Y29553D01*
X99555Y29598D01*
X99595Y29649D01*
X99625Y29706D01*
Y28506D01*
D02*
G37*
G36*
X83793Y29730D02*
X83873Y29662D01*
X83954Y29602D01*
X84037Y29550D01*
X84120Y29506D01*
X84205Y29470D01*
X84290Y29442D01*
X84377Y29422D01*
X84465Y29410D01*
X84554Y29406D01*
Y28806D01*
X84465Y28802D01*
X84377Y28790D01*
X84290Y28770D01*
X84205Y28742D01*
X84120Y28706D01*
X84037Y28662D01*
X83954Y28610D01*
X83873Y28550D01*
X83793Y28482D01*
X83714Y28406D01*
Y29806D01*
X83793Y29730D01*
D02*
G37*
G36*
X55375Y29106D02*
X54775Y28206D01*
X54769Y28320D01*
X54751Y28422D01*
X54721Y28512D01*
X54679Y28590D01*
X54625Y28656D01*
X54559Y28710D01*
X54481Y28752D01*
X54391Y28782D01*
X54289Y28800D01*
X54175Y28806D01*
Y29406D01*
X54289Y29412D01*
X54391Y29430D01*
X54481Y29460D01*
X54559Y29502D01*
X54625Y29556D01*
X54679Y29622D01*
X54721Y29700D01*
X54751Y29790D01*
X54769Y29892D01*
X54775Y30006D01*
X55375Y29106D01*
D02*
G37*
G36*
X89097Y26336D02*
X89014Y26271D01*
X88862Y26134D01*
X88793Y26062D01*
X88730Y25988D01*
X88671Y25912D01*
X88617Y25834D01*
X88569Y25753D01*
X88525Y25670D01*
X88486Y25585D01*
X87867Y25670D01*
X87900Y25752D01*
X87922Y25834D01*
X87934Y25917D01*
X87934Y26001D01*
X87924Y26086D01*
X87903Y26172D01*
X87871Y26259D01*
X87828Y26346D01*
X87774Y26435D01*
X87710Y26525D01*
X89097Y26336D01*
D02*
G37*
G36*
X349136Y25838D02*
X349085Y25773D01*
X349040Y25703D01*
X349001Y25630D01*
X348968Y25552D01*
X348941Y25469D01*
X348920Y25383D01*
X348905Y25292D01*
X348896Y25196D01*
X348893Y25097D01*
X348093D01*
X348090Y25196D01*
X348081Y25292D01*
X348066Y25383D01*
X348045Y25469D01*
X348018Y25552D01*
X347985Y25630D01*
X347946Y25703D01*
X347901Y25773D01*
X347850Y25838D01*
X347793Y25899D01*
X349193D01*
X349136Y25838D01*
D02*
G37*
G36*
X87311Y23993D02*
X87251Y23927D01*
X87197Y23857D01*
X87150Y23781D01*
X87109Y23701D01*
X87075Y23616D01*
X87047Y23525D01*
X87026Y23430D01*
X87011Y23331D01*
X87002Y23226D01*
X87000Y23116D01*
X86010Y24106D01*
X86120Y24108D01*
X86224Y24117D01*
X86324Y24132D01*
X86419Y24153D01*
X86509Y24181D01*
X86594Y24216D01*
X86675Y24256D01*
X86750Y24304D01*
X86821Y24357D01*
X86887Y24417D01*
X87311Y23993D01*
D02*
G37*
G36*
X58286Y20406D02*
X58207Y20482D01*
X58127Y20550D01*
X58046Y20610D01*
X57963Y20662D01*
X57880Y20706D01*
X57795Y20742D01*
X57710Y20770D01*
X57623Y20790D01*
X57535Y20802D01*
X57446Y20806D01*
Y21406D01*
X57535Y21410D01*
X57623Y21422D01*
X57710Y21442D01*
X57795Y21470D01*
X57880Y21506D01*
X57963Y21550D01*
X58046Y21602D01*
X58127Y21662D01*
X58207Y21730D01*
X58286Y21806D01*
Y20406D01*
D02*
G37*
G36*
X63723Y20145D02*
X63681Y20154D01*
X63638Y20154D01*
X63592Y20147D01*
X63544Y20133D01*
X63494Y20112D01*
X63442Y20083D01*
X63388Y20047D01*
X63332Y20003D01*
X63273Y19952D01*
X63212Y19894D01*
X62788Y20318D01*
X62846Y20379D01*
X62940Y20494D01*
X62977Y20549D01*
X63005Y20601D01*
X63027Y20651D01*
X63041Y20698D01*
X63048Y20744D01*
X63047Y20788D01*
X63039Y20829D01*
X63723Y20145D01*
D02*
G37*
G36*
X76820Y21268D02*
X76870Y21234D01*
X76927Y21204D01*
X76991Y21178D01*
X77063Y21156D01*
X77142Y21138D01*
X77228Y21124D01*
X77321Y21114D01*
X77529Y21106D01*
Y20106D01*
X77421Y20104D01*
X77228Y20088D01*
X77142Y20074D01*
X77063Y20056D01*
X76991Y20034D01*
X76927Y20008D01*
X76870Y19978D01*
X76820Y19944D01*
X76777Y19906D01*
Y21306D01*
X76820Y21268D01*
D02*
G37*
G36*
X365086Y18873D02*
X365025Y18930D01*
X364960Y18981D01*
X364890Y19026D01*
X364816Y19065D01*
X364738Y19098D01*
X364656Y19125D01*
X364569Y19146D01*
X364478Y19161D01*
X364383Y19170D01*
X364283Y19173D01*
Y19973D01*
X364383Y19976D01*
X364478Y19985D01*
X364569Y20000D01*
X364656Y20021D01*
X364738Y20048D01*
X364816Y20081D01*
X364890Y20120D01*
X364960Y20165D01*
X365025Y20216D01*
X365086Y20273D01*
Y18873D01*
D02*
G37*
G36*
X105400Y18953D02*
X106558Y18602D01*
X106740Y18178D01*
X106736Y17870D01*
X106516Y17541D01*
X106361Y16761D01*
X106516Y15980D01*
X106958Y15319D01*
X107620Y14877D01*
X108400Y14721D01*
X108485Y14739D01*
X108507Y14737D01*
X108536Y14732D01*
X108556Y14728D01*
X108560Y14727D01*
X113590Y9696D01*
X113577Y9684D01*
X114171Y9197D01*
X113969Y8632D01*
X103176D01*
X102843Y9131D01*
X102923Y9323D01*
X103026Y10106D01*
X102923Y10889D01*
X102620Y11619D01*
X102140Y12246D01*
X102087Y12286D01*
X102083Y12293D01*
X102082Y12293D01*
X102081Y12294D01*
X102018Y12355D01*
X101939Y12435D01*
X101857Y13055D01*
X101298Y14405D01*
X100408Y15565D01*
X99249Y16454D01*
X97899Y17013D01*
X96450Y17204D01*
Y17196D01*
X80050D01*
X79270Y17040D01*
X78608Y16598D01*
X78558Y16548D01*
X78116Y15887D01*
X77961Y15106D01*
X78116Y14326D01*
X78558Y13664D01*
X78797Y13505D01*
X78730Y12828D01*
X78487Y12727D01*
X77883Y12263D01*
X77723Y12167D01*
X77277D01*
X77117Y12263D01*
X76513Y12727D01*
X75783Y13029D01*
X75000Y13132D01*
X74217Y13029D01*
X73487Y12727D01*
X73443Y12693D01*
X72990Y13102D01*
X73204Y13451D01*
X73939Y15225D01*
X74387Y17092D01*
X74402Y17282D01*
X74376Y17313D01*
X74300Y17392D01*
X74411D01*
X74500Y18524D01*
X75125Y18827D01*
X75283Y18722D01*
X76063Y18567D01*
X76843Y18722D01*
X77374Y19077D01*
X104000D01*
X104047Y19086D01*
X105400Y18953D01*
D02*
G37*
G36*
X83434Y48397D02*
X84181D01*
X85647Y48105D01*
X87027Y47534D01*
X88270Y46703D01*
X88798Y46175D01*
X88815Y46164D01*
X88827Y46148D01*
X89438Y45594D01*
X89490Y45563D01*
X89532Y45520D01*
X90902Y44605D01*
X90976Y44574D01*
X91043Y44530D01*
X92564Y43900D01*
X92643Y43884D01*
X92717Y43853D01*
X94332Y43532D01*
X94393D01*
X94452Y43517D01*
X95275Y43477D01*
X95295Y43480D01*
X95315Y43476D01*
X379410Y43476D01*
X379614Y42876D01*
X379567Y42839D01*
X378971Y42062D01*
X378596Y41157D01*
X378468Y40186D01*
Y38826D01*
X378596Y37855D01*
X378971Y36950D01*
X379567Y36173D01*
X380344Y35577D01*
X381249Y35202D01*
X382220Y35074D01*
X385780D01*
X386751Y35202D01*
X387656Y35577D01*
X388433Y36173D01*
X389029Y36950D01*
X389404Y37855D01*
X389532Y38826D01*
Y40186D01*
X389404Y41157D01*
X389029Y42062D01*
X388433Y42839D01*
X388386Y42876D01*
X388590Y43476D01*
X390426D01*
X390953Y43371D01*
X391449Y43165D01*
X391896Y42867D01*
X392276Y42487D01*
X392575Y42040D01*
X392780Y41544D01*
X392885Y41017D01*
Y40748D01*
X392885Y8465D01*
Y8196D01*
X392780Y7669D01*
X392575Y7173D01*
X392276Y6726D01*
X391896Y6346D01*
X391449Y6047D01*
X390953Y5842D01*
X390426Y5737D01*
X390157Y5737D01*
X388590D01*
X388386Y6337D01*
X388433Y6373D01*
X389029Y7150D01*
X389404Y8055D01*
X389532Y9026D01*
Y10386D01*
X389404Y11357D01*
X389029Y12262D01*
X388433Y13039D01*
X387656Y13636D01*
X386751Y14011D01*
X385780Y14138D01*
X382220D01*
X381249Y14011D01*
X380344Y13636D01*
X379567Y13039D01*
X378971Y12262D01*
X378596Y11357D01*
X378468Y10386D01*
Y9026D01*
X378596Y8055D01*
X378971Y7150D01*
X379567Y6373D01*
X379614Y6337D01*
X379411Y5737D01*
X345736D01*
X345587Y6173D01*
X345574Y6337D01*
X347163Y7940D01*
X347175Y7959D01*
X347480Y8085D01*
X347500Y8081D01*
X348214D01*
Y8306D01*
X348293Y8230D01*
X348373Y8162D01*
X348454Y8102D01*
X348488Y8081D01*
X355012D01*
X355046Y8102D01*
X355127Y8162D01*
X355207Y8230D01*
X355286Y8306D01*
Y8081D01*
X356714D01*
Y8306D01*
X356793Y8230D01*
X356873Y8162D01*
X356954Y8102D01*
X356988Y8081D01*
X359350D01*
Y8080D01*
X360146Y8185D01*
X360888Y8492D01*
X361525Y8981D01*
X362014Y9618D01*
X362321Y10360D01*
X362426Y11156D01*
X362425D01*
Y11806D01*
X362438D01*
X362286Y12965D01*
X361839Y14045D01*
X361773Y14130D01*
X361762Y14157D01*
X361751Y14192D01*
X361741Y14228D01*
X361733Y14266D01*
X361728Y14294D01*
X361720Y14408D01*
X361739Y14506D01*
X361627Y15069D01*
X361987Y15528D01*
X362089Y15589D01*
X362200Y15567D01*
X362980Y15722D01*
X363642Y16164D01*
X364084Y16826D01*
X364219Y17503D01*
X364552Y17731D01*
X364806Y17832D01*
X365020Y17689D01*
X365800Y17534D01*
X366580Y17689D01*
X367242Y18131D01*
X367684Y18793D01*
X367839Y19573D01*
X367684Y20354D01*
X367242Y21015D01*
X366580Y21457D01*
X365800Y21612D01*
X365020Y21457D01*
X364358Y21015D01*
X364348Y21001D01*
X350756D01*
Y21007D01*
X350438Y21070D01*
X350170Y21250D01*
X349990Y21519D01*
X349927Y21836D01*
X349920D01*
Y25162D01*
X349935Y25172D01*
X350034Y25320D01*
X350000D01*
X350076Y25399D01*
X350128Y25461D01*
X350279Y25686D01*
X350300Y25726D01*
X350336Y25811D01*
X350364Y25897D01*
X350384Y25983D01*
X350396Y26071D01*
X350400Y26160D01*
X350442D01*
X350532Y26613D01*
X350377Y27394D01*
X349935Y28055D01*
X349273Y28497D01*
X348493Y28653D01*
X348383Y28631D01*
X347920Y29011D01*
Y34091D01*
X348289Y34164D01*
X348289Y34164D01*
X348289Y34164D01*
X348657Y34317D01*
X348657Y34317D01*
X348987Y34538D01*
X349269Y34819D01*
X349269Y34819D01*
X349269Y34819D01*
X349379Y34983D01*
X349490Y35150D01*
X349490Y35150D01*
X349490Y35150D01*
X349642Y35517D01*
X349642Y35517D01*
X349642Y35517D01*
X349720Y35907D01*
X349720Y36106D01*
X349720Y39106D01*
X349720Y39106D01*
X349720Y39305D01*
X349642Y39695D01*
X349642Y39695D01*
X349490Y40063D01*
X349490Y40063D01*
X349490Y40063D01*
X349379Y40229D01*
X349269Y40394D01*
X349269Y40394D01*
X349269Y40394D01*
X348987Y40675D01*
X348987Y40675D01*
X348657Y40896D01*
X348289Y41048D01*
X348289Y41048D01*
X348289Y41048D01*
X348054Y41095D01*
X347899Y41126D01*
X347899Y41126D01*
X347899Y41126D01*
X347700Y41126D01*
X346175Y41126D01*
X346094Y41137D01*
X346014Y41126D01*
X343900Y41126D01*
X343900Y41126D01*
X343602Y41126D01*
X343212Y41048D01*
X342660Y40820D01*
X342329Y40599D01*
X341908Y40177D01*
X341770Y39971D01*
X341687Y39846D01*
X341458Y39295D01*
X341380Y38905D01*
X341380Y38606D01*
X341380Y38606D01*
X341380Y38606D01*
X341380Y15707D01*
X341380Y15707D01*
X341380Y15401D01*
X341400Y15303D01*
X341400Y15202D01*
X341519Y14603D01*
X341558Y14511D01*
X341577Y14412D01*
X341811Y13848D01*
X341866Y13764D01*
X341879Y13735D01*
X341786Y13521D01*
X341513Y13178D01*
X341018Y13243D01*
X340196Y13584D01*
X339943Y13778D01*
X339492Y14139D01*
X339492Y14139D01*
X338461Y14985D01*
X337278Y15618D01*
X335993Y16008D01*
X334658Y16139D01*
Y16134D01*
X329489D01*
X329369Y16734D01*
X328872Y17479D01*
X328128Y17976D01*
X327250Y18150D01*
X317750D01*
X316872Y17976D01*
X316128Y17479D01*
X315631Y16734D01*
X315456Y15856D01*
Y13356D01*
X315631Y12478D01*
X315773Y12265D01*
X315490Y11736D01*
X122000Y11736D01*
X121937Y11723D01*
X120411Y11874D01*
X118883Y12337D01*
X117474Y13090D01*
X116288Y14063D01*
X116253Y14116D01*
X111227Y19142D01*
X111241Y19156D01*
X109689Y20430D01*
X107919Y21376D01*
X105998Y21959D01*
X104000Y22156D01*
Y22136D01*
X88424D01*
X87966Y22736D01*
X88039Y23106D01*
X88038Y23110D01*
X88367Y23574D01*
X88367Y23574D01*
X89168Y24618D01*
X89346Y25047D01*
X89366Y25070D01*
X89383Y25120D01*
X89414Y25162D01*
X89440Y25220D01*
X89457Y25251D01*
X89475Y25282D01*
X89496Y25313D01*
X89521Y25344D01*
X89549Y25377D01*
X89572Y25402D01*
X89669Y25489D01*
X89724Y25532D01*
X89762Y25576D01*
X89942Y25696D01*
X90384Y26357D01*
X90539Y27138D01*
X90504Y27317D01*
X90884Y27781D01*
X98879D01*
X99198Y27304D01*
X100024Y26751D01*
X101000Y26557D01*
X101976Y26751D01*
X102802Y27304D01*
X103355Y28131D01*
X103549Y29106D01*
X103355Y30082D01*
X103021Y30582D01*
X103802Y31104D01*
X104355Y31931D01*
X104549Y32906D01*
X104355Y33882D01*
X103802Y34709D01*
X102975Y35261D01*
X102000Y35455D01*
X101024Y35261D01*
X100198Y34709D01*
X99879Y34232D01*
X82037D01*
X81968Y34245D01*
X81188Y34090D01*
X80527Y33648D01*
X80085Y32987D01*
X79929Y32206D01*
X80085Y31426D01*
X80527Y30764D01*
X80883Y30527D01*
X81116Y29887D01*
X80961Y29106D01*
X81116Y28326D01*
X81558Y27664D01*
X82220Y27222D01*
X83000Y27067D01*
X83780Y27222D01*
X84442Y27664D01*
X84490Y27737D01*
X84507Y27751D01*
X84530Y27768D01*
X84548Y27779D01*
X84551Y27781D01*
X86116D01*
X86497Y27317D01*
X86461Y27138D01*
X86616Y26357D01*
X86840Y26023D01*
X86856Y25986D01*
X86525Y25491D01*
X86480Y25461D01*
X86159Y25140D01*
X86156Y25139D01*
X86136Y25135D01*
X86107Y25130D01*
X86085Y25128D01*
X86000Y25146D01*
X85220Y24990D01*
X84558Y24548D01*
X84116Y23887D01*
X83961Y23106D01*
X84035Y22736D01*
X83577Y22136D01*
X77374D01*
X76843Y22490D01*
X76063Y22646D01*
X75283Y22490D01*
X75125Y22385D01*
X74525Y22706D01*
Y33677D01*
X74531Y33699D01*
X74541Y33729D01*
X74556Y33766D01*
X74571Y33799D01*
X74641Y33925D01*
X74685Y33993D01*
X74719Y34079D01*
X74884Y34326D01*
X75039Y35106D01*
X74884Y35887D01*
X74442Y36548D01*
X73780Y36990D01*
X73186Y37108D01*
X73274Y37703D01*
X74352Y37596D01*
X74500Y37567D01*
X74550Y37577D01*
X74550Y37577D01*
X74600Y37567D01*
X77523D01*
X78031Y37906D01*
X78540Y37567D01*
X88085D01*
X88300Y37906D01*
X88386Y37908D01*
X88473Y37912D01*
X88737Y37944D01*
X88826Y37960D01*
X89097Y38028D01*
X89188Y38056D01*
X89500Y37765D01*
X89289Y37567D01*
X89711D01*
X89500Y37765D01*
X89811Y38056D01*
X89903Y38028D01*
X90174Y37960D01*
X90263Y37944D01*
X90527Y37912D01*
X90614Y37908D01*
X90700Y37906D01*
X90806Y37739D01*
X91442Y38164D01*
X91884Y38826D01*
X92039Y39606D01*
X91884Y40387D01*
X91442Y41048D01*
X90780Y41490D01*
X90000Y41646D01*
X74600D01*
X74554Y41636D01*
X74531Y41639D01*
X74500Y41646D01*
X74494Y41644D01*
X73812Y41734D01*
X73077Y42038D01*
X72907Y42169D01*
X72458Y42532D01*
X72457Y42533D01*
X72457Y42533D01*
X72034Y42956D01*
X70371Y44619D01*
X70356Y44629D01*
X68933Y45845D01*
X67323Y46831D01*
X65578Y47554D01*
X64567Y47797D01*
X64638Y48397D01*
X83434Y48397D01*
D02*
G37*
G36*
X361486Y16906D02*
X361425Y16963D01*
X361360Y17014D01*
X361290Y17059D01*
X361216Y17098D01*
X361138Y17131D01*
X361056Y17158D01*
X360969Y17179D01*
X360878Y17194D01*
X360783Y17203D01*
X360683Y17206D01*
Y18006D01*
X360783Y18009D01*
X360878Y18018D01*
X360969Y18033D01*
X361056Y18054D01*
X361138Y18081D01*
X361216Y18114D01*
X361290Y18153D01*
X361360Y18198D01*
X361425Y18249D01*
X361486Y18306D01*
Y16906D01*
D02*
G37*
G36*
X109402Y16641D02*
X109411Y16536D01*
X109426Y16437D01*
X109447Y16342D01*
X109475Y16251D01*
X109509Y16166D01*
X109550Y16086D01*
X109597Y16010D01*
X109651Y15940D01*
X109711Y15874D01*
X109287Y15450D01*
X109221Y15510D01*
X109150Y15563D01*
X109075Y15611D01*
X108994Y15652D01*
X108909Y15686D01*
X108819Y15714D01*
X108724Y15735D01*
X108624Y15750D01*
X108520Y15759D01*
X108410Y15761D01*
X109400Y16751D01*
X109402Y16641D01*
D02*
G37*
G36*
X323775Y15349D02*
X323840Y15298D01*
X323910Y15253D01*
X323984Y15214D01*
X324062Y15181D01*
X324144Y15154D01*
X324231Y15133D01*
X324322Y15118D01*
X324417Y15109D01*
X324517Y15106D01*
Y14306D01*
X324417Y14303D01*
X324322Y14294D01*
X324231Y14279D01*
X324144Y14258D01*
X324062Y14231D01*
X323984Y14198D01*
X323910Y14159D01*
X323840Y14114D01*
X323775Y14063D01*
X323714Y14006D01*
Y15406D01*
X323775Y15349D01*
D02*
G37*
G36*
X328495Y15430D02*
X328519Y15362D01*
X328560Y15302D01*
X328617Y15250D01*
X328690Y15206D01*
X328779Y15170D01*
X328885Y15142D01*
X329006Y15122D01*
X329144Y15110D01*
X329299Y15106D01*
Y14306D01*
X329144Y14302D01*
X329006Y14290D01*
X328885Y14270D01*
X328779Y14242D01*
X328690Y14206D01*
X328617Y14162D01*
X328560Y14110D01*
X328519Y14050D01*
X328495Y13982D01*
X328487Y13906D01*
Y15506D01*
X328495Y15430D01*
D02*
G37*
G36*
X360700Y14377D02*
X360714Y14177D01*
X360730Y14080D01*
X360750Y13985D01*
X360775Y13893D01*
X360806Y13803D01*
X360841Y13714D01*
X360882Y13629D01*
X360928Y13545D01*
X360481Y13114D01*
X360437Y13188D01*
X360385Y13254D01*
X360325Y13313D01*
X360258Y13363D01*
X360183Y13406D01*
X360101Y13442D01*
X360010Y13469D01*
X359912Y13489D01*
X359807Y13502D01*
X359694Y13506D01*
X360700Y14480D01*
X360700Y14377D01*
D02*
G37*
G36*
X100985Y12015D02*
X100999Y11984D01*
X101020Y11948D01*
X101048Y11907D01*
X101084Y11861D01*
X101178Y11755D01*
X101302Y11629D01*
X101374Y11559D01*
X98575Y11510D01*
X98652Y11589D01*
X98876Y11847D01*
X98911Y11896D01*
X98937Y11939D01*
X98955Y11976D01*
X98964Y12006D01*
X98964Y12031D01*
X100979Y12041D01*
X100985Y12015D01*
D02*
G37*
G36*
X84447Y12492D02*
X84571Y12458D01*
X84738Y12400D01*
X85203Y12209D01*
X85844Y11920D01*
X84481Y11438D01*
X84999Y11483D01*
X85258Y10535D01*
X84568Y10359D01*
X84602Y10430D01*
X84623Y10509D01*
X84632Y10596D01*
X84629Y10691D01*
X84614Y10794D01*
X84586Y10905D01*
X84547Y11023D01*
X84495Y11150D01*
X84431Y11285D01*
X84370Y11399D01*
X83204Y10986D01*
X83766Y12149D01*
X84391Y12381D01*
X84339Y12446D01*
X84332Y12486D01*
X84368Y12501D01*
X84447Y12492D01*
D02*
G37*
G36*
X359142Y10219D02*
X357986Y10206D01*
X357784Y10806D01*
X357882Y10810D01*
X357969Y10822D01*
X358047Y10842D01*
X358114Y10870D01*
X358171Y10906D01*
X358217Y10950D01*
X358254Y11002D01*
X358279Y11062D01*
X358295Y11130D01*
X358300Y11206D01*
X359142Y10219D01*
D02*
G37*
G36*
X18009Y11068D02*
X18027Y10965D01*
X18053Y10869D01*
X18085Y10780D01*
X18124Y10697D01*
X18170Y10622D01*
X18223Y10553D01*
X18283Y10492D01*
X18350Y10437D01*
X18424Y10389D01*
X18028Y9925D01*
X17948Y9970D01*
X17865Y10008D01*
X17779Y10041D01*
X17691Y10068D01*
X17598Y10089D01*
X17503Y10105D01*
X17405Y10115D01*
X17303Y10119D01*
X17199Y10118D01*
X17091Y10110D01*
X17998Y11178D01*
X18009Y11068D01*
D02*
G37*
G36*
X335786Y9506D02*
X335743Y9544D01*
X335693Y9578D01*
X335636Y9608D01*
X335572Y9634D01*
X335500Y9656D01*
X335421Y9674D01*
X335335Y9688D01*
X335242Y9698D01*
X335034Y9706D01*
Y10706D01*
X335142Y10708D01*
X335335Y10724D01*
X335421Y10738D01*
X335500Y10756D01*
X335572Y10778D01*
X335636Y10804D01*
X335693Y10834D01*
X335743Y10868D01*
X335786Y10906D01*
Y9506D01*
D02*
G37*
G36*
X339342Y8119D02*
X338900Y8106D01*
X337983Y8706D01*
X338082Y8710D01*
X338169Y8722D01*
X338247Y8742D01*
X338314Y8770D01*
X338371Y8806D01*
X338417Y8850D01*
X338454Y8902D01*
X338479Y8962D01*
X338495Y9030D01*
X338500Y9106D01*
X339342Y8119D01*
D02*
G37*
G36*
X17793Y8730D02*
X17873Y8662D01*
X17954Y8602D01*
X18037Y8550D01*
X18120Y8506D01*
X18205Y8470D01*
X18290Y8442D01*
X18377Y8422D01*
X18465Y8410D01*
X18554Y8406D01*
Y7806D01*
X18465Y7802D01*
X18377Y7790D01*
X18290Y7770D01*
X18205Y7742D01*
X18120Y7706D01*
X18037Y7662D01*
X17954Y7610D01*
X17873Y7550D01*
X17793Y7482D01*
X17714Y7406D01*
Y8806D01*
X17793Y8730D01*
D02*
G37*
%LPC*%
G36*
X34500Y45645D02*
X33720Y45490D01*
X33058Y45048D01*
X32616Y44387D01*
X32527Y43940D01*
X32353Y43868D01*
X31832Y43468D01*
X31765Y43435D01*
X31745Y43413D01*
X31718Y43398D01*
X31685Y43355D01*
X31464Y43185D01*
X30782Y42296D01*
X30772Y42272D01*
X30122D01*
X30116Y42287D01*
X29269Y43391D01*
X28165Y44238D01*
X27586Y44478D01*
X27560Y44500D01*
X27503Y44519D01*
X27454Y44552D01*
X27397Y44577D01*
X27368Y44591D01*
X27339Y44608D01*
X27310Y44627D01*
X27279Y44650D01*
X27248Y44676D01*
X27224Y44698D01*
X27137Y44792D01*
X27094Y44846D01*
X27055Y44879D01*
X26942Y45048D01*
X26280Y45490D01*
X25500Y45645D01*
X24720Y45490D01*
X24058Y45048D01*
X23830Y44707D01*
X23536Y44466D01*
X23134Y44439D01*
X23037Y44450D01*
X23004Y44475D01*
X22945Y44505D01*
X22912Y44524D01*
X22879Y44545D01*
X22856Y44562D01*
X22769Y44636D01*
X22752Y44653D01*
X22666Y44752D01*
X22623Y44808D01*
X22572Y44853D01*
X22442Y45048D01*
X21780Y45490D01*
X21000Y45645D01*
X20220Y45490D01*
X19558Y45048D01*
X19116Y44387D01*
X18961Y43606D01*
X19116Y42826D01*
X19558Y42164D01*
X20101Y41802D01*
X20234Y41567D01*
X20278Y41099D01*
X20088Y40815D01*
X19980Y40269D01*
Y38471D01*
X19923Y38387D01*
X19768Y37606D01*
X19923Y36826D01*
X19980Y36741D01*
Y31069D01*
X20088Y30523D01*
X20398Y30060D01*
X20861Y29750D01*
X21407Y29642D01*
X22207D01*
X22753Y29750D01*
X23087Y29973D01*
X23420Y29750D01*
X23966Y29642D01*
X24766D01*
X25312Y29750D01*
X25646Y29973D01*
X25979Y29750D01*
X26525Y29642D01*
X27325D01*
X27871Y29750D01*
X28205Y29973D01*
X28538Y29750D01*
X29084Y29642D01*
X29884D01*
X30430Y29750D01*
X30764Y29973D01*
X31097Y29750D01*
X31643Y29642D01*
X32443D01*
X32989Y29750D01*
X33323Y29973D01*
X33656Y29750D01*
X34102Y29662D01*
Y35669D01*
X35102D01*
Y29662D01*
X35549Y29750D01*
X35882Y29973D01*
X36215Y29750D01*
X36761Y29642D01*
X37561D01*
X38108Y29750D01*
X38441Y29973D01*
X38774Y29750D01*
X39320Y29642D01*
X40121D01*
X40667Y29750D01*
X41000Y29973D01*
X41333Y29750D01*
X41780Y29662D01*
Y35669D01*
Y41677D01*
X41333Y41588D01*
X41000Y41365D01*
X40667Y41588D01*
X40121Y41697D01*
X39320D01*
X38774Y41588D01*
X38751Y41594D01*
X38446Y42088D01*
X38445Y42090D01*
X38432Y42109D01*
X38397Y42195D01*
X38286Y42339D01*
X38232Y42425D01*
X38190Y42469D01*
X38161Y42523D01*
X38118Y42558D01*
X37682Y43127D01*
X36750Y43842D01*
X36469Y43958D01*
X36384Y44387D01*
X35942Y45048D01*
X35280Y45490D01*
X34500Y45645D01*
D02*
G37*
G36*
X45239Y41697D02*
X44439D01*
X43892Y41588D01*
X43559Y41365D01*
X43226Y41588D01*
X42779Y41677D01*
Y35669D01*
Y29662D01*
X43226Y29750D01*
X43559Y29973D01*
X43892Y29750D01*
X44439Y29642D01*
X45239D01*
X45785Y29750D01*
X46118Y29973D01*
X46451Y29750D01*
X46898Y29662D01*
Y35669D01*
Y41677D01*
X46451Y41588D01*
X46118Y41365D01*
X45785Y41588D01*
X45239Y41697D01*
D02*
G37*
G36*
X17044Y44106D02*
X10500D01*
Y42120D01*
X11000D01*
X10905Y42110D01*
X10820Y42079D01*
X10745Y42029D01*
X10680Y41958D01*
X10625Y41867D01*
X10580Y41755D01*
X10545Y41624D01*
X10520Y41472D01*
X10505Y41300D01*
X10500Y41108D01*
Y41062D01*
X14750D01*
X15628Y41237D01*
X16372Y41734D01*
X16870Y42478D01*
X17044Y43356D01*
Y44106D01*
D02*
G37*
G36*
X9500D02*
X2956D01*
Y43356D01*
X3131Y42478D01*
X3628Y41734D01*
X4372Y41237D01*
X5250Y41062D01*
X9500D01*
Y41108D01*
X9500D01*
X9495Y41300D01*
X9480Y41472D01*
X9455Y41624D01*
X9420Y41755D01*
X9375Y41867D01*
X9320Y41958D01*
X9255Y42029D01*
X9180Y42079D01*
X9095Y42110D01*
X9000Y42120D01*
X9500D01*
Y44106D01*
D02*
G37*
G36*
X14750Y38150D02*
X10500D01*
Y38105D01*
X10505Y37913D01*
X10520Y37741D01*
X10545Y37589D01*
X10580Y37457D01*
X10625Y37346D01*
X10680Y37255D01*
X10745Y37184D01*
X10820Y37133D01*
X10905Y37103D01*
X11000Y37093D01*
X10500D01*
Y36072D01*
X10502Y35965D01*
X10518Y35771D01*
X10532Y35685D01*
X10550Y35606D01*
X10572Y35535D01*
X10598Y35471D01*
X10628Y35413D01*
X10662Y35363D01*
X10700Y35320D01*
X10500D01*
Y35106D01*
X17044D01*
Y35856D01*
X16870Y36734D01*
X16372Y37479D01*
X15628Y37976D01*
X14750Y38150D01*
D02*
G37*
G36*
X9500D02*
X5250D01*
X4372Y37976D01*
X3628Y37479D01*
X3131Y36734D01*
X2956Y35856D01*
Y35106D01*
X9500D01*
Y35320D01*
X9300D01*
X9338Y35363D01*
X9372Y35413D01*
X9402Y35471D01*
X9428Y35535D01*
X9450Y35606D01*
X9468Y35685D01*
X9482Y35771D01*
X9492Y35864D01*
X9500Y36072D01*
X9500D01*
Y37093D01*
X9000D01*
X9095Y37103D01*
X9180Y37133D01*
X9255Y37184D01*
X9320Y37255D01*
X9375Y37346D01*
X9420Y37457D01*
X9455Y37589D01*
X9480Y37741D01*
X9495Y37913D01*
X9500Y38105D01*
X9500D01*
Y38150D01*
D02*
G37*
G36*
X17044Y34106D02*
X10500D01*
Y33892D01*
X10700D01*
X10662Y33849D01*
X10628Y33799D01*
X10598Y33742D01*
X10572Y33678D01*
X10550Y33606D01*
X10532Y33527D01*
X10518Y33441D01*
X10508Y33348D01*
X10500Y33141D01*
Y32120D01*
X11000D01*
X10905Y32109D01*
X10820Y32079D01*
X10745Y32029D01*
X10680Y31958D01*
X10625Y31867D01*
X10580Y31755D01*
X10545Y31624D01*
X10520Y31472D01*
X10505Y31300D01*
X10500Y31108D01*
Y31062D01*
X14750D01*
X15628Y31237D01*
X16372Y31734D01*
X16870Y32478D01*
X17044Y33356D01*
Y34106D01*
D02*
G37*
G36*
X9500D02*
X2956D01*
Y33356D01*
X3131Y32478D01*
X3628Y31734D01*
X4372Y31237D01*
X5250Y31062D01*
X9500D01*
Y31108D01*
X9500D01*
X9495Y31300D01*
X9480Y31472D01*
X9455Y31624D01*
X9420Y31755D01*
X9375Y31867D01*
X9320Y31958D01*
X9255Y32029D01*
X9180Y32079D01*
X9095Y32109D01*
X9000Y32120D01*
X9500D01*
Y33140D01*
X9500D01*
X9498Y33248D01*
X9482Y33441D01*
X9468Y33527D01*
X9450Y33606D01*
X9428Y33678D01*
X9402Y33742D01*
X9372Y33799D01*
X9338Y33849D01*
X9300Y33892D01*
X9500D01*
Y34106D01*
D02*
G37*
G36*
X14750Y28150D02*
X10500D01*
Y28105D01*
D01*
X10505Y27913D01*
X10520Y27741D01*
X10545Y27589D01*
X10580Y27457D01*
X10625Y27346D01*
X10680Y27255D01*
X10745Y27184D01*
X10820Y27134D01*
X10905Y27103D01*
X11000Y27093D01*
X10500D01*
Y25106D01*
X17044D01*
Y25856D01*
X16870Y26734D01*
X16372Y27479D01*
X15628Y27976D01*
X14750Y28150D01*
D02*
G37*
G36*
X9500D02*
X5250D01*
X4372Y27976D01*
X3628Y27479D01*
X3131Y26734D01*
X2956Y25856D01*
Y25106D01*
X9500D01*
Y27093D01*
X9000D01*
X9095Y27103D01*
X9180Y27134D01*
X9255Y27184D01*
X9320Y27255D01*
X9375Y27346D01*
X9420Y27457D01*
X9455Y27589D01*
X9480Y27741D01*
X9495Y27913D01*
X9500Y28105D01*
Y28150D01*
D02*
G37*
G36*
X17044Y24106D02*
X10500D01*
Y22120D01*
X11000D01*
X10905Y22109D01*
X10820Y22079D01*
X10745Y22028D01*
X10680Y21958D01*
X10625Y21867D01*
X10580Y21755D01*
X10545Y21624D01*
X10520Y21472D01*
X10505Y21300D01*
X10500Y21108D01*
Y21062D01*
X14750D01*
X15628Y21237D01*
X16372Y21734D01*
X16870Y22478D01*
X17044Y23356D01*
Y24106D01*
D02*
G37*
G36*
X9500D02*
X2956D01*
Y23356D01*
X3131Y22478D01*
X3628Y21734D01*
X4372Y21237D01*
X5250Y21062D01*
X9500D01*
Y21108D01*
D01*
X9495Y21300D01*
X9480Y21472D01*
X9455Y21624D01*
X9420Y21755D01*
X9375Y21867D01*
X9320Y21958D01*
X9255Y22028D01*
X9180Y22079D01*
X9095Y22109D01*
X9000Y22120D01*
X9500D01*
Y24106D01*
D02*
G37*
G36*
X14750Y18150D02*
X10500D01*
Y18105D01*
D01*
X10505Y17913D01*
X10520Y17741D01*
X10545Y17589D01*
X10580Y17457D01*
X10625Y17346D01*
X10680Y17255D01*
X10745Y17184D01*
X10820Y17133D01*
X10905Y17103D01*
X11000Y17093D01*
X10500D01*
Y15106D01*
X17044D01*
Y15856D01*
X16870Y16734D01*
X16372Y17479D01*
X15628Y17976D01*
X14750Y18150D01*
D02*
G37*
G36*
X9500D02*
X5250D01*
X4372Y17976D01*
X3628Y17479D01*
X3131Y16734D01*
X2956Y15856D01*
Y15106D01*
X9500D01*
Y17093D01*
X9000D01*
X9095Y17103D01*
X9180Y17133D01*
X9255Y17184D01*
X9320Y17255D01*
X9375Y17346D01*
X9420Y17457D01*
X9455Y17589D01*
X9480Y17741D01*
X9495Y17913D01*
X9500Y18105D01*
Y18150D01*
D02*
G37*
G36*
Y14106D02*
X2956D01*
Y13356D01*
X3131Y12478D01*
X3628Y11734D01*
X4372Y11237D01*
X5250Y11062D01*
X9500D01*
Y11108D01*
D01*
X9495Y11300D01*
X9480Y11472D01*
X9455Y11624D01*
X9420Y11755D01*
X9375Y11867D01*
X9320Y11958D01*
X9255Y12028D01*
X9180Y12079D01*
X9095Y12110D01*
X9000Y12120D01*
X9500D01*
Y14106D01*
D02*
G37*
G36*
Y8150D02*
X5250D01*
X4372Y7976D01*
X3628Y7479D01*
X3131Y6734D01*
X2956Y5856D01*
Y5106D01*
X9500D01*
Y7093D01*
X9000D01*
X9095Y7103D01*
X9180Y7134D01*
X9255Y7184D01*
X9320Y7255D01*
X9375Y7346D01*
X9420Y7457D01*
X9455Y7589D01*
X9480Y7741D01*
X9495Y7913D01*
X9500Y8105D01*
Y8150D01*
D02*
G37*
%LPD*%
G36*
X26362Y44128D02*
X26501Y43978D01*
X26574Y43910D01*
X26649Y43848D01*
X26726Y43791D01*
X26805Y43739D01*
X26886Y43692D01*
X26970Y43650D01*
X27055Y43614D01*
X26977Y42997D01*
X26895Y43028D01*
X26812Y43048D01*
X26728Y43057D01*
X26644Y43055D01*
X26558Y43043D01*
X26472Y43020D01*
X26386Y42987D01*
X26298Y42943D01*
X26210Y42888D01*
X26121Y42822D01*
X26296Y44211D01*
X26362Y44128D01*
D02*
G37*
G36*
X21874Y44109D02*
X22007Y43955D01*
X22078Y43885D01*
X22225Y43759D01*
X22303Y43703D01*
X22382Y43652D01*
X22464Y43605D01*
X22548Y43563D01*
X22453Y42940D01*
X22374Y42977D01*
X22293Y43003D01*
X22211Y43017D01*
X22128Y43021D01*
X22043Y43013D01*
X21958Y42994D01*
X21870Y42965D01*
X21782Y42924D01*
X21693Y42871D01*
X21602Y42808D01*
X21810Y44192D01*
X21874Y44109D01*
D02*
G37*
G36*
X24554Y41126D02*
X24624Y40914D01*
X24663Y40828D01*
X24705Y40755D01*
X24750Y40696D01*
X24798Y40650D01*
X24849Y40617D01*
X24903Y40598D01*
X24960Y40592D01*
X23750Y40577D01*
X23804Y40584D01*
X23849Y40605D01*
X23886Y40639D01*
X23913Y40686D01*
X23932Y40746D01*
X23943Y40820D01*
X23944Y40907D01*
X23937Y41007D01*
X23921Y41120D01*
X23896Y41247D01*
X24524Y41252D01*
X24554Y41126D01*
D02*
G37*
G36*
X29515Y41114D02*
X29610Y40913D01*
X29660Y40833D01*
X29711Y40766D01*
X29763Y40712D01*
X29817Y40672D01*
X29872Y40645D01*
X29928Y40632D01*
X29986Y40632D01*
X28779Y40490D01*
X28831Y40503D01*
X28873Y40529D01*
X28904Y40569D01*
X28924Y40622D01*
X28934Y40688D01*
X28933Y40767D01*
X28921Y40859D01*
X28899Y40965D01*
X28866Y41083D01*
X28822Y41215D01*
X29469Y41235D01*
X29515Y41114D01*
D02*
G37*
G36*
X37584Y41543D02*
X38068Y40651D01*
X38096Y40541D01*
X38088Y40475D01*
X38043Y40455D01*
X37960Y40479D01*
X37841Y40549D01*
X36378Y38840D01*
X36469Y38980D01*
X36525Y39145D01*
X36545Y39335D01*
X36529Y39551D01*
X36479Y39791D01*
X36392Y40057D01*
X36271Y40349D01*
X36114Y40665D01*
X35693Y41374D01*
X37371Y41878D01*
X37584Y41543D01*
D02*
G37*
G36*
X33422Y41408D02*
X33210Y41036D01*
X32887Y40367D01*
X32777Y40072D01*
X32700Y39802D01*
X32658Y39558D01*
X32649Y39339D01*
X32674Y39146D01*
X32734Y38978D01*
X32827Y38837D01*
X31364Y40549D01*
X31309Y40527D01*
X31289Y40555D01*
X31304Y40635D01*
X31354Y40766D01*
X31438Y40947D01*
X31900Y41800D01*
X32382Y42623D01*
X33422Y41408D01*
D02*
G37*
%LPC*%
G36*
X355300Y12606D02*
X355300D01*
D01*
X355300D01*
D02*
G37*
G36*
X357906Y41137D02*
X356992Y41016D01*
X356140Y40663D01*
X355409Y40102D01*
X354848Y39371D01*
X354496Y38520D01*
X354405Y37829D01*
X354555Y37858D01*
X354722Y37914D01*
X354885Y37992D01*
X355044Y38092D01*
X355199Y38214D01*
X355350Y38358D01*
X355498Y38525D01*
X355642Y38714D01*
X355782Y38925D01*
X355885Y36134D01*
X355727Y36340D01*
X355566Y36523D01*
X355404Y36685D01*
X355239Y36825D01*
X355073Y36944D01*
X354905Y37041D01*
X354734Y37117D01*
X354561Y37171D01*
X354429Y37195D01*
X354496Y36693D01*
X354848Y35841D01*
X355409Y35110D01*
X356140Y34549D01*
X356992Y34196D01*
X357906Y34076D01*
X358819Y34196D01*
X358985Y34265D01*
X359019Y34237D01*
X359345Y33765D01*
X359210Y33563D01*
X359172Y33470D01*
X359116Y33387D01*
X359097Y33288D01*
X359058Y33195D01*
X358980Y32805D01*
X358980Y32705D01*
X358961Y32606D01*
X358980Y32508D01*
X358980Y30205D01*
X358961Y30106D01*
X358980Y30008D01*
X358980Y27705D01*
X358961Y27606D01*
X358980Y27508D01*
X358980Y25506D01*
X358980Y25506D01*
X358980Y25506D01*
X358980Y25307D01*
X359058Y24917D01*
X359058Y24917D01*
X359210Y24549D01*
X359431Y24219D01*
X359431Y24219D01*
X359713Y23937D01*
X359713Y23937D01*
X360043Y23717D01*
X360411Y23564D01*
X360801Y23487D01*
X361000Y23487D01*
X368946Y23487D01*
X368970Y23477D01*
X368980Y23452D01*
X368981Y19705D01*
X368961Y19606D01*
X368981Y19508D01*
X368980Y19408D01*
X368980Y19408D01*
X368980Y19407D01*
X369014Y19241D01*
X369058Y19017D01*
X369058Y19017D01*
X369058Y19017D01*
X369096Y18925D01*
X369116Y18826D01*
X369172Y18743D01*
X369210Y18650D01*
X369210Y18650D01*
X369210Y18650D01*
X369335Y18463D01*
X369431Y18319D01*
X369431Y18319D01*
X369431Y18319D01*
X369502Y18248D01*
X369558Y18164D01*
X369641Y18109D01*
X369713Y18037D01*
X369713Y18037D01*
X369838Y17467D01*
X369818Y17317D01*
X369800Y17276D01*
X369643Y17071D01*
X369290Y16220D01*
X369170Y15306D01*
Y14906D01*
X369290Y13993D01*
X369643Y13141D01*
X370204Y12410D01*
X370935Y11849D01*
X371786Y11496D01*
X372700Y11376D01*
X373614Y11496D01*
X374465Y11849D01*
X375196Y12410D01*
X375757Y13141D01*
X376110Y13993D01*
X376230Y14906D01*
Y15306D01*
X376110Y16220D01*
X375792Y16987D01*
X375800Y17031D01*
X375890Y17272D01*
X376057Y17525D01*
X376118Y17587D01*
X376198Y17587D01*
X376199Y17587D01*
X376199Y17587D01*
X376389Y17624D01*
X376589Y17664D01*
X376589Y17664D01*
X376589Y17664D01*
X376682Y17703D01*
X376780Y17722D01*
X376863Y17778D01*
X376957Y17816D01*
X376957Y17816D01*
X376957Y17816D01*
X377111Y17920D01*
X377287Y18037D01*
X377287Y18037D01*
X377288Y18037D01*
X377359Y18109D01*
X377442Y18164D01*
X377497Y18247D01*
X377569Y18319D01*
X377569Y18319D01*
X377569Y18319D01*
X377669Y18468D01*
X377790Y18650D01*
X377790Y18650D01*
X377790Y18650D01*
X377829Y18743D01*
X377884Y18826D01*
X377903Y18924D01*
X377942Y19017D01*
X377942Y19017D01*
X377942Y19018D01*
X377981Y19214D01*
X378020Y19408D01*
X378020Y19408D01*
X378020Y19408D01*
X378020Y19508D01*
X378039Y19606D01*
X378020Y19705D01*
X378019Y27507D01*
X378019Y27507D01*
X378019Y27705D01*
X377942Y28095D01*
X377942Y28095D01*
X377942Y28095D01*
X377790Y28463D01*
X377569Y28794D01*
X377287Y29075D01*
X377287Y29075D01*
X376957Y29296D01*
X376589Y29448D01*
X376589Y29448D01*
X376369Y29492D01*
X376199Y29526D01*
X376199Y29526D01*
X376199Y29526D01*
X365054Y29526D01*
X365030Y29536D01*
X365020Y29560D01*
Y32607D01*
X365020Y32607D01*
X365020Y32806D01*
X364981Y33000D01*
X364942Y33196D01*
X364790Y33563D01*
X364569Y33894D01*
X364287Y34175D01*
X364090Y34307D01*
X363957Y34396D01*
X363957Y34396D01*
X363957Y34396D01*
X363589Y34548D01*
X363199Y34626D01*
X361098Y34626D01*
X361000Y34646D01*
X360901Y34626D01*
X360801Y34626D01*
X360741Y34614D01*
X360493Y34976D01*
X360462Y35085D01*
X360445Y35167D01*
X360963Y35841D01*
X361315Y36693D01*
X361436Y37606D01*
X361315Y38520D01*
X360963Y39371D01*
X360402Y40102D01*
X359671Y40663D01*
X358819Y41016D01*
X357906Y41137D01*
D02*
G37*
G36*
X372700Y37837D02*
X371786Y37716D01*
X370935Y37363D01*
X370204Y36803D01*
X369643Y36071D01*
X369290Y35220D01*
X369170Y34306D01*
Y33906D01*
X369290Y32993D01*
X369643Y32141D01*
X370204Y31410D01*
X370935Y30849D01*
X371786Y30496D01*
X372700Y30376D01*
X373614Y30496D01*
X374465Y30849D01*
X375196Y31410D01*
X375757Y32141D01*
X376110Y32993D01*
X376230Y33906D01*
Y34306D01*
X376110Y35220D01*
X375757Y36071D01*
X375196Y36803D01*
X374465Y37363D01*
X373614Y37716D01*
X372700Y37837D01*
D02*
G37*
G36*
X327250Y28150D02*
X323000D01*
Y25106D01*
X329544D01*
Y25856D01*
X329369Y26734D01*
X328872Y27479D01*
X328128Y27976D01*
X327250Y28150D01*
D02*
G37*
G36*
X322000D02*
X317750D01*
X316872Y27976D01*
X316128Y27479D01*
X315631Y26734D01*
X315456Y25856D01*
Y25106D01*
X322000D01*
Y28150D01*
D02*
G37*
G36*
X322500Y24606D02*
D01*
D01*
D01*
D02*
G37*
G36*
X329544Y24106D02*
X323000D01*
Y21062D01*
X327250D01*
X328128Y21237D01*
X328872Y21734D01*
X329369Y22478D01*
X329544Y23356D01*
Y24106D01*
D02*
G37*
G36*
X322000D02*
X315456D01*
Y23356D01*
X315631Y22478D01*
X316128Y21734D01*
X316872Y21237D01*
X317750Y21062D01*
X322000D01*
Y24106D01*
D02*
G37*
%LPD*%
G36*
X363000Y33606D02*
X363199Y33606D01*
X363566Y33454D01*
X363848Y33173D01*
X364000Y32805D01*
X364000Y32607D01*
X364000Y32607D01*
Y29506D01*
X364019Y29311D01*
X364169Y28951D01*
X364444Y28675D01*
X364805Y28526D01*
X365000Y28506D01*
X365000D01*
X376000Y28506D01*
X376199D01*
X376566Y28354D01*
X376848Y28073D01*
X377000Y27705D01*
X377000Y27506D01*
X377000Y27506D01*
X377000Y19606D01*
X377000Y19407D01*
X376848Y19040D01*
X376567Y18758D01*
X376199Y18606D01*
X376000Y18606D01*
X376000D01*
X371000Y18606D01*
X370801Y18606D01*
X370434Y18758D01*
X370152Y19040D01*
X370000Y19407D01*
X370000Y19606D01*
Y19606D01*
X370000Y23506D01*
X369981Y23701D01*
X369831Y24062D01*
X369555Y24338D01*
X369195Y24487D01*
X369000Y24506D01*
X369000Y24506D01*
X361000Y24506D01*
X360801Y24506D01*
X360434Y24658D01*
X360152Y24940D01*
X360000Y25307D01*
X360000Y25506D01*
Y25506D01*
X360000Y32606D01*
X360000Y32805D01*
X360152Y33173D01*
X360434Y33454D01*
X360801Y33606D01*
X361000Y33606D01*
X361000Y33606D01*
X363000Y33606D01*
D02*
G37*
D10*
X85000Y10106D02*
G03*
X82000Y13106I-3000J0D01*
G01*
X119902Y8406D02*
G03*
X119904Y8406I2J7604D01*
G01*
X114527Y10633D02*
G03*
X119902Y8406I5377J5377D01*
G01*
X87417Y24523D02*
G03*
X88500Y27138I-2614J2614D01*
G01*
X62299Y8106D02*
G03*
X73200Y19007I0J10901D01*
G01*
X62200Y9306D02*
G03*
X71500Y18606I0J9300D01*
G01*
X60586Y19106D02*
G03*
X62998Y20104I0J3414D01*
G01*
X49957Y22150D02*
G03*
X53000Y19106I3043J0D01*
G01*
X52500Y30606D02*
G03*
X54000Y29106I1500J0D01*
G01*
X55075Y23374D02*
G03*
X57343Y21106I2268J0D01*
G01*
X17000Y11106D02*
G03*
X21346Y9306I4346J4346D01*
G01*
X62998Y20104D02*
G03*
X63000Y20106I-2412J2417D01*
G01*
X81500Y8606D02*
G03*
X84638Y7306I3138J3138D01*
G01*
X25690Y43602D02*
G03*
X25500Y43606I-190J-3980D01*
G01*
X29480Y39812D02*
G03*
X25690Y43602I-3980J-190D01*
G01*
X29484Y39622D02*
G03*
X29480Y39812I-3984J0D01*
G01*
X24366Y40240D02*
G03*
X21000Y43606I-3366J0D01*
G01*
X359350Y9406D02*
G03*
X361100Y11156I0J1750D01*
G01*
Y11806D02*
G03*
X360181Y14026I-3139J0D01*
G01*
X76500Y8606D02*
G03*
X82294Y6206I5794J5794D01*
G01*
X342112D02*
G03*
X344600Y7237I0J3518D01*
G01*
X347500Y10506D02*
G03*
X345449Y9657I0J-2900D01*
G01*
X342100Y7306D02*
G03*
X343805Y8013I0J2411D01*
G01*
X347500Y9406D02*
G03*
X346221Y8873I0J-1800D01*
G01*
X329000Y28606D02*
X332700D01*
Y37606D01*
Y17906D02*
Y28606D01*
X78031Y37606D02*
X94000D01*
X75000Y13106D02*
X82000D01*
X332700Y17906D02*
X333500Y17106D01*
X313000Y37606D02*
X332700D01*
X357813Y37514D02*
X357906Y37606D01*
X354210Y37514D02*
X357813D01*
X352501Y35805D02*
X354210Y37514D01*
X352501Y32202D02*
Y35805D01*
X350700Y30401D02*
X352501Y32202D01*
X313000Y37606D02*
Y41106D01*
X350700Y24606D02*
Y30401D01*
X356000Y7606D02*
X362000Y7606D01*
X347500Y7606D02*
X356000Y7606D01*
X84500Y41575D02*
X94000D01*
X84500D02*
Y45606D01*
X94000Y37606D02*
Y41575D01*
X67700Y37606D02*
X78031D01*
X67700Y29106D02*
Y37606D01*
X78031Y26106D02*
Y37606D01*
X75000Y13106D02*
Y18106D01*
X82000Y32906D02*
X101000D01*
X83000Y29106D02*
X101000D01*
X119904Y8406D02*
X121000D01*
X108400Y16761D02*
X114527Y10633D01*
X121000Y8406D02*
X339500Y8406D01*
X73200Y19007D02*
Y35106D01*
X86000Y23106D02*
X87417Y24523D01*
X88500Y31075D02*
X98500D01*
X17000Y8106D02*
X62299D01*
X21350Y9306D02*
X62200D01*
X71500Y18606D02*
Y33106D01*
X21346Y9306D02*
X21350Y9306D01*
X49957Y22150D02*
Y35669D01*
X53000Y19106D02*
X60586D01*
X52500Y30606D02*
Y35653D01*
X57343Y21106D02*
X59000D01*
X55075Y23374D02*
Y29106D01*
X54000D02*
X55075D01*
X63000Y20106D02*
X64000Y21106D01*
X52500Y35653D02*
X52516Y35669D01*
X80000Y10106D02*
X81500Y8606D01*
X84638Y7306D02*
X88000D01*
X80000Y10106D02*
Y10106D01*
X29484Y35669D02*
Y39622D01*
X24366Y35669D02*
Y40240D01*
X359700Y14506D02*
X360181Y14026D01*
X361100Y11156D02*
Y11806D01*
X82294Y6206D02*
X342112D01*
X75000Y10106D02*
X76500Y8606D01*
X344600Y7237D02*
X346221Y8873D01*
X344600Y7237D02*
X344600Y7237D01*
X344600Y7237D02*
X344600Y7237D01*
X347500Y10506D02*
X359225D01*
X343805Y8013D02*
X345449Y9657D01*
X88000Y7306D02*
X342100Y7306D01*
X347500Y9406D02*
X359350D01*
X55075Y29106D02*
Y35669D01*
X29484Y34669D02*
Y35669D01*
D11*
X110146Y18061D02*
G03*
X104000Y20606I-6146J-6146D01*
G01*
X115172Y13035D02*
G03*
X122000Y10206I6829J6829D01*
G01*
X85000Y9606D02*
Y10106D01*
X10000Y34606D02*
Y44606D01*
Y24606D02*
Y34606D01*
Y14606D02*
Y24606D01*
Y4606D02*
Y14606D01*
X76063Y20606D02*
X104000D01*
X110146Y18061D02*
X115172Y13035D01*
X122000Y10206D02*
X336500Y10206D01*
X346094Y36756D02*
Y37606D01*
X343691Y34353D02*
X346094Y36756D01*
X343691Y33298D02*
Y34353D01*
X343500Y33106D02*
X343691Y33298D01*
X60193Y32406D02*
Y35669D01*
X361191Y27415D02*
X369191D01*
X371000Y19606D02*
Y25606D01*
X369191Y27415D02*
X371000Y25606D01*
D12*
X100000Y11606D02*
G03*
X96450Y15156I-3550J0D01*
G01*
X68929Y43177D02*
G03*
X61858Y46106I-7071J-7071D01*
G01*
X71017Y41090D02*
G03*
X74600Y39606I3583J3586D01*
G01*
X90000D01*
X92450Y15156D02*
X96450D01*
X100000Y10106D02*
Y11606D01*
X51000Y46106D02*
X61858D01*
X68929Y43177D02*
X71015Y41091D01*
X48625Y46106D02*
X51000D01*
X80050Y15156D02*
X92450D01*
X80000Y15106D02*
X80050Y15156D01*
D13*
X348493Y21836D02*
G03*
X350756Y19573I2263J0D01*
G01*
X359000Y17606D02*
G03*
X357500Y16106I0J-1500D01*
G01*
X356464Y11706D02*
G03*
X357500Y12743I0J1036D01*
G01*
X338481Y13125D02*
G03*
X334658Y14706I-3823J-3833D01*
G01*
X338491Y13115D02*
G03*
X341900Y11706I3409J3419D01*
G01*
X348493Y21836D02*
Y26613D01*
X350756Y19573D02*
X365800D01*
X348793Y26713D02*
X348900Y26606D01*
X359000Y17606D02*
X362200D01*
X334658Y14706D02*
X334658D01*
X323000D02*
X334658D01*
X357500Y12743D02*
Y16106D01*
X338481Y13125D02*
X338491Y13115D01*
X356087Y11706D02*
X356464D01*
X341900D02*
X342729D01*
X342729Y11706D01*
X355673D01*
X355673Y11706D01*
X356087D02*
X356087Y11706D01*
X355673Y11706D02*
X356087D01*
D24*
X322500Y24606D02*
D03*
Y14606D02*
D03*
X10000Y44606D02*
D03*
Y34606D02*
D03*
Y24606D02*
D03*
Y14606D02*
D03*
Y4606D02*
D03*
D32*
X357906Y37606D02*
D03*
X346094D02*
D03*
D33*
X85000Y10106D02*
D03*
X90000Y10106D02*
D03*
X95000Y10106D02*
D03*
X100000Y10106D02*
D03*
X80000Y10106D02*
D03*
X75000Y10106D02*
D03*
D34*
X59500Y43106D02*
D03*
X51500D02*
D03*
X365800Y19573D02*
D03*
X348493Y26613D02*
D03*
X332700Y37606D02*
D03*
X329000Y28606D02*
D03*
X313000Y41106D02*
D03*
X350700Y24606D02*
D03*
X362000Y7606D02*
D03*
X356000D02*
D03*
X333500Y17106D02*
D03*
X330000Y12606D02*
D03*
X347500Y7606D02*
D03*
X84500Y45606D02*
D03*
X94000Y41575D02*
D03*
X89500Y37106D02*
D03*
X79500Y45606D02*
D03*
X74500D02*
D03*
X42279Y40669D02*
D03*
X34602Y37669D02*
D03*
X67700Y29106D02*
D03*
X10000Y34606D02*
D03*
X47398Y32106D02*
D03*
X78031Y26106D02*
D03*
X62500D02*
D03*
X57500D02*
D03*
X52500D02*
D03*
X75000Y18106D02*
D03*
X70500Y7106D02*
D03*
X83000Y29106D02*
D03*
X81968Y32206D02*
D03*
X108400Y16761D02*
D03*
X71400Y33106D02*
D03*
X73000Y35106D02*
D03*
X86000Y23106D02*
D03*
X88500Y31075D02*
D03*
X59000Y21106D02*
D03*
X64000D02*
D03*
X80000Y15106D02*
D03*
X76063Y20606D02*
D03*
X17000Y11106D02*
D03*
Y8106D02*
D03*
X48625Y46106D02*
D03*
X57634Y35669D02*
D03*
X60193Y32106D02*
D03*
X51000Y46106D02*
D03*
X34500Y43606D02*
D03*
X26925Y37606D02*
D03*
X21807D02*
D03*
X44839D02*
D03*
X21000Y43606D02*
D03*
X39720Y37606D02*
D03*
X25500Y43606D02*
D03*
X88500Y27138D02*
D03*
X343500Y28106D02*
D03*
Y30606D02*
D03*
Y33106D02*
D03*
X90000Y39606D02*
D03*
X98500Y31075D02*
D03*
X92450Y15156D02*
D03*
X74500Y39606D02*
D03*
X339500Y9106D02*
D03*
X323000Y14706D02*
D03*
X359300Y11206D02*
D03*
X359700Y14506D02*
D03*
X336500Y10206D02*
D03*
X376000Y19606D02*
D03*
X373500D02*
D03*
X371000D02*
D03*
X361000Y32606D02*
D03*
X362200Y17606D02*
D03*
X355300Y13606D02*
D03*
Y16106D02*
D03*
X361000Y30106D02*
D03*
Y27606D02*
D03*
D35*
X372700Y34106D02*
D03*
Y15106D02*
D03*
D36*
X384000Y9706D02*
D03*
Y39506D02*
D03*
D37*
X37161Y39945D02*
G03*
X34500Y42606I-2661J0D01*
G01*
D02*
G03*
X32043Y40150I0J-2457D01*
G01*
X34500Y42606D02*
Y43606D01*
X32043Y35669D02*
Y40150D01*
X37161Y35669D02*
Y39945D01*
D38*
X42279Y35669D02*
D03*
X47398D02*
D03*
X34602D02*
D03*
X21807D02*
D03*
X26925D02*
D03*
X29484D02*
D03*
X37161D02*
D03*
X39720D02*
D03*
X44839D02*
D03*
X52516D02*
D03*
X55075D02*
D03*
X60193D02*
D03*
X24366D02*
D03*
X32043D02*
D03*
X49957D02*
D03*
X57634D02*
D03*
D39*
X101000Y29106D02*
D03*
X102000Y32906D02*
D03*
M02*
