G04*
G04 #@! TF.GenerationSoftware,Altium Limited,Altium Designer,20.1.7 (139)*
G04*
G04 Layer_Color=16711935*
%FSLAX25Y25*%
%MOIN*%
G70*
G04*
G04 #@! TF.SameCoordinates,AE6903BA-CC81-4101-B740-E620CA86DFFE*
G04*
G04*
G04 #@! TF.FilePolarity,Negative*
G04*
G01*
G75*
%ADD35O,0.05000X0.05400*%
G04:AMPARAMS|DCode=36|XSize=90mil|YSize=68mil|CornerRadius=27.2mil|HoleSize=0mil|Usage=FLASHONLY|Rotation=0.000|XOffset=0mil|YOffset=0mil|HoleType=Round|Shape=RoundedRectangle|*
%AMROUNDEDRECTD36*
21,1,0.09000,0.01360,0,0,0.0*
21,1,0.03560,0.06800,0,0,0.0*
1,1,0.05440,0.01780,-0.00680*
1,1,0.05440,-0.01780,-0.00680*
1,1,0.05440,-0.01780,0.00680*
1,1,0.05440,0.01780,0.00680*
%
%ADD36ROUNDEDRECTD36*%
G04:AMPARAMS|DCode=56|XSize=54mil|YSize=124mil|CornerRadius=14.5mil|HoleSize=0mil|Usage=FLASHONLY|Rotation=270.000|XOffset=0mil|YOffset=0mil|HoleType=Round|Shape=RoundedRectangle|*
%AMROUNDEDRECTD56*
21,1,0.05400,0.09500,0,0,270.0*
21,1,0.02500,0.12400,0,0,270.0*
1,1,0.02900,-0.04750,-0.01250*
1,1,0.02900,-0.04750,0.01250*
1,1,0.02900,0.04750,0.01250*
1,1,0.02900,0.04750,-0.01250*
%
%ADD56ROUNDEDRECTD56*%
%ADD63C,0.05400*%
%ADD64C,0.04400*%
%ADD65C,0.02400*%
G04:AMPARAMS|DCode=66|XSize=20mil|YSize=104mil|CornerRadius=6mil|HoleSize=0mil|Usage=FLASHONLY|Rotation=180.000|XOffset=0mil|YOffset=0mil|HoleType=Round|Shape=RoundedRectangle|*
%AMROUNDEDRECTD66*
21,1,0.02000,0.09200,0,0,180.0*
21,1,0.00800,0.10400,0,0,180.0*
1,1,0.01200,-0.00400,0.04600*
1,1,0.01200,0.00400,0.04600*
1,1,0.01200,0.00400,-0.04600*
1,1,0.01200,-0.00400,-0.04600*
%
%ADD66ROUNDEDRECTD66*%
%ADD67C,0.03400*%
D35*
X372700Y34106D02*
D03*
Y15106D02*
D03*
D36*
X384000Y9706D02*
D03*
Y39506D02*
D03*
D56*
X322500Y24606D02*
D03*
Y14606D02*
D03*
X10000Y44606D02*
D03*
Y34606D02*
D03*
Y24606D02*
D03*
Y14606D02*
D03*
Y4606D02*
D03*
D63*
X357906Y37606D02*
D03*
X346094D02*
D03*
D64*
X85000Y10106D02*
D03*
X90000Y10106D02*
D03*
X95000Y10106D02*
D03*
X100000Y10106D02*
D03*
X80000Y10106D02*
D03*
X75000Y10106D02*
D03*
D65*
X59500Y43106D02*
D03*
X51500D02*
D03*
D66*
X42279Y35669D02*
D03*
X47398D02*
D03*
X34602D02*
D03*
X21807D02*
D03*
X26925D02*
D03*
X29484D02*
D03*
X37161D02*
D03*
X39720D02*
D03*
X44839D02*
D03*
X52516D02*
D03*
X55075D02*
D03*
X60193D02*
D03*
X24366D02*
D03*
X32043D02*
D03*
X49957D02*
D03*
X57634D02*
D03*
D67*
X101000Y29106D02*
D03*
X102000Y32906D02*
D03*
M02*
